# Blender 5.0.1
# www.blender.org
mtllib dado_animales_texturizado.mtl
g Cube_Mesh
v -1.000000 1.000000 1.000000
v -1.000000 -1.000000 1.000000
v -1.000000 1.000000 -1.000000
v -1.000000 -1.000000 -1.000000
v 1.000000 1.000000 1.000000
v 1.000000 -1.000000 1.000000
v 1.000000 1.000000 -1.000000
v 1.000000 -1.000000 -1.000000
vn -0.0000 1.0000 -0.0000
vn -0.0000 -0.0000 -1.0000
vn 1.0000 -0.0000 -0.0000
vn -0.0000 -1.0000 -0.0000
vn -1.0000 -0.0000 -0.0000
vn -0.0000 -0.0000 1.0000
vt 0.740614 0.689354
vt 0.508467 0.979764
vt 0.508467 0.689354
vt 0.738269 0.651508
vt 0.515637 0.348492
vt 0.739510 0.351171
vt 0.491010 0.659231
vt 0.258071 0.343526
vt 0.490961 0.343460
vt 0.745360 0.008764
vt 0.510155 0.314765
vt 0.510155 0.008764
vt 0.993714 0.648664
vt 0.768005 0.340766
vt 0.992794 0.339500
vt 0.240644 0.626783
vt 0.003841 0.368621
vt 0.239095 0.365466
vt 0.740614 0.979764
vt 0.514397 0.648829
vt 0.258120 0.659298
vt 0.745360 0.314765
vt 0.768925 0.649930
vt 0.005391 0.629939
s 0
g off
g Cube_Material
usemtl Material
f 5/1/1 3/2/1 1/3/1
f 3/4/2 8/5/2 4/6/2
f 7/7/3 6/8/3 8/9/3
f 2/10/4 8/11/4 6/12/4
f 1/13/5 4/14/5 2/15/5
f 5/16/6 2/17/6 6/18/6
f 5/1/1 7/19/1 3/2/1
f 3/4/2 7/20/2 8/5/2
f 7/7/3 5/21/3 6/8/3
f 2/10/4 4/22/4 8/11/4
f 1/13/5 3/23/5 4/14/5
f 5/16/6 1/24/6 2/17/6
