# Blender 5.0.1
# www.blender.org
mtllib dado_intensamente_texturizado_optimizado.mtl
g Cube_Mesh
v -1.000000 1.000000 1.000000
v -1.000000 -1.000000 1.000000
v -1.000000 1.000000 -1.000000
v -1.000000 -1.000000 -1.000000
v 1.000000 1.000000 1.000000
v 1.000000 -1.000000 1.000000
v 1.000000 1.000000 -1.000000
v 1.000000 -1.000000 -1.000000
vn -0.0000 1.0000 -0.0000
vn -0.0000 -0.0000 -1.0000
vn 1.0000 -0.0000 -0.0000
vn -0.0000 -1.0000 -0.0000
vn -1.0000 -0.0000 -0.0000
vn -0.0000 -0.0000 1.0000
vt 0.938974 0.515733
vt 0.674222 0.742879
vt 0.674222 0.515733
vt 0.659265 0.985165
vt 0.345657 0.777139
vt 0.662301 0.779114
vt 0.639389 0.227499
vt 0.350767 0.022501
vt 0.640557 0.023464
vt 0.024385 0.736566
vt 0.275062 0.514665
vt 0.274383 0.737327
vt 0.635017 0.740965
vt 0.353909 0.515187
vt 0.635017 0.515187
vt 0.633955 0.493464
vt 0.383623 0.260442
vt 0.633623 0.260131
vt 0.938974 0.742879
vt 0.342621 0.983190
vt 0.349600 0.226536
vt 0.025063 0.513903
vt 0.353909 0.740965
vt 0.383956 0.493775
s 0
g off
g Cube_Material
usemtl Material
f 5/1/1 3/2/1 1/3/1
f 3/4/2 8/5/2 4/6/2
f 7/7/3 6/8/3 8/9/3
f 2/10/4 8/11/4 6/12/4
f 1/13/5 4/14/5 2/15/5
f 5/16/6 2/17/6 6/18/6
f 5/1/1 7/19/1 3/2/1
f 3/4/2 7/20/2 8/5/2
f 7/7/3 5/21/3 6/8/3
f 2/10/4 4/22/4 8/11/4
f 1/13/5 3/23/5 4/14/5
f 5/16/6 1/24/6 2/17/6
