# Blender 5.0.1
# www.blender.org
mtllib foco_pez.mtl
g pasted__polySurface2_pasted__lambert13_0.002_Mesh
v -0.016581 -1.189207 -0.411963
v 0.068635 -1.232279 -0.416867
v 0.144247 -1.137652 -0.485086
v 0.027370 -1.068415 -0.480259
v 0.127559 -1.307568 -0.416373
v 0.219374 -1.042717 -0.577370
v 0.068039 -0.953072 -0.571119
v -0.378965 -1.632231 -0.366297
v -0.108380 -1.162802 -0.407906
v -0.105268 -1.039721 -0.472451
v -0.016581 -1.189207 -0.411963
v 0.027370 -1.068415 -0.480259
v 0.068039 -0.953072 -0.571119
v -0.103701 -0.915917 -0.561011
v 0.284324 -0.959469 -0.688630
v 0.102282 -0.851635 -0.681111
v 0.425609 -1.117130 -0.691017
v 0.499293 -1.070198 -0.818648
v 0.337632 -0.889799 -0.815914
v 0.129338 -0.766413 -0.807309
v -0.314541 -0.826636 -0.653536
v -0.347593 -0.737810 -0.775764
v -0.104306 -0.806940 -0.668951
v 0.102282 -0.851635 -0.681111
v 0.129338 -0.766413 -0.807309
v -0.107042 -0.715273 -0.793401
v 0.377837 -0.835604 -0.956271
v 0.148450 -0.699724 -0.946796
v 0.555867 -1.034267 -0.959276
v 0.594154 -1.010084 -1.109308
v 0.404112 -0.798016 -1.106102
v 0.159247 -0.652968 -1.095988
v 0.707568 -1.271273 -1.104942
v -0.873693 -0.922051 -1.012207
v -0.376775 -0.668223 -0.912054
v -0.660999 -0.734135 -1.035646
v -0.111865 -0.643404 -0.931477
v 0.148450 -0.699724 -0.946796
v 0.159247 -0.652968 -1.095988
v -0.118634 -0.592848 -1.079634
v 0.415633 -0.778175 -1.261813
v 0.161357 -0.627552 -1.251312
v 0.612981 -0.998396 -1.265145
v 0.612123 -0.999334 -1.422896
v 0.412301 -0.776350 -1.419523
v 0.154835 -0.623837 -1.408889
v 0.730754 -1.269623 -1.260607
v 0.762510 -1.571543 -1.406560
v 0.731373 -1.273962 -1.418301
v -0.911285 -0.906977 -1.164314
v -0.690417 -0.711840 -1.188649
v -0.127206 -0.565121 -1.234328
v 0.161357 -0.627552 -1.251312
v 0.154835 -0.623837 -1.408889
v -0.137347 -0.560623 -1.391693
v 0.394013 -0.792807 -1.575350
v 0.139735 -0.642185 -1.564844
v 0.591360 -1.013029 -1.578681
v 0.361400 -0.826923 -1.725501
v 0.116535 -0.681875 -1.715383
v 0.709133 -1.284254 -1.574144
v 0.739883 -1.578150 -1.562546
v 0.694470 -1.583197 -1.713172
v 0.664856 -1.300180 -1.724340
v 0.139735 -0.642185 -1.564844
v 0.116535 -0.681875 -1.715383
v -0.161347 -0.621756 -1.699030
v 0.315095 -0.878069 -1.866188
v 0.085706 -0.742190 -1.856712
v 0.493124 -1.076735 -1.869194
v 0.418052 -1.125181 -1.996812
v 0.256393 -0.944784 -1.994084
v 0.048098 -0.821400 -1.985478
v 0.627109 -1.586537 -1.854640
v -0.174610 -0.685869 -1.841387
v 0.085706 -0.742190 -1.856712
v 0.048098 -0.821400 -1.985478
v -0.188282 -0.770258 -1.971564
v 0.186600 -1.025612 -2.105860
v 0.004557 -0.917776 -2.098337
v 0.327884 -1.183273 -2.108242
v 0.107558 -1.118399 -2.198976
v -0.043776 -1.028753 -2.192724
v -0.202031 -0.873081 -2.086177
v 0.004557 -0.917776 -2.098337
v -0.043776 -1.028753 -2.192724
v -0.215519 -0.991596 -2.182614
v 0.021109 -1.220995 -2.270895
v -0.095769 -1.151758 -2.266067
v 0.111818 -1.322218 -2.272421
v -0.095769 -1.151758 -2.266067
v 0.002224 -1.314610 -0.377808
v 0.022188 -1.375023 -0.372195
v -0.060666 -1.306988 -0.369659
v -0.121964 -1.467367 -0.337113
v -0.316123 -1.518660 -0.346334
v -0.268969 -1.561644 -0.343410
v -0.231350 -1.300600 -0.362355
v -0.167479 -1.300581 -0.362593
v -0.121964 -1.467367 -0.337113
v -0.112412 -1.269617 -0.372001
v -0.060666 -1.306988 -0.369659
v -0.167479 -1.300581 -0.362593
v -0.121964 -1.467367 -0.337113
v 0.108194 -0.810743 -2.110368
v 0.317528 -1.044813 -2.073941
v 0.189540 -1.124573 -2.255954
v 0.030656 -0.977568 -2.277354
v 0.298630 -1.165815 -1.992120
v 0.201110 -1.182217 -2.141195
v 0.119397 -1.255928 -2.229305
v -0.988827 -1.048960 -1.159282
v -1.024207 -1.088844 -1.312985
v -1.005161 -1.007496 -1.410195
v 0.298630 -1.165815 -1.992120
v 0.045317 -1.044500 -1.761564
v -0.036905 -1.027708 -2.014769
v 0.201110 -1.182217 -2.141195
v -0.183397 -0.747166 -1.739022
v -0.252402 -0.856485 -1.975873
v -0.256879 -1.027182 -2.111475
v -0.077999 -1.138720 -2.133120
v 0.119397 -1.255928 -2.229305
v -0.256879 -1.027182 -2.111475
v 0.074674 -1.513497 -0.442637
v 0.099243 -1.301418 -0.418109
v 0.246364 -1.563421 -0.710231
v 0.258717 -1.222647 -0.578923
v -0.845076 -0.870478 -1.447178
v -0.892261 -0.991346 -1.301543
v -0.947432 -1.039570 -1.387389
v -0.933083 -0.973696 -1.496703
v -0.918157 -0.775238 -1.410064
v -0.974369 -0.887459 -1.477145
v -0.845076 -0.870478 -1.447178
v -0.933083 -0.973696 -1.496703
v 0.776772 -1.538151 -1.787522
v 0.878974 -1.584837 -1.728592
v -0.056916 -1.272570 -2.268727
v -0.175650 -1.203829 -2.204029
v -0.166718 -1.174959 -2.263892
v -0.045126 -1.260620 -2.330630
v -0.075854 -1.242228 -2.201713
v 0.045739 -1.327883 -2.268449
v -0.056916 -1.272570 -2.268727
v 0.054670 -1.299017 -2.328313
v 0.045739 -1.327883 -2.268449
v -0.045614 -1.396517 -0.344145
v -0.164768 -1.507424 -0.333232
v -0.034199 -1.630726 -0.456941
v 0.074674 -1.513497 -0.442637
v -0.177835 -1.501759 -0.507712
v 0.044549 -1.628504 -0.756056
v 0.246364 -1.563421 -0.710231
v 0.785706 -1.614758 -1.628587
v 0.671925 -1.649088 -1.777428
v 0.627232 -1.594908 -1.619792
v 0.567537 -1.648174 -1.820536
v 0.546133 -1.658728 -1.937800
v 0.301792 -0.464090 -0.433026
v 0.207632 -0.267843 -0.348200
v -0.040612 -0.580675 -0.337751
v 0.220477 -0.685171 -0.441725
v 0.185826 0.073490 0.126731
v 0.023858 -0.046080 0.163316
v -0.335873 -1.026190 -0.734928
v -0.153740 -1.201380 -0.694019
v -0.374872 -0.581751 -0.948094
v -0.389716 -0.787760 -1.085509
v -0.645956 -0.827711 -1.175630
v -0.660104 -0.662085 -1.090600
v -0.149769 -0.752230 -1.117854
v -0.186254 -1.039446 -1.031510
v -0.489453 -0.950846 -0.991613
v -0.389716 -0.787760 -1.085509
v -0.567447 -0.964792 -0.823571
v -0.782663 -0.972721 -0.933747
v -0.714150 -0.960255 -1.074970
v -0.645956 -0.827711 -1.175630
v -0.827301 -0.713347 -1.262903
v -0.773555 -0.838553 -1.318170
v -0.831459 -0.969332 -1.187844
v -0.773555 -0.838553 -1.318170
v -0.915717 -1.005516 -1.039262
v 0.487428 -1.509243 -1.697954
v 0.544100 -1.605669 -1.886362
v 0.548001 -1.474871 -1.917485
v 0.529832 -1.600393 -1.985553
v 0.548001 -1.474871 -1.917485
v 0.634164 -1.432085 -1.890518
v 0.166565 -1.324411 -1.288405
v 0.405709 -1.419168 -0.984437
v -0.071047 -0.754648 -1.342728
v 0.419708 -1.265800 -1.770087
v 0.565135 -1.517637 -1.355495
v 0.641186 -1.476179 -1.148137
v 0.514746 -1.011683 -1.711782
v 0.419708 -1.265800 -1.770087
v 0.982689 -1.449017 -1.499811
v 0.068635 -1.176177 -0.416867
v 0.144247 -1.081549 -0.485086
v 0.127559 -1.251465 -0.416373
v 0.234959 -1.182772 -0.486616
v 0.336827 -1.117682 -0.579353
v 0.219374 -0.986615 -0.577370
v 0.171392 -1.336432 -0.416475
v 0.289092 -1.307440 -0.484532
v 0.174962 -1.431830 -0.411227
v 0.303227 -1.442530 -0.479202
v 0.425221 -1.454018 -0.569752
v 0.406919 -1.279105 -0.576652
v 0.160642 -1.526259 -0.406875
v 0.273939 -1.575014 -0.471000
v 0.107521 -1.605305 -0.398481
v 0.206100 -1.692368 -0.460844
v 0.299460 -1.777510 -0.545982
v 0.387300 -1.625559 -0.559132
v 0.040491 -1.673144 -0.391734
v 0.104577 -1.782063 -0.449657
v -0.049003 -1.705631 -0.383006
v -0.019324 -1.836855 -0.438556
v 0.007579 -1.964594 -0.517123
v 0.168009 -1.893648 -0.531498
v -0.143167 -1.720988 -0.376839
v -0.154303 -1.849501 -0.428657
v -0.234824 -1.694487 -0.370713
v -0.286941 -1.820805 -0.420851
v -0.338933 -1.943811 -0.494198
v -0.167193 -1.980968 -0.504306
v -0.320182 -1.651514 -0.367874
v -0.403819 -1.751572 -0.416022
v -0.378965 -1.576128 -0.366297
v -0.494529 -1.650347 -0.414492
v -0.607721 -1.723101 -0.485962
v -0.490269 -1.854166 -0.487944
v -0.422941 -1.491257 -0.368266
v -0.548664 -1.525679 -0.416577
v -0.426368 -1.395764 -0.371446
v -0.562798 -1.390589 -0.421906
v -0.696116 -1.386765 -0.495563
v -0.677814 -1.561678 -0.488663
v -0.412190 -1.301432 -0.377869
v -0.533511 -1.258105 -0.430108
v -0.358927 -1.222287 -0.384192
v -0.465671 -1.140751 -0.440264
v -0.570355 -1.063273 -0.519335
v -0.658194 -1.215224 -0.506185
v -0.292038 -1.154544 -0.393009
v -0.364149 -1.051057 -0.451451
v -0.202403 -1.121960 -0.399669
v -0.240246 -0.996262 -0.462552
v -0.278473 -0.876188 -0.548194
v -0.438902 -0.947135 -0.533818
v -0.108380 -1.106700 -0.407906
v -0.105268 -0.983618 -0.472451
v -0.103701 -0.859814 -0.561011
v 0.284324 -0.903367 -0.688630
v 0.425609 -1.061028 -0.691017
v 0.499293 -1.014096 -0.818648
v 0.509925 -1.255204 -0.687769
v 0.531941 -1.465611 -0.679467
v 0.620959 -1.477022 -0.805432
v 0.595769 -1.236273 -0.814931
v 0.486322 -1.671959 -0.666690
v 0.380660 -1.854742 -0.650872
v 0.447862 -1.922270 -0.772714
v 0.568762 -1.713129 -0.790809
v 0.222536 -1.994444 -0.633450
v 0.029554 -2.079788 -0.616160
v 0.046124 -2.179769 -0.733000
v 0.266934 -2.082121 -0.752780
v -0.180681 -2.099483 -0.600745
v -0.387270 -2.054788 -0.588582
v -0.430811 -2.151165 -0.701442
v -0.194430 -2.202307 -0.715359
v -0.569313 -1.946955 -0.581061
v -0.710597 -1.789294 -0.578676
v -0.800765 -1.847382 -0.690107
v -0.639105 -2.027780 -0.692837
v -0.794913 -1.595116 -0.581925
v -0.816928 -1.384711 -0.590225
v -0.922430 -1.384455 -0.703322
v -0.897240 -1.625204 -0.693823
v -0.771312 -1.178362 -0.603003
v -0.665648 -0.995579 -0.618820
v -0.749335 -0.939208 -0.736040
v -0.870236 -1.148348 -0.717941
v -0.507523 -0.855875 -0.636247
v -0.314541 -0.770534 -0.653536
v -0.347593 -0.681708 -0.775764
v -0.568404 -0.779357 -0.755982
v -0.104306 -0.750838 -0.668951
v 0.555867 -0.978165 -0.959276
v 0.662112 -1.222842 -0.955186
v 0.689852 -1.487967 -0.944723
v 0.737181 -1.498186 -1.093773
v 0.707568 -1.215170 -1.104942
v 0.632371 -1.747984 -0.928623
v 0.499227 -1.978302 -0.908695
v 0.533693 -2.021608 -1.055312
v 0.675821 -1.775747 -1.076590
v 0.299979 -2.154339 -0.886742
v 0.056809 -2.261877 -0.864958
v 0.061422 -2.324316 -1.008628
v 0.321001 -2.209524 -1.031883
v -0.208102 -2.286695 -0.845534
v -0.468418 -2.230375 -0.830210
v -0.499246 -2.290689 -0.971534
v -0.221364 -2.350811 -0.987892
v -0.697806 -2.094496 -0.820731
v -0.875834 -1.895832 -0.817725
v -0.934154 -1.933571 -0.958209
v -0.744111 -2.145643 -0.961418
v -0.982078 -1.651156 -0.821819
v -1.009819 -1.386029 -0.832278
v -1.077178 -1.389369 -0.973747
v -1.047566 -1.672384 -0.962579
v -0.952339 -1.126013 -0.848378
v -0.819195 -0.895695 -0.868310
v -0.873693 -0.865948 -1.012207
v -1.015820 -1.111807 -0.990933
v -0.619947 -0.719657 -0.890269
v -0.376775 -0.612121 -0.912054
v -0.401420 -0.563239 -1.058902
v -0.660999 -0.678033 -1.035646
v -0.111865 -0.587302 -0.931477
v -0.118634 -0.536746 -1.079634
v 0.612981 -0.942294 -1.265145
v 0.612123 -0.943232 -1.422896
v 0.412301 -0.720248 -1.419522
v 0.730754 -1.213521 -1.260607
v 0.761504 -1.507414 -1.249012
v 0.762510 -1.515440 -1.406560
v 0.731373 -1.217860 -1.418301
v 0.697786 -1.795645 -1.231167
v 0.550196 -2.050955 -1.209076
v 0.548552 -2.065798 -1.366123
v 0.697993 -1.807284 -1.388492
v 0.329327 -2.246094 -1.184739
v 0.059771 -2.365299 -1.160591
v 0.051976 -2.384084 -1.317031
v 0.324912 -2.263384 -1.341480
v -0.233884 -2.392811 -1.139060
v -0.522446 -2.330381 -1.122076
v -0.537544 -2.348726 -1.278035
v -0.245364 -2.411941 -1.295229
v -0.776723 -2.179756 -1.111573
v -0.974070 -1.959535 -1.108242
v -0.994833 -1.973230 -1.264028
v -0.795010 -2.196214 -1.267399
v -1.091842 -1.688309 -1.112779
v -1.122593 -1.394415 -1.124376
v -1.145219 -1.401022 -1.280363
v -1.114082 -1.698603 -1.268623
v -1.058876 -1.106184 -1.142219
v -0.911285 -0.850874 -1.164314
v -0.931261 -0.850664 -1.320801
v -1.080702 -1.109177 -1.298432
v -0.690417 -0.655738 -1.188649
v -0.420860 -0.536531 -1.212797
v -0.434686 -0.532378 -1.369891
v -0.707623 -0.653079 -1.345438
v -0.127206 -0.509019 -1.234328
v 0.161357 -0.571450 -1.251312
v 0.154835 -0.567735 -1.408889
v -0.137347 -0.504521 -1.391693
v 0.394013 -0.736705 -1.575350
v 0.591360 -0.956927 -1.578681
v 0.551444 -0.982890 -1.728709
v 0.361400 -0.770822 -1.725501
v 0.709133 -1.228152 -1.574144
v 0.739883 -1.522047 -1.562546
v 0.694470 -1.527094 -1.713172
v 0.664856 -1.244078 -1.724340
v 0.676166 -1.810276 -1.544702
v 0.528575 -2.065588 -1.522608
v 0.490983 -2.050514 -1.674714
v 0.633109 -1.804655 -1.695986
v 0.307707 -2.260727 -1.498274
v 0.038150 -2.379932 -1.474124
v 0.018709 -2.353223 -1.628021
v 0.278288 -2.238431 -1.651276
v -0.255505 -2.407444 -1.452594
v -0.544067 -2.345012 -1.435611
v -0.541957 -2.319597 -1.590936
v -0.264078 -2.379718 -1.607289
v -0.798343 -2.194389 -1.425110
v -0.995689 -1.974169 -1.421780
v -0.976861 -1.962476 -1.577615
v -0.786821 -2.174549 -1.580821
v -1.113460 -1.702942 -1.426317
v -1.144212 -1.409049 -1.437911
v -1.119888 -1.418276 -1.593149
v -1.090273 -1.701292 -1.581987
v -1.080496 -1.120818 -1.455758
v -0.932906 -0.865507 -1.477848
v -0.916403 -0.894856 -1.631609
v -1.058530 -1.140715 -1.610336
v -0.712038 -0.670371 -1.502183
v -0.442481 -0.551164 -1.526331
v -0.444133 -0.592147 -1.678294
v -0.703712 -0.706941 -1.655042
v -0.148827 -0.523652 -1.547861
v 0.139735 -0.586083 -1.564844
v 0.116535 -0.625773 -1.715383
v -0.161347 -0.565654 -1.699030
v 0.315095 -0.821967 -1.866188
v 0.493124 -1.020632 -1.869194
v 0.418052 -1.069079 -1.996812
v 0.599368 -1.265307 -1.865101
v 0.627109 -1.530434 -1.854640
v 0.539718 -1.532007 -1.983597
v 0.514528 -1.291258 -1.993097
v 0.569629 -1.790449 -1.838541
v 0.436484 -2.020769 -1.818610
v 0.366622 -1.977255 -1.950880
v 0.487523 -1.768114 -1.968978
v 0.237235 -2.196805 -1.796654
v -0.005936 -2.304342 -1.774869
v -0.035119 -2.234754 -1.911157
v 0.185693 -2.137105 -1.930942
v -0.270847 -2.329162 -1.755446
v -0.531161 -2.272842 -1.740130
v -0.512048 -2.206150 -1.879612
v -0.275669 -2.257291 -1.893523
v -0.760546 -2.136961 -1.730654
v -0.938574 -1.938297 -1.727650
v -0.882001 -1.902367 -1.868284
v -0.720342 -2.082765 -1.871009
v -1.044818 -1.693621 -1.731743
v -1.072559 -1.428494 -1.742203
v -1.003668 -1.439440 -1.881498
v -0.978476 -1.680189 -1.871999
v -1.015079 -1.168478 -1.758302
v -0.881937 -0.938161 -1.778230
v -0.830571 -0.994193 -1.914212
v -0.951471 -1.203333 -1.896116
v -0.682690 -0.762124 -1.800183
v -0.439520 -0.654586 -1.821965
v -0.428834 -0.736693 -1.953924
v -0.649644 -0.834342 -1.934144
v -0.174610 -0.629767 -1.841387
v 0.085706 -0.686088 -1.856712
v 0.048098 -0.765298 -1.985478
v -0.188282 -0.714156 -1.971564
v 0.186600 -0.969510 -2.105860
v 0.327884 -1.127171 -2.108242
v 0.225009 -1.193362 -2.200955
v 0.107558 -1.062296 -2.198976
v 0.412201 -1.321347 -2.104995
v 0.434215 -1.531752 -2.096693
v 0.313403 -1.529698 -2.191352
v 0.295102 -1.354784 -2.198252
v 0.388599 -1.738100 -2.083919
v 0.282937 -1.920883 -2.068101
v 0.187643 -1.853190 -2.167587
v 0.275482 -1.701239 -2.180734
v 0.124811 -2.060586 -2.050676
v -0.068170 -2.145929 -2.033386
v -0.104238 -2.040273 -2.138726
v 0.056191 -1.969328 -2.153101
v -0.278404 -2.165624 -2.017970
v -0.484991 -2.120929 -2.005811
v -0.450750 -2.019491 -2.115803
v -0.279009 -2.056648 -2.125909
v -0.667034 -2.013093 -1.998293
v -0.808318 -1.855435 -1.995910
v -0.719536 -1.798781 -2.107569
v -0.602084 -1.929848 -2.109551
v -0.892634 -1.661257 -1.999157
v -0.914649 -1.450852 -2.007460
v -0.807931 -1.462445 -2.117172
v -0.789629 -1.637358 -2.110268
v -0.869032 -1.244503 -2.020234
v -0.763369 -1.061720 -2.036051
v -0.682170 -1.138953 -2.140938
v -0.770010 -1.290904 -2.127791
v -0.605246 -0.922017 -2.053472
v -0.412265 -0.836677 -2.070761
v -0.390290 -0.951869 -2.169795
v -0.550719 -1.022814 -2.155422
v -0.202031 -0.816979 -2.086177
v 0.004557 -0.861673 -2.098337
v -0.215519 -0.935494 -2.182614
v 0.021109 -1.164893 -2.270895
v -0.095769 -1.095656 -2.266067
v 0.111818 -1.266116 -2.272421
v -0.003747 -1.340334 -2.320618
v -0.062528 -1.264950 -2.319041
v -0.147886 -1.221976 -2.316203
v 0.165952 -1.390786 -2.270338
v 0.180088 -1.525873 -2.265008
v 0.043656 -1.520701 -2.315469
v 0.040228 -1.425206 -2.318646
v 0.150800 -1.658358 -2.256809
v 0.082961 -1.775711 -2.246653
v -0.023784 -1.694176 -2.302723
v 0.029479 -1.615032 -2.309048
v -0.018562 -1.865406 -2.235465
v -0.142464 -1.920199 -2.224364
v -0.180310 -1.794502 -2.287246
v -0.090672 -1.761919 -2.293906
v -0.277442 -1.932844 -2.214466
v -0.410080 -1.904148 -2.206661
v -0.366131 -1.783358 -2.274955
v -0.274331 -1.809763 -2.279009
v -0.526958 -1.834915 -2.201833
v -0.617668 -1.733690 -2.200301
v -0.510270 -1.664999 -2.270541
v -0.451346 -1.740288 -2.270048
v -0.671803 -1.609022 -2.202386
v -0.685937 -1.473933 -2.207716
v -0.557674 -1.484635 -2.275687
v -0.554103 -1.580031 -2.270440
v -0.656650 -1.341448 -2.215918
v -0.588810 -1.224095 -2.226074
v -0.490232 -1.311158 -2.288435
v -0.543353 -1.390206 -2.280042
v -0.487288 -1.134400 -2.237259
v -0.363387 -1.079607 -2.248358
v -0.333708 -1.210831 -2.303910
v -0.423202 -1.243317 -2.295181
v -0.228407 -1.066962 -2.258258
v -0.095769 -1.095656 -2.266067
v -0.147886 -1.221976 -2.316203
v -0.239544 -1.195475 -2.310077
v 0.002224 -1.258507 -0.377808
v 0.022188 -1.318921 -0.372195
v 0.068771 -1.362292 -0.377551
v 0.049436 -1.422597 -0.369237
v 0.022188 -1.318921 -0.372195
v -0.121964 -1.411265 -0.337113
v 0.061809 -1.485224 -0.371334
v 0.010669 -1.522312 -0.361910
v 0.049436 -1.422597 -0.369237
v -0.121964 -1.411265 -0.337113
v -0.016002 -1.580349 -0.361529
v -0.079303 -1.579981 -0.353015
v 0.010669 -1.522312 -0.361910
v -0.121964 -1.411265 -0.337113
v -0.134940 -1.611332 -0.351883
v -0.186115 -1.573576 -0.345948
v -0.079303 -1.579981 -0.353015
v -0.121964 -1.411265 -0.337113
v -0.249577 -1.566340 -0.346078
v -0.268969 -1.505541 -0.343410
v -0.186115 -1.573576 -0.345948
v -0.121964 -1.411265 -0.337113
v -0.316123 -1.462558 -0.346334
v -0.296217 -1.401866 -0.346370
v -0.268969 -1.505541 -0.343410
v -0.121964 -1.411265 -0.337113
v -0.309161 -1.339625 -0.352551
v -0.257452 -1.302149 -0.353697
v -0.296217 -1.401866 -0.346370
v -0.121964 -1.411265 -0.337113
v -0.231350 -1.244498 -0.362355
v -0.167479 -1.244479 -0.362593
v -0.257452 -1.302149 -0.353697
v -0.121964 -1.411265 -0.337113
v -0.112412 -1.213515 -0.372001
v -0.167479 -1.244479 -0.362593
v -0.133135 -1.350123 -2.340839
v -0.196596 -1.342886 -2.340966
v -0.113742 -1.410921 -2.343505
v -0.260747 -1.505198 -2.349803
v -0.066589 -1.453906 -2.340583
v -0.113742 -1.410921 -2.343505
v -0.086494 -1.514597 -2.340545
v -0.260747 -1.505198 -2.349803
v -0.073550 -1.576838 -2.334366
v -0.086494 -1.514597 -2.340545
v -0.125260 -1.614313 -2.333218
v -0.260747 -1.505198 -2.349803
v -0.151360 -1.671963 -2.324562
v -0.125260 -1.614313 -2.333218
v -0.215233 -1.671982 -2.324321
v -0.260747 -1.505198 -2.349803
v -0.270300 -1.702948 -2.314914
v -0.215233 -1.671982 -2.324321
v -0.322045 -1.665577 -2.317258
v -0.260747 -1.505198 -2.349803
v -0.384936 -1.657953 -2.309110
v -0.322045 -1.665577 -2.317258
v -0.404899 -1.597542 -2.314721
v -0.260747 -1.505198 -2.349803
v -0.451482 -1.554171 -2.309367
v -0.404899 -1.597542 -2.314721
v -0.432147 -1.493866 -2.317681
v -0.260747 -1.505198 -2.349803
v -0.444520 -1.431239 -2.315583
v -0.432147 -1.493866 -2.317681
v -0.393381 -1.394148 -2.325008
v -0.260747 -1.505198 -2.349803
v -0.366710 -1.336113 -2.325386
v -0.393381 -1.394148 -2.325008
v -0.303409 -1.336480 -2.333900
v -0.260747 -1.505198 -2.349803
v -0.247771 -1.305128 -2.335035
v -0.303409 -1.336480 -2.333900
v -0.196596 -1.342886 -2.340966
v -0.260747 -1.505198 -2.349803
v 0.108194 -0.754642 -2.110368
v 0.317528 -0.988711 -2.073941
v 0.189540 -1.068470 -2.255954
v 0.030656 -0.921465 -2.277354
v 0.298630 -1.109713 -1.992120
v 0.201110 -1.126114 -2.141195
v 0.119397 -1.199826 -2.229305
v 0.109137 -1.163620 -2.320015
v -0.031117 -1.068787 -2.337182
v -0.988827 -0.992857 -1.159282
v -1.037713 -0.867680 -1.170563
v -1.065493 -0.946509 -1.293426
v -1.024207 -1.032742 -1.312985
v -1.019514 -0.732234 -1.289325
v -1.051144 -0.880633 -1.402741
v -1.005161 -0.951394 -1.410195
v -0.202954 -0.974421 -2.222533
v -0.173269 -0.807889 -2.123698
v -0.256879 -0.971079 -2.111475
v -0.252402 -0.800384 -1.975873
v -0.183397 -0.691064 -1.739022
v -0.115017 -0.594073 -1.830843
v -0.045614 -1.340415 -0.344145
v 0.074674 -1.457394 -0.442637
v 0.099243 -1.245316 -0.418109
v -0.031327 -1.122012 -0.294399
v 0.246364 -1.507319 -0.710231
v 0.258717 -1.166545 -0.578923
v 0.074180 -0.925551 -0.398522
v -1.019514 -0.732234 -1.289325
v -0.918157 -0.719136 -1.410064
v -0.974369 -0.831357 -1.477145
v -1.051144 -0.880633 -1.402741
v -0.845076 -0.814376 -1.447178
v -0.933083 -0.917594 -1.496703
v -1.005161 -0.951394 -1.410195
v 0.776772 -1.482048 -1.787522
v 0.878974 -1.528734 -1.728592
v 0.731616 -1.594010 -1.864148
v 0.642152 -1.593351 -1.928935
v 0.875511 -1.548460 -1.696262
v 0.689612 -1.598559 -1.849388
v 0.546133 -1.602625 -1.937800
v -0.056916 -1.216467 -2.268727
v -0.166718 -1.118857 -2.263892
v -0.045126 -1.204518 -2.330630
v 0.054670 -1.242915 -2.328313
v -0.045614 -1.340415 -0.344145
v -0.164768 -1.451321 -0.333232
v -0.034199 -1.574623 -0.456941
v -0.177835 -1.445657 -0.507712
v 0.074180 -0.925551 -0.398522
v -0.113246 -1.051085 -0.370155
v -0.140199 -1.239241 -0.308706
v -0.031327 -1.122012 -0.294399
v 0.875511 -1.548460 -1.696262
v 0.785706 -1.558655 -1.628587
v 0.671925 -1.592985 -1.777428
v 0.689612 -1.598559 -1.849388
v 0.627232 -1.538805 -1.619792
v 0.546133 -1.602625 -1.937800
v 0.852475 -1.099873 -1.169403
v 0.730425 -1.188439 -1.023823
v 0.904630 -1.311017 -1.186476
v 1.004121 -1.286894 -1.283783
v 0.641186 -1.420077 -1.148137
v 0.881007 -1.442389 -1.282391
v 0.975980 -1.401307 -1.353109
v -0.065552 -0.307796 -1.207424
v 0.169492 -0.560393 -1.795458
v -0.071047 -0.698547 -1.342728
v -0.149769 -0.696128 -1.117854
v -0.125418 -0.423747 -0.949122
v -0.170012 -0.336999 -0.615019
v -0.084630 -0.210256 -0.525088
v -0.128151 0.131987 0.025930
v -0.108452 0.033404 -0.538828
v -0.023219 0.059873 -0.605662
v 0.048223 -0.167583 -1.173809
v 0.179202 -0.374831 -1.487097
v 0.301792 -0.407989 -0.433026
v 0.207632 -0.211742 -0.348200
v -0.040612 -0.524574 -0.337751
v 0.220477 -0.629069 -0.441725
v 0.185826 0.129592 0.126731
v 0.023858 0.010022 0.163316
v -0.128151 0.131987 0.025930
v -0.084630 -0.210256 -0.525088
v -0.170012 -0.336999 -0.615019
v -0.251527 -0.607768 -0.555104
v -0.335873 -0.970088 -0.734928
v -0.153740 -1.145278 -0.694019
v 0.491881 -0.579450 -0.977162
v 0.359347 -0.474616 -1.295182
v 0.246241 -0.173560 -0.754721
v 0.424699 -0.492234 -0.641309
v 0.048223 -0.167583 -1.173809
v -0.023219 0.059873 -0.605662
v 0.117662 0.066258 -0.385510
v -0.374872 -0.525649 -0.948094
v -0.424219 -0.447322 -0.769173
v -0.389716 -0.731658 -1.085509
v -0.660104 -0.605983 -1.090600
v -0.715104 -0.543906 -0.953286
v -0.567447 -0.908690 -0.823571
v -0.782663 -0.916619 -0.933747
v -0.517057 -0.667274 -0.738545
v -0.424219 -0.447322 -0.769173
v -0.715104 -0.543906 -0.953286
v -0.769468 -0.721992 -0.897093
v -0.827301 -0.657245 -1.262903
v -0.910518 -0.629434 -1.133088
v -0.915717 -0.949414 -1.039262
v -0.941030 -0.790816 -1.039776
v -0.910518 -0.629434 -1.133088
v 0.548001 -1.418768 -1.917485
v 0.634164 -1.375983 -1.890518
v 0.603792 -1.550593 -1.973085
v 0.529832 -1.544291 -1.985553
v 0.489473 -0.962107 -0.735213
v 0.220477 -0.629069 -0.441725
v 0.405709 -1.363066 -0.984437
v 0.635300 -0.859720 -1.062548
v 0.424699 -0.492234 -0.641309
v 0.301792 -0.407989 -0.433026
v 0.565135 -1.461535 -1.355495
v 0.641186 -1.420077 -1.148137
v 0.820063 -1.228627 -1.527769
v 0.514746 -0.955580 -1.711782
v 0.994752 -1.478815 -1.511560
v 0.982689 -1.392914 -1.499811
v 0.848383 -1.516695 -1.446666
v 0.881007 -1.442389 -1.282391
v 0.994752 -1.478815 -1.511560
v 0.975980 -1.401307 -1.353109
vn 0.1958 0.3824 0.9030
vn 0.2550 0.3082 0.9165
vn 0.2943 0.4671 0.8338
vn 0.2389 0.5014 0.8316
vn 0.4087 0.5550 0.7246
vn 0.2776 0.6117 0.7408
vn 0.1489 0.4022 0.9034
vn 0.1958 0.3823 0.9031
vn 0.1727 0.5210 0.8359
vn 0.2775 0.6117 0.7408
vn 0.1906 0.6372 0.7467
vn 0.4888 0.5976 0.6355
vn 0.3115 0.7124 0.6288
vn 0.5449 0.4853 0.6837
vn 0.6612 0.5914 0.4616
vn 0.5609 0.6647 0.4935
vn 0.3377 0.7955 0.5031
vn 0.3114 0.7125 0.6288
vn 0.1199 0.7757 0.6197
vn 0.0853 0.8513 0.5177
vn -0.0295 0.8077 0.5888
vn -0.0374 0.8513 0.5234
vn 0.5993 0.7165 0.3572
vn 0.3559 0.8592 0.3676
vn 0.7509 0.5668 0.3389
vn 0.8226 0.5280 0.2112
vn 0.6238 0.7517 0.2142
vn 0.3658 0.9030 0.2252
vn 0.9015 0.3961 0.1744
vn 0.1350 0.9039 0.4060
vn -0.0463 0.8848 0.4636
vn 0.3558 0.8592 0.3676
vn 0.2204 0.9368 0.2716
vn 0.6344 0.7700 0.0680
vn 0.3677 0.9266 0.0790
vn 0.8199 0.5666 0.0818
vn 0.7446 0.6674 -0.0080
vn 0.5922 0.8041 -0.0532
vn 0.3615 0.9299 -0.0683
vn 0.9442 0.3257 0.0490
vn 0.9946 0.1041 0.0010
vn 0.9740 0.2264 -0.0024
vn -0.6298 0.7426 0.2276
vn -0.6314 0.7411 0.2280
vn -0.6303 0.7415 0.2301
vn -0.6294 0.7423 0.2297
vn 0.2902 0.9567 0.0240
vn 0.2131 0.9769 0.0139
vn 0.3223 0.9395 0.1162
vn 0.2818 0.9515 -0.1233
vn 0.4899 0.8434 -0.2206
vn 0.3475 0.9129 -0.2142
vn 0.5180 0.7658 -0.3811
vn 0.3258 0.8759 -0.3559
vn 0.9071 0.3913 -0.1553
vn 0.9492 0.2746 -0.1536
vn 0.9461 0.2287 -0.2295
vn 0.9621 0.0909 -0.2572
vn 0.9289 0.0841 -0.3605
vn 0.9289 0.1892 -0.3183
vn 0.8775 0.3753 -0.2985
vn 0.2020 0.9702 -0.1337
vn 0.3169 0.9480 -0.0301
vn 0.2667 0.9261 -0.2670
vn 0.5303 0.6851 -0.4994
vn 0.2968 0.8191 -0.4909
vn 0.6640 0.6058 -0.4383
vn 0.5530 0.5082 -0.6603
vn 0.4838 0.6125 -0.6252
vn 0.2607 0.7433 -0.6161
vn 0.9001 0.0796 -0.4284
vn 0.1704 0.8924 -0.4179
vn 0.2850 0.9019 -0.3245
vn 0.2201 0.8206 -0.5274
vn 0.1486 0.8223 -0.5493
vn 0.2580 0.8460 -0.4666
vn 0.1900 0.7438 -0.6408
vn 0.3942 0.5641 -0.7255
vn 0.2179 0.6491 -0.7288
vn 0.5321 0.4949 -0.6870
vn 0.2748 0.4565 -0.8462
vn 0.1696 0.5386 -0.8253
vn 0.1231 0.7310 -0.6712
vn 0.2233 0.7660 -0.6028
vn 0.1560 0.6513 -0.7426
vn 0.0943 0.6202 -0.7788
vn 0.1815 0.6642 -0.7252
vn 0.0795 0.5907 -0.8030
vn 0.2775 0.3876 -0.8791
vn 0.1464 0.4280 -0.8919
vn 0.3392 0.3354 -0.8789
vn 0.0900 0.4314 -0.8976
vn 0.2565 0.2300 0.9388
vn 0.1789 0.2166 0.9597
vn 0.1307 0.2080 0.9694
vn 0.0687 0.0465 0.9966
vn 0.1665 0.1321 0.9772
vn -0.1316 -0.0775 0.9883
vn -0.1259 -0.0929 0.9877
vn -0.1455 -0.0926 0.9850
vn 0.0540 0.0390 0.9978
vn 0.0166 0.1666 0.9859
vn 0.0036 0.1520 0.9884
vn 0.1137 0.2336 0.9657
vn 0.0687 0.0467 0.9965
vn 0.0538 0.1762 0.9829
vn 0.3859 0.3215 0.8647
vn 0.3985 0.2293 0.8880
vn 0.4756 0.3070 0.8244
vn 0.4335 0.3618 0.8254
vn 0.5729 0.3692 0.7318
vn 0.4948 0.4211 0.7602
vn 0.4179 0.1355 0.8983
vn 0.5375 0.1649 0.8270
vn 0.4271 0.0215 0.9040
vn 0.5535 0.0108 0.8328
vn 0.6701 -0.0004 0.7423
vn 0.6509 0.1920 0.7345
vn 0.4051 -0.0907 0.9098
vn 0.5202 -0.1403 0.8424
vn 0.3457 -0.1880 0.9193
vn 0.4427 -0.2741 0.8537
vn 0.5319 -0.3559 0.7684
vn 0.6293 -0.1893 0.7538
vn 0.2620 -0.2656 0.9278
vn 0.3270 -0.3765 0.8668
vn 0.1566 -0.3092 0.9380
vn 0.1856 -0.4389 0.8792
vn 0.2112 -0.5614 0.8001
vn 0.3880 -0.4843 0.7842
vn 0.0432 -0.3226 0.9455
vn 0.0317 -0.4535 0.8907
vn -0.0678 -0.2957 0.9529
vn -0.1195 -0.4206 0.8994
vn -0.1696 -0.5386 0.8253
vn 0.0191 -0.5804 0.8141
vn -0.1677 -0.2399 0.9562
vn -0.2529 -0.3417 0.9051
vn -0.2449 -0.1603 0.9562
vn -0.3562 -0.2262 0.9066
vn -0.4649 -0.2961 0.8344
vn -0.3365 -0.4409 0.8321
vn -0.2901 -0.0490 0.9557
vn -0.4181 -0.0841 0.9045
vn -0.2991 0.0651 0.9520
vn -0.4341 0.0700 0.8982
vn -0.5621 0.0735 0.8238
vn -0.5429 -0.1190 0.8313
vn -0.2773 0.1772 0.9443
vn -0.4008 0.2211 0.8891
vn -0.2177 0.2746 0.9366
vn -0.3233 0.3549 0.8772
vn -0.4239 0.4290 0.7977
vn -0.5214 0.2624 0.8120
vn -0.1341 0.3522 0.9263
vn -0.2076 0.4573 0.8647
vn -0.0287 0.3958 0.9179
vn -0.0663 0.5197 0.8518
vn -0.1032 0.6345 0.7660
vn -0.2800 0.5574 0.7816
vn 0.0129 0.3893 0.9210
vn -0.0012 0.5244 0.8515
vn -0.0138 0.6494 0.7603
vn 0.6743 0.4153 0.6106
vn 0.6257 0.5448 0.5583
vn 0.7649 0.3951 0.5087
vn 0.7533 0.2157 0.6212
vn 0.7760 -0.0121 0.6306
vn 0.8628 -0.0233 0.5051
vn 0.8370 0.2341 0.4946
vn 0.7277 -0.2356 0.6441
vn 0.6125 -0.4328 0.6615
vn 0.6779 -0.4988 0.5401
vn 0.8081 -0.2759 0.5204
vn 0.4421 -0.5849 0.6801
vn 0.2328 -0.6762 0.6990
vn 0.2488 -0.7739 0.5824
vn 0.4853 -0.6706 0.5611
vn 0.0054 -0.6986 0.7155
vn -0.2179 -0.6491 0.7288
vn -0.2605 -0.7433 0.6162
vn -0.0082 -0.7991 0.6011
vn -0.4154 -0.5334 0.7368
vn -0.5674 -0.3620 0.7396
vn -0.6556 -0.4188 0.6283
vn -0.4838 -0.6125 0.6251
vn -0.6598 -0.1524 0.7359
vn -0.6824 0.0754 0.7271
vn -0.7856 0.0755 0.6142
vn -0.7599 -0.1819 0.6241
vn -0.6342 0.2990 0.7130
vn -0.5188 0.4962 0.6962
vn -0.6007 0.5511 0.5792
vn -0.7310 0.3282 0.5983
vn -0.3485 0.6482 0.6770
vn -0.1763 0.7017 0.6903
vn -0.3008 0.7805 0.5480
vn -0.4082 0.7228 0.5576
vn -0.0169 0.6999 0.7140
vn 0.9004 0.2469 0.3583
vn 0.8428 0.3692 0.3916
vn 0.9285 -0.0339 0.3698
vn 0.9728 -0.0436 0.2277
vn 0.9550 0.1767 0.2383
vn 0.8688 -0.3094 0.3865
vn 0.7269 -0.5525 0.4079
vn 0.7591 -0.5933 0.2678
vn 0.9095 -0.3356 0.2452
vn 0.5168 -0.7398 0.4309
vn 0.2589 -0.8525 0.4542
vn 0.2631 -0.9112 0.3170
vn 0.5364 -0.7917 0.2924
vn -0.0214 -0.8800 0.4745
vn -0.2966 -0.8192 0.4909
vn -0.3257 -0.8759 0.3559
vn -0.0340 -0.9404 0.3385
vn -0.5401 -0.6764 0.5007
vn -0.7276 -0.4653 0.5041
vn -0.7825 -0.5008 0.3700
vn -0.5837 -0.7246 0.3664
vn -0.8412 -0.2068 0.4996
vn -0.8693 0.0739 0.4887
vn -0.9327 0.0707 0.3535
vn -0.9028 -0.2269 0.3653
vn -0.8097 0.3494 0.4715
vn -0.6677 0.5926 0.4506
vn -0.7438 0.5725 0.3450
vn -0.8695 0.3627 0.3353
vn -0.4576 0.7798 0.4271
vn -0.2489 0.8876 0.3876
vn -0.2230 0.9383 0.2642
vn -0.4440 0.8403 0.3111
vn -0.0672 0.9438 0.3236
vn 0.0023 0.9736 0.2284
vn 0.9953 -0.0523 0.0814
vn 0.9879 0.1068 0.1128
vn 0.9947 -0.0738 -0.0716
vn 0.9174 0.3979 -0.0083
vn 0.9173 0.3982 -0.0074
vn 0.9298 -0.3541 0.1003
vn 0.7743 -0.6207 0.1235
vn 0.7726 -0.6344 -0.0237
vn 0.9298 -0.3649 -0.0471
vn 0.5440 -0.8258 0.1489
vn 0.2614 -0.9494 0.1739
vn 0.2541 -0.9668 0.0276
vn 0.5398 -0.8418 0.0021
vn -0.0457 -0.9795 0.1964
vn -0.3475 -0.9129 0.2144
vn -0.3615 -0.9299 0.0683
vn -0.0565 -0.9971 0.0504
vn -0.6142 -0.7564 0.2252
vn -0.8198 -0.5251 0.2287
vn -0.8390 -0.5378 0.0829
vn -0.6311 -0.7716 0.0795
vn -0.9442 -0.2417 0.2239
vn -0.9751 0.0659 0.2118
vn -0.9960 0.0597 0.0659
vn -0.9647 -0.2513 0.0782
vn -0.9096 0.3678 0.1932
vn -0.7905 0.5937 0.1506
vn -0.7726 0.6344 0.0237
vn -0.9298 0.3649 0.0471
vn -0.2412 0.9631 0.1194
vn -0.4853 0.8666 0.1160
vn -0.2541 0.9668 -0.0276
vn -0.5398 0.8418 -0.0021
vn 0.0531 0.9930 0.1055
vn 0.3596 0.9265 0.1109
vn 0.3552 0.9342 -0.0321
vn 0.0439 0.9981 -0.0432
vn 0.7344 0.6605 -0.1560
vn 0.8149 0.5578 -0.1576
vn 0.8132 0.5371 -0.2239
vn 0.7240 0.6516 -0.2264
vn 0.7825 0.5009 -0.3699
vn 0.7004 0.6304 -0.3347
vn 0.9067 0.3923 -0.1552
vn 0.9844 0.0972 -0.1469
vn 0.9719 -0.1409 -0.1887
vn 0.8688 0.2658 -0.4178
vn 0.9096 -0.3678 -0.1931
vn 0.7541 -0.6344 -0.1700
vn 0.7190 -0.6204 -0.3133
vn 0.8695 -0.3627 -0.3354
vn 0.9126 -0.2239 -0.3420
vn 0.5238 -0.8395 -0.1445
vn 0.2412 -0.9631 -0.1193
vn 0.2230 -0.9383 -0.2643
vn 0.4964 -0.8189 -0.2883
vn -0.0660 -0.9931 -0.0966
vn -0.3677 -0.9266 -0.0791
vn -0.3658 -0.9030 -0.2252
vn -0.0740 -0.9674 -0.2421
vn -0.6344 -0.7700 -0.0681
vn -0.8400 -0.5388 -0.0646
vn -0.8226 -0.5280 -0.2112
vn -0.6238 -0.7517 -0.2141
vn -0.9644 -0.2554 -0.0691
vn -0.9953 0.0522 -0.0814
vn -0.9727 0.0436 -0.2278
vn -0.9429 -0.2540 -0.2156
vn -0.9298 0.3541 -0.1003
vn -0.7743 0.6207 -0.1233
vn -0.7591 0.5933 -0.2679
vn -0.9095 0.3356 -0.2452
vn -0.5440 0.8258 -0.1487
vn -0.2614 0.9494 -0.1739
vn -0.2631 0.9112 -0.3171
vn -0.5364 0.7917 -0.2924
vn 0.0457 0.9794 -0.1969
vn 0.3294 0.9287 -0.1706
vn 0.2767 0.8822 -0.3811
vn 0.0231 0.9422 -0.3342
vn 0.7319 0.4522 -0.5097
vn 0.6104 0.5516 -0.5685
vn 0.6969 0.3735 -0.6123
vn 0.8412 0.2068 -0.4996
vn 0.8583 -0.1095 -0.5014
vn 0.7856 -0.0756 -0.6141
vn 0.7599 0.1819 -0.6241
vn 0.8097 -0.3494 -0.4715
vn 0.6677 -0.5926 -0.4506
vn 0.6007 -0.5511 -0.5792
vn 0.7310 -0.3281 -0.5983
vn 0.4576 -0.7799 -0.4271
vn 0.1997 -0.8925 -0.4044
vn 0.1717 -0.8261 -0.5368
vn 0.4082 -0.7228 -0.5576
vn -0.0805 -0.9200 -0.3835
vn -0.3558 -0.8592 -0.3676
vn -0.3377 -0.7955 -0.5031
vn -0.0853 -0.8513 -0.5176
vn -0.5993 -0.7165 -0.3572
vn -0.7868 -0.5054 -0.3544
vn -0.7328 -0.4711 -0.4910
vn -0.5609 -0.6647 -0.4935
vn -0.9003 -0.2469 -0.3584
vn -0.9285 0.0339 -0.3699
vn -0.8627 0.0233 -0.5051
vn -0.8370 -0.2341 -0.4946
vn -0.8688 0.3094 -0.3865
vn -0.7269 0.5525 -0.4079
vn -0.6779 0.4988 -0.5401
vn -0.8081 0.2759 -0.5204
vn -0.5168 0.7398 -0.4309
vn -0.2589 0.8525 -0.4542
vn -0.2488 0.7738 -0.5825
vn -0.4853 0.6706 -0.5610
vn 0.0084 0.8812 -0.4726
vn 0.2968 0.8429 -0.4488
vn 0.2633 0.7755 -0.5738
vn -0.0008 0.8002 -0.5997
vn 0.4511 0.4085 -0.7935
vn 0.5761 0.3074 -0.7574
vn 0.4649 0.2961 -0.8344
vn 0.4222 0.3920 -0.8174
vn 0.6597 0.1524 -0.7359
vn 0.6824 -0.0754 -0.7271
vn 0.5621 -0.0735 -0.8238
vn 0.5429 0.1190 -0.8313
vn 0.6342 -0.2989 -0.7130
vn 0.5189 -0.4962 -0.6961
vn 0.4239 -0.4289 -0.7977
vn 0.5213 -0.2623 -0.8120
vn 0.3485 -0.6482 -0.6770
vn 0.1392 -0.7395 -0.6586
vn 0.1032 -0.6345 -0.7660
vn 0.2800 -0.5574 -0.7816
vn -0.0881 -0.7619 -0.6417
vn -0.3115 -0.7124 -0.6288
vn -0.2776 -0.6117 -0.7408
vn -0.0889 -0.6535 -0.7517
vn -0.5090 -0.5968 -0.6203
vn -0.6610 -0.4254 -0.6181
vn -0.5729 -0.3692 -0.7318
vn -0.4445 -0.5140 -0.7337
vn -0.7533 -0.2157 -0.6213
vn -0.7760 0.0121 -0.6306
vn -0.6700 0.0004 -0.7424
vn -0.6509 -0.1920 -0.7345
vn -0.7278 0.2356 -0.6441
vn -0.6125 0.4328 -0.6615
vn -0.5319 0.3559 -0.7684
vn -0.6293 0.1892 -0.7538
vn -0.4421 0.5849 -0.6801
vn -0.2328 0.6762 -0.6990
vn -0.2112 0.5614 -0.8001
vn -0.3879 0.4843 -0.7842
vn -0.0402 0.7107 -0.7024
vn 0.2230 0.6890 -0.6896
vn -0.0788 0.5573 -0.8266
vn 0.3546 0.2129 -0.9104
vn 0.2069 0.2669 -0.9412
vn 0.2419 0.1528 -0.9582
vn 0.1677 0.2399 -0.9562
vn 0.1367 0.3903 -0.9105
vn 0.0678 0.2957 -0.9529
vn 0.4181 0.0841 -0.9045
vn 0.4341 -0.0700 -0.8982
vn 0.2991 -0.0651 -0.9520
vn 0.2901 0.0490 -0.9557
vn 0.4008 -0.2211 -0.8891
vn 0.3233 -0.3549 -0.8772
vn 0.2177 -0.2746 -0.9366
vn 0.2773 -0.1772 -0.9443
vn 0.2076 -0.4573 -0.8647
vn 0.0663 -0.5197 -0.8518
vn 0.0286 -0.3958 -0.9179
vn 0.1341 -0.3522 -0.9263
vn -0.0877 -0.5342 -0.8408
vn -0.2389 -0.5014 -0.8316
vn -0.1958 -0.3823 -0.9031
vn -0.0846 -0.4092 -0.9085
vn -0.3723 -0.4225 -0.8264
vn -0.4756 -0.3070 -0.8244
vn -0.3699 -0.2394 -0.8977
vn -0.2955 -0.3264 -0.8979
vn -0.5375 -0.1649 -0.8270
vn -0.5534 -0.0108 -0.8328
vn -0.4271 -0.0215 -0.9039
vn -0.4179 -0.1355 -0.8983
vn -0.5202 0.1403 -0.8424
vn -0.4427 0.2741 -0.8537
vn -0.3457 0.1880 -0.9193
vn -0.4051 0.0907 -0.9098
vn -0.3270 0.3765 -0.8668
vn -0.1856 0.4389 -0.8792
vn -0.1566 0.3092 -0.9380
vn -0.2620 0.2657 -0.9278
vn -0.0317 0.4534 -0.8907
vn 0.1082 0.4324 -0.8952
vn -0.0432 0.3226 -0.9455
vn 0.2612 0.1739 0.9495
vn 0.2803 0.1800 0.9429
vn 0.2728 0.1626 0.9482
vn 0.2716 0.0987 0.9573
vn 0.2414 0.0354 0.9698
vn 0.2140 0.1396 0.9668
vn 0.0688 0.0465 0.9965
vn 0.2642 -0.0319 0.9640
vn 0.2024 -0.0648 0.9772
vn 0.1815 -0.1329 0.9744
vn 0.1120 -0.1228 0.9861
vn 0.2024 -0.0649 0.9772
vn 0.0552 -0.1658 0.9846
vn 0.0046 -0.1164 0.9932
vn 0.1119 -0.1228 0.9861
vn -0.0666 -0.1180 0.9908
vn -0.0786 -0.0480 0.9957
vn -0.1348 0.0155 0.9908
vn -0.1060 0.0562 0.9928
vn -0.0510 -0.0074 0.9987
vn -0.1299 0.1228 0.9839
vn -0.0671 0.1564 0.9854
vn -0.0568 0.2372 0.9698
vn 0.0182 0.2780 0.9604
vn 0.0816 0.0567 0.9951
vn -0.0055 0.2719 0.9623
vn 0.0120 0.3001 0.9538
vn 0.0666 0.1180 -0.9908
vn -0.0046 0.1164 -0.9932
vn 0.0787 0.0480 -0.9957
vn -0.0687 -0.0465 -0.9966
vn 0.1373 0.0078 -0.9905
vn 0.1060 -0.0562 -0.9928
vn 0.1299 -0.1228 -0.9839
vn 0.0671 -0.1564 -0.9854
vn 0.0470 -0.2235 -0.9736
vn 0.0671 -0.1565 -0.9854
vn -0.0233 -0.2144 -0.9765
vn -0.0687 -0.0466 -0.9965
vn -0.0791 -0.2564 -0.9633
vn -0.0234 -0.2144 -0.9765
vn -0.1307 -0.2079 -0.9694
vn -0.0687 -0.0468 -0.9965
vn -0.2009 -0.2089 -0.9571
vn -0.2140 -0.1396 -0.9668
vn -0.0688 -0.0465 -0.9965
vn -0.2716 -0.0987 -0.9573
vn -0.2414 -0.0353 -0.9698
vn -0.0690 -0.0465 -0.9965
vn -0.2642 0.0319 -0.9639
vn -0.2414 -0.0354 -0.9698
vn -0.2024 0.0648 -0.9772
vn -0.1815 0.1329 -0.9744
vn -0.1120 0.1228 -0.9861
vn -0.0552 0.1658 -0.9846
vn 0.5004 0.3924 -0.7718
vn 0.4574 0.6378 -0.6197
vn 0.5524 0.5149 -0.6555
vn 0.6860 -0.6223 -0.3770
vn 0.3376 -0.8561 0.3914
vn -0.1741 -0.3184 -0.9318
vn -0.0345 -0.9414 -0.3355
vn -0.7288 -0.6846 0.0111
vn -0.4637 -0.7760 0.4276
vn 0.0568 -0.9801 0.1904
vn -0.9674 -0.2224 0.1209
vn -0.9448 -0.2421 0.2210
vn -0.8331 -0.4377 0.3382
vn -0.1734 -0.6366 0.7514
vn 0.2884 -0.7913 0.5391
vn 0.9390 -0.3415 0.0412
vn 0.6918 -0.3302 0.6422
vn 0.7913 -0.2398 0.5625
vn 0.6726 -0.4263 0.6049
vn 0.7658 -0.0467 -0.6414
vn 0.6804 -0.7212 -0.1305
vn 0.5675 -0.7894 -0.2340
vn 0.4269 -0.4536 -0.7823
vn 0.5255 -0.8504 0.0255
vn 0.5497 -0.8337 0.0519
vn -0.3345 -0.8132 -0.4763
vn 0.5833 0.5648 -0.5837
vn 0.3270 -0.4689 -0.8205
vn 0.2721 0.3054 -0.9125
vn -0.4364 -0.7786 -0.4510
vn -0.6766 -0.6329 0.3762
vn -0.8199 -0.5231 -0.2327
vn -0.8484 0.4535 0.2732
vn 0.0400 -0.7114 0.7016
vn 0.1563 -0.8547 0.4951
vn -0.6460 -0.7605 -0.0654
vn 0.8763 0.0665 0.4771
vn 0.1565 -0.8546 0.4951
vn 0.1608 -0.9593 -0.2320
vn -0.5263 -0.8300 -0.1846
vn -0.1818 -0.9801 -0.0794
vn 0.3678 -0.2846 0.8853
vn -0.1213 -0.9770 0.1753
vn 0.6370 -0.4743 0.6076
vn -0.7097 -0.6922 -0.1311
vn -0.5356 -0.7196 -0.4420
vn -0.5615 -0.8165 -0.1343
vn 0.6577 -0.7428 0.1249
vn -0.3659 -0.9191 0.1460
vn -0.4950 -0.8357 0.2379
vn -0.1208 -0.9589 0.2568
vn -0.5671 -0.8193 -0.0845
vn 0.3712 -0.2160 0.9031
vn 0.5494 -0.4995 0.6698
vn 0.5795 -0.2606 0.7721
vn 0.4562 -0.3196 0.8305
vn 0.8041 -0.5127 0.3010
vn 0.6798 -0.6810 0.2724
vn 0.2342 0.4982 -0.8348
vn 0.4497 0.0567 -0.8914
vn 0.5080 -0.1002 -0.8555
vn 0.4297 0.3979 -0.8106
vn -0.7617 -0.0148 -0.6478
vn -0.6759 -0.5652 -0.4730
vn -0.0521 -0.8622 -0.5038
vn 0.0043 0.0789 -0.9969
vn -0.4281 -0.8756 -0.2237
vn -0.0789 -0.9819 -0.1721
vn 0.1525 -0.9842 -0.0903
vn 0.2894 -0.8914 -0.3488
vn 0.5079 -0.1001 -0.8556
vn 0.7867 -0.0738 -0.6130
vn 0.5710 0.5157 -0.6387
vn 0.5462 0.0365 -0.8368
vn 0.5536 0.6195 -0.5565
vn 0.5116 -0.8268 -0.2336
vn 0.7867 -0.0736 -0.6129
vn 0.3322 -0.9417 -0.0541
vn -0.7509 -0.6354 -0.1801
vn -0.9691 -0.2451 0.0275
vn -0.6841 0.0284 -0.7289
vn -0.7024 0.0774 -0.7075
vn -0.6686 -0.7013 -0.2473
vn 0.4036 -0.8741 0.2703
vn -0.7896 -0.4638 -0.4018
vn -0.9699 -0.2172 -0.1097
vn -0.5122 -0.6096 -0.6050
vn -0.4140 -0.8572 0.3062
vn 0.0266 -0.9787 0.2035
vn 0.0432 -0.4596 -0.8871
vn 0.3723 0.0288 -0.9277
vn 0.0043 0.4608 -0.8875
vn 0.0018 0.3080 -0.9514
vn 0.4878 0.4766 -0.7314
vn 0.2804 0.7791 -0.5607
vn 0.6644 0.5190 -0.5378
vn -0.1351 -0.9550 0.2640
vn 0.3329 0.6922 -0.6403
vn 0.6415 0.3599 -0.6775
vn 0.5833 -0.0013 -0.8123
vn 0.1936 -0.8643 0.4642
vn 0.1899 -0.9182 0.3476
vn 0.4877 -0.0401 -0.8721
vn -0.0251 0.4760 -0.8791
vn -0.1296 0.2882 -0.9488
vn -0.8434 -0.2935 0.4500
vn -0.9202 0.1150 0.3741
vn -0.9911 -0.1114 0.0723
vn -0.9408 -0.2878 -0.1790
vn -0.7854 0.6174 -0.0445
vn -0.9178 0.1926 -0.3471
vn -0.8151 -0.2773 -0.5086
vn -0.5852 0.3376 -0.7373
vn -0.3604 0.7087 -0.6065
vn -0.8662 -0.4134 0.2806
vn -0.4392 0.8193 -0.3687
vn 0.3960 -0.2491 0.8838
vn 0.6984 -0.3252 0.6376
vn 0.6130 -0.0583 0.7879
vn 0.3727 0.1262 0.9193
vn 0.4912 -0.0819 0.8672
vn 0.7408 -0.1165 0.6615
vn -0.7854 0.6174 -0.0446
vn -0.4052 0.6981 -0.5904
vn -0.5742 0.1726 -0.8003
vn 0.6692 0.2153 -0.7112
vn -0.6030 -0.5140 -0.6101
vn 0.0067 -0.1548 -0.9879
vn 0.6469 0.4265 -0.6322
vn 0.7653 -0.6414 -0.0533
vn 0.6577 -0.1591 -0.7363
vn 0.6543 -0.1136 -0.7476
vn 0.5106 -0.8582 -0.0527
vn 0.1163 -0.9928 0.0278
vn -0.4587 -0.8644 -0.2059
vn -0.5502 -0.8276 -0.1111
vn -0.5076 -0.0200 -0.8614
vn -0.4740 0.0239 -0.8802
vn 0.2212 -0.1276 -0.9668
vn 0.3727 -0.2767 0.8857
vn -0.5535 0.0094 0.8328
vn 0.3954 -0.3020 0.8674
vn -0.9219 0.1708 0.3478
vn -0.8274 0.0989 0.5528
vn -0.9701 0.2367 0.0542
vn 0.5105 -0.8583 -0.0527
vn 0.1139 -0.9726 0.2026
vn 0.0720 -0.9890 0.1294
vn -0.0496 -0.9558 0.2897
vn -0.2921 -0.8780 -0.3793
vn 0.7957 0.6056 -0.0085
vn 0.6138 -0.2200 0.7582
vn 0.5573 -0.3210 0.7658
vn 0.8642 0.5008 -0.0485
vn 0.0597 -0.8612 0.5048
vn 0.2596 -0.8185 0.5126
vn 0.7531 -0.5575 0.3493
vn -0.8075 0.5021 -0.3096
vn 0.4238 0.7707 -0.4758
vn -0.9700 -0.2169 -0.1097
vn -0.7556 0.5496 -0.3563
vn -0.8194 0.5195 0.2424
vn -0.9895 -0.0715 0.1257
vn -0.9371 -0.3187 0.1422
vn -0.9779 0.1636 -0.1299
vn 0.1113 0.9176 -0.3817
vn 0.1983 0.8934 -0.4031
vn 0.4523 0.7680 -0.4534
vn -0.9370 -0.3189 0.1423
vn -0.7992 -0.1062 0.5916
vn -0.9125 -0.3432 0.2225
vn -0.6253 -0.0653 0.7777
vn -0.4763 -0.2344 0.8475
vn -0.8971 -0.0440 0.4397
vn 0.5209 0.1192 0.8453
vn 0.8994 0.4367 -0.0216
vn 0.7706 0.5857 -0.2513
vn 0.7422 0.6548 -0.1428
vn 0.9109 0.2898 0.2937
vn 0.1113 0.9176 -0.3816
vn 0.7858 0.5939 -0.1724
vn 0.8028 0.5747 -0.1586
vn 0.9889 0.1428 0.0402
vn 0.8656 0.4429 0.2335
vn -0.1770 0.8143 -0.5528
vn -0.5224 0.8092 0.2689
vn -0.6461 0.2327 -0.7269
vn 0.0200 0.9431 -0.3320
vn -0.4711 0.8407 0.2670
vn -0.5450 0.0428 0.8373
vn -0.4258 -0.1172 0.8972
vn -0.4711 0.8408 0.2667
vn -0.6045 0.1550 0.7814
vn -0.5277 -0.0416 0.8484
vn -0.1311 0.9516 -0.2781
vn -0.5876 0.7917 0.1674
vn -0.7623 0.2078 0.6129
vn -0.7004 -0.0913 0.7079
vn -0.5875 0.7917 0.1674
vn -0.6436 0.4888 -0.5889
vn 0.6502 0.2821 -0.7054
vn 0.5033 0.1127 -0.8567
vn -0.7025 0.0775 -0.7075
vn 0.7915 -0.1130 0.6006
vn 0.5440 -0.1343 0.8283
vn 0.4778 -0.8333 0.2781
vn 0.4036 -0.8742 0.2701
vn 0.8815 0.4722 0.0075
vn 0.9109 0.2897 0.2937
vn 0.7560 0.1114 0.6451
vn 0.6995 0.6010 -0.3867
vn 0.8379 0.4100 -0.3603
vn -0.1376 -0.7823 -0.6075
vn 0.6991 -0.7126 0.0589
vn 0.9665 0.1982 -0.1633
vn -0.1006 -0.7563 0.6464
vn -0.0263 -0.9783 0.2053
vn 0.0923 -0.9566 0.2764
vn 0.2596 -0.8186 0.5124
vn 0.6991 -0.7126 0.0592
vn 0.7530 -0.5576 0.3493
vt 0.085883 0.693884
vt 0.089933 0.694061
vt 0.090878 0.699879
vt 0.085116 0.700008
vt 0.091848 0.706261
vt 0.084387 0.706427
vt 0.261980 0.509129
vt 0.265984 0.509167
vt 0.266418 0.515248
vt 0.260741 0.514818
vt 0.266799 0.521618
vt 0.259448 0.521061
vt 0.092729 0.712705
vt 0.083754 0.712904
vt 0.101428 0.710488
vt 0.103329 0.717263
vt 0.093417 0.719125
vt 0.083262 0.719458
vt 0.267081 0.528041
vt 0.258240 0.527371
vt 0.267248 0.534516
vt 0.257171 0.533731
vt 0.249638 0.525117
vt 0.247375 0.531221
vt 0.094101 0.725505
vt 0.083003 0.726055
vt 0.105019 0.723610
vt 0.106392 0.730029
vt 0.094794 0.731906
vt 0.083003 0.732682
vt 0.117943 0.726999
vt 0.256089 0.540143
vt 0.245263 0.537392
vt 0.267248 0.541070
vt 0.267091 0.547646
vt 0.255178 0.546657
vt 0.095503 0.738332
vt 0.083261 0.739308
vt 0.107715 0.736506
vt 0.108750 0.743108
vt 0.096226 0.744865
vt 0.083726 0.745899
vt 0.119836 0.733407
vt 0.133761 0.736435
vt 0.121563 0.739853
vt 0.178404 0.761816
vt 0.178404 0.773744
vt 0.171816 0.773967
vt 0.171816 0.761581
vt 0.266779 0.554246
vt 0.172883 0.850805
vt 0.178683 0.861750
vt 0.172883 0.864914
vt 0.096696 0.751456
vt 0.084351 0.752478
vt 0.097017 0.758041
vt 0.085129 0.759025
vt 0.149377 0.761581
vt 0.155329 0.772620
vt 0.149478 0.775689
vt 0.155105 0.786724
vt 0.149129 0.789508
vt 0.143710 0.778882
vt 0.143116 0.765062
vt 0.174318 0.781842
vt 0.174469 0.794383
vt 0.167862 0.794383
vt 0.097191 0.764602
vt 0.086055 0.765524
vt 0.108361 0.764931
vt 0.107235 0.771952
vt 0.097180 0.771091
vt 0.087132 0.771975
vt 0.143116 0.792140
vt 0.089556 0.791397
vt 0.089556 0.803325
vt 0.083003 0.802939
vt 0.095337 0.791397
vt 0.096239 0.802535
vt 0.089714 0.802535
vt 0.097174 0.777527
vt 0.088361 0.778321
vt 0.106010 0.778331
vt 0.097021 0.783936
vt 0.089695 0.784596
vt 0.096397 0.801544
vt 0.096397 0.791397
vt 0.102842 0.792053
vt 0.163151 0.867732
vt 0.154284 0.867732
vt 0.155051 0.861349
vt 0.162423 0.861349
vt 0.096775 0.790293
vt 0.091116 0.790803
vt 0.102376 0.791239
vt 0.155912 0.855026
vt 0.093687 0.692531
vt 0.089117 0.689350
vt 0.086618 0.688306
vt 0.087603 0.680962
vt 0.091093 0.687498
vt 0.117664 0.796761
vt 0.116208 0.791397
vt 0.118884 0.791397
vt 0.170075 0.855025
vt 0.172321 0.861992
vt 0.170075 0.863446
vt 0.263034 0.504526
vt 0.265553 0.503627
vt 0.264969 0.496331
vt 0.261182 0.502595
vt 0.151789 0.499903
vt 0.148226 0.502384
vt 0.144212 0.497353
vt 0.149217 0.494093
vt 0.139920 0.492567
vt 0.146008 0.488081
vt 0.144979 0.505101
vt 0.140394 0.501454
vt 0.142972 0.508789
vt 0.137606 0.505971
vt 0.132579 0.503653
vt 0.135540 0.498018
vt 0.140918 0.512354
vt 0.135745 0.510597
vt 0.140186 0.516347
vt 0.134573 0.515222
vt 0.129756 0.514469
vt 0.130774 0.509183
vt 0.139076 0.520157
vt 0.133973 0.519690
vt 0.139214 0.524052
vt 0.133795 0.524053
vt 0.129369 0.524195
vt 0.129361 0.519459
vt 0.138791 0.527828
vt 0.133968 0.528214
vt 0.139520 0.531476
vt 0.134436 0.532276
vt 0.130349 0.533005
vt 0.129733 0.528685
vt 0.139657 0.535099
vt 0.135171 0.536152
vt 0.140864 0.538432
vt 0.136185 0.539942
vt 0.132366 0.541206
vt 0.131237 0.537155
vt 0.141578 0.541820
vt 0.137484 0.543559
vt 0.143276 0.544748
vt 0.139131 0.547069
vt 0.135573 0.549016
vt 0.133803 0.545142
vt 0.144687 0.547750
vt 0.141175 0.550364
vt 0.146999 0.550047
vt 0.143729 0.553438
vt 0.140612 0.556446
vt 0.137806 0.552781
vt 0.149312 0.552317
vt 0.146879 0.556087
vt 0.152286 0.553534
vt 0.150698 0.558109
vt 0.148848 0.562704
vt 0.144223 0.559846
vt 0.155414 0.554398
vt 0.155109 0.559106
vt 0.154524 0.564269
vt 0.135251 0.488015
vt 0.141041 0.481250
vt 0.129906 0.484307
vt 0.130620 0.495065
vt 0.127759 0.501831
vt 0.122991 0.500451
vt 0.125525 0.492622
vt 0.126202 0.508183
vt 0.125475 0.514039
vt 0.121517 0.513879
vt 0.121848 0.507547
vt 0.125351 0.519432
vt 0.125589 0.524452
vt 0.122204 0.524805
vt 0.121715 0.519578
vt 0.126137 0.529172
vt 0.126894 0.533681
vt 0.123823 0.534328
vt 0.122934 0.529683
vt 0.127891 0.538026
vt 0.129096 0.542279
vt 0.126157 0.543219
vt 0.124904 0.538812
vt 0.130591 0.546462
vt 0.132403 0.550640
vt 0.129458 0.552025
vt 0.127664 0.547597
vt 0.134682 0.554816
vt 0.137563 0.559038
vt 0.134498 0.561266
vt 0.131689 0.556547
vt 0.141381 0.563248
vt 0.146613 0.567346
vt 0.143512 0.571695
vt 0.138251 0.566259
vt 0.153615 0.569486
vt 0.120197 0.490608
vt 0.124370 0.481216
vt 0.118171 0.499483
vt 0.113207 0.498944
vt 0.114463 0.488932
vt 0.117605 0.507255
vt 0.117766 0.513968
vt 0.114154 0.514300
vt 0.113412 0.507319
vt 0.118327 0.519883
vt 0.119080 0.525245
vt 0.116132 0.525772
vt 0.115109 0.520341
vt 0.119989 0.530225
vt 0.120999 0.534960
vt 0.118337 0.535589
vt 0.117216 0.530804
vt 0.122147 0.539541
vt 0.123427 0.544063
vt 0.120828 0.544837
vt 0.119537 0.540233
vt 0.124914 0.548592
vt 0.126648 0.553221
vt 0.123917 0.554266
vt 0.122273 0.549480
vt 0.128765 0.558030
vt 0.131393 0.563159
vt 0.128243 0.564746
vt 0.125872 0.559303
vt 0.134866 0.568815
vt 0.139673 0.575571
vt 0.135136 0.578172
vt 0.131282 0.570904
vt 0.144036 0.583827
vt 0.139337 0.586657
vt 0.108040 0.498910
vt 0.108461 0.488397
vt 0.102469 0.499445
vt 0.169917 0.855025
vt 0.163461 0.867566
vt 0.163309 0.855025
vt 0.109240 0.507777
vt 0.110643 0.514884
vt 0.107219 0.515735
vt 0.105095 0.508692
vt 0.112011 0.520953
vt 0.113303 0.526389
vt 0.110550 0.527100
vt 0.108999 0.521725
vt 0.114552 0.531426
vt 0.115775 0.536227
vt 0.113265 0.536883
vt 0.111952 0.532100
vt 0.117016 0.540904
vt 0.118303 0.545559
vt 0.115807 0.546242
vt 0.114536 0.541564
vt 0.119690 0.550283
vt 0.121221 0.555185
vt 0.118523 0.555996
vt 0.117121 0.551016
vt 0.122984 0.560394
vt 0.125074 0.566110
vt 0.121820 0.567188
vt 0.120067 0.561321
vt 0.130702 0.580182
vt 0.127580 0.572539
vt 0.126222 0.581725
vt 0.123834 0.573847
vt 0.134354 0.589216
vt 0.139476 0.598409
vt 0.133033 0.601364
vt 0.129014 0.591272
vt 0.063909 0.484337
vt 0.074321 0.486040
vt 0.073358 0.491515
vt 0.063074 0.489833
vt 0.072218 0.496903
vt 0.062377 0.495353
vt 0.083597 0.493444
vt 0.098158 0.489393
vt 0.097146 0.501652
vt 0.081857 0.499407
vt 0.101092 0.510133
vt 0.103886 0.516865
vt 0.100649 0.518280
vt 0.097306 0.512075
vt 0.092403 0.504660
vt 0.106047 0.522665
vt 0.107836 0.527914
vt 0.105130 0.528842
vt 0.103136 0.523782
vt 0.109377 0.532834
vt 0.110767 0.537567
vt 0.108240 0.538290
vt 0.106788 0.533640
vt 0.112056 0.542224
vt 0.113300 0.546900
vt 0.110740 0.547541
vt 0.109534 0.542897
vt 0.114528 0.551693
vt 0.115786 0.556711
vt 0.112972 0.557339
vt 0.111871 0.552321
vt 0.117095 0.562098
vt 0.118497 0.568047
vt 0.115072 0.568692
vt 0.114032 0.562736
vt 0.119992 0.574822
vt 0.121619 0.582821
vt 0.116897 0.583467
vt 0.116033 0.575473
vt 0.123359 0.592446
vt 0.125076 0.603232
vt 0.119148 0.603942
vt 0.117567 0.593305
vt 0.071105 0.502273
vt 0.061755 0.501673
vt 0.070315 0.507687
vt 0.080038 0.504496
vt 0.088325 0.508328
vt 0.085371 0.512583
vt 0.078321 0.509391
vt 0.093806 0.514454
vt 0.097514 0.519976
vt 0.094474 0.521949
vt 0.090643 0.517191
vt 0.100242 0.525089
vt 0.102396 0.529899
vt 0.099591 0.531108
vt 0.097336 0.526602
vt 0.104145 0.534533
vt 0.105639 0.539067
vt 0.102907 0.539914
vt 0.101395 0.535534
vt 0.106924 0.543592
vt 0.108078 0.548175
vt 0.105253 0.548813
vt 0.104165 0.544325
vt 0.109100 0.552910
vt 0.110034 0.557884
vt 0.106911 0.558348
vt 0.106155 0.553463
vt 0.110836 0.563234
vt 0.111508 0.569121
vt 0.107754 0.569316
vt 0.107451 0.563587
vt 0.111929 0.575790
vt 0.112005 0.583601
vt 0.106956 0.583162
vt 0.107645 0.575742
vt 0.111424 0.593157
vt 0.110585 0.603585
vt 0.102729 0.601572
vt 0.105196 0.592045
vt 0.062680 0.514112
vt 0.069896 0.513053
vt 0.069939 0.518273
vt 0.064062 0.519214
vt 0.076841 0.514159
vt 0.082905 0.516629
vt 0.080752 0.520691
vt 0.075638 0.518874
vt 0.087752 0.520204
vt 0.091496 0.524204
vt 0.088518 0.526764
vt 0.085041 0.523465
vt 0.094372 0.528350
vt 0.096655 0.532500
vt 0.093494 0.534124
vt 0.091277 0.530378
vt 0.098470 0.536672
vt 0.099967 0.540857
vt 0.096696 0.541931
vt 0.095260 0.537993
vt 0.101176 0.545114
vt 0.102179 0.549466
vt 0.098717 0.550147
vt 0.097825 0.545988
vt 0.102947 0.553986
vt 0.103516 0.558724
vt 0.099713 0.558999
vt 0.099338 0.554482
vt 0.103794 0.563780
vt 0.103743 0.569248
vt 0.099367 0.568866
vt 0.099739 0.563783
vt 0.103143 0.575282
vt 0.101774 0.582076
vt 0.096496 0.580259
vt 0.098363 0.574341
vt 0.099035 0.589901
vt 0.095301 0.598017
vt 0.093123 0.586681
vt 0.070168 0.523397
vt 0.065715 0.524586
vt 0.070729 0.528301
vt 0.067551 0.528918
vt 0.061755 0.526974
vt 0.064909 0.530786
vt 0.074671 0.523655
vt 0.078791 0.524926
vt 0.076951 0.529314
vt 0.073940 0.528162
vt 0.082396 0.527037
vt 0.085422 0.529697
vt 0.082092 0.533017
vt 0.079861 0.530665
vt 0.087920 0.532767
vt 0.089940 0.536061
vt 0.085775 0.538371
vt 0.084383 0.535348
vt 0.091578 0.539573
vt 0.092871 0.543193
vt 0.088179 0.544698
vt 0.087477 0.541304
vt 0.093883 0.546991
vt 0.094616 0.550878
vt 0.089516 0.551671
vt 0.089384 0.548040
vt 0.095084 0.554956
vt 0.095254 0.559143
vt 0.089801 0.559121
vt 0.090238 0.555332
vt 0.095067 0.563551
vt 0.094442 0.568093
vt 0.088759 0.566876
vt 0.089913 0.563044
vt 0.093198 0.572842
vt 0.091154 0.577656
vt 0.085741 0.574483
vt 0.087931 0.570915
vt 0.087931 0.582369
vt 0.083342 0.586339
vt 0.079859 0.580602
vt 0.083427 0.578124
vt 0.120497 0.791398
vt 0.121717 0.796761
vt 0.119042 0.796761
vt 0.148803 0.508230
vt 0.148460 0.511061
vt 0.151518 0.507347
vt 0.155755 0.513947
vt 0.145404 0.513998
vt 0.145984 0.516724
vt 0.147627 0.512308
vt 0.153662 0.517061
vt 0.143630 0.520722
vt 0.144765 0.523166
vt 0.145356 0.518641
vt 0.152086 0.521814
vt 0.143170 0.527637
vt 0.144629 0.529767
vt 0.144471 0.525395
vt 0.151339 0.527328
vt 0.143758 0.534295
vt 0.145436 0.536095
vt 0.144667 0.531997
vt 0.151414 0.532843
vt 0.145344 0.540375
vt 0.147195 0.541827
vt 0.152347 0.537968
vt 0.145911 0.538091
vt 0.147828 0.545532
vt 0.149892 0.546394
vt 0.147731 0.543292
vt 0.153624 0.541484
vt 0.151404 0.549139
vt 0.153583 0.549195
vt 0.150499 0.547148
vt 0.155117 0.543341
vt 0.153858 0.549313
vt 0.155621 0.550576
vt 0.069045 0.532418
vt 0.067831 0.534208
vt 0.071178 0.532780
vt 0.071721 0.538687
vt 0.073334 0.531894
vt 0.071353 0.532751
vt 0.074941 0.533338
vt 0.072238 0.538612
vt 0.077656 0.533735
vt 0.075480 0.533609
vt 0.078460 0.535765
vt 0.073626 0.539313
vt 0.081211 0.537541
vt 0.079147 0.536655
vt 0.081287 0.539792
vt 0.075350 0.541549
vt 0.083740 0.542736
vt 0.081868 0.541320
vt 0.083261 0.545043
vt 0.076786 0.545351
vt 0.085273 0.548840
vt 0.083594 0.547032
vt 0.084359 0.551141
vt 0.077599 0.550282
vt 0.085843 0.555512
vt 0.084385 0.553370
vt 0.084530 0.557757
vt 0.077646 0.555797
vt 0.085328 0.562439
vt 0.084204 0.559968
vt 0.083571 0.564520
vt 0.076820 0.561269
vt 0.083411 0.569132
vt 0.082890 0.566353
vt 0.081111 0.570789
vt 0.075112 0.565816
vt 0.079760 0.574607
vt 0.080331 0.571752
vt 0.076925 0.575284
vt 0.073145 0.568235
vt 0.179170 0.835762
vt 0.179170 0.850647
vt 0.172883 0.844054
vt 0.105955 0.793357
vt 0.111805 0.791397
vt 0.111805 0.798890
vt 0.208497 0.570550
vt 0.215149 0.557363
vt 0.222216 0.566216
vt 0.213545 0.574997
vt 0.228930 0.550861
vt 0.231567 0.560595
vt 0.231409 0.568653
vt 0.224277 0.572742
vt 0.216973 0.579066
vt 0.155487 0.797147
vt 0.155487 0.781842
vt 0.165492 0.782724
vt 0.167704 0.791449
vt 0.242199 0.507582
vt 0.238020 0.501864
vt 0.241708 0.500306
vt 0.245105 0.503270
vt 0.234538 0.496331
vt 0.240381 0.496407
vt 0.243917 0.499252
vt 0.114639 0.796821
vt 0.111963 0.791397
vt 0.116050 0.791397
vt 0.176667 0.835490
vt 0.176667 0.829137
vt 0.179355 0.829951
vt 0.178576 0.820322
vt 0.224328 0.577585
vt 0.219972 0.581979
vt 0.224129 0.580461
vt 0.105143 0.791397
vt 0.105797 0.795965
vt 0.103000 0.796215
vt 0.105797 0.800849
vt 0.103115 0.800693
vt 0.165687 0.500389
vt 0.175832 0.505358
vt 0.169374 0.507989
vt 0.184959 0.503301
vt 0.180044 0.517306
vt 0.180628 0.496331
vt 0.172308 0.521649
vt 0.180257 0.565524
vt 0.182723 0.573407
vt 0.178612 0.572244
vt 0.184229 0.577748
vt 0.154126 0.826974
vt 0.154015 0.836758
vt 0.138740 0.829928
vt 0.146830 0.820322
vt 0.154126 0.861271
vt 0.145658 0.859948
vt 0.133919 0.761581
vt 0.142958 0.766706
vt 0.141250 0.778078
vt 0.133919 0.775353
vt 0.220223 0.526884
vt 0.209518 0.521335
vt 0.219473 0.510908
vt 0.223303 0.518576
vt 0.208103 0.506870
vt 0.216862 0.504011
vt 0.224162 0.500133
vt 0.227266 0.504876
vt 0.230433 0.511045
vt 0.141165 0.786103
vt 0.135029 0.785576
vt 0.142721 0.792230
vt 0.137497 0.792863
vt 0.233188 0.502717
vt 0.236971 0.508862
vt 0.229558 0.497536
vt 0.187473 0.566071
vt 0.185504 0.575031
vt 0.190733 0.574815
vt 0.186979 0.578740
vt 0.194637 0.541406
vt 0.176145 0.536653
vt 0.197716 0.509678
vt 0.221447 0.536043
vt 0.198808 0.565984
vt 0.178351 0.554391
vt 0.171521 0.547882
vt 0.162446 0.761581
vt 0.163738 0.773498
vt 0.155487 0.781684
vt 0.158294 0.762108
vt 0.171658 0.781684
vt 0.172883 0.820322
vt 0.176509 0.831720
vt 0.172883 0.835604
vt 0.174573 0.568467
vt 0.250924 0.728386
vt 0.262964 0.726913
vt 0.260894 0.736058
vt 0.265748 0.734553
vt 0.264894 0.740603
vt 0.260913 0.741242
vt 0.253356 0.736526
vt 0.254816 0.742121
vt 0.234516 0.818461
vt 0.239291 0.820813
vt 0.235425 0.824775
vt 0.231581 0.824479
vt 0.243975 0.826328
vt 0.236849 0.829632
vt 0.233291 0.829508
vt 0.247141 0.742029
vt 0.244095 0.736175
vt 0.242865 0.742659
vt 0.237718 0.736041
vt 0.231042 0.727107
vt 0.236790 0.724352
vt 0.268467 0.632829
vt 0.275123 0.637536
vt 0.266622 0.640505
vt 0.259319 0.635013
vt 0.253501 0.643528
vt 0.266523 0.650552
vt 0.180666 0.735343
vt 0.187384 0.736702
vt 0.186412 0.742791
vt 0.181364 0.743521
vt 0.191582 0.740168
vt 0.182106 0.747116
vt 0.187198 0.746946
vt 0.290241 0.709723
vt 0.293292 0.706019
vt 0.293919 0.713323
vt 0.293298 0.717165
vt 0.294577 0.705264
vt 0.295219 0.714284
vt 0.294708 0.720740
vt 0.256221 0.749012
vt 0.250549 0.746512
vt 0.257423 0.746589
vt 0.261728 0.745148
vt 0.240434 0.754998
vt 0.234327 0.757618
vt 0.231581 0.749170
vt 0.259826 0.762610
vt 0.249759 0.765813
vt 0.242448 0.760466
vt 0.249112 0.758760
vt 0.231586 0.764143
vt 0.159229 0.843800
vt 0.163221 0.841198
vt 0.167764 0.847829
vt 0.166865 0.850833
vt 0.169964 0.840886
vt 0.172725 0.854868
vt 0.275903 0.685164
vt 0.276759 0.676856
vt 0.284028 0.684098
vt 0.284293 0.688659
vt 0.287824 0.673758
vt 0.290045 0.684789
vt 0.288983 0.689631
vt 0.219479 0.699275
vt 0.244695 0.715646
vt 0.215795 0.717796
vt 0.206927 0.712881
vt 0.205351 0.698049
vt 0.193693 0.686838
vt 0.194074 0.678963
vt 0.180666 0.654044
vt 0.200320 0.670389
vt 0.205174 0.669918
vt 0.223030 0.691399
vt 0.236582 0.703116
vt 0.302032 0.767411
vt 0.281502 0.785462
vt 0.270968 0.774095
vt 0.297623 0.758406
vt 0.274784 0.788696
vt 0.262928 0.784940
vt 0.245215 0.786474
vt 0.239995 0.776808
vt 0.272483 0.762813
vt 0.248770 0.679098
vt 0.243455 0.693377
vt 0.227349 0.671693
vt 0.242640 0.665300
vt 0.224314 0.691488
vt 0.210920 0.668644
vt 0.213268 0.657760
vt 0.209202 0.635965
vt 0.226419 0.653968
vt 0.236022 0.656606
vt 0.195263 0.705584
vt 0.188827 0.699688
vt 0.197359 0.715719
vt 0.188798 0.718280
vt 0.183222 0.714130
vt 0.255616 0.797138
vt 0.244583 0.797156
vt 0.265662 0.798368
vt 0.256817 0.810402
vt 0.249212 0.807998
vt 0.241078 0.806689
vt 0.186944 0.728755
vt 0.180755 0.725964
vt 0.243800 0.815596
vt 0.237705 0.813153
vt 0.250124 0.819805
vt 0.285790 0.720021
vt 0.284753 0.715879
vt 0.291621 0.719072
vt 0.291450 0.722060
vt 0.262145 0.664884
vt 0.243302 0.652911
vt 0.281666 0.648298
vt 0.282689 0.662746
vt 0.262481 0.681313
vt 0.241367 0.666342
vt 0.234894 0.657893
vt 0.280821 0.698906
vt 0.265880 0.709613
vt 0.269085 0.725668
vt 0.293042 0.695836
vt 0.289462 0.695476
vt 0.169532 0.820322
vt 0.172725 0.829268
vt 0.160813 0.833363
vt 0.159357 0.825892
vt 0.154284 0.835432
vt 0.154568 0.828021
s 1
g off
g pasted__polySurface2_pasted__lambert13_0.002_Material.003
usemtl Material.003
f 1/1/1 2/2/2 3/3/3
f 1/1/1 3/3/3 4/4/4
f 4/4/4 3/3/3 6/5/5
f 4/4/4 6/5/5 7/6/6
s 2
f 9/7/7 11/8/8 12/9/4
f 9/7/7 12/9/4 10/10/9
f 10/10/9 12/9/4 13/11/10
f 10/10/9 13/11/10 14/12/11
s 1
f 7/6/6 6/5/5 15/13/12
f 7/6/6 15/13/12 16/14/13
f 6/5/5 17/15/14 15/13/12
f 15/13/12 18/16/15 19/17/16
f 16/14/13 15/13/12 19/17/16
f 16/14/13 19/17/16 20/18/17
s 2
f 14/12/11 13/11/10 24/19/18
f 14/12/11 24/19/18 23/20/19
f 23/20/19 24/19/18 25/21/17
f 23/20/19 25/21/17 26/22/20
f 21/23/21 23/20/19 26/22/20
f 21/23/21 26/22/20 22/24/22
s 1
f 20/18/17 19/17/16 27/25/23
f 20/18/17 27/25/23 28/26/24
f 19/17/16 18/16/15 29/27/25
f 19/17/16 29/27/25 27/25/23
f 27/25/23 29/27/25 30/28/26
f 27/25/23 30/28/26 31/29/27
f 28/26/24 27/25/23 31/29/27
f 28/26/24 31/29/27 32/30/28
f 29/27/25 33/31/29 30/28/26
s 2
f 22/24/22 26/22/20 37/32/30
f 22/24/22 37/32/30 35/33/31
f 26/22/20 25/21/17 38/34/32
f 26/22/20 38/34/32 37/32/30
f 37/32/30 38/34/32 39/35/28
f 37/32/30 39/35/28 40/36/33
s 1
f 32/30/28 31/29/27 41/37/34
f 32/30/28 41/37/34 42/38/35
f 31/29/27 30/28/26 43/39/36
f 31/29/27 43/39/36 41/37/34
f 41/37/34 43/39/36 44/40/37
f 41/37/34 44/40/37 45/41/38
f 42/38/35 41/37/34 45/41/38
f 42/38/35 45/41/38 46/42/39
f 30/28/26 33/31/29 47/43/40
f 30/28/26 47/43/40 43/39/36
f 47/43/40 48/44/41 49/45/42
f 43/39/36 47/43/40 49/45/42
s 3
f 34/46/43 36/47/44 51/48/45
f 34/46/43 51/48/45 50/49/46
s 2
f 40/36/33 39/35/28 53/50/47
s 4
f 52/51/48 53/52/49 54/53/50
s 1
f 46/42/39 45/41/38 56/54/51
f 46/42/39 56/54/51 57/55/52
f 57/55/52 56/54/51 59/56/53
f 57/55/52 59/56/53 60/57/54
s 5
f 44/58/55 49/59/56 61/60/57
f 49/59/56 62/61/58 61/60/57
f 61/60/57 62/61/58 63/62/59
f 61/60/57 63/62/59 64/63/60
f 58/64/61 61/60/57 64/63/60
s 6
f 55/65/62 54/66/63 65/67/64
s 1
f 60/57/54 59/56/53 68/68/65
f 60/57/54 68/68/65 69/69/66
f 59/56/53 70/70/67 68/68/65
f 68/68/65 71/71/68 72/72/69
f 69/69/66 68/68/65 72/72/69
f 69/69/66 72/72/69 73/73/70
s 5
f 64/63/60 63/62/59 74/74/71
s 7
f 67/75/72 66/76/73 76/77/74
s 8
f 75/78/75 76/79/76 77/80/77
s 1
f 73/73/70 72/72/69 79/81/78
f 73/73/70 79/81/78 80/82/79
f 72/72/69 71/71/68 81/83/80
f 72/72/69 81/83/80 79/81/78
f 80/82/79 79/81/78 82/84/81
f 80/82/79 82/84/81 83/85/82
s 9
f 78/86/83 77/87/84 85/88/85
s 10
f 84/89/86 85/90/87 86/91/82
f 84/89/86 86/91/82 87/92/88
s 1
f 83/85/82 82/84/81 88/93/89
f 83/85/82 88/93/89 89/94/90
f 82/84/81 90/95/91 88/93/89
s 10
f 87/92/88 86/91/82 91/96/92
s 1
f 5/97/93 2/2/2 92/98/94
f 1/1/1 94/99/95 92/98/94
f 1/1/1 92/98/94 2/2/2
f 95/100/96 93/101/97 92/98/94
f 95/100/96 92/98/94 94/99/95
s 11
f 8/102/98 97/103/99 96/104/100
s 12
f 100/105/101 99/106/102 98/107/103
s 2
f 11/8/8 9/7/7 101/108/104
f 11/8/8 101/108/104 102/109/95
f 104/110/105 102/109/95 101/108/104
f 104/110/105 101/108/104 103/111/106
s 13
f 200/112/107 202/113/108 203/114/109
f 200/112/107 203/114/109 201/115/110
f 201/115/110 203/114/109 204/116/111
f 201/115/110 204/116/111 205/117/112
f 202/113/108 206/118/113 207/119/114
f 202/113/108 207/119/114 203/114/109
f 206/118/113 208/120/115 209/121/116
f 206/118/113 209/121/116 207/119/114
f 207/119/114 209/121/116 210/122/117
f 207/119/114 210/122/117 211/123/118
f 203/114/109 207/119/114 211/123/118
f 203/114/109 211/123/118 204/116/111
f 208/120/115 212/124/119 213/125/120
f 208/120/115 213/125/120 209/121/116
f 212/124/119 214/126/121 215/127/122
f 212/124/119 215/127/122 213/125/120
f 213/125/120 215/127/122 216/128/123
f 213/125/120 216/128/123 217/129/124
f 209/121/116 213/125/120 217/129/124
f 209/121/116 217/129/124 210/122/117
f 214/126/121 218/130/125 219/131/126
f 214/126/121 219/131/126 215/127/122
f 218/130/125 220/132/127 221/133/128
f 218/130/125 221/133/128 219/131/126
f 219/131/126 221/133/128 222/134/129
f 219/131/126 222/134/129 223/135/130
f 215/127/122 219/131/126 223/135/130
f 215/127/122 223/135/130 216/128/123
f 220/132/127 224/136/131 225/137/132
f 220/132/127 225/137/132 221/133/128
f 224/136/131 226/138/133 227/139/134
f 224/136/131 227/139/134 225/137/132
f 225/137/132 227/139/134 228/140/135
f 225/137/132 228/140/135 229/141/136
f 221/133/128 225/137/132 229/141/136
f 221/133/128 229/141/136 222/134/129
f 226/138/133 230/142/137 231/143/138
f 226/138/133 231/143/138 227/139/134
f 230/142/137 232/144/139 233/145/140
f 230/142/137 233/145/140 231/143/138
f 231/143/138 233/145/140 234/146/141
f 231/143/138 234/146/141 235/147/142
f 227/139/134 231/143/138 235/147/142
f 227/139/134 235/147/142 228/140/135
f 232/144/139 236/148/143 237/149/144
f 232/144/139 237/149/144 233/145/140
f 236/148/143 238/150/145 239/151/146
f 236/148/143 239/151/146 237/149/144
f 237/149/144 239/151/146 240/152/147
f 237/149/144 240/152/147 241/153/148
f 233/145/140 237/149/144 241/153/148
f 233/145/140 241/153/148 234/146/141
f 238/150/145 242/154/149 243/155/150
f 238/150/145 243/155/150 239/151/146
f 242/154/149 244/156/151 245/157/152
f 242/154/149 245/157/152 243/155/150
f 243/155/150 245/157/152 246/158/153
f 243/155/150 246/158/153 247/159/154
f 239/151/146 243/155/150 247/159/154
f 239/151/146 247/159/154 240/152/147
f 244/156/151 248/160/155 249/161/156
f 244/156/151 249/161/156 245/157/152
f 248/160/155 250/162/157 251/163/158
f 248/160/155 251/163/158 249/161/156
f 249/161/156 251/163/158 252/164/159
f 249/161/156 252/164/159 253/165/160
f 245/157/152 249/161/156 253/165/160
f 245/157/152 253/165/160 246/158/153
f 250/162/157 254/166/161 255/167/162
f 250/162/157 255/167/162 251/163/158
f 251/163/158 255/167/162 256/168/163
f 251/163/158 256/168/163 252/164/159
f 205/117/112 204/116/111 258/169/164
f 257/170/165 258/169/164 259/171/166
f 204/116/111 211/123/118 260/172/167
f 204/116/111 260/172/167 258/169/164
f 211/123/118 210/122/117 261/173/168
f 211/123/118 261/173/168 260/172/167
f 260/172/167 261/173/168 262/174/169
f 260/172/167 262/174/169 263/175/170
f 258/169/164 260/172/167 263/175/170
f 258/169/164 263/175/170 259/171/166
f 210/122/117 217/129/124 264/176/171
f 210/122/117 264/176/171 261/173/168
f 217/129/124 216/128/123 265/177/172
f 217/129/124 265/177/172 264/176/171
f 264/176/171 265/177/172 266/178/173
f 264/176/171 266/178/173 267/179/174
f 261/173/168 264/176/171 267/179/174
f 261/173/168 267/179/174 262/174/169
f 216/128/123 223/135/130 268/180/175
f 216/128/123 268/180/175 265/177/172
f 223/135/130 222/134/129 269/181/176
f 223/135/130 269/181/176 268/180/175
f 268/180/175 269/181/176 270/182/177
f 268/180/175 270/182/177 271/183/178
f 265/177/172 268/180/175 271/183/178
f 265/177/172 271/183/178 266/178/173
f 222/134/129 229/141/136 272/184/179
f 222/134/129 272/184/179 269/181/176
f 229/141/136 228/140/135 273/185/180
f 229/141/136 273/185/180 272/184/179
f 272/184/179 273/185/180 274/186/181
f 272/184/179 274/186/181 275/187/182
f 269/181/176 272/184/179 275/187/182
f 269/181/176 275/187/182 270/182/177
f 228/140/135 235/147/142 276/188/183
f 228/140/135 276/188/183 273/185/180
f 235/147/142 234/146/141 277/189/184
f 235/147/142 277/189/184 276/188/183
f 276/188/183 277/189/184 278/190/185
f 276/188/183 278/190/185 279/191/186
f 273/185/180 276/188/183 279/191/186
f 273/185/180 279/191/186 274/186/181
f 234/146/141 241/153/148 280/192/187
f 234/146/141 280/192/187 277/189/184
f 241/153/148 240/152/147 281/193/188
f 241/153/148 281/193/188 280/192/187
f 280/192/187 281/193/188 282/194/189
f 280/192/187 282/194/189 283/195/190
f 277/189/184 280/192/187 283/195/190
f 277/189/184 283/195/190 278/190/185
f 240/152/147 247/159/154 284/196/191
f 240/152/147 284/196/191 281/193/188
f 247/159/154 246/158/153 285/197/192
f 247/159/154 285/197/192 284/196/191
f 284/196/191 285/197/192 286/198/193
f 284/196/191 286/198/193 287/199/194
f 281/193/188 284/196/191 287/199/194
f 281/193/188 287/199/194 282/194/189
f 246/158/153 253/165/160 288/200/195
f 246/158/153 288/200/195 285/197/192
f 253/165/160 252/164/159 289/201/196
f 253/165/160 289/201/196 288/200/195
f 288/200/195 289/201/196 290/202/197
f 288/200/195 290/202/197 291/203/198
f 285/197/192 288/200/195 291/203/198
f 285/197/192 291/203/198 286/198/193
f 252/164/159 256/168/163 292/204/199
f 252/164/159 292/204/199 289/201/196
f 259/171/166 263/175/170 294/205/200
f 259/171/166 294/205/200 293/206/201
f 263/175/170 262/174/169 295/207/202
f 263/175/170 295/207/202 294/205/200
f 294/205/200 295/207/202 296/208/203
f 294/205/200 296/208/203 297/209/204
f 293/206/201 294/205/200 297/209/204
f 262/174/169 267/179/174 298/210/205
f 262/174/169 298/210/205 295/207/202
f 267/179/174 266/178/173 299/211/206
f 267/179/174 299/211/206 298/210/205
f 298/210/205 299/211/206 300/212/207
f 298/210/205 300/212/207 301/213/208
f 295/207/202 298/210/205 301/213/208
f 295/207/202 301/213/208 296/208/203
f 266/178/173 271/183/178 302/214/209
f 266/178/173 302/214/209 299/211/206
f 271/183/178 270/182/177 303/215/210
f 271/183/178 303/215/210 302/214/209
f 302/214/209 303/215/210 304/216/211
f 302/214/209 304/216/211 305/217/212
f 299/211/206 302/214/209 305/217/212
f 299/211/206 305/217/212 300/212/207
f 270/182/177 275/187/182 306/218/213
f 270/182/177 306/218/213 303/215/210
f 275/187/182 274/186/181 307/219/214
f 275/187/182 307/219/214 306/218/213
f 306/218/213 307/219/214 308/220/215
f 306/218/213 308/220/215 309/221/216
f 303/215/210 306/218/213 309/221/216
f 303/215/210 309/221/216 304/216/211
f 274/186/181 279/191/186 310/222/217
f 274/186/181 310/222/217 307/219/214
f 279/191/186 278/190/185 311/223/218
f 279/191/186 311/223/218 310/222/217
f 310/222/217 311/223/218 312/224/219
f 310/222/217 312/224/219 313/225/220
f 307/219/214 310/222/217 313/225/220
f 307/219/214 313/225/220 308/220/215
f 278/190/185 283/195/190 314/226/221
f 278/190/185 314/226/221 311/223/218
f 283/195/190 282/194/189 315/227/222
f 283/195/190 315/227/222 314/226/221
f 314/226/221 315/227/222 316/228/223
f 314/226/221 316/228/223 317/229/224
f 311/223/218 314/226/221 317/229/224
f 311/223/218 317/229/224 312/224/219
f 282/194/189 287/199/194 318/230/225
f 282/194/189 318/230/225 315/227/222
f 287/199/194 286/198/193 319/231/226
f 287/199/194 319/231/226 318/230/225
f 318/230/225 319/231/226 320/232/227
f 318/230/225 320/232/227 321/233/228
f 315/227/222 318/230/225 321/233/228
f 315/227/222 321/233/228 316/228/223
f 286/198/193 291/203/198 322/234/229
f 286/198/193 322/234/229 319/231/226
f 291/203/198 290/202/197 323/235/230
f 291/203/198 323/235/230 322/234/229
f 322/234/229 323/235/230 324/236/231
f 322/234/229 324/236/231 325/237/232
f 319/231/226 322/234/229 325/237/232
f 319/231/226 325/237/232 320/232/227
f 323/235/230 326/238/233 327/239/234
f 323/235/230 327/239/234 324/236/231
f 297/209/204 296/208/203 332/240/235
f 297/209/204 332/240/235 331/241/236
f 331/241/236 332/240/235 333/242/237
s 14
f 328/243/238 334/244/239 329/245/239
s 13
f 296/208/203 301/213/208 335/246/240
f 296/208/203 335/246/240 332/240/235
f 301/213/208 300/212/207 336/247/241
f 301/213/208 336/247/241 335/246/240
f 335/246/240 336/247/241 337/248/242
f 335/246/240 337/248/242 338/249/243
f 332/240/235 335/246/240 338/249/243
f 332/240/235 338/249/243 333/242/237
f 300/212/207 305/217/212 339/250/244
f 300/212/207 339/250/244 336/247/241
f 305/217/212 304/216/211 340/251/245
f 305/217/212 340/251/245 339/250/244
f 339/250/244 340/251/245 341/252/246
f 339/250/244 341/252/246 342/253/247
f 336/247/241 339/250/244 342/253/247
f 336/247/241 342/253/247 337/248/242
f 304/216/211 309/221/216 343/254/248
f 304/216/211 343/254/248 340/251/245
f 309/221/216 308/220/215 344/255/249
f 309/221/216 344/255/249 343/254/248
f 343/254/248 344/255/249 345/256/250
f 343/254/248 345/256/250 346/257/251
f 340/251/245 343/254/248 346/257/251
f 340/251/245 346/257/251 341/252/246
f 308/220/215 313/225/220 347/258/252
f 308/220/215 347/258/252 344/255/249
f 313/225/220 312/224/219 348/259/253
f 313/225/220 348/259/253 347/258/252
f 347/258/252 348/259/253 349/260/254
f 347/258/252 349/260/254 350/261/255
f 344/255/249 347/258/252 350/261/255
f 344/255/249 350/261/255 345/256/250
f 312/224/219 317/229/224 351/262/256
f 312/224/219 351/262/256 348/259/253
f 317/229/224 316/228/223 352/263/257
f 317/229/224 352/263/257 351/262/256
f 351/262/256 352/263/257 353/264/258
f 351/262/256 353/264/258 354/265/259
f 348/259/253 351/262/256 354/265/259
f 348/259/253 354/265/259 349/260/254
f 316/228/223 321/233/228 355/266/260
f 316/228/223 355/266/260 352/263/257
f 321/233/228 320/232/227 356/267/261
f 321/233/228 356/267/261 355/266/260
f 355/266/260 356/267/261 357/268/262
f 355/266/260 357/268/262 358/269/263
f 352/263/257 355/266/260 358/269/263
f 352/263/257 358/269/263 353/264/258
f 325/237/232 324/236/231 360/270/264
f 325/237/232 360/270/264 359/271/265
f 359/271/265 360/270/264 361/272/266
f 359/271/265 361/272/266 362/273/267
f 356/267/261 359/271/265 362/273/267
f 356/267/261 362/273/267 357/268/262
f 324/236/231 327/239/234 363/274/268
f 324/236/231 363/274/268 360/270/264
f 327/239/234 364/275/269 363/274/268
f 363/274/268 365/276/270 366/277/271
f 360/270/264 363/274/268 366/277/271
f 360/270/264 366/277/271 361/272/266
f 330/278/272 329/279/273 368/280/274
f 330/278/272 368/280/274 367/281/275
f 367/281/275 368/280/274 369/282/276
f 367/281/275 369/282/276 370/283/277
f 329/279/273 371/284/278 368/280/274
f 334/285/279 333/242/237 372/286/280
f 368/280/274 374/287/281 369/282/276
f 333/242/237 338/249/243 375/288/282
f 333/242/237 375/288/282 372/286/280
f 338/249/243 337/248/242 376/289/283
f 338/249/243 376/289/283 375/288/282
f 375/288/282 376/289/283 377/290/284
f 375/288/282 377/290/284 378/291/285
f 372/286/280 375/288/282 378/291/285
f 372/286/280 378/291/285 373/292/286
f 337/248/242 342/253/247 379/293/287
f 337/248/242 379/293/287 376/289/283
f 342/253/247 341/252/246 380/294/288
f 342/253/247 380/294/288 379/293/287
f 379/293/287 380/294/288 381/295/289
f 379/293/287 381/295/289 382/296/290
f 376/289/283 379/293/287 382/296/290
f 376/289/283 382/296/290 377/290/284
f 341/252/246 346/257/251 383/297/291
f 341/252/246 383/297/291 380/294/288
f 346/257/251 345/256/250 384/298/292
f 346/257/251 384/298/292 383/297/291
f 383/297/291 384/298/292 385/299/293
f 383/297/291 385/299/293 386/300/294
f 380/294/288 383/297/291 386/300/294
f 380/294/288 386/300/294 381/295/289
f 345/256/250 350/261/255 387/301/295
f 345/256/250 387/301/295 384/298/292
f 350/261/255 349/260/254 388/302/296
f 350/261/255 388/302/296 387/301/295
f 387/301/295 388/302/296 389/303/297
f 387/301/295 389/303/297 390/304/298
f 384/298/292 387/301/295 390/304/298
f 384/298/292 390/304/298 385/299/293
f 349/260/254 354/265/259 391/305/299
f 349/260/254 391/305/299 388/302/296
f 354/265/259 353/264/258 392/306/300
f 354/265/259 392/306/300 391/305/299
f 391/305/299 392/306/300 393/307/301
f 391/305/299 393/307/301 394/308/302
f 388/302/296 391/305/299 394/308/302
f 388/302/296 394/308/302 389/303/297
f 353/264/258 358/269/263 395/309/303
f 353/264/258 395/309/303 392/306/300
f 358/269/263 357/268/262 396/310/304
f 358/269/263 396/310/304 395/309/303
f 395/309/303 396/310/304 397/311/305
f 395/309/303 397/311/305 398/312/306
f 392/306/300 395/309/303 398/312/306
f 392/306/300 398/312/306 393/307/301
f 357/268/262 362/273/267 399/313/307
f 357/268/262 399/313/307 396/310/304
f 362/273/267 361/272/266 400/314/308
f 362/273/267 400/314/308 399/313/307
f 399/313/307 400/314/308 401/315/309
f 399/313/307 401/315/309 402/316/310
f 396/310/304 399/313/307 402/316/310
f 396/310/304 402/316/310 397/311/305
f 361/272/266 366/277/271 403/317/311
f 361/272/266 403/317/311 400/314/308
f 366/277/271 404/318/312 403/317/311
f 403/317/311 404/318/312 405/319/313
f 403/317/311 405/319/313 406/320/314
f 400/314/308 403/317/311 406/320/314
f 400/314/308 406/320/314 401/315/309
f 370/283/277 369/282/276 408/321/315
f 407/322/316 408/321/315 409/323/317
f 369/282/276 374/287/281 410/324/318
f 369/282/276 410/324/318 408/321/315
f 374/287/281 411/325/319 410/324/318
f 410/324/318 411/325/319 412/326/320
f 410/324/318 412/326/320 413/327/321
f 408/321/315 410/324/318 413/327/321
f 408/321/315 413/327/321 409/323/317
f 373/292/286 378/291/285 414/328/322
f 373/292/286 414/328/322 411/325/319
f 378/291/285 377/290/284 415/329/323
f 378/291/285 415/329/323 414/328/322
f 414/328/322 415/329/323 416/330/324
f 414/328/322 416/330/324 417/331/325
f 411/325/319 414/328/322 417/331/325
f 411/325/319 417/331/325 412/326/320
f 377/290/284 382/296/290 418/332/326
f 377/290/284 418/332/326 415/329/323
f 382/296/290 381/295/289 419/333/327
f 382/296/290 419/333/327 418/332/326
f 418/332/326 419/333/327 420/334/328
f 418/332/326 420/334/328 421/335/329
f 415/329/323 418/332/326 421/335/329
f 415/329/323 421/335/329 416/330/324
f 381/295/289 386/300/294 422/336/330
f 381/295/289 422/336/330 419/333/327
f 386/300/294 385/299/293 423/337/331
f 386/300/294 423/337/331 422/336/330
f 422/336/330 423/337/331 424/338/332
f 422/336/330 424/338/332 425/339/333
f 419/333/327 422/336/330 425/339/333
f 419/333/327 425/339/333 420/334/328
f 385/299/293 390/304/298 426/340/334
f 385/299/293 426/340/334 423/337/331
f 390/304/298 389/303/297 427/341/335
f 390/304/298 427/341/335 426/340/334
f 426/340/334 427/341/335 428/342/336
f 426/340/334 428/342/336 429/343/337
f 423/337/331 426/340/334 429/343/337
f 423/337/331 429/343/337 424/338/332
f 389/303/297 394/308/302 430/344/338
f 389/303/297 430/344/338 427/341/335
f 394/308/302 393/307/301 431/345/339
f 394/308/302 431/345/339 430/344/338
f 430/344/338 431/345/339 432/346/340
f 430/344/338 432/346/340 433/347/341
f 427/341/335 430/344/338 433/347/341
f 427/341/335 433/347/341 428/342/336
f 393/307/301 398/312/306 434/348/342
f 393/307/301 434/348/342 431/345/339
f 398/312/306 397/311/305 435/349/343
f 398/312/306 435/349/343 434/348/342
f 434/348/342 435/349/343 436/350/344
f 434/348/342 436/350/344 437/351/345
f 431/345/339 434/348/342 437/351/345
f 431/345/339 437/351/345 432/346/340
f 397/311/305 402/316/310 438/352/346
f 397/311/305 438/352/346 435/349/343
f 402/316/310 401/315/309 439/353/347
f 402/316/310 439/353/347 438/352/346
f 438/352/346 439/353/347 440/354/348
f 438/352/346 440/354/348 441/355/349
f 435/349/343 438/352/346 441/355/349
f 435/349/343 441/355/349 436/350/344
f 401/315/309 406/320/314 442/356/350
f 401/315/309 442/356/350 439/353/347
f 406/320/314 443/357/351 442/356/350
f 442/356/350 444/358/352 445/359/353
f 439/353/347 442/356/350 445/359/353
f 439/353/347 445/359/353 440/354/348
f 446/360/354 447/361/355 448/362/356
f 446/360/354 448/362/356 449/363/357
f 409/323/317 413/327/321 450/364/358
f 409/323/317 450/364/358 447/361/355
f 413/327/321 412/326/320 451/365/359
f 413/327/321 451/365/359 450/364/358
f 450/364/358 451/365/359 452/366/360
f 450/364/358 452/366/360 453/367/361
f 447/361/355 450/364/358 453/367/361
f 447/361/355 453/367/361 448/362/356
f 412/326/320 417/331/325 454/368/362
f 412/326/320 454/368/362 451/365/359
f 417/331/325 416/330/324 455/369/363
f 417/331/325 455/369/363 454/368/362
f 454/368/362 455/369/363 456/370/364
f 454/368/362 456/370/364 457/371/365
f 451/365/359 454/368/362 457/371/365
f 451/365/359 457/371/365 452/366/360
f 416/330/324 421/335/329 458/372/366
f 416/330/324 458/372/366 455/369/363
f 421/335/329 420/334/328 459/373/367
f 421/335/329 459/373/367 458/372/366
f 458/372/366 459/373/367 460/374/368
f 458/372/366 460/374/368 461/375/369
f 455/369/363 458/372/366 461/375/369
f 455/369/363 461/375/369 456/370/364
f 420/334/328 425/339/333 462/376/370
f 420/334/328 462/376/370 459/373/367
f 425/339/333 424/338/332 463/377/371
f 425/339/333 463/377/371 462/376/370
f 462/376/370 463/377/371 464/378/372
f 462/376/370 464/378/372 465/379/373
f 459/373/367 462/376/370 465/379/373
f 459/373/367 465/379/373 460/374/368
f 424/338/332 429/343/337 466/380/374
f 424/338/332 466/380/374 463/377/371
f 429/343/337 428/342/336 467/381/375
f 429/343/337 467/381/375 466/380/374
f 466/380/374 467/381/375 468/382/376
f 466/380/374 468/382/376 469/383/377
f 463/377/371 466/380/374 469/383/377
f 463/377/371 469/383/377 464/378/372
f 428/342/336 433/347/341 470/384/378
f 428/342/336 470/384/378 467/381/375
f 433/347/341 432/346/340 471/385/379
f 433/347/341 471/385/379 470/384/378
f 470/384/378 471/385/379 472/386/380
f 470/384/378 472/386/380 473/387/381
f 467/381/375 470/384/378 473/387/381
f 467/381/375 473/387/381 468/382/376
f 432/346/340 437/351/345 474/388/382
f 432/346/340 474/388/382 471/385/379
f 437/351/345 436/350/344 475/389/383
f 437/351/345 475/389/383 474/388/382
f 474/388/382 475/389/383 476/390/384
f 474/388/382 476/390/384 477/391/385
f 471/385/379 474/388/382 477/391/385
f 471/385/379 477/391/385 472/386/380
f 436/350/344 441/355/349 478/392/386
f 436/350/344 478/392/386 475/389/383
f 441/355/349 440/354/348 479/393/387
f 441/355/349 479/393/387 478/392/386
f 478/392/386 479/393/387 480/394/388
f 478/392/386 480/394/388 481/395/389
f 475/389/383 478/392/386 481/395/389
f 475/389/383 481/395/389 476/390/384
f 440/354/348 445/359/353 482/396/390
f 440/354/348 482/396/390 479/393/387
f 445/359/353 483/397/391 482/396/390
f 479/393/387 482/396/390 484/398/392
f 479/393/387 484/398/392 480/394/388
f 449/363/357 448/362/356 487/399/393
f 485/400/394 487/399/393 488/401/395
f 485/400/394 488/401/395 489/402/396
f 486/403/397 485/400/394 489/402/396
f 486/403/397 489/402/396 490/404/398
f 448/362/356 453/367/361 491/405/399
f 448/362/356 491/405/399 487/399/393
f 453/367/361 452/366/360 492/406/400
f 453/367/361 492/406/400 491/405/399
f 491/405/399 492/406/400 493/407/401
f 491/405/399 493/407/401 494/408/402
f 487/399/393 491/405/399 494/408/402
f 487/399/393 494/408/402 488/401/395
f 452/366/360 457/371/365 495/409/403
f 452/366/360 495/409/403 492/406/400
f 457/371/365 456/370/364 496/410/404
f 457/371/365 496/410/404 495/409/403
f 495/409/403 496/410/404 497/411/405
f 495/409/403 497/411/405 498/412/406
f 492/406/400 495/409/403 498/412/406
f 492/406/400 498/412/406 493/407/401
f 456/370/364 461/375/369 499/413/407
f 456/370/364 499/413/407 496/410/404
f 461/375/369 460/374/368 500/414/408
f 461/375/369 500/414/408 499/413/407
f 499/413/407 500/414/408 501/415/409
f 499/413/407 501/415/409 502/416/410
f 496/410/404 499/413/407 502/416/410
f 496/410/404 502/416/410 497/411/405
f 460/374/368 465/379/373 503/417/411
f 460/374/368 503/417/411 500/414/408
f 465/379/373 464/378/372 504/418/412
f 465/379/373 504/418/412 503/417/411
f 503/417/411 504/418/412 505/419/413
f 503/417/411 505/419/413 506/420/414
f 500/414/408 503/417/411 506/420/414
f 500/414/408 506/420/414 501/415/409
f 464/378/372 469/383/377 507/421/415
f 464/378/372 507/421/415 504/418/412
f 469/383/377 468/382/376 508/422/416
f 469/383/377 508/422/416 507/421/415
f 507/421/415 508/422/416 509/423/417
f 507/421/415 509/423/417 510/424/418
f 504/418/412 507/421/415 510/424/418
f 504/418/412 510/424/418 505/419/413
f 468/382/376 473/387/381 511/425/419
f 468/382/376 511/425/419 508/422/416
f 473/387/381 472/386/380 512/426/420
f 473/387/381 512/426/420 511/425/419
f 511/425/419 512/426/420 513/427/421
f 511/425/419 513/427/421 514/428/422
f 508/422/416 511/425/419 514/428/422
f 508/422/416 514/428/422 509/423/417
f 472/386/380 477/391/385 515/429/423
f 472/386/380 515/429/423 512/426/420
f 477/391/385 476/390/384 516/430/424
f 477/391/385 516/430/424 515/429/423
f 515/429/423 516/430/424 517/431/425
f 515/429/423 517/431/425 518/432/426
f 512/426/420 515/429/423 518/432/426
f 512/426/420 518/432/426 513/427/421
f 476/390/384 481/395/389 519/433/427
f 476/390/384 519/433/427 516/430/424
f 481/395/389 480/394/388 520/434/428
f 481/395/389 520/434/428 519/433/427
f 519/433/427 520/434/428 521/435/429
f 519/433/427 521/435/429 522/436/430
f 516/430/424 519/433/427 522/436/430
f 516/430/424 522/436/430 517/431/425
f 480/394/388 484/398/392 523/437/431
f 480/394/388 523/437/431 520/434/428
f 484/398/392 524/438/432 523/437/431
f 523/437/431 524/438/432 525/439/398
f 523/437/431 525/439/398 526/440/433
f 520/434/428 523/437/431 526/440/433
f 520/434/428 526/440/433 521/435/429
s 15
f 202/441/434 527/442/435 528/443/436
s 13
f 208/120/115 206/118/113 529/444/437
f 208/120/115 529/444/437 530/445/438
f 202/113/108 531/446/439 529/444/437
f 202/113/108 529/444/437 206/118/113
f 532/447/440 530/445/438 529/444/437
f 532/447/440 529/444/437 531/446/439
f 214/126/121 212/124/119 533/448/441
f 214/126/121 533/448/441 534/449/442
f 208/120/115 535/450/438 533/448/441
f 208/120/115 533/448/441 212/124/119
f 536/451/96 534/449/442 533/448/441
f 536/451/96 533/448/441 535/450/438
f 220/132/127 218/130/125 537/452/443
f 220/132/127 537/452/443 538/453/444
f 214/126/121 539/454/445 537/452/443
f 214/126/121 537/452/443 218/130/125
f 540/455/96 538/453/444 537/452/443
f 540/455/96 537/452/443 539/454/445
f 226/138/133 224/136/131 541/456/446
f 226/138/133 541/456/446 542/457/447
f 220/132/127 543/458/448 541/456/446
f 220/132/127 541/456/446 224/136/131
f 544/459/96 542/457/447 541/456/446
f 544/459/96 541/456/446 543/458/448
f 232/144/139 230/142/137 545/460/449
f 232/144/139 545/460/449 546/461/450
f 226/138/133 547/462/447 545/460/449
f 226/138/133 545/460/449 230/142/137
f 548/463/96 546/461/450 545/460/449
f 548/463/96 545/460/449 547/462/447
f 238/150/145 236/148/143 549/464/451
f 238/150/145 549/464/451 550/465/452
f 232/144/139 549/464/451 236/148/143
f 552/466/96 550/465/452 549/464/451
f 552/466/96 549/464/451 551/467/453
f 244/156/151 242/154/149 553/468/454
f 244/156/151 553/468/454 554/469/455
f 238/150/145 555/470/452 553/468/454
f 238/150/145 553/468/454 242/154/149
f 556/471/96 554/469/455 553/468/454
f 556/471/96 553/468/454 555/470/452
f 250/162/157 248/160/155 557/472/456
f 250/162/157 557/472/456 558/473/457
f 244/156/151 559/474/455 557/472/456
f 244/156/151 557/472/456 248/160/155
f 560/475/458 557/472/456 559/474/455
f 250/162/157 562/476/459 561/477/460
f 250/162/157 561/477/460 254/166/161
f 490/404/398 489/402/396 563/478/461
f 490/404/398 563/478/461 564/479/462
f 488/401/395 565/480/463 563/478/461
f 488/401/395 563/478/461 489/402/396
f 566/481/464 564/479/462 563/478/461
f 566/481/464 563/478/461 565/480/463
f 488/401/395 494/408/402 567/482/465
f 488/401/395 567/482/465 568/483/463
f 493/407/401 569/484/466 567/482/465
f 493/407/401 567/482/465 494/408/402
f 570/485/464 568/483/463 567/482/465
f 570/485/464 567/482/465 569/484/466
f 493/407/401 498/412/406 571/486/467
f 493/407/401 571/486/467 572/487/466
f 497/411/405 573/488/468 571/486/467
f 497/411/405 571/486/467 498/412/406
f 574/489/464 572/487/466 571/486/467
f 574/489/464 571/486/467 573/488/468
f 497/411/405 502/416/410 575/490/469
f 497/411/405 575/490/469 576/491/470
f 501/415/409 577/492/471 575/490/469
f 501/415/409 575/490/469 502/416/410
f 578/493/472 576/491/470 575/490/469
f 578/493/472 575/490/469 577/492/471
f 501/415/409 506/420/414 579/494/473
f 501/415/409 579/494/473 580/495/474
f 505/419/413 581/496/475 579/494/473
f 505/419/413 579/494/473 506/420/414
f 582/497/476 580/495/474 579/494/473
f 582/497/476 579/494/473 581/496/475
f 505/419/413 510/424/418 583/498/477
f 505/419/413 583/498/477 584/499/475
f 509/423/417 585/500/478 583/498/477
f 509/423/417 583/498/477 510/424/418
f 586/501/479 584/499/475 583/498/477
f 586/501/479 583/498/477 585/500/478
f 509/423/417 514/428/422 587/502/480
f 509/423/417 587/502/480 588/503/478
f 513/427/421 589/504/481 587/502/480
f 513/427/421 587/502/480 514/428/422
f 590/505/482 588/503/478 587/502/480
f 590/505/482 587/502/480 589/504/481
f 513/427/421 518/432/426 591/506/483
f 513/427/421 591/506/483 592/507/484
f 517/431/425 593/508/485 591/506/483
f 517/431/425 591/506/483 518/432/426
f 594/509/464 592/507/484 591/506/483
f 594/509/464 591/506/483 593/508/485
f 517/431/425 522/436/430 595/510/486
f 517/431/425 595/510/486 596/511/485
f 521/435/429 597/512/487 595/510/486
f 521/435/429 595/510/486 522/436/430
f 598/513/464 596/511/485 595/510/486
f 598/513/464 595/510/486 597/512/487
f 521/435/429 526/440/433 599/514/488
f 521/435/429 599/514/488 600/515/487
f 525/439/398 601/516/462 599/514/488
f 525/439/398 599/514/488 526/440/433
f 602/517/464 600/515/487 599/514/488
f 602/517/464 599/514/488 601/516/462
s 16
f 105/518/489 107/519/490 108/520/491
s 17
f 106/521/492 109/522/493 110/523/494
s 18
f 115/524/495 116/525/496 117/526/497
f 115/524/495 117/526/497 118/527/498
f 116/525/496 119/528/499 120/529/500
f 116/525/496 120/529/500 117/526/497
f 117/526/497 120/529/500 121/530/501
f 117/526/497 121/530/501 122/531/502
f 118/527/498 117/526/497 122/531/502
f 118/527/498 122/531/502 123/532/503
s 19
f 127/533/504 128/534/505 126/535/506
f 127/533/504 126/535/506 125/536/507
s 18
f 129/537/508 130/538/509 131/539/510
f 129/537/508 131/539/510 132/540/511
f 112/541/512 113/542/513 131/539/510
f 112/541/512 131/539/510 130/538/509
f 114/543/514 132/540/511 131/539/510
f 114/543/514 131/539/510 113/542/513
s 20
f 135/544/515 136/545/516 134/546/517
s 21
f 139/547/518 140/548/519 141/549/520
f 124/550/521 141/549/520 140/548/519
s 18
f 123/532/503 122/531/502 143/551/522
f 123/532/503 143/551/522 144/552/523
f 121/530/501 143/551/522 122/531/502
f 145/553/524 144/552/523 143/551/522
s 22
f 111/554/525 147/555/526 146/556/527
f 139/557/528 142/558/529 146/556/527
f 139/557/528 146/556/527 147/555/526
s 18
f 148/559/530 150/560/531 151/561/532
f 152/562/533 153/563/534 150/560/531
f 152/562/533 150/560/531 149/564/535
f 154/565/536 151/561/532 150/560/531
f 154/565/536 150/560/531 153/563/534
f 157/566/537 158/567/538 156/568/539
f 159/569/540 156/568/539 158/567/538
s 23
f 160/570/541 161/571/542 162/572/543
f 160/570/541 162/572/543 163/573/544
f 164/574/545 165/575/546 162/572/543
f 164/574/545 162/572/543 161/571/542
s 24
f 168/576/547 169/577/548 170/578/549
f 168/576/547 170/578/549 171/579/550
s 18
f 172/580/551 173/581/552 174/582/553
f 172/580/551 174/582/553 175/583/554
f 173/581/552 166/584/555 176/585/556
f 173/581/552 176/585/556 174/582/553
f 174/582/553 176/585/556 177/586/557
f 174/582/553 177/586/557 178/587/558
f 175/583/554 174/582/553 178/587/558
f 175/583/554 178/587/558 179/588/559
s 24
f 171/579/550 170/578/549 181/589/560
f 171/579/550 181/589/560 180/590/561
f 180/590/561 181/589/560 135/591/562
f 180/590/561 135/591/562 133/592/563
s 18
f 179/588/559 178/587/558 182/593/564
f 179/588/559 182/593/564 183/594/565
f 178/587/558 177/586/557 184/595/566
f 178/587/558 184/595/566 182/593/564
f 182/593/564 184/595/566 112/541/512
f 182/593/564 112/541/512 130/538/509
f 183/594/565 182/593/564 130/538/509
f 183/594/565 130/538/509 129/537/508
f 157/566/537 185/596/567 186/597/568
f 157/566/537 186/597/568 158/567/538
f 187/598/569 188/599/570 186/597/568
f 187/598/569 186/597/568 185/596/567
f 159/569/540 158/567/538 186/597/568
f 159/569/540 186/597/568 188/599/570
f 154/565/536 153/563/534 191/600/571
f 154/565/536 191/600/571 192/601/572
f 152/562/533 167/602/573 191/600/571
f 152/562/533 191/600/571 153/563/534
f 166/584/555 173/581/552 191/600/571
f 166/584/555 191/600/571 167/602/573
f 172/580/551 193/603/574 191/600/571
f 172/580/551 191/600/571 173/581/552
f 119/528/499 116/525/496 191/600/571
f 119/528/499 191/600/571 193/603/574
f 115/524/495 194/604/575 191/600/571
f 115/524/495 191/600/571 116/525/496
f 187/598/569 185/596/567 191/600/571
f 187/598/569 191/600/571 194/604/575
f 157/566/537 195/605/576 191/600/571
f 157/566/537 191/600/571 185/596/567
f 196/606/577 192/601/572 191/600/571
f 196/606/577 191/600/571 195/605/576
s 25
f 189/607/578 198/608/575 197/609/579
f 189/607/578 197/609/579 190/610/580
f 109/611/581 197/609/579 198/608/575
s 26
f 199/612/582 138/613/583 137/614/584
s 18
f 195/605/576 157/566/537 155/615/585
s 27
f 603/616/586 604/617/587 605/618/588
f 604/617/587 608/619/589 605/618/588
f 605/618/588 608/619/589 609/620/590
f 605/618/588 609/620/590 610/621/591
f 606/622/592 605/618/588 610/621/591
f 606/622/592 610/621/591 611/623/593
s 28
f 612/624/594 613/625/595 614/626/596
f 612/624/594 614/626/596 615/627/597
f 616/628/598 617/629/599 614/626/596
f 616/628/598 614/626/596 613/625/595
f 618/630/600 615/627/597 614/626/596
f 618/630/600 614/626/596 617/629/599
s 27
f 611/623/593 619/631/601 620/632/602
f 611/623/593 620/632/602 606/622/592
f 619/631/601 621/633/603 622/634/500
f 619/631/601 622/634/500 620/632/602
f 620/632/602 622/634/500 623/635/499
f 620/632/602 623/635/499 624/636/604
f 606/622/592 620/632/602 624/636/604
f 606/622/592 624/636/604 603/616/586
f 625/637/605 626/638/606 627/639/607
f 625/637/605 627/639/607 628/640/608
f 631/641/609 628/640/608 627/639/607
f 631/641/609 627/639/607 630/642/610
f 632/643/611 633/644/612 634/645/613
f 632/643/611 634/645/613 635/646/599
f 636/647/614 634/645/613 633/644/612
f 638/648/615 635/646/599 634/645/613
f 638/648/615 634/645/613 637/649/616
f 639/650/617 640/651/618 641/652/619
f 639/650/617 641/652/619 642/653/620
f 643/654/621 644/655/622 641/652/619
f 643/654/621 641/652/619 640/651/618
f 645/656/623 642/653/620 641/652/619
f 645/656/623 641/652/619 644/655/622
f 646/657/624 647/658/625 648/659/626
f 621/633/603 619/631/601 647/658/625
f 611/623/593 648/659/626 647/658/625
f 611/623/593 647/658/625 619/631/601
f 611/623/593 610/621/591 649/660/627
f 611/623/593 649/660/627 648/659/626
f 609/620/590 649/660/627 610/621/591
s 28
f 650/661/628 651/662/629 652/663/630
f 654/664/609 655/665/631 656/666/632
f 654/664/609 656/666/632 657/667/608
f 653/668/633 651/662/629 656/666/632
f 653/668/633 656/666/632 655/665/631
f 650/661/628 657/667/608 656/666/632
f 650/661/628 656/666/632 651/662/629
s 29
f 658/669/634 659/670/635 660/671/636
f 658/669/634 660/671/636 661/672/622
f 662/673/637 660/671/636 659/670/635
f 663/674/638 661/672/622 660/671/636
s 27
f 664/675/639 665/676/640 666/677/641
f 664/675/639 666/677/641 667/678/642
f 668/679/643 669/680/644 666/677/641
f 668/679/643 666/677/641 665/676/640
f 670/681/645 667/678/642 666/677/641
f 670/681/645 666/677/641 669/680/644
f 603/616/586 624/636/604 671/682/646
f 603/616/586 671/682/646 672/683/647
f 623/635/499 673/684/648 671/682/646
f 623/635/499 671/682/646 624/636/604
f 674/685/551 675/686/649 671/682/646
f 674/685/551 671/682/646 673/684/648
f 676/687/650 677/688/651 671/682/646
f 676/687/650 671/682/646 675/686/649
f 678/689/652 679/690/653 671/682/646
f 678/689/652 671/682/646 677/688/651
f 680/691/654 681/692/655 671/682/646
f 680/691/654 671/682/646 679/690/653
f 682/693/656 672/683/647 671/682/646
f 682/693/656 671/682/646 681/692/655
s 28
f 689/694/657 690/695/651 685/696/658
f 689/694/657 685/696/658 688/697/659
f 691/698/650 692/699/660 685/696/658
f 691/698/650 685/696/658 690/695/651
f 693/700/661 694/701/662 685/696/658
f 693/700/661 685/696/658 692/699/660
f 653/668/633 655/665/631 685/696/658
f 653/668/633 685/696/658 694/701/662
f 654/664/609 686/702/663 685/696/658
f 654/664/609 685/696/658 655/665/631
s 27
f 695/703/664 696/704/665 697/705/666
f 695/703/664 697/705/666 698/706/667
f 682/693/656 699/707/655 697/705/666
f 682/693/656 697/705/666 696/704/665
f 700/708/668 701/709/669 697/705/666
f 700/708/668 697/705/666 699/707/655
f 687/710/670 684/711/671 697/705/666
f 687/710/670 697/705/666 701/709/669
f 683/712/672 698/706/667 697/705/666
f 683/712/672 697/705/666 684/711/671
f 676/687/650 675/686/649 702/713/673
f 676/687/650 702/713/673 703/714/674
f 675/686/649 674/685/551 704/715/675
f 675/686/649 704/715/675 702/713/673
f 703/714/674 702/713/673 705/716/676
f 703/714/674 705/716/676 706/717/677
s 28
f 693/700/661 692/699/660 709/718/678
f 693/700/661 709/718/678 707/719/679
f 692/699/660 691/698/650 710/720/674
f 692/699/660 710/720/674 709/718/678
f 709/718/678 710/720/674 711/721/680
f 709/718/678 711/721/680 712/722/681
f 707/719/679 709/718/678 712/722/681
f 707/719/679 712/722/681 708/723/682
s 27
f 706/717/677 705/716/676 713/724/683
f 706/717/677 713/724/683 714/725/684
f 714/725/684 713/724/683 633/644/612
f 714/725/684 633/644/612 632/643/611
s 28
f 708/723/682 712/722/681 716/726/685
f 708/723/682 716/726/685 715/727/686
f 712/722/681 711/721/680 717/728/687
f 712/722/681 717/728/687 716/726/685
f 716/726/685 717/728/687 616/628/598
f 716/726/685 616/628/598 613/625/595
f 715/727/686 716/726/685 613/625/595
f 715/727/686 613/625/595 612/624/594
s 27
f 718/729/688 719/730/689 720/731/690
f 718/729/688 720/731/690 721/732/691
f 639/650/617 642/653/620 720/731/690
f 639/650/617 720/731/690 719/730/689
f 645/656/623 721/732/691 720/731/690
f 645/656/623 720/731/690 642/653/620
f 631/641/609 630/642/610 722/733/692
f 631/641/609 722/733/692 723/734/693
f 629/735/694 724/736/695 722/733/692
f 629/735/694 722/733/692 630/642/610
f 668/679/643 665/676/640 722/733/692
f 668/679/643 722/733/692 724/736/695
f 664/675/639 725/737/696 722/733/692
f 664/675/639 722/733/692 665/676/640
f 695/703/664 726/738/697 722/733/692
f 695/703/664 722/733/692 725/737/696
f 727/739/698 723/734/693 722/733/692
f 727/739/698 722/733/692 726/738/697
f 664/675/639 730/740/699 731/741/700
f 664/675/639 731/741/700 725/737/696
f 639/650/617 719/730/689 731/741/700
f 639/650/617 731/741/700 730/740/699
f 607/742/701 604/617/587 731/741/700
f 603/616/586 672/683/647 731/741/700
f 603/616/586 731/741/700 604/617/587
f 682/693/656 696/704/665 731/741/700
f 682/693/656 731/741/700 672/683/647
f 695/703/664 725/737/696 731/741/700
f 695/703/664 731/741/700 696/704/665
f 670/681/645 732/743/702 733/744/703
f 670/681/645 733/744/703 667/678/642
f 732/743/702 643/654/621 640/651/618
f 732/743/702 640/651/618 733/744/703
f 733/744/703 639/650/617 730/740/699
f 667/678/642 733/744/703 730/740/699
f 667/678/642 730/740/699 664/675/639
s 29
f 729/745/704 728/746/705 734/747/706
f 729/745/704 734/747/706 735/748/707
f 728/746/705 659/670/635 734/747/706
f 734/747/706 659/670/635 658/669/634
f 734/747/706 658/669/634 736/749/708
f 735/748/707 734/747/706 736/749/708
f 735/748/707 736/749/708 737/750/709
