# Blender 5.0.1
# www.blender.org
mtllib coche_cofre.mtl
o Capo_001
v -1.192334 -0.240074 -0.373333
v -1.181119 -0.238550 -0.414663
v -1.199272 -0.248616 -0.376535
v -1.195382 -0.207135 -0.000000
v -1.179680 -0.188665 -0.072851
v -1.195383 -0.207135 -0.072512
v -1.179676 -0.188721 -0.000000
v -1.157104 -0.170411 -0.073339
v -1.157094 -0.169966 -0.000000
v -1.111953 -0.143756 -0.074315
v -1.111933 -0.142607 -0.000000
v -1.064130 -0.122732 -0.075349
v -1.066771 -0.122817 -0.000000
v -1.062289 -0.125448 -0.149803
v -1.110091 -0.146472 -0.148052
v -1.155223 -0.169167 -0.146399
v -1.059577 -0.128222 -0.224229
v -1.107348 -0.149486 -0.221771
v -1.152450 -0.171311 -0.219450
v -1.177789 -0.187421 -0.145573
v -1.172202 -0.187321 -0.218290
v -1.053925 -0.132216 -0.298760
v -1.103922 -0.150551 -0.295461
v -1.148986 -0.173876 -0.292487
v -1.164618 -0.187485 -0.291001
v -1.188501 -0.208777 -0.217483
v -1.183790 -0.208742 -0.289966
v -1.026252 -0.122912 -0.288199
v -0.916751 -0.090815 -0.307812
v -1.048963 -0.127865 -0.261962
v -1.187296 -0.228739 -0.362135
v -1.174424 -0.212205 -0.362448
v -1.188627 -0.233053 -0.369040
v -1.191099 -0.224781 -0.289708
v -1.194599 -0.222911 -0.217281
v -1.192963 -0.205891 -0.144998
v -1.178974 -0.224527 -0.390038
v -1.197399 -0.222012 -0.144854
v -1.199299 -0.221268 -0.072427
v -1.044534 -0.135960 -0.373112
v -0.907415 -0.094856 -0.384138
v -1.155223 -0.190990 -0.363759
v -1.139585 -0.177415 -0.365471
v -0.770319 -0.064431 -0.395163
v -0.642402 -0.036653 -0.325917
v -0.633239 -0.041287 -0.406188
v -0.779577 -0.060094 -0.316864
v -0.505228 -0.014813 -0.334969
v -0.496162 -0.019744 -0.417214
v -1.094518 -0.154187 -0.369093
v -0.368054 0.002035 -0.344021
v -0.359096 -0.003193 -0.428239
v -0.222039 0.009136 -0.439263
v -0.093705 0.023072 -0.362125
v -0.079403 0.018617 -0.450900
v -0.230879 0.014660 -0.353073
v -1.199299 -0.221268 -0.000000
v -0.341410 -0.010004 -0.509234
v -0.203302 0.001843 -0.524044
v -0.057564 0.011815 -0.539675
v -0.617704 -0.047134 -0.479613
v -0.479543 -0.026073 -0.494424
v -1.032358 -0.140360 -0.435179
v -0.894086 -0.099739 -0.449991
v -1.143042 -0.195001 -0.422769
v -1.163465 -0.216148 -0.420072
v -1.082774 -0.158411 -0.429779
v -1.078328 -0.155801 -0.423191
v -0.755875 -0.069796 -0.464803
v -0.742388 -0.074939 -0.548797
v -0.606432 -0.056319 -0.574647
v -0.610599 -0.053557 -0.583510
v -0.745555 -0.072178 -0.557660
v -0.470540 -0.039299 -0.600756
v -0.473706 -0.036537 -0.609620
v -1.167074 -0.227423 -0.450629
v -1.145197 -0.209336 -0.451358
v -1.148364 -0.206574 -0.460221
v -1.164968 -0.230130 -0.442197
v -1.124757 -0.188792 -0.460772
v -1.126253 -0.181480 -0.424912
v -1.108032 -0.175766 -0.467199
v -1.090463 -0.162491 -0.428919
v -1.064907 -0.153975 -0.479955
v -1.068073 -0.151214 -0.488819
v -1.111198 -0.173004 -0.476062
v -0.337987 -0.024506 -0.635625
v -0.334821 -0.027268 -0.626762
v -1.127924 -0.186030 -0.469636
v -0.878575 -0.100835 -0.521854
v -0.881742 -0.098074 -0.530718
v -1.018233 -0.134642 -0.500702
v -1.015066 -0.137404 -0.491839
v -0.202401 -0.016695 -0.660957
v -0.199235 -0.019457 -0.652094
v -0.056216 -0.014742 -0.679476
v -0.022108 -0.000228 -0.628450
v -0.059383 -0.012980 -0.686913
v 0.028463 -0.014979 -0.695646
v 0.036265 -0.013158 -0.704271
v -0.059106 -0.013004 -0.688084
v 0.036780 -0.013172 -0.705486
v -0.053616 -0.016642 -0.696649
v 0.042031 -0.016820 -0.714008
v 0.009553 -0.009090 -0.670519
v -1.161307 -0.227185 -0.457765
v -1.148087 -0.206598 -0.461393
v -1.142597 -0.207536 -0.467358
v -1.166797 -0.227308 -0.451801
v -1.122158 -0.189692 -0.479372
v -1.127647 -0.186054 -0.470807
v -1.110922 -0.173028 -0.477234
v -1.067796 -0.151237 -0.489991
v -1.017956 -0.134666 -0.501874
v -0.881465 -0.098097 -0.531890
v -0.745278 -0.072201 -0.558832
v -0.473429 -0.036561 -0.610792
v -0.337710 -0.024530 -0.636797
v -0.202124 -0.016719 -0.662129
v -0.610322 -0.053581 -0.584682
v -0.604833 -0.057219 -0.593247
v -0.467940 -0.040199 -0.619356
v -1.062306 -0.154875 -0.498555
v -1.012466 -0.138304 -0.510439
v -1.105432 -0.176666 -0.485799
v -0.332221 -0.028168 -0.645362
v -0.196635 -0.020357 -0.670694
v -0.875975 -0.101735 -0.540455
v -0.739788 -0.075839 -0.567397
v -1.164618 -0.187485 0.291000
v -1.188501 -0.208777 0.217483
v -1.183790 -0.208742 0.289966
v -1.181119 -0.238550 0.414663
v -1.178974 -0.224527 0.390038
v -1.192334 -0.240074 0.373333
v -1.172202 -0.187321 0.218290
v -1.148986 -0.173876 0.292487
v -1.152450 -0.171311 0.219450
v -1.067796 -0.151237 0.489991
v -1.105432 -0.176666 0.485798
v -1.062306 -0.154875 0.498555
v -1.110922 -0.173028 0.477234
v -0.745555 -0.072178 0.557660
v -0.610599 -0.053557 0.583510
v -0.742388 -0.074939 0.548796
v -1.155223 -0.190990 0.363759
v -0.496162 -0.019744 0.417214
v -0.479543 -0.026073 0.494424
v -0.359096 -0.003193 0.428239
v -0.473429 -0.036561 0.610792
v -0.604833 -0.057219 0.593247
v -0.467940 -0.040199 0.619356
v -0.610322 -0.053581 0.584682
v -1.101794 -0.160445 0.381892
v -1.090463 -0.155645 0.390044
v -1.094518 -0.154187 0.369093
v -0.770319 -0.064431 0.395163
v -0.633239 -0.041287 0.406188
v -0.642402 -0.036653 0.325916
v -1.108032 -0.175766 0.467199
v -1.068073 -0.151214 0.488819
v -1.064907 -0.153975 0.479955
v -1.111198 -0.173004 0.476062
v -0.473706 -0.036537 0.609620
v -0.606432 -0.056319 0.574647
v -1.167074 -0.227423 0.450629
v -1.148364 -0.206574 0.460221
v -1.145197 -0.209336 0.451358
v -1.126253 -0.181480 0.424912
v -1.124757 -0.188792 0.460772
v -0.230879 0.014660 0.353073
v -0.222039 0.009136 0.439263
v -0.093705 0.023072 0.362125
v -1.143042 -0.195001 0.422769
v -1.163465 -0.216148 0.420072
v -0.779577 -0.060094 0.316865
v -0.617704 -0.047134 0.479613
v -0.470540 -0.039299 0.600756
v -0.334821 -0.027268 0.626762
v -0.341410 -0.010004 0.509234
v -0.881742 -0.098074 0.530718
v -1.017956 -0.134666 0.501874
v -0.881465 -0.098097 0.531890
v -1.018233 -0.134642 0.500702
v -0.878575 -0.100835 0.521855
v -1.127924 -0.186030 0.469636
v -1.111953 -0.143756 0.074315
v -1.064130 -0.122732 0.075349
v -0.199235 -0.019457 0.652094
v -0.059383 -0.012980 0.686913
v -0.056216 -0.014742 0.679476
v -0.059106 -0.013004 0.688084
v -0.053616 -0.016642 0.696649
v 0.036780 -0.013172 0.705486
v -1.197399 -0.222012 0.144854
v -1.194599 -0.222911 0.217281
v -1.192963 -0.205891 0.144998
v -0.202401 -0.016695 0.660957
v -0.337710 -0.024530 0.636797
v -0.202124 -0.016719 0.662129
v -0.337987 -0.024506 0.635625
v -0.505228 -0.014813 0.334969
v -1.044534 -0.135960 0.373112
v -0.907415 -0.094856 0.384138
v -0.916751 -0.090815 0.307812
v -1.107348 -0.149486 0.221771
v -1.053925 -0.132216 0.298760
v -1.059577 -0.128222 0.224229
v -1.026252 -0.122912 0.288199
v -1.048963 -0.127865 0.261962
v -1.110091 -0.146472 0.148052
v -1.062289 -0.125448 0.149803
v -1.103922 -0.150551 0.295461
v -1.122158 -0.189692 0.479372
v -1.127647 -0.186054 0.470808
v -1.148087 -0.206598 0.461393
v -1.142597 -0.207536 0.467358
v 0.028463 -0.014979 0.695646
v 0.009553 -0.009090 0.670519
v -1.015066 -0.137404 0.491839
v -1.139585 -0.177415 0.365471
v -1.177789 -0.187421 0.145573
v -1.155223 -0.169167 0.146399
v -0.745278 -0.072201 0.558832
v -0.057564 0.011815 0.539675
v -0.022108 -0.000228 0.628450
v -1.012466 -0.138304 0.510439
v -0.196635 -0.020357 0.670694
v 0.042031 -0.016820 0.714008
v -1.166797 -0.227308 0.451801
v -1.161307 -0.227185 0.457765
v -1.179680 -0.188665 0.072851
v -1.157104 -0.170411 0.073339
v -0.332221 -0.028168 0.645362
v -1.082774 -0.158411 0.429779
v -1.032358 -0.140360 0.435179
v -0.894086 -0.099739 0.449991
v -0.755875 -0.069796 0.464803
v -0.203302 0.001843 0.524044
v -1.081470 -0.154239 0.403926
v -1.078328 -0.155287 0.419580
v -1.078328 -0.155801 0.423191
v -1.174424 -0.212205 0.362448
v -0.079403 0.018617 0.450900
v -0.368054 0.002035 0.344021
v 0.036265 -0.013158 0.704271
v -1.195383 -0.207135 0.072512
v -1.188627 -0.233053 0.369040
v -1.187296 -0.228739 0.362135
v -1.191099 -0.224781 0.289708
v -1.199299 -0.221268 0.072427
v -1.164968 -0.230130 0.442197
v -1.130198 -0.180277 0.407326
v -1.120801 -0.176791 0.415322
v -1.140091 -0.179989 0.373859
v -1.142552 -0.182475 0.374969
v -1.144026 -0.184845 0.379118
v -1.143174 -0.185994 0.386684
v -1.141219 -0.185730 0.392562
v -1.090463 -0.162491 0.428919
v -1.199272 -0.248616 0.376535
v -1.138171 -0.184488 0.397686
v -0.875975 -0.101735 0.540454
v -0.739788 -0.075839 0.567397
v -1.115490 -0.166723 0.376625
v -1.128215 -0.172972 0.373949
v -1.137782 -0.177964 0.373509
v -1.103600 -0.169018 0.424934
v -1.116266 -0.174835 0.418385
v -1.143174 -0.185994 -0.386684
v -1.141219 -0.185730 -0.392562
v -1.144026 -0.184845 -0.379118
v -1.140091 -0.179989 -0.373859
v -1.142552 -0.182475 -0.374969
v -1.081470 -0.154239 -0.403926
v -1.078328 -0.155287 -0.419580
v -1.090463 -0.155645 -0.390045
v -1.103600 -0.169018 -0.424934
v -1.116266 -0.174835 -0.418385
v -1.120801 -0.176791 -0.415322
v -1.130198 -0.180277 -0.407326
v -1.138171 -0.184488 -0.397686
v -1.101794 -0.160445 -0.381892
v -1.115490 -0.166723 -0.376625
v -1.128215 -0.172972 -0.373949
v -1.137782 -0.177964 -0.373509
v -0.660313 -0.027011 -0.000000
v -0.523451 -0.006842 -0.087034
v -0.658621 -0.028464 -0.084113
v -0.524827 -0.005870 -0.000000
v -0.388281 0.009837 -0.089956
v -0.389342 0.010559 0.000000
v -0.253111 0.022336 -0.092877
v -0.253856 0.022880 0.000000
v -0.117942 0.030621 -0.095799
v -0.113060 0.029100 -0.184574
v -0.248603 0.020356 -0.179609
v -0.519687 -0.008822 -0.169679
v -0.377407 0.006029 -0.259332
v -0.513606 -0.010819 -0.252324
v -0.384145 0.007857 -0.174644
v -0.241209 0.018654 -0.266341
v -0.105010 0.026593 -0.273349
v -0.093705 0.023072 -0.362125
v -0.230879 0.014660 -0.353073
v -0.368054 0.002035 -0.344021
v -0.118370 0.030754 0.000000
v -0.655230 -0.030443 -0.164714
v -0.649805 -0.032659 -0.245315
v -0.505228 -0.014813 -0.334969
v -0.642402 -0.036653 -0.325917
v -0.921151 -0.126689 -0.000000
v -0.794577 -0.077421 -0.000000
v -0.921151 -0.126689 -0.076953
v -0.779577 -0.083621 -0.316864
v -0.918551 -0.127589 -0.230859
v -0.916751 -0.130589 -0.307812
v -0.786677 -0.080721 -0.237648
v -0.919951 -0.126489 -0.153906
v -0.792077 -0.078721 -0.158432
v -0.794577 -0.077421 -0.079216
v -1.059577 -0.180966 -0.224229
v -1.048963 -0.177466 -0.261962
v -0.978671 -0.152856 -0.296722
v -1.026252 -0.169966 -0.288199
v -1.066771 -0.180966 -0.000000
v -1.064130 -0.180966 -0.075349
v -1.062289 -0.180966 -0.149803
v -0.918551 -0.127589 0.230859
v -0.786677 -0.080721 0.237648
v -0.792077 -0.078721 0.158432
v -0.916751 -0.130589 0.307812
v -0.779577 -0.083621 0.316865
v -0.921151 -0.126689 0.076953
v -0.388281 0.009837 0.089956
v -0.253111 0.022336 0.092877
v -0.978671 -0.152856 0.296722
v -1.026252 -0.169966 0.288199
v -0.794577 -0.077421 0.079216
v -0.655230 -0.030443 0.164714
v -0.658621 -0.028464 0.084113
v -0.649805 -0.032659 0.245315
v -1.064130 -0.180966 0.075349
v -1.062289 -0.180966 0.149803
v -0.919951 -0.126489 0.153906
v -0.248603 0.020356 0.179609
v -0.113060 0.029100 0.184574
v -0.523451 -0.006842 0.087034
v -0.513606 -0.010819 0.252324
v -0.642402 -0.036653 0.325916
v -0.505228 -0.014813 0.334969
v -0.377407 0.006029 0.259332
v -0.368054 0.002035 0.344021
v -0.519687 -0.008822 0.169679
v -0.241209 0.018654 0.266341
v -0.230879 0.014660 0.353073
v -0.093705 0.023072 0.362125
v -0.105010 0.026593 0.273349
v -0.117942 0.030621 0.095799
v -1.059577 -0.180966 0.224229
v -0.384145 0.007857 0.174644
v -1.048963 -0.177466 0.261962
v -1.059577 -0.141247 0.224229
v -1.062289 -0.180966 0.149803
v -1.062289 -0.141247 0.149803
v -1.059577 -0.180966 0.224229
v -1.064130 -0.141247 0.075349
v -1.066771 -0.180966 -0.000000
v -1.066771 -0.141247 -0.000000
v -1.064130 -0.180966 0.075349
v -1.048963 -0.141247 0.261962
v -1.048963 -0.177466 0.261962
v -1.026252 -0.141247 0.288199
v -1.026252 -0.169966 0.288199
v -0.978671 -0.152856 0.296722
v -1.064130 -0.180966 -0.075349
v -1.064130 -0.141247 -0.075349
v -1.062289 -0.180966 -0.149803
v -1.062289 -0.141247 -0.149803
v -1.059577 -0.180966 -0.224229
v -1.059577 -0.141247 -0.224229
v -1.048963 -0.177466 -0.261962
v -1.048963 -0.141247 -0.261962
v -1.026252 -0.169966 -0.288199
v -1.026252 -0.141247 -0.288199
v -0.978671 -0.152856 -0.296722
v -1.062289 -0.125448 0.149803
v -1.064130 -0.141247 0.075349
v -1.064130 -0.122732 0.075349
v -1.062289 -0.141247 0.149803
v -1.059577 -0.128222 0.224229
v -1.059577 -0.141247 0.224229
v -1.026252 -0.122912 0.288199
v -1.048963 -0.141247 0.261962
v -1.048963 -0.127865 0.261962
v -1.026252 -0.141247 0.288199
v -0.642402 -0.036653 0.325916
v -0.779577 -0.083621 0.316865
v -0.779577 -0.060094 0.316865
v -0.916751 -0.090815 0.307812
v -0.916751 -0.130589 0.307812
v -0.978671 -0.152856 0.296722
v -1.066771 -0.141247 -0.000000
v -1.066771 -0.122817 -0.000000
v -1.064130 -0.141247 -0.075349
v -1.064130 -0.122732 -0.075349
v -1.062289 -0.141247 -0.149803
v -1.062289 -0.125448 -0.149803
v -1.059577 -0.141247 -0.224229
v -1.059577 -0.128222 -0.224229
v -1.048963 -0.141247 -0.261962
v -1.048963 -0.127865 -0.261962
v -1.026252 -0.141247 -0.288199
v -1.026252 -0.122912 -0.288199
v -0.642402 -0.036653 -0.325917
v -0.779577 -0.060094 -0.316864
v -0.779577 -0.083621 -0.316864
v -0.916751 -0.090815 -0.307812
v -0.916751 -0.130589 -0.307812
v -0.978671 -0.152856 -0.296722
vn -0.7915 0.5846 -0.1783
vn -0.7952 0.5535 -0.2478
vn -0.7314 0.6593 -0.1741
vn -0.8832 0.4690 -0.0000
vn -0.6996 0.7146 -0.0040
vn -0.8845 0.4664 -0.0108
vn -0.7013 0.7128 -0.0000
vn -0.5664 0.8241 -0.0086
vn -0.5782 0.8159 -0.0000
vn -0.4578 0.8886 -0.0276
vn -0.4607 0.8875 -0.0000
vn -0.4026 0.9149 -0.0289
vn -0.4014 0.9159 -0.0000
vn -0.4035 0.9138 -0.0463
vn -0.4333 0.9003 -0.0409
vn -0.5411 0.8406 -0.0238
vn -0.4008 0.9137 -0.0666
vn -0.4183 0.9070 -0.0479
vn -0.5396 0.8406 -0.0475
vn -0.7053 0.7083 -0.0296
vn -0.7184 0.6925 -0.0658
vn -0.3264 0.9422 -0.0752
vn -0.4043 0.9122 -0.0671
vn -0.5649 0.8206 -0.0867
vn -0.7044 0.7036 -0.0939
vn -0.8634 0.5006 -0.0636
vn -0.8339 0.5442 -0.0921
vn -0.2926 0.9534 -0.0733
vn -0.2626 0.9614 -0.0824
vn -0.7803 0.6045 -0.1603
vn -0.7647 0.6292 -0.1393
vn -0.8070 0.5672 -0.1642
vn -0.8981 0.4303 -0.0903
vn -0.9167 0.3965 -0.0495
vn -0.8867 0.4603 -0.0430
vn -0.7857 0.5880 -0.1922
vn -0.9607 0.2735 -0.0469
vn -0.9636 0.2668 -0.0138
vn -0.3213 0.9407 -0.1087
vn -0.2589 0.9604 -0.1030
vn -0.6975 0.6996 -0.1548
vn -0.5644 0.8127 -0.1445
vn -0.1986 0.9753 -0.0969
vn -0.1675 0.9830 -0.0756
vn -0.1675 0.9813 -0.0946
vn -0.2003 0.9767 -0.0775
vn -0.1456 0.9865 -0.0749
vn -0.1448 0.9850 -0.0935
vn -0.4089 0.9044 -0.1218
vn -0.1125 0.9910 -0.0732
vn -0.1119 0.9896 -0.0905
vn -0.0837 0.9927 -0.0871
vn -0.0693 0.9955 -0.0645
vn -0.0745 0.9938 -0.0825
vn -0.0822 0.9940 -0.0718
vn -0.9637 0.2671 -0.0000
vn -0.1104 0.9858 -0.1269
vn -0.0868 0.9874 -0.1323
vn -0.0836 0.9855 -0.1476
vn -0.1640 0.9802 -0.1112
vn -0.1419 0.9825 -0.1205
vn -0.3160 0.9449 -0.0856
vn -0.2524 0.9631 -0.0935
vn -0.6833 0.6976 -0.2153
vn -0.7490 0.6129 -0.2518
vn -0.4071 0.9093 -0.0861
vn -0.8372 0.3774 -0.3958
vn -0.1929 0.9761 -0.1005
vn -0.1380 0.9833 0.1188
vn -0.1116 0.9882 0.1048
vn -0.1041 0.9850 0.1374
vn -0.1390 0.9812 0.1339
vn -0.0895 0.9920 0.0887
vn -0.0827 0.9876 0.1336
vn -0.6667 0.7124 0.2191
vn -0.6939 0.7160 0.0761
vn -0.6946 0.7094 0.1197
vn -0.7496 0.6570 -0.0805
vn -0.6198 0.7759 0.1174
vn -0.5622 0.8112 -0.1612
vn -0.4764 0.8658 0.1532
vn -0.4746 0.8756 -0.0895
vn -0.3312 0.9289 0.1654
vn -0.3619 0.9235 0.1270
vn -0.5117 0.8505 0.1216
vn -0.0500 0.9899 0.1325
vn -0.0591 0.9954 0.0758
vn -0.6342 0.7638 0.1200
vn -0.1919 0.9716 0.1387
vn -0.2003 0.9707 0.1326
vn -0.2611 0.9562 0.1327
vn -0.2500 0.9553 0.1580
vn -0.0199 0.9911 0.1318
vn -0.0343 0.9975 0.0613
vn -0.0227 0.9997 0.0046
vn -0.1053 0.9728 -0.2063
vn 0.0026 0.9950 0.0995
vn 0.0252 0.9912 0.1301
vn 0.0108 0.9987 0.0499
vn -0.0557 0.9698 -0.2374
vn -0.0545 0.9492 -0.3099
vn -0.0843 0.8965 -0.4349
vn -0.0767 0.8986 -0.4319
vn -0.0483 0.9658 -0.2548
vn -0.6940 0.3332 -0.6382
vn -0.7437 0.5004 -0.4433
vn -0.6722 0.3180 -0.6686
vn -0.7747 0.5700 -0.2738
vn -0.6431 0.4593 -0.6128
vn -0.6938 0.5964 -0.4037
vn -0.5810 0.7168 -0.3855
vn -0.4391 0.8246 -0.3567
vn -0.3408 0.8800 -0.3308
vn -0.2749 0.9095 -0.3118
vn -0.2109 0.9332 -0.2910
vn -0.1539 0.9499 -0.2720
vn -0.1205 0.9578 -0.2610
vn -0.0874 0.9645 -0.2493
vn -0.1776 0.9435 -0.2799
vn -0.2024 0.8480 -0.4899
vn -0.1767 0.8601 -0.4786
vn -0.4186 0.7078 -0.5690
vn -0.3431 0.7651 -0.5449
vn -0.5423 0.5900 -0.5982
vn -0.1454 0.8736 -0.4643
vn -0.1131 0.8864 -0.4490
vn -0.2788 0.8065 -0.5213
vn -0.2250 0.8366 -0.4995
vn -0.7044 0.7036 0.0939
vn -0.8634 0.5006 0.0636
vn -0.8339 0.5442 0.0921
vn -0.7952 0.5535 0.2478
vn -0.7857 0.5880 0.1922
vn -0.7915 0.5846 0.1783
vn -0.7184 0.6925 0.0658
vn -0.5649 0.8206 0.0867
vn -0.5396 0.8406 0.0475
vn -0.4391 0.8246 0.3567
vn -0.5423 0.5900 0.5982
vn -0.4186 0.7078 0.5690
vn -0.5810 0.7168 0.3855
vn -0.1390 0.9812 -0.1339
vn -0.1041 0.9850 -0.1374
vn -0.1380 0.9833 -0.1188
vn -0.6975 0.6996 0.1548
vn -0.1448 0.9850 0.0935
vn -0.1419 0.9825 0.1205
vn -0.1119 0.9896 0.0905
vn -0.1539 0.9499 0.2720
vn -0.2024 0.8480 0.4899
vn -0.1767 0.8601 0.4786
vn -0.1776 0.9435 0.2799
vn -0.4688 0.8690 0.1584
vn -0.3798 0.9149 0.1372
vn -0.4089 0.9044 0.1218
vn -0.1986 0.9753 0.0969
vn -0.1675 0.9813 0.0946
vn -0.1675 0.9830 0.0756
vn -0.4764 0.8658 -0.1532
vn -0.3619 0.9235 -0.1270
vn -0.3312 0.9289 -0.1654
vn -0.5117 0.8505 -0.1216
vn -0.0827 0.9876 -0.1336
vn -0.1116 0.9882 -0.1048
vn -0.6667 0.7124 -0.2191
vn -0.6946 0.7094 -0.1197
vn -0.6939 0.7160 -0.0761
vn -0.5622 0.8112 0.1612
vn -0.6198 0.7759 -0.1174
vn -0.0822 0.9940 0.0718
vn -0.0837 0.9927 0.0871
vn -0.0693 0.9955 0.0645
vn -0.6833 0.6976 0.2153
vn -0.7490 0.6129 0.2518
vn -0.2003 0.9767 0.0775
vn -0.1640 0.9802 0.1112
vn -0.0895 0.9920 -0.0887
vn -0.0591 0.9954 -0.0758
vn -0.1104 0.9858 0.1269
vn -0.2003 0.9707 -0.1326
vn -0.3408 0.8800 0.3308
vn -0.2749 0.9095 0.3118
vn -0.2611 0.9562 -0.1327
vn -0.1919 0.9716 -0.1387
vn -0.6341 0.7638 -0.1200
vn -0.4578 0.8886 0.0276
vn -0.4026 0.9149 0.0289
vn -0.0343 0.9975 -0.0613
vn 0.0026 0.9950 -0.0995
vn -0.0227 0.9997 -0.0046
vn -0.0557 0.9698 0.2374
vn -0.0843 0.8965 0.4349
vn -0.0545 0.9492 0.3099
vn -0.9607 0.2735 0.0469
vn -0.9167 0.3965 0.0495
vn -0.8867 0.4603 0.0430
vn -0.0199 0.9911 -0.1318
vn -0.1205 0.9578 0.2610
vn -0.0874 0.9645 0.2493
vn -0.0500 0.9899 -0.1325
vn -0.1456 0.9865 0.0749
vn -0.3213 0.9407 0.1087
vn -0.2589 0.9604 0.1030
vn -0.2626 0.9614 0.0824
vn -0.4183 0.9070 0.0479
vn -0.3264 0.9422 0.0752
vn -0.4008 0.9137 0.0666
vn -0.2926 0.9534 0.0733
vn -0.4333 0.9003 0.0409
vn -0.4035 0.9138 0.0463
vn -0.4043 0.9122 0.0671
vn -0.6431 0.4593 0.6128
vn -0.6938 0.5964 0.4037
vn -0.7437 0.5004 0.4433
vn -0.6722 0.3180 0.6687
vn 0.0252 0.9912 -0.1301
vn -0.0483 0.9658 0.2548
vn -0.2500 0.9553 -0.1580
vn -0.5644 0.8127 0.1445
vn -0.7053 0.7083 0.0296
vn -0.5411 0.8406 0.0238
vn -0.2108 0.9332 0.2910
vn -0.0836 0.9855 0.1476
vn -0.1053 0.9728 0.2063
vn -0.3431 0.7651 0.5449
vn -0.1131 0.8864 0.4490
vn -0.0767 0.8986 0.4319
vn -0.7747 0.5700 0.2738
vn -0.6940 0.3332 0.6382
vn -0.6996 0.7146 0.0040
vn -0.5664 0.8241 0.0086
vn -0.1454 0.8736 0.4643
vn -0.4071 0.9093 0.0861
vn -0.3160 0.9449 0.0856
vn -0.2524 0.9631 0.0935
vn -0.1929 0.9761 0.1005
vn -0.0868 0.9874 0.1323
vn -0.3489 0.9278 0.1321
vn 0.8690 0.4229 0.2569
vn -0.7647 0.6292 0.1393
vn -0.0745 0.9938 0.0825
vn -0.1125 0.9910 0.0732
vn 0.0108 0.9987 -0.0499
vn -0.8845 0.4664 0.0108
vn -0.8070 0.5672 0.1642
vn -0.7803 0.6045 0.1603
vn -0.8981 0.4303 0.0903
vn -0.9636 0.2668 0.0138
vn -0.7496 0.6570 0.0805
vn -0.5952 0.7815 0.1869
vn -0.6465 0.7394 0.1880
vn -0.6557 0.7320 0.1851
vn -0.6500 0.7366 0.1869
vn -0.4746 0.8756 0.0895
vn -0.7314 0.6593 0.1741
vn -0.6303 0.7520 0.1928
vn -0.2788 0.8065 0.5213
vn -0.2250 0.8366 0.4995
vn -0.4623 0.8716 0.1633
vn -0.4623 0.8715 0.1633
vn -0.5439 0.8200 0.1781
vn -0.4764 0.8658 0.1531
vn -0.6557 0.7320 -0.1851
vn -0.6500 0.7366 -0.1869
vn -0.6465 0.7394 -0.1880
vn -0.3489 0.9278 -0.1321
vn -0.3798 0.9149 -0.1372
vn -0.4763 0.8658 -0.1533
vn -0.4694 0.8687 -0.1579
vn -0.5952 0.7815 -0.1869
vn -0.6303 0.7520 -0.1928
vn -0.4623 0.8715 -0.1633
vn -0.5439 0.8200 -0.1781
vn -0.2564 0.9666 -0.0000
vn -0.1402 0.9899 -0.0223
vn -0.2527 0.9672 -0.0263
vn -0.1382 0.9904 -0.0000
vn -0.1075 0.9940 -0.0192
vn -0.1061 0.9944 -0.0000
vn -0.0775 0.9969 -0.0164
vn -0.0754 0.9972 -0.0000
vn -0.0605 0.9981 -0.0122
vn -0.0644 0.9975 -0.0287
vn -0.0784 0.9965 -0.0273
vn -0.1415 0.9894 -0.0323
vn -0.1097 0.9930 -0.0447
vn -0.1429 0.9886 -0.0483
vn -0.1083 0.9937 -0.0292
vn -0.0778 0.9962 -0.0403
vn -0.0618 0.9973 -0.0398
vn -0.0621 0.9968 -0.0496
vn -0.0781 0.9954 -0.0552
vn -0.1088 0.9923 -0.0588
vn -0.0580 0.9983 -0.0000
vn -0.2488 0.9678 -0.0378
vn -0.2472 0.9674 -0.0556
vn -0.1416 0.9880 -0.0621
vn -0.2378 0.9688 -0.0699
vn -0.3560 0.9345 -0.0000
vn -0.3529 0.9357 -0.0000
vn -0.3563 0.9344 -0.0048
vn -0.3326 0.9409 -0.0636
vn -0.3451 0.9380 -0.0338
vn -0.3349 0.9412 -0.0445
vn -0.3354 0.9404 -0.0557
vn -0.3540 0.9352 -0.0114
vn -0.3418 0.9392 -0.0323
vn -0.3502 0.9366 -0.0140
vn -0.3545 0.9350 -0.0129
vn -0.3526 0.9355 -0.0216
vn -0.3451 0.9375 -0.0446
vn -0.3485 0.9365 -0.0375
vn -0.3530 0.9356 -0.0000
vn -0.3550 0.9348 -0.0107
vn -0.3550 0.9348 -0.0106
vn -0.3451 0.9380 0.0338
vn -0.3354 0.9404 0.0557
vn -0.3418 0.9392 0.0323
vn -0.3349 0.9412 0.0445
vn -0.3326 0.9409 0.0636
vn -0.3563 0.9344 0.0048
vn -0.1075 0.9940 0.0192
vn -0.0775 0.9969 0.0164
vn -0.3451 0.9375 0.0446
vn -0.3485 0.9365 0.0375
vn -0.3502 0.9366 0.0140
vn -0.2488 0.9678 0.0378
vn -0.2527 0.9672 0.0263
vn -0.2472 0.9674 0.0556
vn -0.3550 0.9348 0.0107
vn -0.3540 0.9352 0.0114
vn -0.0784 0.9965 0.0273
vn -0.0644 0.9975 0.0287
vn -0.1402 0.9899 0.0223
vn -0.1429 0.9886 0.0483
vn -0.2378 0.9688 0.0699
vn -0.1416 0.9880 0.0621
vn -0.1097 0.9930 0.0447
vn -0.1088 0.9923 0.0588
vn -0.1415 0.9894 0.0323
vn -0.0778 0.9962 0.0403
vn -0.0781 0.9954 0.0552
vn -0.0621 0.9968 0.0496
vn -0.0618 0.9973 0.0398
vn -0.0605 0.9981 0.0122
vn -0.3545 0.9350 0.0129
vn -0.1083 0.9937 0.0292
vn -0.3526 0.9355 0.0216
vn 0.9880 -0.0000 -0.1547
vn 0.9995 -0.0000 -0.0306
vn 0.9885 -0.0000 -0.1512
vn 0.9995 -0.0000 -0.0304
vn 1.0000 -0.0000 -0.0000
vn 0.8805 -0.0000 -0.4740
vn 0.8909 -0.0000 -0.4542
vn 0.4945 -0.0000 -0.8692
vn 0.5498 -0.0000 -0.8353
vn 0.1763 -0.0000 -0.9843
vn 0.9996 -0.0000 0.0299
vn 0.9996 -0.0000 0.0298
vn 0.9885 -0.0000 0.1512
vn 0.9880 -0.0000 0.1547
vn 0.8909 -0.0000 0.4542
vn 0.8805 -0.0000 0.4740
vn 0.5498 -0.0000 0.8353
vn 0.4945 -0.0000 0.8692
vn 0.1763 -0.0000 0.9843
vn 0.9881 -0.0000 -0.1536
vn 0.4544 -0.0000 -0.8908
vn 0.8756 -0.0000 -0.4830
vn 0.0658 -0.0000 -0.9978
vn 0.1123 -0.0000 -0.9937
vn 0.1330 -0.0000 -0.9911
vn 0.9881 -0.0000 0.1536
vn 0.8756 -0.0000 0.4830
vn 0.4544 -0.0000 0.8908
vn 0.0658 -0.0000 0.9978
vn 0.1123 -0.0000 0.9937
vn 0.1330 -0.0000 0.9911
vt 0.000000 0.000000
s 1
g off
usemtl dbl_Capo_001
f 1/1/1 2/1/2 3/1/3
f 4/1/4 5/1/5 6/1/6
f 5/1/5 7/1/7 8/1/8
f 8/1/8 9/1/9 10/1/10
f 9/1/9 11/1/11 10/1/10
f 10/1/10 11/1/11 12/1/12
f 11/1/11 13/1/13 12/1/12
f 10/1/10 14/1/14 15/1/15
f 10/1/10 12/1/12 14/1/14
f 8/1/8 15/1/15 16/1/16
f 8/1/8 10/1/10 15/1/15
f 15/1/15 17/1/17 18/1/18
f 15/1/15 14/1/14 17/1/17
f 16/1/16 18/1/18 19/1/19
f 16/1/16 15/1/15 18/1/18
f 20/1/20 19/1/19 21/1/21
f 20/1/20 16/1/16 19/1/19
f 18/1/18 22/1/22 23/1/23
f 18/1/18 17/1/17 22/1/22
f 19/1/19 23/1/23 24/1/24
f 19/1/19 18/1/18 23/1/23
f 21/1/21 24/1/24 25/1/25
f 21/1/21 19/1/19 24/1/24
f 26/1/26 21/1/21 25/1/25
f 26/1/26 25/1/25 27/1/27
f 22/1/22 28/1/28 29/1/29
f 28/1/28 22/1/22 30/1/28
f 30/1/28 22/1/22 17/1/17
f 31/1/30 32/1/31 33/1/32
f 34/1/33 32/1/31 31/1/30
f 34/1/33 27/1/27 32/1/31
f 35/1/34 27/1/27 34/1/33
f 35/1/34 26/1/26 27/1/27
f 36/1/35 21/1/21 26/1/26
f 36/1/35 20/1/20 21/1/21
f 32/1/31 37/1/36 33/1/32
f 33/1/32 37/1/36 1/1/1
f 38/1/37 26/1/26 35/1/34
f 38/1/37 36/1/35 26/1/26
f 39/1/38 36/1/35 38/1/37
f 39/1/38 6/1/6 36/1/35
f 6/1/6 5/1/5 36/1/35
f 5/1/5 20/1/20 36/1/35
f 20/1/20 8/1/8 16/1/16
f 8/1/8 20/1/20 5/1/5
f 7/1/7 5/1/5 4/1/4
f 7/1/7 9/1/9 8/1/8
f 1/1/1 37/1/36 2/1/2
f 40/1/39 29/1/29 41/1/40
f 22/1/22 29/1/29 40/1/39
f 25/1/25 42/1/41 32/1/31
f 27/1/27 25/1/25 32/1/31
f 42/1/41 24/1/24 43/1/42
f 25/1/25 24/1/24 42/1/41
f 44/1/43 45/1/44 46/1/45
f 47/1/46 45/1/44 44/1/43
f 46/1/45 48/1/47 49/1/48
f 45/1/44 48/1/47 46/1/45
f 41/1/40 47/1/46 44/1/43
f 29/1/29 47/1/46 41/1/40
f 50/1/49 22/1/22 40/1/39
f 23/1/23 22/1/22 50/1/49
f 43/1/42 23/1/23 50/1/49
f 24/1/24 23/1/23 43/1/42
f 49/1/48 51/1/50 52/1/51
f 48/1/47 51/1/50 49/1/48
f 53/1/52 54/1/53 55/1/54
f 56/1/55 54/1/53 53/1/52
f 52/1/51 56/1/55 53/1/52
f 51/1/50 56/1/55 52/1/51
f 39/1/38 4/1/4 6/1/6
f 4/1/4 39/1/38 57/1/56
f 58/1/57 53/1/52 59/1/58
f 52/1/51 53/1/52 58/1/57
f 59/1/58 55/1/54 60/1/59
f 53/1/52 55/1/54 59/1/58
f 61/1/60 49/1/48 62/1/61
f 46/1/45 49/1/48 61/1/60
f 62/1/61 52/1/51 58/1/57
f 49/1/48 52/1/51 62/1/61
f 63/1/62 41/1/40 64/1/63
f 40/1/39 41/1/40 63/1/62
f 42/1/41 65/1/64 66/1/65
f 32/1/31 42/1/41 66/1/65
f 67/1/66 40/1/39 63/1/62
f 40/1/39 67/1/66 68/1/67
f 69/1/68 46/1/45 61/1/60
f 44/1/43 46/1/45 69/1/68
f 64/1/63 44/1/43 69/1/68
f 41/1/40 44/1/43 64/1/63
f 32/1/31 66/1/65 37/1/36
f 37/1/36 66/1/65 2/1/2
f 70/1/69 71/1/70 72/1/71
f 73/1/72 70/1/69 72/1/71
f 71/1/70 74/1/73 75/1/74
f 72/1/71 71/1/70 75/1/74
f 76/1/75 77/1/76 78/1/77
f 76/1/75 79/1/78 77/1/76
f 2/1/2 66/1/65 79/1/78
f 66/1/65 77/1/76 79/1/78
f 65/1/64 80/1/79 77/1/76
f 66/1/65 65/1/64 77/1/76
f 81/1/80 82/1/81 80/1/79
f 65/1/64 81/1/80 80/1/79
f 82/1/81 83/1/82 67/1/66
f 83/1/82 82/1/81 81/1/80
f 82/1/81 67/1/66 84/1/83
f 85/1/84 82/1/81 84/1/83
f 82/1/81 85/1/84 86/1/85
f 87/1/86 74/1/73 88/1/87
f 74/1/73 87/1/86 75/1/74
f 89/1/88 77/1/76 80/1/79
f 77/1/76 89/1/88 78/1/77
f 73/1/72 90/1/89 70/1/69
f 90/1/89 73/1/72 91/1/90
f 92/1/91 84/1/83 93/1/92
f 84/1/83 92/1/91 85/1/84
f 91/1/90 93/1/92 90/1/89
f 93/1/92 91/1/90 92/1/91
f 94/1/93 88/1/87 95/1/94
f 88/1/87 94/1/93 87/1/86
f 86/1/85 80/1/79 82/1/81
f 80/1/79 86/1/85 89/1/88
f 84/1/83 63/1/62 93/1/92
f 67/1/66 63/1/62 84/1/83
f 93/1/92 64/1/63 90/1/89
f 63/1/62 64/1/63 93/1/92
f 90/1/89 69/1/68 70/1/69
f 64/1/63 69/1/68 90/1/89
f 70/1/69 61/1/60 71/1/70
f 69/1/68 61/1/60 70/1/69
f 71/1/70 62/1/61 74/1/73
f 61/1/60 62/1/61 71/1/70
f 74/1/73 58/1/57 88/1/87
f 62/1/61 58/1/57 74/1/73
f 88/1/87 59/1/58 95/1/94
f 58/1/57 59/1/58 88/1/87
f 95/1/94 60/1/59 96/1/95
f 59/1/58 60/1/59 95/1/94
f 60/1/59 97/1/96 96/1/95
f 98/1/97 99/1/98 100/1/99
f 98/1/97 96/1/95 99/1/98
f 101/1/100 100/1/99 102/1/101
f 98/1/97 100/1/99 101/1/100
f 103/1/102 102/1/101 104/1/103
f 101/1/100 102/1/101 103/1/102
f 95/1/94 96/1/95 98/1/97
f 94/1/93 95/1/94 98/1/97
f 96/1/95 97/1/96 105/1/104
f 96/1/95 105/1/104 99/1/98
f 106/1/105 107/1/106 108/1/107
f 109/1/108 107/1/106 106/1/105
f 107/1/106 110/1/109 108/1/107
f 107/1/106 111/1/110 110/1/109
f 107/1/106 89/1/88 111/1/110
f 89/1/88 107/1/106 78/1/77
f 111/1/110 86/1/85 112/1/111
f 86/1/85 111/1/110 89/1/88
f 112/1/111 85/1/84 113/1/112
f 85/1/84 112/1/111 86/1/85
f 113/1/112 92/1/91 114/1/113
f 92/1/91 113/1/112 85/1/84
f 114/1/113 91/1/90 115/1/114
f 91/1/90 114/1/113 92/1/91
f 115/1/114 73/1/72 116/1/115
f 73/1/72 115/1/114 91/1/90
f 117/1/116 87/1/86 118/1/117
f 87/1/86 117/1/116 75/1/74
f 118/1/117 94/1/93 119/1/118
f 94/1/93 118/1/117 87/1/86
f 120/1/119 75/1/74 117/1/116
f 75/1/74 120/1/119 72/1/71
f 116/1/115 72/1/71 120/1/119
f 72/1/71 116/1/115 73/1/72
f 119/1/118 98/1/97 101/1/100
f 98/1/97 119/1/118 94/1/93
f 121/1/120 117/1/116 122/1/121
f 117/1/116 121/1/120 120/1/119
f 123/1/122 114/1/113 124/1/123
f 114/1/113 123/1/122 113/1/112
f 125/1/124 113/1/112 123/1/122
f 113/1/112 125/1/124 112/1/111
f 126/1/125 119/1/118 127/1/126
f 119/1/118 126/1/125 118/1/117
f 124/1/123 115/1/114 128/1/127
f 115/1/114 124/1/123 114/1/113
f 122/1/121 118/1/117 126/1/125
f 118/1/117 122/1/121 117/1/116
f 128/1/127 116/1/115 129/1/128
f 116/1/115 128/1/127 115/1/114
f 129/1/128 120/1/119 121/1/120
f 120/1/119 129/1/128 116/1/115
f 127/1/126 101/1/100 103/1/102
f 101/1/100 127/1/126 119/1/118
f 110/1/109 112/1/111 125/1/124
f 112/1/111 110/1/109 111/1/110
f 76/1/75 78/1/77 109/1/108
f 109/1/108 78/1/77 107/1/106
f 130/1/129 131/1/130 132/1/131
f 133/1/132 134/1/133 135/1/134
f 136/1/135 137/1/136 138/1/137
f 139/1/138 140/1/139 141/1/140
f 140/1/139 139/1/138 142/1/141
f 143/1/142 144/1/143 145/1/144
f 130/1/129 146/1/145 137/1/136
f 147/1/146 148/1/147 149/1/148
f 150/1/149 151/1/150 152/1/151
f 151/1/150 150/1/149 153/1/152
f 154/1/153 155/1/154 156/1/155
f 157/1/156 158/1/157 159/1/158
f 160/1/159 161/1/160 162/1/161
f 161/1/160 160/1/159 163/1/162
f 144/1/143 164/1/163 165/1/164
f 166/1/165 167/1/166 168/1/167
f 169/1/168 170/1/169 160/1/159
f 171/1/170 172/1/171 173/1/172
f 168/1/167 174/1/173 175/1/174
f 176/1/175 157/1/156 159/1/158
f 177/1/176 165/1/164 148/1/147
f 178/1/177 179/1/178 180/1/179
f 181/1/180 182/1/181 183/1/182
f 182/1/181 181/1/180 184/1/183
f 185/1/184 143/1/142 145/1/144
f 143/1/142 185/1/184 181/1/180
f 168/1/167 186/1/185 170/1/169
f 186/1/185 168/1/167 167/1/166
f 187/1/186 188/1/187 11/1/11
f 189/1/188 190/1/189 191/1/190
f 192/1/191 193/1/192 194/1/193
f 164/1/163 153/1/152 150/1/149
f 153/1/152 164/1/163 144/1/143
f 131/1/130 195/1/194 196/1/195
f 131/1/130 197/1/196 195/1/194
f 198/1/197 199/1/198 200/1/199
f 199/1/198 198/1/197 201/1/200
f 159/1/158 158/1/157 202/1/201
f 158/1/157 147/1/146 202/1/201
f 201/1/200 150/1/149 199/1/198
f 150/1/149 201/1/200 164/1/163
f 203/1/202 204/1/203 205/1/204
f 170/1/169 174/1/173 168/1/167
f 206/1/205 207/1/206 208/1/207
f 209/1/208 207/1/206 205/1/204
f 207/1/206 209/1/208 210/1/208
f 207/1/206 210/1/208 208/1/207
f 211/1/209 208/1/207 212/1/210
f 213/1/211 156/1/155 207/1/206
f 165/1/164 164/1/163 178/1/177
f 214/1/212 142/1/141 215/1/213
f 142/1/141 214/1/212 140/1/139
f 214/1/212 216/1/214 217/1/215
f 191/1/190 218/1/216 219/1/217
f 211/1/209 206/1/205 208/1/207
f 220/1/218 181/1/180 185/1/184
f 181/1/180 220/1/218 184/1/183
f 179/1/178 198/1/197 189/1/188
f 198/1/197 179/1/178 201/1/200
f 221/1/219 156/1/155 213/1/211
f 222/1/220 138/1/137 223/1/221
f 187/1/186 211/1/209 212/1/210
f 170/1/169 163/1/162 160/1/159
f 163/1/162 170/1/169 186/1/185
f 143/1/142 183/1/182 224/1/222
f 183/1/182 143/1/142 181/1/180
f 225/1/223 191/1/190 226/1/224
f 182/1/181 141/1/140 227/1/225
f 141/1/140 182/1/181 139/1/138
f 136/1/135 222/1/220 197/1/196
f 192/1/191 228/1/226 193/1/192
f 228/1/226 192/1/191 200/1/199
f 193/1/192 229/1/227 194/1/193
f 167/1/166 166/1/165 230/1/228
f 132/1/131 131/1/130 196/1/195
f 162/1/161 184/1/183 220/1/218
f 184/1/183 162/1/161 161/1/160
f 217/1/215 216/1/214 231/1/229
f 232/1/230 233/1/231 7/1/7
f 223/1/221 206/1/205 211/1/209
f 233/1/231 187/1/186 9/1/9
f 163/1/162 215/1/213 142/1/141
f 215/1/213 163/1/162 186/1/185
f 200/1/199 234/1/232 228/1/226
f 234/1/232 200/1/199 199/1/198
f 161/1/160 142/1/141 139/1/138
f 142/1/141 161/1/160 163/1/162
f 235/1/233 162/1/161 236/1/234
f 220/1/218 185/1/184 237/1/235
f 162/1/161 220/1/218 236/1/234
f 237/1/235 185/1/184 238/1/236
f 148/1/147 178/1/177 180/1/179
f 180/1/179 179/1/178 239/1/237
f 179/1/178 189/1/188 239/1/237
f 145/1/144 165/1/164 177/1/176
f 165/1/164 178/1/177 148/1/147
f 238/1/236 145/1/144 177/1/176
f 203/1/202 240/1/238 241/1/238
f 240/1/238 203/1/202 156/1/155
f 240/1/238 156/1/155 155/1/154
f 242/1/239 203/1/202 241/1/238
f 157/1/156 238/1/236 158/1/157
f 238/1/236 177/1/176 158/1/157
f 203/1/202 235/1/233 236/1/234
f 235/1/233 203/1/202 242/1/239
f 175/1/174 134/1/133 133/1/132
f 175/1/174 243/1/240 134/1/133
f 149/1/148 180/1/179 172/1/171
f 236/1/234 237/1/235 204/1/203
f 175/1/174 146/1/145 243/1/240
f 174/1/173 146/1/145 175/1/174
f 203/1/202 236/1/234 204/1/203
f 239/1/237 225/1/223 244/1/241
f 158/1/157 177/1/176 147/1/146
f 177/1/176 148/1/147 147/1/146
f 172/1/171 239/1/237 244/1/241
f 137/1/136 221/1/219 213/1/211
f 202/1/201 147/1/146 245/1/242
f 147/1/146 149/1/148 245/1/242
f 204/1/203 157/1/156 176/1/175
f 156/1/155 203/1/202 207/1/206
f 233/1/231 211/1/209 187/1/186
f 190/1/189 192/1/191 246/1/243
f 197/1/196 232/1/230 247/1/244
f 134/1/133 243/1/240 248/1/245
f 138/1/137 137/1/136 213/1/211
f 134/1/133 248/1/245 135/1/134
f 130/1/129 136/1/135 131/1/130
f 136/1/135 130/1/129 137/1/136
f 233/1/231 223/1/221 211/1/209
f 184/1/183 139/1/138 182/1/181
f 139/1/138 184/1/183 161/1/160
f 7/1/7 233/1/231 9/1/9
f 198/1/197 190/1/189 189/1/188
f 237/1/235 238/1/236 157/1/156
f 160/1/159 162/1/161 235/1/233
f 248/1/245 243/1/240 249/1/246
f 222/1/220 136/1/135 138/1/137
f 132/1/131 196/1/195 250/1/247
f 216/1/214 230/1/228 231/1/229
f 243/1/240 132/1/131 250/1/247
f 197/1/196 251/1/248 195/1/194
f 243/1/240 250/1/247 249/1/246
f 138/1/137 213/1/211 206/1/205
f 191/1/190 219/1/217 226/1/224
f 168/1/167 175/1/174 252/1/249
f 252/1/249 175/1/174 133/1/132
f 204/1/203 237/1/235 157/1/156
f 206/1/205 213/1/211 207/1/206
f 185/1/184 145/1/144 238/1/236
f 148/1/147 180/1/179 149/1/148
f 214/1/212 215/1/213 216/1/214
f 192/1/191 194/1/193 246/1/243
f 222/1/220 232/1/230 197/1/196
f 253/1/250 169/1/168 254/1/153
f 216/1/214 167/1/166 230/1/228
f 146/1/145 255/1/251 221/1/219
f 255/1/251 146/1/145 256/1/252
f 256/1/252 146/1/145 257/1/252
f 258/1/252 174/1/173 259/1/253
f 174/1/173 258/1/252 146/1/145
f 146/1/145 258/1/252 257/1/252
f 260/1/254 160/1/159 235/1/233
f 160/1/159 260/1/254 169/1/168
f 243/1/240 130/1/129 132/1/131
f 216/1/214 186/1/185 167/1/166
f 186/1/185 216/1/214 215/1/213
f 145/1/144 144/1/143 165/1/164
f 174/1/173 170/1/169 169/1/168
f 239/1/237 189/1/188 225/1/223
f 189/1/188 191/1/190 225/1/223
f 197/1/196 247/1/244 251/1/248
f 236/1/234 220/1/218 237/1/235
f 190/1/189 200/1/199 192/1/191
f 200/1/199 190/1/189 198/1/197
f 144/1/143 224/1/222 153/1/152
f 224/1/222 144/1/143 143/1/142
f 133/1/132 135/1/134 261/1/255
f 205/1/204 204/1/203 176/1/175
f 187/1/186 212/1/210 188/1/187
f 223/1/221 138/1/137 206/1/205
f 136/1/135 197/1/196 131/1/130
f 146/1/145 130/1/129 243/1/240
f 146/1/145 221/1/219 137/1/136
f 232/1/230 4/1/4 247/1/244
f 232/1/230 7/1/7 4/1/4
f 233/1/231 222/1/220 223/1/221
f 222/1/220 233/1/231 232/1/230
f 9/1/9 187/1/186 11/1/11
f 11/1/11 188/1/187 13/1/13
f 166/1/165 168/1/167 252/1/249
f 207/1/206 203/1/202 205/1/204
f 190/1/189 246/1/243 218/1/216
f 190/1/189 218/1/216 191/1/190
f 253/1/250 174/1/173 169/1/168
f 174/1/173 253/1/250 262/1/256
f 174/1/173 262/1/256 259/1/253
f 224/1/222 263/1/257 264/1/258
f 263/1/257 224/1/222 183/1/182
f 153/1/152 264/1/258 151/1/150
f 264/1/258 153/1/152 224/1/222
f 183/1/182 227/1/225 263/1/257
f 227/1/225 183/1/182 182/1/181
f 199/1/198 152/1/151 234/1/232
f 152/1/151 199/1/198 150/1/149
f 178/1/177 201/1/200 179/1/178
f 201/1/200 178/1/177 164/1/163
f 149/1/148 172/1/171 171/1/170
f 180/1/179 239/1/237 172/1/171
f 251/1/248 4/1/4 57/1/56
f 4/1/4 251/1/248 247/1/244
f 172/1/171 244/1/241 173/1/172
f 245/1/242 149/1/148 171/1/170
f 221/1/219 154/1/153 156/1/155
f 154/1/153 221/1/219 265/1/259
f 265/1/259 221/1/219 266/1/260
f 266/1/260 221/1/219 267/1/261
f 268/1/81 169/1/168 260/1/254
f 169/1/168 268/1/81 269/1/262
f 169/1/168 269/1/262 254/1/153
f 255/1/251 267/1/261 221/1/219
f 65/1/64 270/1/263 271/1/264
f 270/1/263 65/1/64 42/1/41
f 270/1/263 42/1/41 272/1/263
f 273/1/265 42/1/41 43/1/42
f 42/1/41 273/1/265 274/1/263
f 42/1/41 274/1/263 272/1/263
f 40/1/39 275/1/266 50/1/49
f 275/1/266 40/1/39 276/1/266
f 276/1/266 40/1/39 68/1/67
f 50/1/49 275/1/266 277/1/267
f 81/1/80 278/1/159 83/1/82
f 278/1/159 81/1/80 279/1/268
f 279/1/268 81/1/80 280/1/269
f 65/1/64 281/1/270 81/1/80
f 281/1/270 65/1/64 282/1/271
f 282/1/271 65/1/64 271/1/264
f 283/1/269 43/1/42 50/1/49
f 43/1/42 283/1/269 284/1/272
f 43/1/42 284/1/272 285/1/272
f 43/1/42 285/1/272 286/1/273
f 283/1/269 50/1/49 277/1/267
f 281/1/270 280/1/269 81/1/80
f 273/1/265 43/1/42 286/1/273
usemtl dbl_Capo_002
f 287/1/274 288/1/275 289/1/276
f 287/1/274 290/1/277 288/1/275
f 290/1/277 291/1/278 288/1/275
f 292/1/279 293/1/280 291/1/278
f 294/1/281 295/1/282 293/1/280
f 293/1/280 295/1/282 296/1/283
f 293/1/280 296/1/283 297/1/284
f 298/1/285 299/1/286 300/1/287
f 298/1/285 301/1/288 299/1/286
f 301/1/288 302/1/289 299/1/286
f 301/1/288 297/1/284 302/1/289
f 297/1/284 296/1/283 303/1/290
f 297/1/284 303/1/290 302/1/289
f 302/1/289 303/1/290 304/1/291
f 302/1/289 304/1/291 305/1/292
f 299/1/286 302/1/289 305/1/292
f 299/1/286 305/1/292 306/1/293
f 294/1/281 307/1/294 295/1/282
f 292/1/279 294/1/281 293/1/280
f 290/1/277 292/1/279 291/1/278
f 301/1/288 293/1/280 297/1/284
f 293/1/280 301/1/288 291/1/278
f 308/1/295 288/1/275 298/1/285
f 288/1/275 308/1/295 289/1/276
f 298/1/285 291/1/278 301/1/288
f 291/1/278 298/1/285 288/1/275
f 309/1/296 298/1/285 300/1/287
f 308/1/295 298/1/285 309/1/296
f 310/1/297 299/1/286 306/1/293
f 299/1/286 310/1/297 300/1/287
f 311/1/298 300/1/287 310/1/297
f 300/1/287 311/1/298 309/1/296
f 312/1/299 313/1/300 314/1/301
f 313/1/300 287/1/274 289/1/276
f 315/1/302 309/1/296 311/1/298
f 316/1/303 315/1/302 317/1/304
f 318/1/305 309/1/296 315/1/302
f 319/1/306 320/1/307 316/1/303
f 313/1/300 289/1/276 321/1/308
f 314/1/301 320/1/307 319/1/306
f 321/1/308 308/1/295 320/1/307
f 321/1/308 289/1/276 308/1/295
f 320/1/307 308/1/295 318/1/305
f 318/1/305 308/1/295 309/1/296
f 322/1/309 316/1/303 323/1/310
f 324/1/311 316/1/303 317/1/304
f 316/1/303 324/1/311 325/1/312
f 323/1/310 316/1/303 325/1/312
f 316/1/303 318/1/305 315/1/302
f 316/1/303 320/1/307 318/1/305
f 314/1/301 321/1/308 320/1/307
f 314/1/301 313/1/300 321/1/308
f 326/1/313 314/1/301 327/1/314
f 326/1/313 312/1/299 314/1/301
f 327/1/314 314/1/301 328/1/315
f 328/1/315 314/1/301 319/1/306
f 328/1/315 319/1/306 316/1/303
f 328/1/315 316/1/303 322/1/309
f 329/1/316 330/1/317 331/1/318
f 329/1/316 332/1/319 333/1/320
f 326/1/313 334/1/321 312/1/299
f 292/1/279 335/1/322 336/1/323
f 329/1/316 337/1/324 332/1/319
f 337/1/324 329/1/316 338/1/325
f 339/1/326 340/1/327 341/1/328
f 330/1/317 333/1/320 342/1/329
f 326/1/313 343/1/330 334/1/321
f 344/1/330 329/1/316 345/1/331
f 343/1/330 344/1/330 334/1/321
f 336/1/323 346/1/332 347/1/333
f 287/1/274 348/1/334 290/1/277
f 329/1/316 333/1/320 330/1/317
f 334/1/321 331/1/318 339/1/326
f 349/1/335 350/1/336 351/1/337
f 350/1/336 349/1/335 342/1/329
f 352/1/338 351/1/337 353/1/339
f 351/1/337 352/1/338 349/1/335
f 354/1/340 349/1/335 352/1/338
f 331/1/318 330/1/317 340/1/327
f 313/1/300 341/1/328 287/1/274
f 333/1/320 350/1/336 342/1/329
f 355/1/341 356/1/342 357/1/343
f 355/1/341 357/1/343 358/1/344
f 346/1/332 355/1/341 358/1/344
f 294/1/281 336/1/323 359/1/345
f 330/1/317 342/1/329 340/1/327
f 334/1/321 313/1/300 312/1/299
f 344/1/330 360/1/346 329/1/316
f 354/1/340 352/1/338 361/1/347
f 287/1/274 341/1/328 348/1/334
f 292/1/279 336/1/323 294/1/281
f 336/1/323 361/1/347 346/1/332
f 361/1/347 336/1/323 335/1/322
f 290/1/277 335/1/322 292/1/279
f 346/1/332 358/1/344 347/1/333
f 352/1/338 353/1/339 356/1/342
f 352/1/338 356/1/342 355/1/341
f 361/1/347 352/1/338 355/1/341
f 334/1/321 339/1/326 313/1/300
f 294/1/281 359/1/345 307/1/294
f 335/1/322 354/1/340 361/1/347
f 354/1/340 335/1/322 348/1/334
f 290/1/277 348/1/334 335/1/322
f 344/1/330 345/1/331 334/1/321
f 345/1/331 329/1/316 331/1/318
f 360/1/346 362/1/348 329/1/316
f 334/1/321 345/1/331 331/1/318
f 362/1/348 338/1/325 329/1/316
f 361/1/347 355/1/341 346/1/332
f 336/1/323 347/1/333 359/1/345
f 339/1/326 331/1/318 340/1/327
f 339/1/326 341/1/328 313/1/300
f 342/1/329 349/1/335 354/1/340
f 340/1/327 342/1/329 354/1/340
f 348/1/334 340/1/327 354/1/340
f 340/1/327 348/1/334 341/1/328
usemtl dbl_Capo_003.002
f 363/1/349 364/1/350 365/1/350
f 364/1/350 363/1/349 366/1/351
f 367/1/352 368/1/353 369/1/353
f 368/1/353 367/1/352 370/1/352
f 371/1/354 366/1/351 363/1/349
f 366/1/351 371/1/354 372/1/355
f 373/1/356 372/1/355 371/1/354
f 372/1/355 373/1/356 374/1/357
f 365/1/350 370/1/352 367/1/352
f 370/1/352 365/1/350 364/1/350
f 373/1/356 375/1/358 374/1/357
f 369/1/353 376/1/359 377/1/359
f 376/1/359 369/1/353 368/1/353
f 377/1/359 378/1/360 379/1/360
f 378/1/360 377/1/359 376/1/359
f 379/1/360 380/1/361 381/1/362
f 380/1/361 379/1/360 378/1/360
f 381/1/362 382/1/363 383/1/364
f 382/1/363 381/1/362 380/1/361
f 383/1/364 384/1/365 385/1/366
f 384/1/365 383/1/364 382/1/363
f 385/1/366 384/1/365 386/1/367
usemtl dbl_Group_008.009
f 387/1/352 388/1/352 389/1/352
f 388/1/352 387/1/352 390/1/350
f 391/1/368 390/1/350 387/1/352
f 390/1/350 391/1/368 392/1/349
f 393/1/369 394/1/354 395/1/370
f 394/1/354 393/1/369 396/1/356
f 397/1/371 398/1/371 399/1/371
f 400/1/372 398/1/371 401/1/373
f 398/1/371 400/1/372 399/1/371
f 396/1/356 401/1/373 402/1/358
f 401/1/373 396/1/356 393/1/369
f 401/1/373 393/1/369 400/1/372
f 395/1/370 392/1/349 391/1/368
f 392/1/349 395/1/370 394/1/354
f 389/1/352 403/1/353 404/1/353
f 403/1/353 389/1/352 388/1/352
f 404/1/353 405/1/359 406/1/359
f 405/1/359 404/1/353 403/1/353
f 406/1/359 407/1/360 408/1/360
f 407/1/360 406/1/359 405/1/359
f 408/1/360 409/1/362 410/1/374
f 409/1/362 408/1/360 407/1/360
f 410/1/374 411/1/364 412/1/375
f 411/1/364 410/1/374 409/1/362
f 412/1/375 413/1/366 414/1/376
f 413/1/366 412/1/375 411/1/364
f 415/1/377 416/1/377 417/1/377
f 417/1/377 418/1/378 419/1/379
f 418/1/378 417/1/377 416/1/377
f 419/1/379 413/1/366 420/1/367
f 413/1/366 419/1/379 414/1/376
f 414/1/376 419/1/379 418/1/378
