# Blender 5.0.1
# www.blender.org
mtllib catapulta_base.mtl
g catapulta_Mesh
v 4.498677 0.172474 -3.107203
v 3.498678 0.172474 -3.107203
v 4.205785 0.879581 -3.107203
v -2.974401 0.854292 3.170775
v -3.681508 1.147185 3.170775
v -3.681508 0.147185 3.170775
v -4.388615 0.854292 3.170775
v -4.681508 0.147185 3.170775
v -4.388615 -0.559922 3.170775
v -3.681508 -0.852815 3.170775
v -2.974401 -0.559922 3.170775
v -2.681508 0.147185 3.170775
v 4.205785 -0.534632 -3.107203
v 3.498678 -0.827526 -3.107203
v 2.791571 -0.534632 -3.107203
v 2.498678 0.172474 -3.107203
v 2.791571 0.879581 -3.107203
v 3.498678 1.172474 -3.107203
v 4.498677 0.172474 3.170775
v 4.205785 0.879581 3.170775
v 3.498678 0.172474 3.170775
v -2.974401 0.854292 -3.107203
v -3.681508 0.147185 -3.107203
v -3.681508 1.147185 -3.107203
v -4.388615 0.854292 -3.107203
v -4.681508 0.147185 -3.107203
v -4.388615 -0.559922 -3.107203
v -3.681508 -0.852815 -3.107203
v -2.974401 -0.559922 -3.107203
v -2.681508 0.147185 -3.107203
v 4.205785 -0.534632 3.170775
v 3.498678 -0.827526 3.170775
v 2.791572 -0.534632 3.170775
v 2.498678 0.172474 3.170775
v 2.791572 0.879581 3.170775
v 3.498678 1.172474 3.170775
v 3.466836 0.436640 -3.303207
v 3.619494 0.382856 -3.303207
v 3.466836 0.206749 -3.303207
v -3.527015 0.382856 3.345181
v -3.679673 0.436640 3.345181
v -3.679672 0.206749 3.345181
v -3.679673 0.436640 -3.303207
v -3.527015 0.382856 -3.303207
v -3.679672 0.206749 -3.303207
v 3.619494 0.382856 3.345181
v 3.466836 0.436640 3.345181
v 3.466836 0.206749 3.345181
v 3.466836 0.436640 3.345181
v 3.314179 0.382856 3.345181
v 3.466836 0.206749 3.345181
v 3.314179 0.382856 3.345181
v 3.232952 0.246669 3.345181
v 3.466836 0.206749 3.345181
v 3.232952 0.246669 3.345181
v 3.261162 0.091803 3.345181
v 3.466836 0.206749 3.345181
v 3.261162 0.091803 3.345181
v 3.385610 -0.009279 3.345181
v 3.466836 0.206749 3.345181
v 3.385610 -0.009279 3.345181
v 3.548064 -0.009279 3.345181
v 3.466836 0.206749 3.345181
v 3.548064 -0.009279 3.345181
v 3.672512 0.091803 3.345181
v 3.466836 0.206749 3.345181
v 3.672512 0.091803 3.345181
v 3.700721 0.246669 3.345181
v 3.466836 0.206749 3.345181
v 3.700721 0.246669 3.345181
v 3.619494 0.382856 3.345181
v 3.466836 0.206749 3.345181
v 3.619494 0.382856 -3.303207
v 3.700721 0.246669 -3.303207
v 3.466836 0.206749 -3.303207
v 3.700721 0.246669 -3.303207
v 3.672512 0.091803 -3.303207
v 3.466836 0.206749 -3.303207
v 3.672512 0.091803 -3.303207
v 3.548064 -0.009279 -3.303207
v 3.466836 0.206749 -3.303207
v 3.548064 -0.009279 -3.303207
v 3.385610 -0.009279 -3.303207
v 3.466836 0.206749 -3.303207
v 3.385610 -0.009279 -3.303207
v 3.261162 0.091803 -3.303207
v 3.466836 0.206749 -3.303207
v 3.261162 0.091803 -3.303207
v 3.232952 0.246669 -3.303207
v 3.466836 0.206749 -3.303207
v 3.232952 0.246669 -3.303207
v 3.314179 0.382856 -3.303207
v 3.466836 0.206749 -3.303207
v 3.314179 0.382856 -3.303207
v 3.466836 0.436640 -3.303207
v 3.466836 0.206749 -3.303207
v -3.679673 0.436640 3.345181
v -3.832330 0.382856 3.345181
v -3.679672 0.206749 3.345181
v -3.832330 0.382856 3.345181
v -3.913557 0.246669 3.345181
v -3.679672 0.206749 3.345181
v -3.913557 0.246669 3.345181
v -3.885347 0.091803 3.345181
v -3.679672 0.206749 3.345181
v -3.885347 0.091803 3.345181
v -3.760899 -0.009279 3.345181
v -3.679672 0.206749 3.345181
v -3.760899 -0.009279 3.345181
v -3.598445 -0.009279 3.345181
v -3.679672 0.206749 3.345181
v -3.598445 -0.009279 3.345181
v -3.473998 0.091803 3.345181
v -3.679672 0.206749 3.345181
v -3.473998 0.091803 3.345181
v -3.445788 0.246669 3.345181
v -3.679672 0.206749 3.345181
v -3.445788 0.246669 3.345181
v -3.527015 0.382856 3.345181
v -3.679672 0.206749 3.345181
v -3.445788 0.246669 -3.303207
v -3.445788 0.246669 -3.303207
v -3.473998 0.091803 -3.303207
v -3.598445 -0.009279 -3.303207
v -3.760899 -0.009279 -3.303207
v -3.885347 0.091803 -3.303207
v -3.913557 0.246669 -3.303207
v -3.832330 0.382856 -3.303207
v -4.633331 0.440018 2.270710
v -4.633331 0.942922 2.270710
v -4.633331 0.942922 1.767806
v -4.633331 0.440018 1.767806
v 1.649084 3.888344 2.224950
v 1.649084 3.888344 1.549569
v 0.408480 3.985554 1.665913
v 0.408480 3.985554 2.112495
v -3.304047 0.947216 2.431098
v -3.304047 1.450120 2.431098
v -4.082247 1.450120 2.431098
v -4.082247 0.947216 2.431098
v 2.993070 0.947216 2.431098
v 2.993070 1.450120 2.431098
v 2.993070 1.450120 0.046511
v 2.993070 0.947216 0.046511
v 2.993070 0.947216 2.431098
v 2.993070 0.947216 0.046511
v 3.771270 0.947216 0.046511
v 3.771270 0.947216 2.431098
v -3.304047 0.947216 0.046511
v -3.304047 1.450120 0.046511
v -3.304047 1.450120 2.431098
v -3.304047 0.947216 2.431098
v 2.993070 1.450120 0.046511
v 2.993070 1.450120 2.431098
v 3.771270 1.450120 2.431098
v 3.771270 1.450120 0.046511
v -4.082248 1.450120 0.046511
v -4.082247 1.450120 2.431098
v -3.304047 1.450120 2.431098
v -3.304047 1.450120 0.046511
v 3.771270 0.947216 0.046511
v 3.771270 1.450120 0.046511
v 3.771270 1.450120 2.431098
v 3.771270 0.947216 2.431098
v -4.082247 0.947216 2.431098
v -4.082248 0.947216 0.046511
v -3.304047 0.947216 0.046511
v -3.304047 0.947216 2.431098
v 3.771270 0.947216 2.431098
v 3.771270 1.450120 2.431098
v 2.993070 1.450120 2.431098
v 2.993070 0.947216 2.431098
v -4.082247 0.947216 2.431098
v -4.082247 1.450120 2.431098
v -4.082248 1.450120 0.046511
v -4.082248 0.947216 0.046511
v -3.681508 1.147185 2.479345
v -3.681508 1.147185 3.170775
v -2.974401 0.854292 3.170775
v -2.974401 0.854292 2.479345
v -2.974401 0.854292 2.479345
v -2.974401 0.854292 3.170775
v -2.681508 0.147185 3.170775
v -2.681508 0.147185 2.479345
v -2.681508 0.147185 2.479345
v -2.681508 0.147185 3.170775
v -2.974401 -0.559922 3.170775
v -2.974401 -0.559922 2.479345
v -2.974401 -0.559922 2.479345
v -2.974401 -0.559922 3.170775
v -3.681508 -0.852815 3.170775
v -3.681508 -0.852815 2.479345
v -3.681508 -0.852815 2.479345
v -3.681508 -0.852815 3.170775
v -4.388615 -0.559922 3.170775
v -4.388615 -0.559922 2.479345
v -4.388615 -0.559922 2.479345
v -4.388615 -0.559922 3.170775
v -4.681508 0.147185 3.170775
v -4.681508 0.147185 2.479345
v -4.681508 0.147185 2.479345
v -4.681508 0.147185 3.170775
v -4.388615 0.854292 3.170775
v -4.388615 0.854292 2.479345
v -4.388615 0.854292 2.479345
v -4.388615 0.854292 3.170775
v -3.681508 1.147185 3.170775
v -3.681508 1.147185 2.479345
v 4.546287 0.440018 1.767806
v 4.546287 0.942922 1.767806
v 4.546287 0.942922 2.270710
v 4.546287 0.440018 2.270710
v 3.631012 1.346943 1.549569
v 1.649084 3.888344 1.549569
v 1.649084 3.888344 2.224950
v 3.631012 1.346943 2.224950
v 2.791571 0.879581 -2.415773
v 3.498678 1.172474 -2.415773
v 3.498678 1.172474 -3.107203
v 2.791571 0.879581 -3.107203
v 2.498678 0.172474 -2.415773
v 2.791571 0.879581 -2.415773
v 2.791571 0.879581 -3.107203
v 2.498678 0.172474 -3.107203
v 2.791571 -0.534632 -2.415773
v 2.498678 0.172474 -2.415773
v 2.498678 0.172474 -3.107203
v 2.791571 -0.534632 -3.107203
v 3.498678 -0.827526 -2.415773
v 2.791571 -0.534632 -2.415773
v 2.791571 -0.534632 -3.107203
v 3.498678 -0.827526 -3.107203
v 4.205785 -0.534632 -2.415773
v 3.498678 -0.827526 -2.415773
v 3.498678 -0.827526 -3.107203
v 4.205785 -0.534632 -3.107203
v 4.498677 0.172474 -2.415773
v 4.205785 -0.534632 -2.415773
v 4.205785 -0.534632 -3.107203
v 4.498677 0.172474 -3.107203
v 4.205785 0.879581 -2.415773
v 4.498677 0.172474 -2.415773
v 4.498677 0.172474 -3.107203
v 4.205785 0.879581 -3.107203
v 3.498678 1.172474 -2.415773
v 4.205785 0.879581 -2.415773
v 4.205785 0.879581 -3.107203
v 3.498678 1.172474 -3.107203
v 0.408480 3.985554 1.665913
v -4.058955 1.441010 1.665913
v -4.058955 1.441010 2.112495
v 0.408480 3.985554 2.112495
v -3.669120 1.168101 1.665913
v 0.687637 3.372353 1.665913
v 0.687637 3.372353 2.112495
v -3.669120 1.168101 2.112495
v 1.009037 3.369391 1.602702
v 3.101643 1.346943 1.496436
v 3.101643 1.346943 2.288929
v 1.009037 3.369391 2.160971
v 1.649084 3.888344 2.224950
v 0.408480 3.985554 2.112495
v 0.551117 3.672236 2.112495
v 1.285673 3.593689 2.160971
v 0.687637 3.372353 2.112495
v 0.687637 3.372353 1.665913
v 1.009037 3.369391 1.602702
v 1.009037 3.369391 2.160971
v 1.009037 3.369391 1.602702
v 0.687637 3.372353 1.665913
v 0.544180 3.687474 1.665913
v 1.400284 3.686616 1.602702
v 1.285673 3.593689 2.160971
v 0.551117 3.672236 2.112495
v 0.687637 3.372353 2.112495
v 1.009037 3.369391 2.160971
v 1.400284 3.686616 1.602702
v 0.544180 3.687474 1.665913
v 0.408480 3.985554 1.665913
v 1.649084 3.888344 1.549569
v -2.662694 4.087173 0.412241
v -2.707888 4.087173 0.521352
v -2.831709 4.087173 0.397531
v -2.722599 4.087173 0.352336
v -2.722599 4.087173 -0.367384
v -2.831709 4.087173 -0.412579
v -2.707888 4.087173 -0.536399
v -2.662694 4.087173 -0.427289
v -1.942974 4.087173 -0.427289
v -1.897779 4.087173 -0.536399
v -1.773958 4.087173 -0.412579
v -1.883069 4.087173 -0.367384
v -1.883069 4.087173 0.352335
v -1.773958 4.087173 0.397530
v -1.897778 4.087173 0.521351
v -1.942974 4.087173 0.412241
v -2.952024 4.167383 -0.504726
v -2.831709 4.087173 -0.412579
v -2.831709 4.087173 0.397531
v -1.805632 4.167383 -0.656715
v -1.897779 4.087173 -0.536399
v -2.707888 4.087173 -0.536399
v 5.236520 3.420744 0.758891
v 4.636374 3.420744 0.763646
v 4.636374 3.390204 0.763646
v 4.208644 3.420744 0.342641
v 4.203889 3.420744 -0.257505
v 4.203889 3.390204 -0.257505
v -4.633331 0.440018 -2.177688
v -4.633331 0.440018 -1.674783
v -4.633331 0.942922 -1.674783
v -4.633331 0.942922 -2.177688
v 1.649084 3.888344 -2.131928
v 0.408480 3.985554 -2.019473
v 0.408480 3.985554 -1.572891
v 1.649084 3.888344 -1.456547
v -3.304047 0.947216 -2.338075
v -4.082247 0.947216 -2.338075
v -4.082247 1.450120 -2.338075
v -3.304047 1.450120 -2.338075
v 2.993070 0.947216 -2.338075
v 2.993070 1.450120 -2.338075
v 2.993070 0.947216 -2.338075
v 3.771270 0.947216 -2.338075
v -3.304047 0.947216 0.046511
v -3.304047 0.947216 -2.338075
v -3.304047 1.450120 -2.338075
v -3.304047 1.450120 0.046511
v 3.771270 1.450120 -2.338075
v 2.993070 1.450120 -2.338075
v -3.304047 1.450120 -2.338075
v -4.082247 1.450120 -2.338075
v 3.771270 0.947216 -2.338075
v 3.771270 1.450120 -2.338075
v -4.082247 0.947216 -2.338075
v -3.304047 0.947216 -2.338075
v 3.771270 0.947216 -2.338075
v 2.993070 0.947216 -2.338075
v 2.993070 1.450120 -2.338075
v 3.771270 1.450120 -2.338075
v -4.082247 0.947216 -2.338075
v -4.082248 0.947216 0.046511
v -4.082248 1.450120 0.046511
v -4.082247 1.450120 -2.338075
v -3.681508 1.147185 -2.415773
v -2.974401 0.854292 -2.415773
v -2.974401 0.854292 -3.107203
v -3.681508 1.147185 -3.107203
v -2.974401 0.854292 -2.415773
v -2.681508 0.147185 -2.415773
v -2.681508 0.147185 -3.107203
v -2.974401 0.854292 -3.107203
v -2.681508 0.147185 -2.415773
v -2.974401 -0.559922 -2.415773
v -2.974401 -0.559922 -3.107203
v -2.681508 0.147185 -3.107203
v -2.974401 -0.559922 -2.415773
v -3.681508 -0.852815 -2.415773
v -3.681508 -0.852815 -3.107203
v -2.974401 -0.559922 -3.107203
v -3.681508 -0.852815 -2.415773
v -4.388615 -0.559922 -2.415773
v -4.388615 -0.559922 -3.107203
v -3.681508 -0.852815 -3.107203
v -4.388615 -0.559922 -2.415773
v -4.681508 0.147185 -2.415773
v -4.681508 0.147185 -3.107203
v -4.388615 -0.559922 -3.107203
v -4.681508 0.147185 -2.415773
v -4.388615 0.854292 -2.415773
v -4.388615 0.854292 -3.107203
v -4.681508 0.147185 -3.107203
v -4.388615 0.854292 -2.415773
v -3.681508 1.147185 -2.415773
v -3.681508 1.147185 -3.107203
v -4.388615 0.854292 -3.107203
v 4.546287 0.440018 -1.674783
v 4.546287 0.440018 -2.177688
v 4.546287 0.942922 -2.177688
v 4.546287 0.942922 -1.674783
v 3.631012 1.346943 -1.456547
v 3.631012 1.346943 -2.131928
v 1.649084 3.888344 -2.131928
v 1.649084 3.888344 -1.456547
v 2.791572 0.879581 2.479345
v 2.791572 0.879581 3.170775
v 3.498678 1.172474 3.170775
v 3.498678 1.172474 2.479345
v 2.498678 0.172474 2.479345
v 2.498678 0.172474 3.170775
v 2.791572 0.879581 3.170775
v 2.791572 0.879581 2.479345
v 2.791572 -0.534632 2.479345
v 2.791572 -0.534632 3.170775
v 2.498678 0.172474 3.170775
v 2.498678 0.172474 2.479345
v 3.498678 -0.827526 2.479345
v 3.498678 -0.827526 3.170775
v 2.791572 -0.534632 3.170775
v 2.791572 -0.534632 2.479345
v 4.205785 -0.534632 2.479345
v 4.205785 -0.534632 3.170775
v 3.498678 -0.827526 3.170775
v 3.498678 -0.827526 2.479345
v 4.498677 0.172474 2.479345
v 4.498677 0.172474 3.170775
v 4.205785 -0.534632 3.170775
v 4.205785 -0.534632 2.479345
v 4.205785 0.879581 2.479345
v 4.205785 0.879581 3.170775
v 4.498677 0.172474 3.170775
v 4.498677 0.172474 2.479345
v 3.498678 1.172474 2.479345
v 3.498678 1.172474 3.170775
v 4.205785 0.879581 3.170775
v 4.205785 0.879581 2.479345
v 0.408480 3.985554 -1.572891
v 0.408480 3.985554 -2.019473
v -4.058955 1.441010 -2.019473
v -4.058955 1.441010 -1.572891
v -3.669120 1.168101 -1.572891
v -3.669120 1.168101 -2.019473
v 0.687637 3.372353 -2.019473
v 0.687637 3.372353 -1.572891
v 1.009037 3.369391 -1.509680
v 1.009037 3.369391 -2.067949
v 3.101643 1.346943 -2.195906
v 3.101643 1.346943 -1.403414
v 1.649084 3.888344 -2.131928
v 1.285673 3.593689 -2.067949
v 0.551117 3.672236 -2.019473
v 0.408480 3.985554 -2.019473
v 0.687637 3.372353 -2.019473
v 1.009037 3.369391 -2.067949
v 1.009037 3.369391 -1.509680
v 0.687637 3.372353 -1.572891
v 1.009037 3.369391 -1.509680
v 1.400284 3.686616 -1.509680
v 0.544180 3.687474 -1.572891
v 0.687637 3.372353 -1.572891
v 1.285673 3.593689 -2.067949
v 1.009037 3.369391 -2.067949
v 0.687637 3.372353 -2.019473
v 0.551117 3.672236 -2.019473
v 1.400284 3.686616 -1.509680
v 1.649084 3.888344 -1.456547
v 0.408480 3.985554 -1.572891
v 0.544180 3.687474 -1.572891
v 1.029650 3.560008 0.209616
v 0.805976 3.550705 0.205426
v 0.805976 3.550705 0.113351
v 1.029650 3.560008 0.117542
v 0.544835 4.142244 0.308032
v 0.805976 3.550705 0.113351
v 0.805976 3.550705 0.205426
v 3.466836 0.436640 -3.303207
v 3.466836 0.436640 3.345181
v 3.619494 0.382856 3.345181
v 3.619494 0.382856 -3.303207
v 3.619494 0.382856 -3.303207
v 3.619494 0.382856 3.345181
v 3.700721 0.246669 3.345181
v 3.700721 0.246669 -3.303207
v 3.700721 0.246669 -3.303207
v 3.700721 0.246669 3.345181
v 3.672512 0.091803 3.345181
v 3.672512 0.091803 -3.303207
v 3.672512 0.091803 -3.303207
v 3.672512 0.091803 3.345181
v 3.548064 -0.009279 3.345181
v 3.548064 -0.009279 -3.303207
v 3.548064 -0.009279 -3.303207
v 3.548064 -0.009279 3.345181
v 3.385610 -0.009279 3.345181
v 3.385610 -0.009279 -3.303207
v 3.385610 -0.009279 -3.303207
v 3.385610 -0.009279 3.345181
v 3.261162 0.091803 3.345181
v 3.261162 0.091803 -3.303207
v 3.261162 0.091803 -3.303207
v 3.261162 0.091803 3.345181
v 3.232952 0.246669 3.345181
v 3.232952 0.246669 -3.303207
v 3.232952 0.246669 -3.303207
v 3.232952 0.246669 3.345181
v 3.314179 0.382856 3.345181
v 3.314179 0.382856 -3.303207
v 3.314179 0.382856 -3.303207
v 3.314179 0.382856 3.345181
v 3.466836 0.436640 3.345181
v 3.466836 0.436640 -3.303207
v -3.679673 0.436640 -3.303207
v -3.679673 0.436640 3.345181
v -3.527015 0.382856 3.345181
v -3.527015 0.382856 -3.303207
v -3.527015 0.382856 -3.303207
v -3.527015 0.382856 3.345181
v -3.445788 0.246669 3.345181
v -3.445788 0.246669 -3.303207
v -3.445788 0.246669 -3.303207
v -3.445788 0.246669 3.345181
v -3.473998 0.091803 3.345181
v -3.473998 0.091803 -3.303207
v -3.473998 0.091803 -3.303207
v -3.473998 0.091803 3.345181
v -3.598445 -0.009279 3.345181
v -3.598445 -0.009279 -3.303207
v -3.598445 -0.009279 -3.303207
v -3.598445 -0.009279 3.345181
v -3.760899 -0.009279 3.345181
v -3.760899 -0.009279 -3.303207
v -3.760899 -0.009279 -3.303207
v -3.760899 -0.009279 3.345181
v -3.885347 0.091803 3.345181
v -3.885347 0.091803 -3.303207
v -3.885347 0.091803 -3.303207
v -3.885347 0.091803 3.345181
v -3.913557 0.246669 3.345181
v -3.913557 0.246669 -3.303207
v -3.913557 0.246669 -3.303207
v -3.913557 0.246669 3.345181
v -3.832330 0.382856 3.345181
v -3.832330 0.382856 -3.303207
v -3.832330 0.382856 -3.303207
v -3.832330 0.382856 3.345181
v -3.679673 0.436640 3.345181
v -3.679673 0.436640 -3.303207
v 4.546287 0.440018 2.270710
v 4.093990 0.440018 1.767806
v 4.546287 0.440018 1.767806
v -4.633331 0.440018 1.767806
v -4.633331 0.440018 2.270710
v -4.633331 0.942922 2.270710
v 4.093990 0.942922 1.767806
v -4.633331 0.942922 1.767806
v 4.546287 0.942922 1.767806
v 4.546287 0.942922 2.270710
v 3.101643 1.346943 2.288929
v 1.285673 3.593689 2.160971
v 1.009037 3.369391 2.160971
v 1.649084 3.888344 2.224950
v 3.631012 1.346943 2.224950
v -4.388615 0.854292 2.479345
v -4.388615 -0.559922 2.479345
v -4.681508 0.147185 2.479345
v -3.681508 1.147185 2.479345
v -3.681508 -0.852815 2.479345
v -2.974401 -0.559922 2.479345
v -2.974401 0.854292 2.479345
v -2.681508 0.147185 2.479345
v 4.093990 0.440018 2.270710
v -4.633331 0.942922 2.270710
v -4.633331 0.440018 2.270710
v 4.093990 0.942922 2.270710
v 4.546287 0.440018 2.270710
v 4.546287 0.942922 2.270710
v 4.093990 0.942922 1.767806
v -4.633331 0.440018 1.767806
v -4.633331 0.942922 1.767806
v 4.093990 0.440018 1.767806
v 4.546287 0.942922 1.767806
v 4.546287 0.440018 1.767806
v 1.400284 3.686616 1.602702
v 3.101643 1.346943 1.496436
v 1.009037 3.369391 1.602702
v 1.649084 3.888344 1.549569
v 3.631012 1.346943 1.549569
v 2.791571 -0.534632 -2.415773
v 2.791571 0.879581 -2.415773
v 2.498678 0.172474 -2.415773
v 3.498678 -0.827526 -2.415773
v 3.498678 1.172474 -2.415773
v 4.205785 -0.534632 -2.415773
v 4.205785 0.879581 -2.415773
v 4.498677 0.172474 -2.415773
v -3.669120 1.168101 2.112495
v 0.408480 3.985554 2.112495
v -4.058955 1.441010 2.112495
v 0.551117 3.672236 2.112495
v 0.687637 3.372353 2.112495
v 0.408480 3.985554 1.665913
v -3.669120 1.168101 1.665913
v -4.058955 1.441010 1.665913
v 0.687637 3.372353 1.665913
v 0.544180 3.687474 1.665913
v 1.088663 3.515767 0.605079
v 1.088662 3.515766 2.216730
v 1.088662 3.515766 1.147942
v 1.158849 3.677408 0.605079
v 1.158849 3.677407 2.216730
v 1.158849 3.677407 1.147942
v -1.773958 3.029423 -0.412579
v -1.773958 3.029423 0.397530
v -1.773958 3.029423 -0.004152
v -2.831709 3.029423 0.397531
v -2.831709 3.029423 -0.412579
v -2.831709 3.029423 0.012585
v 4.546287 0.440018 -1.674783
v 4.093990 0.440018 -2.177688
v 4.546287 0.440018 -2.177688
v -4.633331 0.440018 -2.177688
v -4.633331 0.440018 -1.674783
v -4.633331 0.942922 -1.674783
v 4.093990 0.942922 -2.177688
v -4.633331 0.942922 -2.177688
v 4.546287 0.942922 -2.177688
v 4.546287 0.942922 -1.674783
v 1.285673 3.593689 -2.067949
v 3.101643 1.346943 -2.195906
v 1.009037 3.369391 -2.067949
v 1.649084 3.888344 -2.131928
v 3.631012 1.346943 -2.131928
v -4.388615 -0.559922 -2.415773
v -4.388615 0.854292 -2.415773
v -4.681508 0.147185 -2.415773
v -3.681508 -0.852815 -2.415773
v -3.681508 1.147185 -2.415773
v -2.974401 -0.559922 -2.415773
v -2.974401 0.854292 -2.415773
v -2.681508 0.147185 -2.415773
v 4.093990 0.942922 -2.177688
v -4.633331 0.440018 -2.177688
v -4.633331 0.942922 -2.177688
v 4.093990 0.440018 -2.177688
v 4.546287 0.942922 -2.177688
v 4.546287 0.440018 -2.177688
v 4.093990 0.440018 -1.674783
v -4.633331 0.942922 -1.674783
v -4.633331 0.440018 -1.674783
v 4.093990 0.942922 -1.674783
v 4.546287 0.440018 -1.674783
v 4.546287 0.942922 -1.674783
v 3.101643 1.346943 -1.403414
v 1.400284 3.686616 -1.509680
v 1.009037 3.369391 -1.509680
v 1.649084 3.888344 -1.456547
v 3.631012 1.346943 -1.456547
v 2.791572 0.879581 2.479345
v 2.791572 -0.534632 2.479345
v 2.498678 0.172474 2.479345
v 3.498678 1.172474 2.479345
v 3.498678 -0.827526 2.479345
v 4.205785 0.879581 2.479345
v 4.205785 -0.534632 2.479345
v 4.498677 0.172474 2.479345
v 0.408480 3.985554 -2.019473
v -3.669120 1.168101 -2.019473
v -4.058955 1.441010 -2.019473
v 0.551117 3.672236 -2.019473
v 0.687637 3.372353 -2.019473
v -3.669120 1.168101 -1.572891
v 0.408480 3.985554 -1.572891
v -4.058955 1.441010 -1.572891
v 0.687637 3.372353 -1.572891
v 0.544180 3.687474 -1.572891
v 0.749772 3.515767 -0.512057
v 0.749772 3.515766 -2.123707
v 0.749772 3.515766 -1.054919
v 0.679585 3.677408 -0.512057
v 0.679585 3.677407 -2.123707
v 0.679585 3.677407 -1.054919
vn -0.0000 -0.0000 -1.0000
vn -0.0000 -0.0000 1.0000
vn -1.0000 -0.0000 -0.0000
vn 0.0781 0.9969 -0.0000
vn -0.0000 -1.0000 -0.0000
vn 1.0000 -0.0000 -0.0000
vn -0.0000 1.0000 -0.0000
vn 0.3827 0.9239 -0.0000
vn 0.9239 0.3827 -0.0000
vn 0.9239 -0.3827 -0.0000
vn 0.3827 -0.9239 -0.0000
vn -0.3827 -0.9239 -0.0000
vn -0.9239 -0.3827 -0.0000
vn -0.9239 0.3827 -0.0000
vn -0.3827 0.9239 -0.0000
vn 0.7886 0.6150 -0.0000
vn -0.4949 0.8689 -0.0000
vn 0.4514 -0.8923 -0.0000
vn -0.6950 -0.7191 -0.0000
vn -0.0874 -0.0728 0.9935
vn -0.0092 -1.0000 -0.0000
vn -0.1065 0.0418 -0.9934
vn -0.1066 0.0417 -0.9934
vn -0.1065 0.0417 -0.9934
vn -0.0896 0.0240 0.9957
vn -0.0896 0.0239 0.9957
vn -0.0890 -0.0854 -0.9924
vn -0.0890 -0.0853 -0.9924
vn -0.5547 -0.8320 -0.0000
vn -0.0000 -0.8320 -0.5547
vn 0.0079 -0.0000 1.0000
vn -1.0000 -0.0000 0.0079
vn -0.0874 -0.0728 -0.9935
vn -0.1065 0.0418 0.9934
vn -0.1065 0.0417 0.9934
vn -0.1066 0.0417 0.9934
vn -0.0896 0.0240 -0.9957
vn -0.0896 0.0239 -0.9957
vn -0.0890 -0.0854 0.9924
vn -0.0890 -0.0853 0.9924
vn 0.0416 -0.9991 -0.0000
vn -0.9148 -0.4039 -0.0000
vn 0.3323 0.9432 -0.0000
vn 0.8588 0.5122 -0.0000
vn 0.9838 -0.1792 -0.0000
vn 0.6305 -0.7762 -0.0000
vn -0.6305 -0.7762 -0.0000
vn -0.9838 -0.1792 -0.0000
vn -0.8588 0.5122 -0.0000
vn -0.3323 0.9432 -0.0000
vn -0.0127 0.0249 0.9996
vn -0.0128 0.0248 0.9996
vn -0.0120 0.0222 -0.9997
vn -0.0119 0.0223 -0.9997
vn -0.0120 0.0223 -0.9997
vn 0.7180 0.3268 -0.6145
vn 0.5512 0.2508 0.7958
vn 0.9100 0.4145 -0.0000
vn 0.7302 -0.6832 -0.0000
vn 0.9172 -0.3985 -0.0000
vn -0.9173 -0.3983 -0.0000
vn 0.8000 0.5999 -0.0000
vn -0.8000 0.5999 -0.0000
vn -0.0128 0.0248 -0.9996
vn -0.0127 0.0249 -0.9996
vn -0.0118 0.0223 0.9997
vn -0.0120 0.0222 0.9997
vn -0.0119 0.0222 0.9997
vn -0.6368 -0.4623 0.6171
vn -0.4110 0.0289 -0.9112
vn -0.9053 -0.4122 -0.1030
vn -0.9173 -0.3982 -0.0000
vn -0.9932 -0.1162 -0.0000
vn -0.9172 0.3984 -0.0000
vt 0.092377 0.134184
vt 0.051260 0.134184
vt 0.080334 0.105111
vt 0.339693 0.106509
vt 0.310211 0.094297
vt 0.310211 0.135991
vt 0.280728 0.106509
vt 0.268516 0.135991
vt 0.280728 0.165474
vt 0.310211 0.177686
vt 0.339693 0.165474
vt 0.351905 0.135991
vt 0.080334 0.163258
vt 0.051260 0.175301
vt 0.022187 0.163258
vt 0.010144 0.134184
vt 0.022187 0.105111
vt 0.051260 0.093068
vt 0.092458 0.134309
vt 0.080404 0.105207
vt 0.051302 0.134309
vt 0.339777 0.105906
vt 0.310470 0.135213
vt 0.310470 0.093767
vt 0.281164 0.105906
vt 0.269025 0.135213
vt 0.281164 0.164519
vt 0.310470 0.176658
vt 0.339777 0.164519
vt 0.351916 0.135213
vt 0.080404 0.163411
vt 0.051302 0.175465
vt 0.022200 0.163411
vt 0.010146 0.134309
vt 0.022200 0.105207
vt 0.051302 0.093153
vt 0.100123 0.330199
vt 0.109024 0.304795
vt 0.139472 0.329725
vt 0.109041 0.304812
vt 0.100138 0.330220
vt 0.139494 0.329746
vt 0.109634 0.355381
vt 0.133106 0.368558
vt 0.159557 0.363565
vt 0.176610 0.342737
vt 0.176286 0.315821
vt 0.158736 0.295411
vt 0.132172 0.291056
vt 0.109651 0.355407
vt 0.133127 0.368586
vt 0.159582 0.363592
vt 0.176638 0.342761
vt 0.176314 0.315840
vt 0.158761 0.295426
vt 0.132193 0.291071
vt 0.216087 0.489421
vt 0.216087 0.571279
vt 0.297945 0.571279
vt 0.297945 0.489421
vt 0.422481 0.612051
vt 0.422481 0.715261
vt 0.319271 0.818471
vt 0.723666 0.750632
vt 0.827938 0.750632
vt 0.827938 0.646360
vt 0.723666 0.646360
vt 0.827938 0.594224
vt 0.723666 0.594224
vt 0.619394 0.542088
vt 0.671530 0.542088
vt 0.671530 0.437817
vt 0.619394 0.437816
vt 0.723666 0.385681
vt 0.827938 0.385681
vt 0.827938 0.333545
vt 0.723666 0.333545
vt 0.880074 0.542088
vt 0.932210 0.542088
vt 0.932210 0.437816
vt 0.880074 0.437817
vt 0.880074 0.437816
vt 0.671530 0.437816
vt 0.353643 0.092559
vt 0.353643 0.005696
vt 0.331927 0.005696
vt 0.331927 0.092559
vt 0.310211 0.005696
vt 0.310211 0.092559
vt 0.288495 0.005696
vt 0.288495 0.092559
vt 0.266779 0.005696
vt 0.266779 0.092559
vt 0.245063 0.005696
vt 0.245063 0.092559
vt 0.223347 0.005696
vt 0.223347 0.092559
vt 0.201631 0.005696
vt 0.201631 0.092559
vt 0.179915 0.005696
vt 0.179915 0.092559
vt 0.379803 0.489421
vt 0.379803 0.571279
vt 0.461661 0.571279
vt 0.461661 0.489421
vt 0.319271 0.715261
vt 0.319271 0.612051
vt 0.029846 0.091355
vt 0.008431 0.091355
vt 0.008431 0.005696
vt 0.029846 0.005696
vt 0.051260 0.091355
vt 0.051260 0.005696
vt 0.072675 0.091355
vt 0.072675 0.005696
vt 0.094090 0.091355
vt 0.094090 0.005696
vt 0.115505 0.091355
vt 0.115505 0.005696
vt 0.136919 0.091355
vt 0.136919 0.005696
vt 0.158334 0.091355
vt 0.158334 0.005696
vt 0.179749 0.091355
vt 0.179749 0.005696
vt 0.216061 0.818471
vt 0.319271 0.921681
vt 0.422481 0.767997
vt 0.422481 0.670652
vt 0.369442 0.768300
vt 0.382361 0.755381
vt 0.422481 0.818471
vt 0.575068 0.692683
vt 0.564572 0.688336
vt 0.576483 0.676425
vt 0.580831 0.686921
vt 0.650063 0.686921
vt 0.654411 0.676425
vt 0.666322 0.688336
vt 0.655826 0.692683
vt 0.655826 0.761916
vt 0.666322 0.766263
vt 0.654411 0.778174
vt 0.650063 0.767678
vt 0.580831 0.767678
vt 0.576483 0.778174
vt 0.564572 0.766263
vt 0.575068 0.761916
vt 0.200014 0.616706
vt 0.199907 0.663621
vt 0.199800 0.710536
vt 0.199692 0.757451
vt 0.216087 0.489263
vt 0.298103 0.489263
vt 0.298103 0.571279
vt 0.423363 0.610286
vt 0.423363 0.714379
vt 0.353643 0.092041
vt 0.332056 0.092041
vt 0.332056 0.005696
vt 0.310470 0.092041
vt 0.310470 0.005696
vt 0.288884 0.092041
vt 0.288884 0.005696
vt 0.267298 0.092041
vt 0.267298 0.005696
vt 0.245711 0.092041
vt 0.245711 0.005696
vt 0.224125 0.092041
vt 0.224125 0.005696
vt 0.202539 0.092041
vt 0.202539 0.005696
vt 0.180953 0.092041
vt 0.180953 0.005696
vt 0.380120 0.489263
vt 0.462137 0.489263
vt 0.462137 0.571279
vt 0.380120 0.571279
vt 0.319271 0.714379
vt 0.319271 0.610286
vt 0.029866 0.091438
vt 0.029866 0.005696
vt 0.008431 0.091438
vt 0.051302 0.091438
vt 0.051302 0.005696
vt 0.072737 0.091438
vt 0.072737 0.005696
vt 0.094173 0.091438
vt 0.094173 0.005696
vt 0.115608 0.091438
vt 0.115608 0.005696
vt 0.137044 0.091438
vt 0.137044 0.005696
vt 0.158479 0.091438
vt 0.158479 0.005696
vt 0.179915 0.091438
vt 0.215179 0.818471
vt 0.319271 0.922563
vt 0.423363 0.669389
vt 0.423363 0.767565
vt 0.382900 0.754841
vt 0.369871 0.767871
vt 0.423363 0.818471
vt 0.280222 0.237328
vt 0.280036 0.229019
vt 0.213560 0.230507
vt 0.213746 0.238817
vt 0.097002 0.207254
vt 0.015026 0.208241
vt 0.015245 0.226459
vt 0.097222 0.225471
vt 0.015465 0.244676
vt 0.097441 0.243688
vt 0.015684 0.262893
vt 0.097661 0.261905
vt 0.015903 0.281110
vt 0.097880 0.280122
vt 0.016123 0.299327
vt 0.098100 0.298339
vt 0.016342 0.317544
vt 0.098319 0.316556
vt 0.016562 0.335761
vt 0.098539 0.334773
vt 0.016781 0.353978
vt 0.098758 0.352990
vt 0.017001 0.372195
vt 0.098978 0.371207
vt 0.097017 0.207254
vt 0.015245 0.226462
vt 0.097236 0.225474
vt 0.015465 0.244682
vt 0.097456 0.243694
vt 0.015684 0.262902
vt 0.097675 0.261914
vt 0.015904 0.281122
vt 0.097895 0.280135
vt 0.016123 0.299343
vt 0.098114 0.298355
vt 0.016343 0.317563
vt 0.098334 0.316575
vt 0.016562 0.335783
vt 0.098553 0.334795
vt 0.016782 0.354003
vt 0.098773 0.353016
vt 0.017001 0.372224
vt 0.098992 0.371236
vt 0.216087 0.366634
vt 0.422481 0.759870
vt 0.319271 0.755381
vt 0.216061 0.715261
vt 0.319271 0.768300
vt 0.690749 0.231965
vt 0.690749 0.020434
vt 0.426335 0.443495
vt 0.743631 0.231965
vt 0.743631 0.020434
vt 0.576483 0.879924
vt 0.654411 0.879924
vt 0.615123 0.879924
vt 0.654411 0.981673
vt 0.576483 0.981673
vt 0.613513 0.981673
vt 0.216087 0.366238
vt 0.423363 0.759369
vt 0.319271 0.754841
vt 0.215179 0.714379
vt 0.319271 0.767871
vt 0.584983 0.231965
vt 0.584983 0.020434
vt 0.532100 0.231965
vt 0.532100 0.020434
s 1
g off
g catapulta_Material.002
usemtl Material.002
f 1/1/1 2/2/1 3/3/1
s 2
f 4/4/2 5/5/2 6/6/2
f 5/5/2 7/7/2 6/6/2
f 7/7/2 8/8/2 6/6/2
f 8/8/2 9/9/2 6/6/2
f 9/9/2 10/10/2 6/6/2
f 10/10/2 11/11/2 6/6/2
f 11/11/2 12/12/2 6/6/2
f 12/12/2 4/4/2 6/6/2
s 1
f 13/13/1 2/2/1 1/1/1
f 14/14/1 2/2/1 13/13/1
f 15/15/1 2/2/1 14/14/1
f 16/16/1 2/2/1 15/15/1
f 17/17/1 2/2/1 16/16/1
f 18/18/1 2/2/1 17/17/1
f 3/3/1 2/2/1 18/18/1
s 3
f 19/19/2 20/20/2 21/21/2
s 4
f 22/22/1 23/23/1 24/24/1
f 24/24/1 23/23/1 25/25/1
f 25/25/1 23/23/1 26/26/1
f 26/26/1 23/23/1 27/27/1
f 27/27/1 23/23/1 28/28/1
f 28/28/1 23/23/1 29/29/1
f 29/29/1 23/23/1 30/30/1
f 30/30/1 23/23/1 22/22/1
s 3
f 31/31/2 19/19/2 21/21/2
f 32/32/2 31/31/2 21/21/2
f 33/33/2 32/32/2 21/21/2
f 34/34/2 33/33/2 21/21/2
f 35/35/2 34/34/2 21/21/2
f 36/36/2 35/35/2 21/21/2
f 20/20/2 36/36/2 21/21/2
s 5
f 37/37/1 38/38/1 39/39/1
s 6
f 40/40/2 41/41/2 42/42/2
s 7
f 43/41/1 44/40/1 45/42/1
s 8
f 46/38/2 47/37/2 48/39/2
s 9
f 49/37/2 50/43/2 51/39/2
s 10
f 52/43/2 53/44/2 54/39/2
s 11
f 55/44/2 56/45/2 57/39/2
s 12
f 58/45/2 59/46/2 60/39/2
s 13
f 61/46/2 62/47/2 63/39/2
s 14
f 64/47/2 65/48/2 66/39/2
s 15
f 67/48/2 68/49/2 69/39/2
s 16
f 70/49/2 71/38/2 72/39/2
s 17
f 73/38/1 74/49/1 75/39/1
s 18
f 76/49/1 77/48/1 78/39/1
s 19
f 79/48/1 80/47/1 81/39/1
s 20
f 82/47/1 83/46/1 84/39/1
s 21
f 85/46/1 86/45/1 87/39/1
s 22
f 88/45/1 89/44/1 90/39/1
s 23
f 91/44/1 92/43/1 93/39/1
s 24
f 94/43/1 95/37/1 96/39/1
s 25
f 97/41/2 98/50/2 99/42/2
s 26
f 100/50/2 101/51/2 102/42/2
s 27
f 103/51/2 104/52/2 105/42/2
s 28
f 106/52/2 107/53/2 108/42/2
s 29
f 109/53/2 110/54/2 111/42/2
s 30
f 112/54/2 113/55/2 114/42/2
s 31
f 115/55/2 116/56/2 117/42/2
s 32
f 118/56/2 119/40/2 120/42/2
s 7
f 44/40/1 121/56/1 45/42/1
f 122/56/1 123/55/1 45/42/1
f 123/55/1 124/54/1 45/42/1
f 124/54/1 125/53/1 45/42/1
f 125/53/1 126/52/1 45/42/1
f 126/52/1 127/51/1 45/42/1
f 127/51/1 128/50/1 45/42/1
f 128/50/1 43/41/1 45/42/1
s 33
f 129/57/3 130/58/3 131/59/3
f 129/57/3 131/59/3 132/60/3
s 34
f 133/61/4 134/62/4 135/63/4
f 133/61/4 135/63/4 136/62/4
s 35
f 137/64/2 138/65/2 139/66/2
f 137/64/2 139/66/2 140/67/2
s 36
f 141/67/3 142/66/3 143/68/3
f 141/67/3 143/68/3 144/69/3
s 37
f 145/70/5 146/71/5 147/72/5
f 145/70/5 147/72/5 148/73/5
s 38
f 149/74/6 150/75/6 151/76/6
f 149/74/6 151/76/6 152/77/6
s 39
f 153/78/7 154/79/7 155/80/7
f 153/78/7 155/80/7 156/81/7
s 40
f 157/78/7 158/79/7 159/80/7
f 157/78/7 159/80/7 160/82/7
s 41
f 161/74/6 162/75/6 163/76/6
f 161/74/6 163/76/6 164/77/6
s 42
f 165/70/5 166/71/5 167/83/5
f 165/70/5 167/83/5 168/73/5
s 43
f 169/64/2 170/65/2 171/66/2
f 169/64/2 171/66/2 172/67/2
s 44
f 173/67/3 174/66/3 175/68/3
f 173/67/3 175/68/3 176/69/3
s 45
f 177/84/8 178/85/8 179/86/8
f 177/84/8 179/86/8 180/87/8
s 46
f 181/87/9 182/86/9 183/88/9
f 181/87/9 183/88/9 184/89/9
s 47
f 185/89/10 186/88/10 187/90/10
f 185/89/10 187/90/10 188/91/10
s 48
f 189/91/11 190/90/11 191/92/11
f 189/91/11 191/92/11 192/93/11
s 49
f 193/93/12 194/92/12 195/94/12
f 193/93/12 195/94/12 196/95/12
s 50
f 197/95/13 198/94/13 199/96/13
f 197/95/13 199/96/13 200/97/13
s 51
f 201/97/14 202/96/14 203/98/14
f 201/97/14 203/98/14 204/99/14
s 52
f 205/99/15 206/98/15 207/100/15
f 205/99/15 207/100/15 208/101/15
s 53
f 209/102/6 210/103/6 211/104/6
f 209/102/6 211/104/6 212/105/6
s 54
f 213/106/16 214/62/16 215/61/16
f 213/106/16 215/61/16 216/107/16
s 55
f 217/108/15 218/109/15 219/110/15
f 217/108/15 219/110/15 220/111/15
s 56
f 221/112/14 222/108/14 223/111/14
f 221/112/14 223/111/14 224/113/14
s 57
f 225/114/13 226/112/13 227/113/13
f 225/114/13 227/113/13 228/115/13
s 58
f 229/116/12 230/114/12 231/115/12
f 229/116/12 231/115/12 232/117/12
s 59
f 233/118/11 234/116/11 235/117/11
f 233/118/11 235/117/11 236/119/11
s 60
f 237/120/10 238/118/10 239/119/10
f 237/120/10 239/119/10 240/121/10
s 61
f 241/122/9 242/120/9 243/121/9
f 241/122/9 243/121/9 244/123/9
s 62
f 245/124/8 246/122/8 247/123/8
f 245/124/8 247/123/8 248/125/8
s 63
f 249/63/17 250/126/17 251/106/17
f 249/63/17 251/106/17 252/62/17
s 64
f 253/106/18 254/62/18 255/61/18
f 253/106/18 255/61/18 256/107/18
s 65
f 257/63/19 258/127/19 259/106/19
f 257/63/19 259/106/19 260/62/19
s 66
f 261/61/20 262/62/20 263/128/20
f 261/61/20 263/128/20 264/129/20
s 67
f 265/61/21 266/62/21 267/63/21
f 265/61/21 267/63/21 268/62/21
s 68
f 269/63/22 270/62/23 271/130/24
f 269/63/22 271/130/24 272/131/22
s 69
f 273/129/25 274/128/26 275/132/26
f 273/129/25 275/132/26 276/62/25
s 70
f 277/131/27 278/130/28 279/63/28
f 277/131/27 279/63/28 280/62/27
s 71
f 281/133/5 282/134/5 283/135/5
f 281/133/5 283/135/5 284/136/5
f 285/137/5 286/138/5 287/139/5
f 285/137/5 287/139/5 288/140/5
f 289/141/5 290/142/5 291/143/5
f 289/141/5 291/143/5 292/144/5
f 293/145/5 294/146/5 295/147/5
f 293/145/5 295/147/5 296/148/5
f 284/136/5 283/135/5 286/138/5
f 284/136/5 286/138/5 285/137/5
f 296/148/5 295/147/5 282/134/5
f 296/148/5 282/134/5 281/133/5
f 292/144/5 291/143/5 294/146/5
f 292/144/5 294/146/5 293/145/5
f 288/140/5 287/139/5 290/142/5
f 288/140/5 290/142/5 289/141/5
s 72
f 297/138/29 298/138/29 299/135/29
s 73
f 300/142/30 301/142/30 302/139/30
s 74
f 303/149/31 304/150/31 305/150/31
s 75
f 306/151/32 307/152/32 308/152/32
s 76
f 309/153/3 310/154/3 311/155/3
f 309/153/3 311/155/3 312/58/3
s 77
f 313/156/4 314/157/4 315/63/4
f 313/156/4 315/63/4 316/157/4
s 78
f 317/64/1 318/67/1 319/66/1
f 317/64/1 319/66/1 320/65/1
s 36
f 321/67/3 144/69/3 143/68/3
f 321/67/3 143/68/3 322/66/3
s 37
f 323/70/5 324/73/5 147/72/5
f 323/70/5 147/72/5 146/71/5
s 79
f 325/74/6 326/77/6 327/76/6
f 325/74/6 327/76/6 328/75/6
s 39
f 153/78/7 156/81/7 329/80/7
f 153/78/7 329/80/7 330/79/7
s 40
f 157/78/7 160/82/7 331/80/7
f 157/78/7 331/80/7 332/79/7
s 41
f 161/74/6 333/77/6 334/76/6
f 161/74/6 334/76/6 162/75/6
s 42
f 335/70/5 336/73/5 167/83/5
f 335/70/5 167/83/5 166/71/5
s 80
f 337/64/1 338/67/1 339/66/1
f 337/64/1 339/66/1 340/65/1
s 81
f 341/67/3 342/69/3 343/68/3
f 341/67/3 343/68/3 344/66/3
s 82
f 345/158/8 346/159/8 347/160/8
f 345/158/8 347/160/8 348/85/8
s 83
f 349/159/9 350/161/9 351/162/9
f 349/159/9 351/162/9 352/160/9
s 84
f 353/161/10 354/163/10 355/164/10
f 353/161/10 355/164/10 356/162/10
s 85
f 357/163/11 358/165/11 359/166/11
f 357/163/11 359/166/11 360/164/11
s 86
f 361/165/12 362/167/12 363/168/12
f 361/165/12 363/168/12 364/166/12
s 87
f 365/167/13 366/169/13 367/170/13
f 365/167/13 367/170/13 368/168/13
s 88
f 369/169/14 370/171/14 371/172/14
f 369/169/14 371/172/14 372/170/14
s 89
f 373/171/15 374/173/15 375/174/15
f 373/171/15 375/174/15 376/172/15
s 90
f 377/175/6 378/176/6 379/177/6
f 377/175/6 379/177/6 380/178/6
s 91
f 381/179/16 382/180/16 383/156/16
f 381/179/16 383/156/16 384/157/16
s 92
f 385/181/15 386/182/15 387/110/15
f 385/181/15 387/110/15 388/183/15
s 93
f 389/184/14 390/185/14 391/182/14
f 389/184/14 391/182/14 392/181/14
s 94
f 393/186/13 394/187/13 395/185/13
f 393/186/13 395/185/13 396/184/13
s 95
f 397/188/12 398/189/12 399/187/12
f 397/188/12 399/187/12 400/186/12
s 96
f 401/190/11 402/191/11 403/189/11
f 401/190/11 403/189/11 404/188/11
s 97
f 405/192/10 406/193/10 407/191/10
f 405/192/10 407/191/10 408/190/10
s 98
f 409/194/9 410/195/9 411/193/9
f 409/194/9 411/193/9 412/192/9
s 99
f 413/196/8 414/100/8 415/195/8
f 413/196/8 415/195/8 416/194/8
s 100
f 417/63/17 418/157/17 419/179/17
f 417/63/17 419/179/17 420/197/17
s 101
f 421/179/18 422/180/18 423/156/18
f 421/179/18 423/156/18 424/157/18
s 102
f 425/63/19 426/157/19 427/179/19
f 425/63/19 427/179/19 428/198/19
s 103
f 429/156/33 430/199/33 431/200/33
f 429/156/33 431/200/33 432/157/33
s 104
f 433/156/21 434/157/21 435/63/21
f 433/156/21 435/63/21 436/157/21
s 105
f 437/63/34 438/201/34 439/202/35
f 437/63/34 439/202/35 440/157/36
s 106
f 441/199/37 442/157/37 443/203/38
f 441/199/37 443/203/38 444/200/38
s 107
f 445/201/39 446/157/39 447/63/40
f 445/201/39 447/63/40 448/202/40
s 108
f 449/204/41 450/205/41 451/206/41
f 449/204/41 451/206/41 452/207/41
s 109
f 453/205/42 454/206/42 455/205/42
s 110
f 456/208/43 457/209/43 458/210/43
f 456/208/43 458/210/43 459/211/43
s 111
f 460/211/44 461/210/44 462/212/44
f 460/211/44 462/212/44 463/213/44
s 112
f 464/213/45 465/212/45 466/214/45
f 464/213/45 466/214/45 467/215/45
s 113
f 468/215/46 469/214/46 470/216/46
f 468/215/46 470/216/46 471/217/46
s 114
f 472/217/5 473/216/5 474/218/5
f 472/217/5 474/218/5 475/219/5
s 115
f 476/219/47 477/218/47 478/220/47
f 476/219/47 478/220/47 479/221/47
s 116
f 480/221/48 481/220/48 482/222/48
f 480/221/48 482/222/48 483/223/48
s 117
f 484/223/49 485/222/49 486/224/49
f 484/223/49 486/224/49 487/225/49
s 118
f 488/225/50 489/224/50 490/226/50
f 488/225/50 490/226/50 491/227/50
s 119
f 492/228/43 493/209/43 494/229/43
f 492/228/43 494/229/43 495/230/43
s 120
f 496/230/44 497/229/44 498/231/44
f 496/230/44 498/231/44 499/232/44
s 121
f 500/232/45 501/231/45 502/233/45
f 500/232/45 502/233/45 503/234/45
s 122
f 504/234/46 505/233/46 506/235/46
f 504/234/46 506/235/46 507/236/46
s 123
f 508/236/5 509/235/5 510/237/5
f 508/236/5 510/237/5 511/238/5
s 124
f 512/238/47 513/237/47 514/239/47
f 512/238/47 514/239/47 515/240/47
s 125
f 516/240/48 517/239/48 518/241/48
f 516/240/48 518/241/48 519/242/48
s 126
f 520/242/49 521/241/49 522/243/49
f 520/242/49 522/243/49 523/244/49
s 127
f 524/244/50 525/243/50 526/245/50
f 524/244/50 526/245/50 527/246/50
s 128
f 528/105/5 529/247/5 530/102/5
f 529/247/5 528/105/5 531/60/5
f 531/60/5 528/105/5 532/57/5
s 129
f 533/58/7 534/247/7 535/59/7
f 534/247/7 533/58/7 536/103/7
f 536/103/7 533/58/7 537/104/7
s 130
f 538/106/51 539/248/52 540/62/52
f 539/248/52 538/106/51 541/132/52
f 541/132/52 538/106/51 542/63/51
s 131
f 543/7/1 544/9/1 545/8/1
f 544/9/1 543/7/1 546/5/1
f 544/9/1 546/5/1 547/10/1
f 547/10/1 546/5/1 548/11/1
f 548/11/1 546/5/1 549/4/1
f 548/11/1 549/4/1 550/12/1
s 132
f 551/247/2 552/58/2 553/57/2
f 552/58/2 551/247/2 554/247/2
f 554/247/2 551/247/2 555/105/2
f 554/247/2 555/105/2 556/104/2
s 133
f 557/247/1 558/60/1 559/59/1
f 558/60/1 557/247/1 560/247/1
f 560/247/1 557/247/1 561/103/1
f 560/247/1 561/103/1 562/102/1
s 134
f 563/249/53 564/126/54 565/63/55
f 564/126/54 563/249/53 566/106/53
f 564/126/54 566/106/53 567/250/54
s 135
f 568/15/2 569/17/2 570/16/2
f 569/17/2 568/15/2 571/14/2
f 569/17/2 571/14/2 572/18/2
f 572/18/2 571/14/2 573/13/2
f 572/18/2 573/13/2 574/3/2
f 574/3/2 573/13/2 575/1/2
s 136
f 576/63/2 577/62/2 578/106/2
f 577/62/2 576/63/2 579/128/2
f 579/128/2 576/63/2 580/132/2
s 137
f 581/63/1 582/250/1 583/126/1
s 138
f 582/250/1 581/63/1 584/106/1
s 139
f 584/106/56 581/63/57 585/251/58
s 140
f 586/252/59 587/253/59 588/254/60
s 141
f 589/255/61 590/256/61 591/254/61
s 0
f 593/257/62 592/258/62 594/259/62
f 596/260/63 595/261/63 597/262/63
s 144
f 598/175/5 599/263/5 600/176/5
f 599/263/5 598/175/5 601/153/5
f 601/153/5 598/175/5 602/154/5
s 145
f 603/155/7 604/263/7 605/58/7
f 604/263/7 603/155/7 606/177/7
f 606/177/7 603/155/7 607/178/7
s 146
f 608/264/64 609/179/65 610/157/64
f 609/179/65 608/264/64 611/203/64
f 609/179/65 611/203/64 612/63/65
s 147
f 613/27/2 614/25/2 615/26/2
f 614/25/2 613/27/2 616/28/2
f 614/25/2 616/28/2 617/24/2
f 617/24/2 616/28/2 618/29/2
f 617/24/2 618/29/2 619/22/2
f 619/22/2 618/29/2 620/30/2
s 148
f 621/263/1 622/153/1 623/58/1
f 622/153/1 621/263/1 624/263/1
f 624/263/1 621/263/1 625/177/1
f 624/263/1 625/177/1 626/176/1
s 149
f 627/263/2 628/155/2 629/154/2
f 628/155/2 627/263/2 630/263/2
f 630/263/2 627/263/2 631/175/2
f 630/263/2 631/175/2 632/178/2
s 150
f 633/197/66 634/265/67 635/63/68
f 634/265/67 633/197/66 636/179/67
f 636/179/67 633/197/66 637/266/66
s 151
f 638/35/1 639/33/1 640/34/1
f 639/33/1 638/35/1 641/36/1
f 639/33/1 641/36/1 642/32/1
f 642/32/1 641/36/1 643/20/1
f 642/32/1 643/20/1 644/31/1
f 644/31/1 643/20/1 645/19/1
s 152
f 646/157/1 647/63/1 648/179/1
f 647/63/1 646/157/1 649/200/1
f 647/63/1 649/200/1 650/203/1
s 153
f 651/266/2 652/63/2 653/197/2
f 652/63/2 651/266/2 654/179/2
s 154
f 652/63/69 654/179/70 655/267/71
s 155
f 656/268/3 657/269/3 658/254/72
s 156
f 659/270/73 660/271/73 661/254/74
