# Blender 5.0.1
# www.blender.org
mtllib catapulta_lanzador.mtl
g lanza_Mesh
v 0.169090 0.159953 2.184248
v -0.000355 0.226908 2.184248
v -0.000355 -0.001687 2.184248
v -0.000355 0.226908 2.184248
v -0.169800 0.159953 2.184248
v -0.000355 -0.001687 2.184248
v -0.169800 0.159953 2.184248
v -0.239987 -0.001687 2.184248
v -0.000355 -0.001687 2.184248
v -0.239987 -0.001687 2.184248
v -0.169800 -0.163329 2.184248
v -0.000355 -0.001687 2.184248
v -0.169800 -0.163329 2.184248
v -0.000355 -0.230282 2.184248
v -0.000355 -0.001687 2.184248
v -0.000355 -0.230282 2.184248
v 0.169090 -0.163329 2.184248
v -0.000355 -0.001687 2.184248
v 0.169090 -0.163329 2.184248
v 0.239277 -0.001687 2.184248
v -0.000355 -0.001687 2.184248
v 0.239277 -0.001687 2.184248
v 0.169090 0.159953 2.184248
v -0.000355 -0.001687 2.184248
v 4.089218 -0.699200 0.188711
v 3.935982 -0.699200 0.189925
v 4.011135 -0.699200 0.004346
v 3.935982 -0.699200 0.189925
v 3.826770 -0.699200 0.082429
v 4.011135 -0.699200 0.004346
v 3.826770 -0.699200 0.082429
v 3.825557 -0.699200 -0.070807
v 4.011135 -0.699200 0.004346
v 3.825557 -0.699200 -0.070807
v 3.933050 -0.699200 -0.180020
v 4.011135 -0.699200 0.004346
v 3.933050 -0.699200 -0.180020
v 4.086288 -0.699200 -0.181234
v 4.011135 -0.699200 0.004346
v 4.086288 -0.699200 -0.181234
v 4.195499 -0.699200 -0.073738
v 4.011135 -0.699200 0.004346
v 4.195499 -0.699200 -0.073738
v 4.196714 -0.699200 0.079497
v 4.011135 -0.699200 0.004346
v 4.196714 -0.699200 0.079497
v 4.089218 -0.699200 0.188711
v 4.011135 -0.699200 0.004346
v 0.169090 0.159954 -2.156189
v -0.000355 -0.001687 -2.156189
v -0.000355 0.226908 -2.156189
v -0.169800 0.159954 -2.156189
v -0.239987 -0.001687 -2.156189
v -0.169800 -0.163328 -2.156189
v -0.000355 -0.230281 -2.156189
v 0.169090 -0.163328 -2.156189
v 0.239277 -0.001687 -2.156189
v -0.239987 -0.001686 0.572598
v -0.169800 0.159955 0.572598
v -0.169800 0.159955 0.014030
v -0.239987 -0.001686 0.014030
v -0.000355 -0.230281 0.572598
v -0.169800 -0.163327 0.572598
v -0.169800 -0.163327 0.014029
v -0.000355 -0.230281 0.014029
v 0.239277 -0.001686 0.572598
v 0.169091 -0.163327 0.572598
v 0.169091 -0.163327 0.014029
v 0.239277 -0.001686 0.014030
v -0.000355 0.226908 0.572598
v 0.169091 0.159955 0.572598
v 0.169091 0.159955 0.014030
v -0.000355 0.226908 0.014030
v -0.169800 0.159955 0.572598
v -0.000355 0.226908 0.572598
v -0.000355 0.226908 0.014030
v -0.169800 0.159955 0.014030
v -0.169800 -0.163327 0.572598
v -0.239987 -0.001686 0.572598
v -0.239987 -0.001686 0.014030
v -0.169800 -0.163327 0.014029
v 0.169091 -0.163327 0.572598
v -0.000355 -0.230281 0.572598
v -0.000355 -0.230281 0.014029
v 0.169091 -0.163327 0.014029
v 0.169091 0.159955 0.572598
v 0.239277 -0.001686 0.572598
v 0.239277 -0.001686 0.014030
v 0.169091 0.159955 0.014030
v 2.563368 0.376394 0.236081
v 3.289072 -0.003422 0.172617
v 3.286417 -0.003422 -0.134443
v 2.589627 0.374422 -0.070756
v -1.861435 0.132299 0.197707
v -2.649487 -0.215143 0.123206
v -2.686991 -0.215143 -0.126246
v -1.898676 0.134270 -0.106202
v 2.589627 0.132299 -0.070756
v 2.589627 0.374422 -0.070756
v 3.286417 -0.003422 -0.134443
v 3.286417 -0.245546 -0.134443
v -2.686991 -0.215143 -0.126246
v -2.686991 -0.023276 -0.126245
v -1.898555 0.377306 -0.105803
v -1.898676 0.134270 -0.106202
v -1.898676 0.134270 -0.106202
v -1.898555 0.377306 -0.105803
v -1.126210 0.603646 -0.077295
v -1.126236 0.361189 -0.077445
v -1.126236 0.361189 -0.077445
v -1.126210 0.603646 -0.077295
v -0.374737 0.705274 -0.031519
v -0.374737 0.463150 -0.031519
v -0.374737 0.463150 -0.031519
v -0.374737 0.705274 -0.031519
v 0.371219 0.736298 -0.017545
v 0.371219 0.494174 -0.017545
v 0.371219 0.494174 -0.017545
v 0.371219 0.736298 -0.017545
v 1.112326 0.705274 -0.031520
v 1.112326 0.463150 -0.031520
v 1.112326 0.463150 -0.031520
v 1.112326 0.705274 -0.031520
v 1.859282 0.602749 -0.039796
v 1.859282 0.360626 -0.039796
v 1.859282 0.360626 -0.039796
v 1.859282 0.602749 -0.039796
v 2.589627 0.374422 -0.070756
v 2.589627 0.132299 -0.070756
v 3.289072 -0.245546 0.172616
v 2.563404 0.135182 0.236495
v 2.589627 0.132299 -0.070756
v 3.286417 -0.245546 -0.134443
v 2.563404 0.135182 0.236495
v 1.830335 0.361522 0.266313
v 1.859282 0.360626 -0.039796
v 2.589627 0.132299 -0.070756
v 1.830335 0.361522 0.266313
v 1.112326 0.463150 0.275550
v 1.112326 0.463150 -0.031520
v 1.859282 0.360626 -0.039796
v 1.112326 0.463150 0.275550
v 0.371219 0.494173 0.289524
v 0.371219 0.494174 -0.017545
v 1.112326 0.463150 -0.031520
v 0.371219 0.494174 -0.017545
v 0.371219 0.494173 0.289524
v 0.110078 -0.119086 0.177134
v 0.110078 -0.119086 0.085060
v -0.374737 0.463150 0.275551
v -1.126280 0.360626 0.229372
v -1.126236 0.361189 -0.077445
v -0.374737 0.463150 -0.031519
v -2.649487 -0.023276 0.123207
v -1.861435 0.374422 0.197707
v -1.898555 0.377306 -0.105803
v -2.686991 -0.023276 -0.126245
v -1.861435 0.374422 0.197707
v -1.126280 0.602749 0.229372
v -1.126210 0.603646 -0.077295
v -1.898555 0.377306 -0.105803
v -1.126280 0.602749 0.229372
v -0.374737 0.705274 0.275551
v -0.374737 0.705274 -0.031519
v -1.126210 0.603646 -0.077295
v -0.374737 0.705274 0.275551
v 0.371219 0.736298 0.289524
v 0.371219 0.736298 -0.017545
v -0.374737 0.705274 -0.031519
v 0.371219 0.736298 0.289524
v 1.112326 0.705274 0.275550
v 1.112326 0.705274 -0.031520
v 0.371219 0.736298 -0.017545
v 1.112326 0.705274 0.275550
v 1.830322 0.603312 0.266161
v 1.859282 0.602749 -0.039796
v 1.112326 0.705274 -0.031520
v 1.830322 0.603312 0.266161
v 2.563368 0.376394 0.236081
v 2.589627 0.374422 -0.070756
v 1.859282 0.602749 -0.039796
v -3.871596 -0.810092 -0.537208
v -3.801915 -0.810092 -0.606888
v -3.281079 -0.810092 0.009182
v -3.871596 -0.810092 0.018392
v -3.664131 0.488289 0.475254
v -3.737664 0.488289 0.401720
v -3.871596 0.488289 0.457197
v -3.719607 0.488289 0.609186
v -3.737664 0.488289 -0.481731
v -3.664131 0.488289 -0.555264
v -3.719607 0.488289 -0.689196
v -3.871596 0.488289 -0.537207
v -2.780681 0.488289 -0.555264
v -2.707147 0.488289 -0.481731
v -2.573214 0.488289 -0.537207
v -2.725204 0.488289 -0.689196
v -2.707147 0.488289 0.401720
v -2.780681 0.488289 0.475254
v -2.725203 0.488289 0.609186
v -2.573214 0.488289 0.457197
v -3.737664 0.488289 0.401720
v -3.871596 0.488289 0.457197
v -3.664131 0.488289 0.475254
v -3.719607 0.488289 0.609186
v -3.751281 -0.649671 -0.445061
v -3.751281 -0.649671 -0.019897
v -3.220200 -0.649671 -0.028301
v -3.686954 -0.649671 -0.509388
v -2.573214 0.488289 -0.537207
v -2.693530 0.408079 -0.445060
v -2.693530 -0.649671 -0.445061
v -2.573214 -0.810092 -0.537208
v -3.664131 0.488289 0.475254
v -3.582266 0.408079 0.379760
v -3.642171 0.408079 0.319855
v -3.737664 0.488289 0.401720
v -3.737664 0.488289 -0.481731
v -3.642171 0.408079 -0.399865
v -3.582266 0.408079 -0.459771
v -3.664131 0.488289 -0.555264
v -3.871596 0.488289 0.457197
v -3.751281 0.408079 0.365050
v -3.751281 -0.649671 0.365049
v -3.871596 -0.810092 0.457196
v -2.725204 -0.810092 -0.689197
v -2.817351 -0.649671 -0.568880
v -2.817351 0.408079 -0.568880
v -2.725204 0.488289 -0.689196
v -2.780681 0.488289 -0.555264
v -2.862546 0.408079 -0.459771
v -2.802641 0.408079 -0.399865
v -2.707147 0.488289 -0.481731
v -2.707147 0.488289 0.401720
v -2.802641 0.408079 0.319854
v -2.862546 0.408079 0.379760
v -2.780681 0.488289 0.475254
v -3.719607 0.488289 -0.689196
v -3.627460 0.408079 -0.568880
v -3.627460 -0.649671 -0.568880
v -3.719607 -0.810092 -0.689197
v -3.737664 0.488289 0.401720
v -3.642171 0.408079 0.319855
v -3.642171 0.408079 -0.399865
v -3.737664 0.488289 -0.481731
v -2.725203 0.488289 0.609186
v -2.817350 0.408079 0.488870
v -2.817350 -0.649671 0.488869
v -2.725203 -0.810092 0.609186
v -3.871596 0.488289 -0.537207
v -3.751281 0.408079 0.365050
v -3.871596 0.488289 0.457197
v -2.780681 0.488289 0.475254
v -2.862546 0.408079 0.379760
v -3.582266 0.408079 0.379760
v -3.664131 0.488289 0.475254
v -3.719607 0.488289 0.609186
v -3.627460 0.408079 0.488871
v -2.817350 0.408079 0.488870
v -2.725203 0.488289 0.609186
v -3.871596 -0.810092 -0.537208
v -3.751281 -0.649671 -0.445061
v -3.751281 0.408079 -0.445060
v -3.871596 0.488289 -0.537207
v -2.707147 0.488289 -0.481731
v -2.802641 0.408079 -0.399865
v -2.802641 0.408079 0.319854
v -2.707147 0.488289 0.401720
v -2.573214 -0.810092 0.457196
v -2.693530 -0.649671 0.365048
v -2.693530 0.408079 0.365048
v -2.573214 0.488289 0.457197
v -2.573214 0.488289 0.457197
v -2.693530 0.408079 0.365048
v -2.693530 0.408079 -0.445060
v -2.573214 0.488289 -0.537207
v -3.664131 0.488289 -0.555264
v -3.582266 0.408079 -0.459771
v -2.862546 0.408079 -0.459771
v -2.780681 0.488289 -0.555264
v -3.719607 -0.810092 0.609186
v -3.627460 -0.649671 0.488870
v -3.627460 0.408079 0.488871
v -3.719607 0.488289 0.609186
v -2.725204 0.488289 -0.689196
v -3.627460 0.408079 -0.568880
v -3.719607 0.488289 -0.689196
v 4.305468 -0.258350 -0.722472
v 4.305468 0.016381 -0.722472
v 4.733198 0.016381 -0.301468
v 4.733198 -0.258350 -0.301468
v 3.705321 -0.258350 -0.717717
v 3.705321 0.016381 -0.717717
v 4.305468 0.016381 -0.722472
v 4.305468 -0.258350 -0.722472
v 3.716802 -0.258350 0.731165
v 3.289072 -0.258350 0.310159
v 3.289072 -0.288890 0.310159
v 3.716802 -0.288890 0.731165
v 3.284317 -0.258350 -0.289987
v 3.284317 0.016381 -0.289987
v 3.705321 0.016381 -0.717717
v 3.705321 -0.258350 -0.717717
v 3.727298 -0.619556 0.124559
v 3.895436 -0.619556 0.290054
v 3.895436 -0.650097 0.290054
v 3.727298 -0.650097 0.124559
v 4.131349 -0.619556 0.288184
v 4.296843 -0.619556 0.120046
v 4.296843 -0.650097 0.120046
v 4.131349 -0.650097 0.288184
v 3.289072 -0.258350 0.310159
v 3.289072 0.016381 0.310160
v 3.284317 0.016381 -0.289987
v 3.284317 -0.258350 -0.289987
v 3.890921 -0.619556 -0.279493
v 3.725428 -0.619556 -0.111355
v 3.725428 -0.650097 -0.111355
v 3.890921 -0.650097 -0.279493
v 4.737953 -0.258350 0.298678
v 4.737953 0.016381 0.298679
v 4.316948 0.016381 0.726410
v 4.316948 -0.258350 0.726410
v 3.716802 0.016381 0.731165
v 3.289072 0.016381 0.310160
v 4.733198 -0.258350 -0.301468
v 4.737953 -0.258350 0.298678
v 4.737953 -0.288890 0.298678
v 4.733198 -0.288890 -0.301468
v 4.316948 -0.258350 0.726410
v 3.716802 -0.288890 0.731165
v 4.316948 -0.288890 0.726410
v 4.316948 -0.258350 0.726410
v 4.316948 0.016381 0.726410
v 3.716802 0.016381 0.731165
v 3.716802 -0.258350 0.731165
v 3.705321 -0.258350 -0.717717
v 4.305468 -0.258350 -0.722472
v 4.305468 -0.288890 -0.722472
v 3.705321 -0.288890 -0.717717
v 4.733198 0.016381 -0.301468
v 4.737953 0.016381 0.298679
v 3.895436 -0.619556 0.290054
v 4.131349 -0.619556 0.288184
v 4.131349 -0.650097 0.288184
v 3.895436 -0.650097 0.290054
v 3.890921 -0.619556 -0.279493
v 4.126836 -0.619556 -0.281363
v 4.086288 -0.699200 -0.181234
v 3.933050 -0.699200 -0.180020
v 3.725428 -0.619556 -0.111355
v 3.890921 -0.619556 -0.279493
v 3.933050 -0.699200 -0.180020
v 3.825557 -0.699200 -0.070807
v 4.131349 -0.619556 0.288184
v 3.895436 -0.619556 0.290054
v 3.935982 -0.699200 0.189925
v 4.089218 -0.699200 0.188711
v 4.126836 -0.619556 -0.281363
v 4.294973 -0.619556 -0.115868
v 4.195499 -0.699200 -0.073738
v 4.086288 -0.699200 -0.181234
v 3.727298 -0.619556 0.124559
v 3.725428 -0.619556 -0.111355
v 3.825557 -0.699200 -0.070807
v 3.826770 -0.699200 0.082429
v 3.895436 -0.619556 0.290054
v 3.727298 -0.619556 0.124559
v 3.826770 -0.699200 0.082429
v 3.935982 -0.699200 0.189925
v 4.294973 -0.619556 -0.115868
v 4.296843 -0.619556 0.120046
v 4.196714 -0.699200 0.079497
v 4.195499 -0.699200 -0.073738
v 4.296843 -0.619556 0.120046
v 4.131349 -0.619556 0.288184
v 4.089218 -0.699200 0.188711
v 4.196714 -0.699200 0.079497
v 3.747108 0.016381 -0.619051
v 4.265249 0.016381 -0.623158
v 4.305468 0.016381 -0.722472
v 3.705321 0.016381 -0.717717
v 3.757021 0.016381 0.631850
v 3.387738 0.016381 0.268372
v 3.289072 0.016381 0.310160
v 3.716802 0.016381 0.731165
v 3.383632 0.016381 -0.249768
v 3.284317 0.016381 -0.289987
v 4.275163 0.016381 0.627743
v 4.316948 0.016381 0.726410
v 4.634533 0.016381 -0.259680
v 4.733198 0.016381 -0.301468
v 4.638639 0.016381 0.258460
v 4.737953 0.016381 0.298679
v 4.638639 0.016381 0.258460
v 4.634533 0.016381 -0.259680
v 4.634533 -0.162879 -0.259680
v 4.638639 -0.162879 0.258460
v 3.387738 -0.162879 0.268372
v 3.757021 -0.162879 0.631850
v 3.757021 -0.360003 0.631850
v 3.387738 -0.360003 0.268372
v 3.383632 0.016381 -0.249768
v 3.387738 0.016381 0.268372
v 3.387738 -0.162879 0.268372
v 3.383632 -0.162879 -0.249769
v 3.747108 0.016381 -0.619051
v 3.383632 0.016381 -0.249768
v 3.383632 -0.162879 -0.249769
v 3.747108 -0.162879 -0.619051
v 4.265249 0.016381 -0.623158
v 3.747108 0.016381 -0.619051
v 3.747108 -0.162879 -0.619051
v 4.265249 -0.162879 -0.623158
v 4.275163 0.016381 0.627743
v 4.638639 0.016381 0.258460
v 4.638639 -0.162879 0.258460
v 4.275163 -0.162879 0.627743
v 4.634533 0.016381 -0.259680
v 4.265249 0.016381 -0.623158
v 4.265249 -0.162879 -0.623158
v 4.634533 -0.162879 -0.259680
v 3.757021 0.016381 0.631850
v 4.275163 0.016381 0.627743
v 4.275163 -0.162879 0.627743
v 3.757021 -0.162879 0.631850
v 3.387738 0.016381 0.268372
v 3.757021 0.016381 0.631850
v 3.757021 -0.162879 0.631850
v 3.387738 -0.162879 0.268372
v 4.634533 -0.360003 -0.259681
v 4.638639 -0.360003 0.258459
v 3.383632 -0.162879 -0.249769
v 3.387738 -0.162879 0.268372
v 3.387738 -0.360003 0.268372
v 3.383632 -0.360003 -0.249769
v 3.747108 -0.162879 -0.619051
v 3.383632 -0.162879 -0.249769
v 3.383632 -0.360003 -0.249769
v 3.747108 -0.360003 -0.619051
v 4.265249 -0.162879 -0.623158
v 3.747108 -0.162879 -0.619051
v 3.747108 -0.360003 -0.619051
v 4.265249 -0.360003 -0.623158
v 4.275163 -0.162879 0.627743
v 4.638639 -0.162879 0.258460
v 4.638639 -0.360003 0.258459
v 4.275163 -0.360003 0.627743
v 4.634533 -0.162879 -0.259680
v 4.265249 -0.162879 -0.623158
v 4.265249 -0.360003 -0.623158
v 4.634533 -0.360003 -0.259681
v 4.275163 -0.360003 0.627743
v 3.757021 -0.360003 0.631850
v 3.841226 -0.360003 -0.396827
v 4.174664 -0.360003 -0.399469
v 4.265249 -0.360003 -0.623158
v 3.747108 -0.360003 -0.619051
v 3.847607 -0.360003 0.408160
v 3.609962 -0.360003 0.174253
v 3.387738 -0.360003 0.268372
v 3.757021 -0.360003 0.631850
v 3.607322 -0.360003 -0.159184
v 3.383632 -0.360003 -0.249769
v 4.181043 -0.360003 0.405518
v 4.275163 -0.360003 0.627743
v 3.609962 -0.360003 0.174253
v 3.387738 -0.360003 0.268372
v 4.412309 -0.360003 -0.165562
v 4.634533 -0.360003 -0.259681
v 4.414949 -0.360003 0.167874
v 4.638639 -0.360003 0.258459
v -2.649487 -0.215143 0.123206
v -1.861435 0.132299 0.197707
v -1.861435 0.374422 0.197707
v -2.649487 -0.023276 0.123207
v 4.733198 -0.288890 -0.301468
v 4.737953 -0.288890 0.298678
v 4.296843 -0.650097 0.120046
v 4.294973 -0.650097 -0.115868
v 3.284317 -0.288890 -0.289987
v 3.705321 -0.288890 -0.717717
v 3.890921 -0.650097 -0.279493
v 3.725428 -0.650097 -0.111355
v 3.705321 -0.288890 -0.717717
v 4.305468 -0.288890 -0.722472
v 4.126836 -0.650097 -0.281363
v 3.890921 -0.650097 -0.279493
v 3.289072 -0.288890 0.310159
v 3.284317 -0.288890 -0.289987
v 3.725428 -0.650097 -0.111355
v 3.727298 -0.650097 0.124559
v 4.305468 -0.288890 -0.722472
v 4.733198 -0.288890 -0.301468
v 4.294973 -0.650097 -0.115868
v 4.126836 -0.650097 -0.281363
v 4.316948 -0.288890 0.726410
v 3.716802 -0.288890 0.731165
v 3.895436 -0.650097 0.290054
v 4.131349 -0.650097 0.288184
v 4.737953 -0.288890 0.298678
v 4.316948 -0.288890 0.726410
v 4.131349 -0.650097 0.288184
v 4.296843 -0.650097 0.120046
v 3.716802 -0.288890 0.731165
v 3.289072 -0.288890 0.310159
v 3.727298 -0.650097 0.124559
v 3.895436 -0.650097 0.290054
v 3.705321 -0.288890 -0.717717
v 3.284317 -0.288890 -0.289987
v 4.126836 -0.619556 -0.281363
v 3.890921 -0.619556 -0.279493
v 3.890921 -0.650097 -0.279493
v 4.126836 -0.650097 -0.281363
v 4.296843 -0.619556 0.120046
v 4.294973 -0.619556 -0.115868
v 4.294973 -0.650097 -0.115868
v 4.296843 -0.650097 0.120046
v 4.316948 -0.288890 0.726410
v 4.737953 -0.288890 0.298678
v 3.725428 -0.619556 -0.111355
v 3.727298 -0.619556 0.124559
v 3.727298 -0.650097 0.124559
v 3.725428 -0.650097 -0.111355
v 4.294973 -0.619556 -0.115868
v 4.126836 -0.619556 -0.281363
v 4.126836 -0.650097 -0.281363
v 4.294973 -0.650097 -0.115868
v 3.289072 -0.258350 0.310159
v 3.284317 -0.288890 -0.289987
v 3.289072 -0.288890 0.310159
v 4.733198 -0.288890 -0.301468
v 4.305468 -0.288890 -0.722472
v -0.239987 -0.001686 -0.544538
v -0.239987 -0.001686 0.014030
v -0.169800 0.159955 0.014030
v -0.169800 0.159955 -0.544538
v -0.000355 -0.230281 -0.544538
v -0.169800 -0.163327 -0.544538
v 0.239277 -0.001686 -0.544538
v 0.239277 -0.001686 0.014030
v 0.169091 -0.163327 0.014029
v 0.169091 -0.163327 -0.544538
v -0.000355 0.226908 -0.544538
v -0.000355 0.226908 0.014030
v 0.169091 0.159955 0.014030
v 0.169091 0.159955 -0.544538
v -0.169800 0.159955 -0.544538
v -0.000355 0.226908 -0.544538
v -0.169800 -0.163327 -0.544538
v -0.169800 -0.163327 0.014029
v -0.239987 -0.001686 0.014030
v -0.239987 -0.001686 -0.544538
v 0.169091 -0.163327 -0.544538
v 0.169091 -0.163327 0.014029
v -0.000355 -0.230281 0.014029
v -0.000355 -0.230281 -0.544538
v 0.169091 0.159955 -0.544538
v 0.169091 0.159955 0.014030
v 0.239277 -0.001686 0.014030
v 0.239277 -0.001686 -0.544538
v -0.374737 0.705274 0.275551
v -1.126280 0.602749 0.229372
v -1.126280 0.360626 0.229372
v -0.374737 0.463150 0.275551
v 0.371219 0.736298 0.289524
v -0.374737 0.705274 0.275551
v -0.374737 0.463150 0.275551
v 0.371219 0.494173 0.289524
v 1.112326 0.705274 0.275550
v 0.371219 0.736298 0.289524
v 0.371219 0.494173 0.289524
v 1.112326 0.463150 0.275550
v 1.830322 0.603312 0.266161
v 1.112326 0.705274 0.275550
v 1.112326 0.463150 0.275550
v 1.830335 0.361522 0.266313
v 2.563368 0.376394 0.236081
v 1.830322 0.603312 0.266161
v 1.830335 0.361522 0.266313
v 2.563404 0.135182 0.236495
v 2.563404 0.135182 0.236495
v 3.289072 -0.245546 0.172616
v 3.289072 -0.003422 0.172617
v 2.563368 0.376394 0.236081
v -1.126280 0.602749 0.229372
v -1.861435 0.374422 0.197707
v -1.861435 0.132299 0.197707
v -1.126280 0.360626 0.229372
v -2.693530 0.408079 -0.445060
v -2.693530 0.408079 0.365048
v -2.693530 -0.649671 0.365048
v -2.693530 -0.649671 -0.445061
v -3.799713 -0.810092 0.529080
v -3.871596 -0.810092 0.457196
v -3.304137 -0.810092 0.609186
v -3.281079 -0.810092 0.009182
v -2.642231 -0.810092 0.526213
v -2.725203 -0.810092 0.609186
v -3.254239 -0.810092 -0.689197
v -2.725204 -0.810092 -0.689197
v -2.649329 -0.810092 -0.613323
v -3.719607 -0.810092 -0.689197
v -2.573214 -0.810092 -0.001858
v -2.573214 -0.810092 0.457196
v -2.573214 -0.810092 -0.537208
v -3.304137 -0.810092 0.609186
v -3.719607 -0.810092 0.609186
v -2.693530 -0.649671 -0.036634
v -2.758652 -0.649671 0.430170
v -2.693530 -0.649671 0.365048
v -3.220023 -0.649671 0.488870
v -3.686665 -0.649671 0.429665
v -3.627460 -0.649671 0.488870
v -3.220386 -0.649671 -0.568880
v -2.767082 -0.649671 -0.518612
v -2.817351 -0.649671 -0.568880
v -2.817350 -0.649671 0.488869
v -3.627460 -0.649671 -0.568880
v -3.751281 -0.649671 0.365049
v -2.693530 -0.649671 -0.445061
v -0.374737 0.463150 0.275551
v -0.374737 0.463150 -0.031519
v -0.113596 -0.128389 0.080869
v -0.374737 0.463150 -0.031519
v 0.371219 0.494174 -0.017545
v 0.110078 -0.119086 0.085060
v -0.113596 -0.128389 0.080869
v 0.371219 0.494173 0.289524
v -0.374737 0.463150 0.275551
v -0.113596 -0.128389 0.172944
v 0.110078 -0.119086 0.177134
v -0.239987 -0.001687 2.184248
v -0.169800 -0.163329 1.115461
v -0.169800 -0.163329 2.184248
v -0.169800 -0.163327 0.572598
v -0.239987 -0.001687 1.115461
v -0.239987 -0.001686 0.572598
v -0.000355 -0.230281 1.115461
v -0.169800 -0.163327 0.572598
v -0.000355 -0.230281 0.572598
v -0.169800 -0.163329 1.115461
v -0.000355 -0.230282 2.184248
v -0.169800 -0.163329 2.184248
v 0.169090 -0.163329 1.115461
v -0.000355 -0.230281 0.572598
v 0.169091 -0.163327 0.572598
v -0.000355 -0.230281 1.115461
v 0.169090 -0.163329 2.184248
v -0.000355 -0.230282 2.184248
v 0.239277 -0.001686 0.572598
v 0.239277 -0.001687 1.115461
v 0.169091 -0.163327 0.572598
v 0.169090 -0.163329 2.184248
v 0.239277 -0.001687 2.184248
v 0.169091 0.159955 0.572598
v 0.169090 0.159953 1.115461
v 0.239277 -0.001686 0.572598
v 0.239277 -0.001687 2.184248
v 0.169090 0.159953 2.184248
v -0.000355 0.226908 1.115461
v 0.169091 0.159955 0.572598
v -0.000355 0.226908 0.572598
v 0.169090 0.159953 1.115461
v -0.000355 0.226908 2.184248
v 0.169090 0.159953 2.184248
v -0.169800 0.159953 1.115461
v -0.000355 0.226908 0.572598
v -0.169800 0.159955 0.572598
v -0.000355 0.226908 1.115461
v -0.169800 0.159953 2.184248
v -0.000355 0.226908 2.184248
v -0.169800 0.159953 2.184248
v -0.239987 -0.001687 1.115461
v -0.239987 -0.001687 2.184248
v -0.239987 -0.001686 0.572598
v -0.169800 0.159953 1.115461
v -0.169800 0.159955 0.572598
v -3.751281 0.408079 0.365050
v -3.686665 -0.649671 0.429665
v -3.751281 -0.649671 0.365049
v -3.627460 -0.649671 0.488870
v -3.627460 0.408079 0.488871
v -3.799713 -0.810092 0.529080
v -3.871596 0.488289 0.457197
v -3.871596 -0.810092 0.457196
v -3.719607 0.488289 0.609186
v -3.719607 -0.810092 0.609186
v -3.871596 0.488289 -0.537207
v -3.801915 -0.810092 -0.606888
v -3.871596 -0.810092 -0.537208
v -3.719607 -0.810092 -0.689197
v -3.719607 0.488289 -0.689196
v -2.573214 0.488289 -0.537207
v -2.725204 -0.810092 -0.689197
v -2.725204 0.488289 -0.689196
v -2.649329 -0.810092 -0.613323
v -2.573214 -0.810092 -0.537208
v -2.573214 0.488289 0.457197
v -2.642231 -0.810092 0.526213
v -2.573214 -0.810092 0.457196
v -2.725203 -0.810092 0.609186
v -2.725203 0.488289 0.609186
v -3.627460 0.408079 -0.568880
v -3.686954 -0.649671 -0.509388
v -3.627460 -0.649671 -0.568880
v -3.751281 -0.649671 -0.445061
v -3.751281 0.408079 -0.445060
v -2.693530 0.408079 -0.445060
v -2.767082 -0.649671 -0.518612
v -2.693530 -0.649671 -0.445061
v -2.817351 -0.649671 -0.568880
v -2.817351 0.408079 -0.568880
v -2.817350 0.408079 0.488870
v -2.758652 -0.649671 0.430170
v -2.817350 -0.649671 0.488869
v -2.693530 -0.649671 0.365048
v -2.693530 0.408079 0.365048
v -3.627460 -0.649671 -0.568880
v -3.254239 -0.810092 -0.689197
v -3.719607 -0.810092 -0.689197
v -3.220386 -0.649671 -0.568880
v -2.725204 -0.810092 -0.689197
v -2.817351 -0.649671 -0.568880
v -2.693530 -0.649671 -0.445061
v -2.573214 -0.810092 -0.001858
v -2.573214 -0.810092 -0.537208
v -2.573214 -0.810092 0.457196
v -2.693530 -0.649671 0.365048
v -3.304137 -0.810092 0.609186
v -3.627460 -0.649671 0.488870
v -3.719607 -0.810092 0.609186
v -3.220023 -0.649671 0.488870
v -2.725203 -0.810092 0.609186
v -2.817350 -0.649671 0.488869
v -3.751281 -0.649671 0.365049
v -3.871596 -0.810092 0.018392
v -3.871596 -0.810092 0.457196
v -3.871596 -0.810092 -0.537208
v -3.751281 -0.649671 -0.445061
v 3.841226 -0.360003 -0.396827
v 4.412309 -0.360003 -0.165562
v 4.174664 -0.360003 -0.399469
v 3.607322 -0.360003 -0.159184
v 4.414949 -0.360003 0.167874
v 3.609962 -0.360003 0.174253
v 4.181043 -0.360003 0.405518
v 3.847607 -0.360003 0.408160
v -0.239987 -0.001686 -0.544538
v -0.239987 -0.001687 -1.087400
v -0.169800 -0.163327 -0.544538
v -0.169800 -0.163328 -2.156189
v -0.239987 -0.001687 -2.156189
v -0.000355 -0.230281 -1.087400
v -0.169800 -0.163328 -2.156189
v -0.000355 -0.230281 -2.156189
v -0.169800 -0.163328 -1.087400
v -0.000355 -0.230281 -0.544538
v -0.169800 -0.163327 -0.544538
v 0.169090 -0.163328 -1.087400
v -0.000355 -0.230281 -2.156189
v 0.169090 -0.163328 -2.156189
v -0.000355 -0.230281 -1.087400
v 0.169091 -0.163327 -0.544538
v -0.000355 -0.230281 -0.544538
v 0.239277 -0.001687 -2.156189
v 0.169090 -0.163328 -1.087400
v 0.169090 -0.163328 -2.156189
v 0.169091 -0.163327 -0.544538
v 0.239277 -0.001687 -1.087400
v 0.239277 -0.001686 -0.544538
v 0.169090 0.159954 -2.156189
v 0.239277 -0.001687 -1.087400
v 0.239277 -0.001687 -2.156189
v 0.239277 -0.001686 -0.544538
v 0.169090 0.159954 -1.087400
v 0.169091 0.159955 -0.544538
v -0.000355 0.226908 -1.087400
v 0.169090 0.159954 -2.156189
v -0.000355 0.226908 -2.156189
v 0.169090 0.159954 -1.087400
v -0.000355 0.226908 -0.544538
v 0.169091 0.159955 -0.544538
v -0.169800 0.159954 -1.087400
v -0.000355 0.226908 -2.156189
v -0.169800 0.159954 -2.156189
v -0.000355 0.226908 -1.087400
v -0.169800 0.159955 -0.544538
v -0.000355 0.226908 -0.544538
v -0.169800 0.159955 -0.544538
v -0.169800 0.159954 -1.087400
v -0.239987 -0.001686 -0.544538
v -0.239987 -0.001687 -2.156189
v -0.169800 0.159954 -2.156189
vn -0.0000 -0.0000 1.0000
vn -0.0000 -1.0000 -0.0000
vn -0.0000 -0.0000 -1.0000
vn -0.9173 0.3983 -0.0000
vn -0.3675 -0.9300 -0.0000
vn 0.9173 -0.3983 -0.0000
vn 0.3675 0.9300 -0.0000
vn -0.3675 0.9300 -0.0000
vn -0.9173 -0.3983 -0.0000
vn 0.3675 -0.9300 -0.0000
vn 0.9173 0.3983 -0.0000
vn 0.4711 0.8819 0.0153
vn 0.4065 -0.9118 -0.0580
vn 0.4066 -0.9117 -0.0582
vn 0.4066 -0.9118 -0.0582
vn -0.0910 -0.0000 -0.9958
vn 0.0253 0.0010 -0.9997
vn 0.0252 0.0009 -0.9997
vn 0.0249 0.0014 -0.9997
vn 0.0365 0.0014 -0.9993
vn 0.0367 0.0012 -0.9993
vn 0.0369 0.0008 -0.9993
vn 0.0370 0.0006 -0.9993
vn 0.0608 0.0005 -0.9982
vn 0.0610 0.0001 -0.9981
vn 0.0609 0.0001 -0.9981
vn 0.0610 -0.0000 -0.9981
vn 0.0187 -0.0000 -0.9998
vn -0.0189 -0.0000 -0.9998
vn -0.0111 -0.0000 -0.9999
vn -0.0424 -0.0000 -0.9991
vn -0.4715 -0.8818 -0.0139
vn -0.4715 -0.8818 -0.0140
vn -0.2974 -0.9545 -0.0209
vn -0.1381 -0.9904 -0.0050
vn -0.1381 -0.9904 -0.0051
vn -0.0418 -0.9991 -0.0000
vn 0.9201 -0.3918 -0.0000
vn 0.1347 -0.9909 -0.0004
vn 0.1349 -0.9909 -0.0009
vn 0.1351 -0.9908 -0.0014
vn 0.1347 -0.9909 -0.0005
vn -0.4539 0.8886 0.0659
vn -0.4540 0.8886 0.0658
vn -0.4539 0.8886 0.0658
vn -0.2895 0.9569 0.0235
vn -0.1347 0.9909 0.0013
vn -0.1347 0.9909 0.0014
vn -0.1346 0.9909 0.0015
vn -0.1347 0.9909 0.0015
vn -0.0416 0.9991 -0.0000
vn 0.0418 0.9991 -0.0000
vn 0.1383 0.9904 0.0057
vn 0.1383 0.9904 0.0056
vn 0.2979 0.9543 0.0229
vn 0.2978 0.9544 0.0228
vn 0.2978 0.9544 0.0229
vn -0.0000 1.0000 -0.0000
vn 0.6080 -0.0000 0.7939
vn 0.3810 0.8424 -0.3810
vn 0.3810 0.8424 0.3810
vn -0.6080 -0.0000 -0.7939
vn -0.7939 -0.0000 -0.6080
vn -0.3810 0.8424 0.3810
vn -0.3810 0.8424 -0.3810
vn 0.7939 -0.0000 -0.6080
vn 0.6432 0.7657 -0.0000
vn -0.7939 -0.0000 0.6080
vn -0.5547 -0.8320 -0.0000
vn -0.0000 0.7657 -0.6432
vn -0.0000 -0.8321 0.5547
vn -0.0000 -0.8320 0.5547
vn -0.6080 -0.0000 0.7939
vn -0.6432 0.7657 -0.0000
vn 0.6080 -0.0000 -0.7939
vn 0.5547 -0.8321 -0.0000
vn -0.0000 0.7657 0.6432
vn 0.7939 -0.0000 0.6080
vn -0.0000 -0.8321 -0.5547
vn 0.7015 -0.0000 -0.7127
vn -0.0079 -0.0000 -1.0000
vn -0.7015 -0.0000 0.7127
vn -0.7127 -0.0000 -0.7015
vn -1.0000 -0.0000 0.0079
vn 0.7127 -0.0000 0.7015
vn 1.0000 -0.0000 -0.0079
vn 0.0079 -0.0000 1.0000
vn -0.0049 -0.7816 -0.6237
vn -0.4445 -0.7816 -0.4375
vn 0.0049 -0.7816 0.6237
vn 0.4375 -0.7816 -0.4445
vn 0.4376 -0.7816 -0.4445
vn -0.6237 -0.7816 0.0049
vn -0.4375 -0.7816 0.4445
vn 0.6237 -0.7816 -0.0049
vn 0.4445 -0.7816 0.4375
vn -0.0941 -0.0000 0.9956
vn 0.6348 -0.7727 -0.0050
vn -0.4524 -0.7727 -0.4453
vn -0.0050 -0.7727 -0.6348
vn -0.6348 -0.7727 0.0050
vn 0.4453 -0.7727 -0.4524
vn 0.0050 -0.7727 0.6348
vn 0.4524 -0.7727 0.4453
vn -0.4453 -0.7727 0.4524
vn -0.0613 -0.0000 0.9981
vn -0.0187 -0.0000 0.9998
vn 0.0189 -0.0000 0.9998
vn 0.0131 -0.0000 0.9999
vn 0.0131 0.0001 0.9999
vn 0.0130 0.0001 0.9999
vn 0.0412 0.0015 0.9992
vn 0.0412 0.0012 0.9992
vn 0.0412 0.0017 0.9992
vn 0.0878 0.0006 0.9961
vn 0.0878 0.0007 0.9961
vn 0.0879 0.0010 0.9961
vn -0.0430 -0.0000 0.9991
vn 1.0000 -0.0000 -0.0000
vn -0.9148 -0.4039 -0.0000
vn 0.0257 -0.1756 -0.9841
vn -0.0111 -0.1757 0.9844
vn 0.7071 -0.0000 -0.7071
vn -0.7071 -0.0000 0.7071
vn -0.7071 -0.0000 -0.7071
vn 0.7071 -0.0000 0.7071
vn -0.0000 0.6000 -0.8000
vn 0.8000 0.6000 -0.0000
vn -0.0000 0.6000 0.8000
vn -0.8000 0.6000 -0.0000
vt 0.603896 0.265934
vt 0.532100 0.236195
vt 0.532100 0.337730
vt 0.460304 0.265934
vt 0.430566 0.337730
vt 0.460304 0.409526
vt 0.532100 0.439265
vt 0.603896 0.409526
vt 0.633635 0.337730
vt 0.090312 0.389988
vt 0.154007 0.416371
vt 0.090313 0.480065
vt 0.180389 0.480065
vt 0.154007 0.543759
vt 0.090312 0.570142
vt 0.026618 0.543759
vt 0.000236 0.480065
vt 0.026618 0.416371
vt 0.532100 0.231965
vt 0.479218 0.231965
vt 0.637866 0.231965
vt 0.584983 0.231965
vt 0.743631 0.231965
vt 0.690749 0.231965
vt 0.849397 0.231965
vt 0.796514 0.231965
vt 0.426335 0.231965
vt 0.346139 0.210911
vt 0.345953 0.202602
vt 0.279477 0.204090
vt 0.279663 0.212400
vt 0.213002 0.205579
vt 0.213188 0.213889
vt 0.156324 0.273357
vt 0.154836 0.206882
vt 0.146526 0.207068
vt 0.148015 0.273543
vt 0.214490 0.272054
vt 0.204692 0.205765
vt 0.206181 0.272241
vt 0.196383 0.205951
vt 0.197872 0.272427
vt 0.188074 0.206137
vt 0.189562 0.272613
vt 0.179764 0.206323
vt 0.181253 0.272799
vt 0.171455 0.206509
vt 0.172943 0.272985
vt 0.163145 0.206696
vt 0.164634 0.273171
vt 0.280966 0.270566
vt 0.280780 0.262257
vt 0.214304 0.263745
vt 0.280594 0.253947
vt 0.214118 0.255436
vt 0.280408 0.245638
vt 0.213932 0.247126
vt 0.280222 0.237328
vt 0.213746 0.238817
vt 0.280036 0.229019
vt 0.279849 0.220709
vt 0.213374 0.222198
vt 0.213560 0.230507
vt 0.347441 0.269077
vt 0.347255 0.260768
vt 0.347069 0.252458
vt 0.346883 0.244149
vt 0.346697 0.235839
vt 0.346511 0.227530
vt 0.346325 0.219221
vt 0.654411 0.981673
vt 0.659871 0.976212
vt 0.611592 0.935396
vt 0.610871 0.981673
vt 0.575068 0.692683
vt 0.580831 0.686921
vt 0.576483 0.676425
vt 0.564572 0.688336
vt 0.650063 0.686921
vt 0.655826 0.692683
vt 0.666322 0.688336
vt 0.654411 0.676425
vt 0.655826 0.761916
vt 0.650063 0.767678
vt 0.654411 0.778174
vt 0.666322 0.766263
vt 0.580831 0.767678
vt 0.575068 0.761916
vt 0.564572 0.766263
vt 0.576483 0.778174
vt 0.613513 0.981673
vt 0.614321 0.930586
vt 0.660599 0.975485
vt 0.654411 0.879924
vt 0.462823 0.778174
vt 0.462823 0.879923
vt 0.678232 0.879924
vt 0.678232 0.778174
vt 0.756160 0.778174
vt 0.756160 0.879924
vt 0.552661 0.778174
vt 0.552661 0.879924
vt 0.779982 0.879924
vt 0.779982 0.778174
vt 0.576483 0.879924
vt 0.474734 0.879923
vt 0.474734 0.778174
vt 0.199477 0.851281
vt 0.011818 0.850851
vt 0.011710 0.897766
vt 0.199370 0.898196
vt 0.199585 0.804366
vt 0.011925 0.803936
vt 0.199907 0.663621
vt 0.199800 0.710536
vt 0.199692 0.757451
vt 0.012032 0.757022
vt 0.199155 0.992026
vt 0.199263 0.945111
vt 0.012140 0.710107
vt 0.011603 0.944681
vt 0.011495 0.991596
vt 0.012247 0.663192
vt 0.200014 0.616706
vt 0.012355 0.616277
vt 0.090312 0.557833
vt 0.035322 0.535055
vt 0.145303 0.425074
vt 0.168081 0.480065
vt 0.145303 0.535055
vt 0.090312 0.402296
vt 0.012544 0.480065
vt 0.035322 0.425074
vt 0.090312 0.530111
vt 0.054925 0.515453
vt 0.125700 0.444677
vt 0.140359 0.480065
vt 0.125700 0.515453
vt 0.090312 0.430018
vt 0.040266 0.480065
vt 0.054925 0.444677
vt 0.349674 0.368791
vt 0.570850 0.976040
vt 0.576483 0.981673
vt 0.564572 0.937203
vt 0.571074 0.885332
vt 0.564572 0.891834
vt 0.666322 0.933293
vt 0.666322 0.891834
vt 0.660376 0.885888
vt 0.666322 0.969762
vt 0.612457 0.879924
vt 0.564572 0.969762
vt 0.615123 0.879924
vt 0.570219 0.886188
vt 0.564572 0.930569
vt 0.570267 0.975457
vt 0.666322 0.930604
vt 0.661486 0.886999
vt 0.532100 0.020434
vt 0.426335 0.443495
vt 0.584983 0.020434
vt 0.637866 0.020434
vt 0.690749 0.020434
vt 0.743631 0.020434
vt 0.796514 0.020434
vt 0.849397 0.020434
vt 0.479218 0.020434
vt 0.426335 0.020434
vt 0.469039 0.879923
vt 0.468456 0.879923
vt 0.769061 0.879924
vt 0.666340 0.879924
vt 0.565666 0.879924
vt 0.767606 0.879924
vt 0.668561 0.879924
vt 0.563954 0.879924
s 1
g off
g lanza_Material.002
usemtl Material.002
f 1/1/1 2/2/1 3/3/1
s 2
f 4/2/1 5/4/1 6/3/1
s 3
f 7/4/1 8/5/1 9/3/1
s 4
f 10/5/1 11/6/1 12/3/1
s 5
f 13/6/1 14/7/1 15/3/1
s 6
f 16/7/1 17/8/1 18/3/1
s 7
f 19/8/1 20/9/1 21/3/1
s 8
f 22/9/1 23/1/1 24/3/1
s 9
f 25/10/2 26/11/2 27/12/2
s 10
f 28/11/2 29/13/2 30/12/2
s 11
f 31/13/2 32/14/2 33/12/2
s 12
f 34/14/2 35/15/2 36/12/2
s 13
f 37/15/2 38/16/2 39/12/2
s 14
f 40/16/2 41/17/2 42/12/2
s 15
f 43/17/2 44/18/2 45/12/2
s 16
f 46/18/2 47/10/2 48/12/2
s 17
f 49/1/3 50/3/3 51/2/3
f 51/2/3 50/3/3 52/4/3
f 52/4/3 50/3/3 53/5/3
f 53/5/3 50/3/3 54/6/3
f 54/6/3 50/3/3 55/7/3
f 55/7/3 50/3/3 56/8/3
f 56/8/3 50/3/3 57/9/3
f 57/9/3 50/3/3 49/1/3
s 18
f 58/19/4 59/20/4 60/20/4
f 58/19/4 60/20/4 61/19/4
s 19
f 62/21/5 63/22/5 64/22/5
f 62/21/5 64/22/5 65/21/5
s 20
f 66/23/6 67/24/6 68/24/6
f 66/23/6 68/24/6 69/23/6
s 21
f 70/25/7 71/26/7 72/26/7
f 70/25/7 72/26/7 73/25/7
s 22
f 74/20/8 75/27/8 76/27/8
f 74/20/8 76/27/8 77/20/8
s 23
f 78/22/9 79/19/9 80/19/9
f 78/22/9 80/19/9 81/22/9
s 24
f 82/24/10 83/21/10 84/21/10
f 82/24/10 84/21/10 85/24/10
s 25
f 86/26/11 87/23/11 88/23/11
f 86/26/11 88/23/11 89/26/11
s 26
f 90/28/12 91/29/12 92/30/12
f 90/28/12 92/30/12 93/31/12
s 27
f 94/31/13 95/30/14 96/32/15
f 94/31/13 96/32/15 97/33/15
s 28
f 98/34/16 99/35/16 100/36/16
f 98/34/16 100/36/16 101/37/16
s 29
f 102/38/17 103/32/18 104/39/19
f 102/38/17 104/39/19 105/40/18
s 30
f 106/40/20 107/39/21 108/41/22
f 106/40/20 108/41/22 109/42/23
s 31
f 110/42/24 111/41/25 112/43/26
f 110/42/24 112/43/26 113/44/27
s 32
f 114/44/28 115/43/28 116/45/28
f 114/44/28 116/45/28 117/46/28
s 33
f 118/46/29 119/45/29 120/47/29
f 118/46/29 120/47/29 121/48/29
s 34
f 122/48/30 123/47/30 124/49/30
f 122/48/30 124/49/30 125/50/30
s 35
f 126/50/31 127/49/31 128/35/31
f 126/50/31 128/35/31 129/34/31
s 36
f 130/51/32 131/52/33 132/53/32
f 130/51/32 132/53/32 133/38/32
s 37
f 134/52/34 135/54/34 136/55/34
f 134/52/34 136/55/34 137/53/34
s 38
f 138/54/35 139/56/36 140/57/36
f 138/54/35 140/57/36 141/55/36
s 39
f 142/56/37 143/58/37 144/59/37
f 142/56/37 144/59/37 145/57/37
s 40
f 146/59/38 147/58/38 148/58/38
f 146/59/38 148/58/38 149/59/38
s 41
f 150/60/39 151/61/40 152/62/41
f 150/60/39 152/62/41 153/63/42
s 42
f 154/64/43 155/65/43 156/52/44
f 154/64/43 156/52/44 157/51/45
s 43
f 158/65/46 159/66/46 160/54/46
f 158/65/46 160/54/46 161/52/46
s 44
f 162/66/47 163/67/48 164/56/49
f 162/66/47 164/56/49 165/54/50
s 45
f 166/67/51 167/68/51 168/58/51
f 166/67/51 168/58/51 169/56/51
s 46
f 170/68/52 171/69/52 172/60/52
f 170/68/52 172/60/52 173/58/52
s 47
f 174/69/53 175/70/54 176/61/54
f 174/69/53 176/61/54 177/60/54
s 48
f 178/70/55 179/28/56 180/31/57
f 178/70/55 180/31/57 181/61/57
s 49
f 182/71/2 183/72/2 184/73/2
f 182/71/2 184/73/2 185/74/2
s 50
f 186/75/58 187/76/58 188/77/58
f 186/75/58 188/77/58 189/78/58
s 51
f 190/79/58 191/80/58 192/81/58
f 190/79/58 192/81/58 193/82/58
f 194/83/58 195/84/58 196/85/58
f 194/83/58 196/85/58 197/86/58
f 198/87/58 199/88/58 200/89/58
f 198/87/58 200/89/58 201/90/58
f 202/76/58 190/79/58 193/82/58
f 202/76/58 193/82/58 203/77/58
f 199/88/58 204/75/58 205/78/58
f 199/88/58 205/78/58 200/89/58
f 195/84/58 198/87/58 201/90/58
f 195/84/58 201/90/58 196/85/58
f 191/80/58 194/83/58 197/86/58
f 191/80/58 197/86/58 192/81/58
s 52
f 206/71/58 207/91/58 208/92/58
f 206/71/58 208/92/58 209/93/58
s 53
f 210/85/59 211/85/59 212/94/59
f 210/85/59 212/94/59 213/94/59
s 54
f 214/75/60 215/75/60 216/76/60
f 214/75/60 216/76/60 217/76/60
s 55
f 218/79/61 219/79/61 220/80/61
f 218/79/61 220/80/61 221/80/61
s 56
f 222/95/62 223/95/62 224/96/62
f 222/95/62 224/96/62 225/96/62
s 57
f 226/97/63 227/97/63 228/98/63
f 226/97/63 228/98/63 229/98/63
s 58
f 230/83/64 231/83/64 232/84/64
f 230/83/64 232/84/64 233/84/64
s 59
f 234/87/65 235/87/65 236/88/65
f 234/87/65 236/88/65 237/88/65
s 60
f 238/99/66 239/99/66 240/100/66
f 238/99/66 240/100/66 241/100/66
s 61
f 242/76/67 243/76/67 244/79/67
f 242/76/67 244/79/67 245/79/67
s 62
f 246/101/68 247/101/68 248/102/68
f 246/101/68 248/102/68 249/102/68
s 63
f 250/82/69 251/77/69 252/77/69
s 64
f 253/88/70 254/88/70 255/75/70
f 253/88/70 255/75/70 256/75/70
s 65
f 257/78/71 258/78/72 259/89/71
f 257/78/71 259/89/71 260/89/71
s 66
f 261/103/73 262/103/73 263/104/73
f 261/103/73 263/104/73 264/104/73
s 67
f 265/84/74 266/84/74 267/87/74
f 265/84/74 267/87/74 268/87/74
s 68
f 269/105/75 270/105/75 271/90/75
f 269/105/75 271/90/75 272/90/75
s 69
f 273/90/76 274/90/76 275/85/76
f 273/90/76 275/85/76 276/85/76
s 70
f 277/80/77 278/80/77 279/83/77
f 277/80/77 279/83/77 280/83/77
s 71
f 281/106/78 282/106/78 283/107/78
f 281/106/78 283/107/78 284/107/78
s 72
f 285/86/79 286/81/79 287/81/79
s 73
f 288/108/80 289/109/80 290/110/80
f 288/108/80 290/110/80 291/111/80
s 74
f 292/112/81 293/113/81 294/109/81
f 292/112/81 294/109/81 295/108/81
s 75
f 296/114/82 297/115/82 298/115/82
f 296/114/82 298/115/82 299/114/82
s 76
f 300/116/83 301/117/83 302/113/83
f 300/116/83 302/113/83 303/112/83
s 77
f 304/115/80 305/114/80 306/114/80
f 304/115/80 306/114/80 307/115/80
s 78
f 308/118/83 309/119/83 310/119/83
f 308/118/83 310/119/83 311/118/83
s 79
f 312/115/84 313/120/84 314/117/84
f 312/115/84 314/117/84 315/116/84
s 80
f 316/112/85 317/116/85 318/116/85
f 316/112/85 318/116/85 319/112/85
s 81
f 320/119/85 321/121/85 322/122/85
f 320/119/85 322/122/85 323/118/85
s 75
f 296/114/82 324/123/82 325/120/82
f 296/114/82 325/120/82 297/115/82
s 82
f 326/111/86 327/119/86 328/119/86
f 326/111/86 328/119/86 329/111/86
s 83
f 330/124/87 331/114/87 332/124/87
s 84
f 333/124/87 334/125/87 335/123/87
f 333/124/87 335/123/87 336/114/87
s 85
f 337/112/81 338/108/81 339/108/81
f 337/112/81 339/108/81 340/112/81
s 82
f 326/111/86 341/110/86 342/121/86
f 326/111/86 342/121/86 327/119/86
s 86
f 343/114/81 344/124/81 345/124/81
f 343/114/81 345/124/81 346/114/81
s 87
f 347/112/88 348/108/88 349/108/88
f 347/112/88 349/108/88 350/112/88
s 88
f 351/116/89 352/112/89 353/112/89
f 351/116/89 353/112/89 354/116/89
s 89
f 355/124/90 356/114/90 357/114/90
f 355/124/90 357/114/90 358/124/90
s 90
f 359/108/91 360/111/91 361/111/91
f 359/108/91 361/111/91 362/108/92
s 91
f 363/115/93 364/116/93 365/116/93
f 363/115/93 365/116/93 366/115/93
s 92
f 367/114/94 368/115/94 369/115/94
f 367/114/94 369/115/94 370/114/94
s 93
f 371/111/95 372/119/95 373/119/95
f 371/111/95 373/119/95 374/111/95
s 94
f 375/119/96 376/118/96 377/118/96
f 375/119/96 377/118/96 378/119/96
s 95
f 379/126/58 380/127/58 381/16/58
f 379/126/58 381/16/58 382/15/58
f 383/128/58 384/129/58 385/13/58
f 383/128/58 385/13/58 386/11/58
f 387/130/58 379/126/58 382/15/58
f 387/130/58 382/15/58 388/14/58
f 389/131/58 383/128/58 386/11/58
f 389/131/58 386/11/58 390/10/58
f 384/129/58 387/130/58 388/14/58
f 384/129/58 388/14/58 385/13/58
f 380/127/58 391/132/58 392/17/58
f 380/127/58 392/17/58 381/16/58
f 391/132/58 393/133/58 394/18/58
f 391/132/58 394/18/58 392/17/58
f 393/133/58 389/131/58 390/10/58
f 393/133/58 390/10/58 394/18/58
s 96
f 395/133/84 396/132/84 397/132/84
f 395/133/84 397/132/84 398/133/84
s 97
f 399/129/80 400/128/80 401/128/80
f 399/129/80 401/128/80 402/129/80
s 98
f 403/130/86 404/129/86 405/129/86
f 403/130/86 405/129/86 406/130/86
s 99
f 407/126/85 408/130/85 409/130/85
f 407/126/85 409/130/85 410/126/85
s 100
f 411/127/87 412/126/87 413/126/87
f 411/127/87 413/126/87 414/127/87
s 101
f 415/131/83 416/133/83 417/133/83
f 415/131/83 417/133/83 418/131/83
s 102
f 419/132/82 420/127/82 421/127/82
f 419/132/82 421/127/82 422/132/82
s 103
f 423/128/81 424/131/81 425/131/81
f 423/128/81 425/131/81 426/128/81
s 104
f 427/129/80 428/128/80 429/128/80
f 427/129/80 429/128/80 430/129/80
s 96
f 398/133/84 397/132/84 431/132/84
f 398/133/84 431/132/84 432/133/84
s 105
f 433/130/86 434/129/86 435/129/86
f 433/130/86 435/129/86 436/130/86
s 106
f 437/126/85 438/130/85 439/130/85
f 437/126/85 439/130/85 440/126/85
s 107
f 441/127/87 442/126/87 443/126/87
f 441/127/87 443/126/87 444/127/87
s 108
f 445/131/83 446/133/83 447/133/83
f 445/131/83 447/133/83 448/131/83
s 109
f 449/132/82 450/127/82 451/127/82
f 449/132/82 451/127/82 452/132/82
s 103
f 426/128/81 425/131/81 453/131/81
f 426/128/81 453/131/81 454/128/81
s 110
f 455/134/58 456/135/58 457/127/58
f 455/134/58 457/127/58 458/126/58
f 459/136/58 460/137/58 461/129/58
f 459/136/58 461/129/58 462/128/58
f 463/138/58 455/134/58 458/126/58
f 463/138/58 458/126/58 464/130/58
f 465/139/58 459/136/58 462/128/58
f 465/139/58 462/128/58 466/131/58
f 467/137/58 463/138/58 464/130/58
f 467/137/58 464/130/58 468/129/58
f 456/135/58 469/140/58 470/132/58
f 456/135/58 470/132/58 457/127/58
f 469/140/58 471/141/58 472/133/58
f 469/140/58 472/133/58 470/132/58
f 471/141/58 465/139/58 466/131/58
f 471/141/58 466/131/58 472/133/58
s 111
f 473/30/97 474/31/97 475/65/97
f 473/30/97 475/65/97 476/64/97
s 112
f 477/111/98 478/119/98 479/119/98
f 477/111/98 479/119/98 480/111/98
s 113
f 481/116/99 482/112/99 483/112/99
f 481/116/99 483/112/99 484/116/99
s 114
f 485/112/100 486/108/100 487/108/100
f 485/112/100 487/108/100 488/112/100
s 115
f 489/115/101 490/116/101 491/116/101
f 489/115/101 491/116/101 492/115/101
s 116
f 493/108/102 494/111/102 495/111/102
f 493/108/102 495/111/102 496/108/102
s 117
f 497/124/103 498/114/103 499/114/103
f 497/124/103 499/114/103 500/124/103
s 118
f 501/119/104 502/118/104 503/118/104
f 501/119/104 503/118/104 504/119/104
s 119
f 505/114/105 506/115/105 507/115/105
f 505/114/105 507/115/105 508/114/105
s 76
f 300/116/83 303/112/83 509/112/83
f 300/116/83 509/112/83 510/116/83
s 120
f 511/108/87 512/112/87 513/112/87
f 511/108/87 513/112/87 514/108/87
s 121
f 515/119/84 516/111/84 517/111/84
f 515/119/84 517/111/84 518/119/84
s 81
f 320/119/85 323/118/85 519/118/85
f 320/119/85 519/118/85 520/119/85
s 122
f 521/116/86 522/115/86 523/115/86
f 521/116/86 523/115/86 524/116/86
s 123
f 525/111/82 526/108/82 527/108/82
f 525/111/82 527/108/82 528/111/82
s 124
f 529/115/84 530/116/84 531/115/84
s 73
f 288/108/80 291/111/80 532/111/80
f 288/108/80 532/111/80 533/108/80
s 125
f 534/19/4 535/19/4 536/20/4
f 534/19/4 536/20/4 537/20/4
s 19
f 538/21/5 65/21/5 64/22/5
f 538/21/5 64/22/5 539/22/5
s 126
f 540/23/6 541/23/6 542/24/6
f 540/23/6 542/24/6 543/24/6
s 127
f 544/25/7 545/25/7 546/26/7
f 544/25/7 546/26/7 547/26/7
s 22
f 548/20/8 77/20/8 76/27/8
f 548/20/8 76/27/8 549/27/8
s 128
f 550/22/9 551/22/9 552/19/9
f 550/22/9 552/19/9 553/19/9
s 129
f 554/24/10 555/24/10 556/21/10
f 554/24/10 556/21/10 557/21/10
s 130
f 558/26/11 559/26/11 560/23/11
f 558/26/11 560/23/11 561/23/11
s 131
f 562/67/106 563/66/106 564/61/106
f 562/67/106 564/61/106 565/60/106
s 132
f 566/68/107 567/67/107 568/60/107
f 566/68/107 568/60/107 569/58/107
s 133
f 570/69/108 571/68/108 572/58/108
f 570/69/108 572/58/108 573/56/108
s 134
f 574/70/109 575/69/109 576/56/110
f 574/70/109 576/56/110 577/54/111
s 135
f 578/28/112 579/70/113 580/54/113
f 578/28/112 580/54/113 581/52/114
s 136
f 582/52/115 583/142/116 584/29/116
f 582/52/115 584/29/116 585/28/117
s 137
f 586/66/118 587/65/118 588/31/118
f 586/66/118 588/31/118 589/61/118
s 138
f 590/85/119 591/90/119 592/105/119
f 590/85/119 592/105/119 593/94/119
s 49
f 185/74/2 184/73/2 594/143/2
f 185/74/2 594/143/2 595/144/2
s 139
f 596/145/2 597/73/2 598/146/2
f 596/145/2 598/146/2 599/147/2
s 49
f 184/73/2 600/148/2 601/149/2
f 184/73/2 601/149/2 602/150/2
f 184/73/2 183/72/2 603/151/2
f 184/73/2 603/151/2 600/148/2
f 598/146/2 184/73/2 604/152/2
f 598/146/2 604/152/2 605/105/2
f 602/150/2 606/94/2 604/152/2
f 602/150/2 604/152/2 184/73/2
f 594/143/2 184/73/2 607/145/2
f 594/143/2 607/145/2 608/153/2
s 52
f 609/154/58 208/92/58 610/155/58
f 609/154/58 610/155/58 611/105/58
f 612/156/58 208/92/58 613/157/58
f 612/156/58 613/157/58 614/153/58
f 615/158/58 208/92/58 616/159/58
f 615/158/58 616/159/58 617/149/58
f 610/155/58 208/92/58 612/156/58
f 610/155/58 612/156/58 618/147/58
f 209/93/58 208/92/58 615/158/58
f 209/93/58 615/158/58 619/151/58
f 613/157/58 208/92/58 207/91/58
f 613/157/58 207/91/58 620/144/58
f 616/159/58 208/92/58 609/154/58
f 616/159/58 609/154/58 621/94/58
s 140
f 622/60/120 623/63/120 624/63/120
s 141
f 625/44/121 626/46/121 627/46/121
f 625/44/121 627/46/121 628/44/121
s 142
f 629/58/122 630/60/122 631/60/122
f 629/58/122 631/60/122 632/58/122
s 143
f 633/160/9 634/161/9 635/162/9
f 634/161/9 633/160/9 636/22/9
f 636/22/9 633/160/9 637/161/9
f 636/22/9 637/161/9 638/19/9
s 144
f 639/161/5 640/22/5 641/21/5
f 640/22/5 639/161/5 642/161/5
f 642/161/5 639/161/5 643/163/5
f 642/161/5 643/163/5 644/162/5
s 145
f 645/161/10 646/21/10 647/24/10
f 646/21/10 645/161/10 648/161/10
f 648/161/10 645/161/10 649/164/10
f 648/161/10 649/164/10 650/163/10
s 146
f 651/23/6 652/161/6 653/24/6
f 654/164/6 653/24/6 655/165/6
f 655/165/6 653/24/6 652/161/6
s 147
f 656/26/11 657/161/11 658/23/11
f 659/165/11 658/23/11 660/166/11
f 660/166/11 658/23/11 657/161/11
s 148
f 661/161/7 662/26/7 663/25/7
f 662/26/7 661/161/7 664/161/7
f 664/161/7 661/161/7 665/167/7
f 664/161/7 665/167/7 666/166/7
s 149
f 667/161/8 668/25/8 669/20/8
f 668/25/8 667/161/8 670/161/8
f 670/161/8 667/161/8 671/168/8
f 670/161/8 671/168/8 672/169/8
s 150
f 673/168/4 674/161/4 675/160/4
f 674/161/4 673/168/4 676/19/4
f 676/19/4 673/168/4 677/161/4
f 676/19/4 677/161/4 678/20/4
s 151
f 679/95/123 680/170/123 681/96/123
f 680/170/123 679/95/123 682/106/123
f 682/106/123 679/95/123 683/107/123
s 152
f 684/171/124 685/95/124 686/96/124
f 685/95/124 684/171/124 687/107/124
f 687/107/124 684/171/124 688/106/124
s 153
f 689/104/125 690/172/125 691/103/125
f 690/172/125 689/104/125 692/100/125
f 692/100/125 689/104/125 693/99/125
s 154
f 694/85/123 695/97/123 696/98/123
f 695/97/123 694/85/123 697/173/123
f 697/173/123 694/85/123 698/94/123
s 155
f 699/90/126 700/174/126 701/105/126
f 700/174/126 699/90/126 702/102/126
f 702/102/126 699/90/126 703/101/126
s 156
f 704/99/126 705/175/126 706/100/126
f 705/175/126 704/99/126 707/103/126
f 707/103/126 704/99/126 708/104/126
s 157
f 709/85/124 710/176/124 711/94/124
f 710/176/124 709/85/124 712/97/124
f 712/97/124 709/85/124 713/98/124
s 158
f 714/101/125 715/177/125 716/102/125
f 715/177/125 714/101/125 717/105/125
f 717/105/125 714/101/125 718/90/125
s 159
f 719/151/127 720/148/127 721/151/127
f 720/148/127 719/151/127 722/158/127
f 720/148/127 722/158/127 723/149/127
f 723/149/127 722/158/127 724/149/127
s 160
f 725/94/128 726/152/128 727/94/128
f 726/152/128 725/94/128 728/105/128
f 728/105/128 725/94/128 729/105/128
s 161
f 730/145/129 731/153/129 732/153/129
f 731/153/129 730/145/129 733/156/129
f 733/156/129 730/145/129 734/147/129
f 733/156/129 734/147/129 735/147/129
s 162
f 736/144/130 737/74/130 738/144/130
f 737/74/130 736/144/130 739/71/130
f 739/71/130 736/144/130 740/71/130
s 163
f 741/134/58 742/140/58 743/135/58
f 742/140/58 741/134/58 744/138/58
f 742/140/58 744/138/58 745/141/58
f 745/141/58 744/138/58 746/137/58
f 745/141/58 746/137/58 747/139/58
f 747/139/58 746/137/58 748/136/58
s 164
f 749/19/9 750/161/9 751/22/9
f 752/162/9 751/22/9 753/160/9
f 753/160/9 751/22/9 750/161/9
s 165
f 754/161/5 755/162/5 756/163/5
f 755/162/5 754/161/5 757/161/5
f 757/161/5 754/161/5 758/21/5
f 757/161/5 758/21/5 759/22/5
s 166
f 760/161/10 761/163/10 762/164/10
f 761/163/10 760/161/10 763/161/10
f 763/161/10 760/161/10 764/24/10
f 763/161/10 764/24/10 765/21/10
s 167
f 766/165/6 767/161/6 768/164/6
f 767/161/6 766/165/6 769/24/6
f 769/24/6 766/165/6 770/161/6
f 769/24/6 770/161/6 771/23/6
s 168
f 772/166/11 773/161/11 774/165/11
f 773/161/11 772/166/11 775/23/11
f 775/23/11 772/166/11 776/161/11
f 775/23/11 776/161/11 777/26/11
s 169
f 778/161/7 779/166/7 780/167/7
f 779/166/7 778/161/7 781/161/7
f 781/161/7 778/161/7 782/25/7
f 781/161/7 782/25/7 783/26/7
s 170
f 784/161/8 785/169/8 786/168/8
f 785/169/8 784/161/8 787/161/8
f 787/161/8 784/161/8 788/20/8
f 787/161/8 788/20/8 789/25/8
s 171
f 790/20/4 791/161/4 792/19/4
f 793/160/4 792/19/4 794/168/4
f 794/168/4 792/19/4 791/161/4
