# Blender 5.0.1
# www.blender.org
mtllib catapulta.mtl
g Object_4_Mesh
v -4.498677 0.172474 3.107203
v -3.498678 0.172474 3.107203
v -4.205785 0.879581 3.107203
v 2.974401 0.854292 -3.170775
v 3.681508 1.147185 -3.170775
v 3.681508 0.147185 -3.170775
v 4.388615 0.854292 -3.170775
v 4.681508 0.147185 -3.170775
v 4.388615 -0.559922 -3.170775
v 3.681508 -0.852815 -3.170775
v 2.974401 -0.559922 -3.170775
v 2.681508 0.147185 -3.170775
v -4.205785 -0.534632 3.107203
v -3.498678 -0.827526 3.107203
v -2.791571 -0.534632 3.107203
v -2.498678 0.172474 3.107203
v -2.791571 0.879581 3.107203
v -3.498678 1.172474 3.107203
v -1.088662 3.839048 -2.216730
v -0.919217 3.906002 -2.216730
v -0.919217 3.677407 -2.216730
v -0.919217 3.906002 -2.216730
v -0.749772 3.839048 -2.216730
v -0.919217 3.677407 -2.216730
v -0.749772 3.839048 -2.216730
v -0.679585 3.677407 -2.216730
v -0.919217 3.677407 -2.216730
v -0.679585 3.677407 -2.216730
v -0.749772 3.515766 -2.216730
v -0.919217 3.677407 -2.216730
v -0.749772 3.515766 -2.216730
v -0.919217 3.448813 -2.216730
v -0.919217 3.677407 -2.216730
v -0.919217 3.448813 -2.216730
v -1.088662 3.515766 -2.216730
v -0.919217 3.677407 -2.216730
v -1.088662 3.515766 -2.216730
v -1.158849 3.677407 -2.216730
v -0.919217 3.677407 -2.216730
v -1.158849 3.677407 -2.216730
v -1.088662 3.839048 -2.216730
v -0.919217 3.677407 -2.216730
v -5.008790 2.979894 -0.221193
v -4.855554 2.979894 -0.222407
v -4.930707 2.979894 -0.036828
v -4.855554 2.979894 -0.222407
v -4.746341 2.979894 -0.114911
v -4.930707 2.979894 -0.036828
v -4.746341 2.979894 -0.114911
v -4.745128 2.979894 0.038325
v -4.930707 2.979894 -0.036828
v -4.745128 2.979894 0.038325
v -4.852622 2.979894 0.147538
v -4.930707 2.979894 -0.036828
v -4.852622 2.979894 0.147538
v -5.005860 2.979894 0.148752
v -4.930707 2.979894 -0.036828
v -5.005860 2.979894 0.148752
v -5.115071 2.979894 0.041256
v -4.930707 2.979894 -0.036828
v -5.115071 2.979894 0.041256
v -5.116286 2.979894 -0.111979
v -4.930707 2.979894 -0.036828
v -5.116286 2.979894 -0.111979
v -5.008790 2.979894 -0.221193
v -4.930707 2.979894 -0.036828
v -4.498677 0.172474 -3.170775
v -4.205785 0.879581 -3.170775
v -3.498678 0.172474 -3.170775
v 2.974401 0.854292 3.107203
v 3.681508 0.147185 3.107203
v 3.681508 1.147185 3.107203
v 4.388615 0.854292 3.107203
v 4.681508 0.147185 3.107203
v 4.388615 -0.559922 3.107203
v 3.681508 -0.852815 3.107203
v 2.974401 -0.559922 3.107203
v 2.681508 0.147185 3.107203
v -4.205785 -0.534632 -3.170775
v -3.498678 -0.827526 -3.170775
v -2.791572 -0.534632 -3.170775
v -2.498678 0.172474 -3.170775
v -2.791572 0.879581 -3.170775
v -3.498678 1.172474 -3.170775
v -1.088662 3.839048 2.123707
v -0.919217 3.677407 2.123707
v -0.919217 3.906002 2.123707
v -0.749772 3.839048 2.123707
v -0.679585 3.677407 2.123707
v -0.749772 3.515766 2.123707
v -0.919217 3.448813 2.123707
v -1.088662 3.515766 2.123707
v -1.158849 3.677407 2.123707
v -3.466836 0.436640 3.303207
v -3.619494 0.382856 3.303207
v -3.466836 0.206749 3.303207
v 3.527015 0.382856 -3.345181
v 3.679673 0.436640 -3.345181
v 3.679672 0.206749 -3.345181
v 3.679673 0.436640 3.303207
v 3.527015 0.382856 3.303207
v 3.679672 0.206749 3.303207
v -3.619494 0.382856 -3.345181
v -3.466836 0.436640 -3.345181
v -3.466836 0.206749 -3.345181
v -3.466836 0.436640 -3.345181
v -3.314179 0.382856 -3.345181
v -3.466836 0.206749 -3.345181
v -3.314179 0.382856 -3.345181
v -3.232952 0.246669 -3.345181
v -3.466836 0.206749 -3.345181
v -3.232952 0.246669 -3.345181
v -3.261162 0.091803 -3.345181
v -3.466836 0.206749 -3.345181
v -3.261162 0.091803 -3.345181
v -3.385610 -0.009279 -3.345181
v -3.466836 0.206749 -3.345181
v -3.385610 -0.009279 -3.345181
v -3.548064 -0.009279 -3.345181
v -3.466836 0.206749 -3.345181
v -3.548064 -0.009279 -3.345181
v -3.672512 0.091803 -3.345181
v -3.466836 0.206749 -3.345181
v -3.672512 0.091803 -3.345181
v -3.700721 0.246669 -3.345181
v -3.466836 0.206749 -3.345181
v -3.700721 0.246669 -3.345181
v -3.619494 0.382856 -3.345181
v -3.466836 0.206749 -3.345181
v -3.619494 0.382856 3.303207
v -3.700721 0.246669 3.303207
v -3.466836 0.206749 3.303207
v -3.700721 0.246669 3.303207
v -3.672512 0.091803 3.303207
v -3.466836 0.206749 3.303207
v -3.672512 0.091803 3.303207
v -3.548064 -0.009279 3.303207
v -3.466836 0.206749 3.303207
v -3.548064 -0.009279 3.303207
v -3.385610 -0.009279 3.303207
v -3.466836 0.206749 3.303207
v -3.385610 -0.009279 3.303207
v -3.261162 0.091803 3.303207
v -3.466836 0.206749 3.303207
v -3.261162 0.091803 3.303207
v -3.232952 0.246669 3.303207
v -3.466836 0.206749 3.303207
v -3.232952 0.246669 3.303207
v -3.314179 0.382856 3.303207
v -3.466836 0.206749 3.303207
v -3.314179 0.382856 3.303207
v -3.466836 0.436640 3.303207
v -3.466836 0.206749 3.303207
v 3.679673 0.436640 -3.345181
v 3.832330 0.382856 -3.345181
v 3.679672 0.206749 -3.345181
v 3.832330 0.382856 -3.345181
v 3.913557 0.246669 -3.345181
v 3.679672 0.206749 -3.345181
v 3.913557 0.246669 -3.345181
v 3.885347 0.091803 -3.345181
v 3.679672 0.206749 -3.345181
v 3.885347 0.091803 -3.345181
v 3.760899 -0.009279 -3.345181
v 3.679672 0.206749 -3.345181
v 3.760899 -0.009279 -3.345181
v 3.598445 -0.009279 -3.345181
v 3.679672 0.206749 -3.345181
v 3.598445 -0.009279 -3.345181
v 3.473998 0.091803 -3.345181
v 3.679672 0.206749 -3.345181
v 3.473998 0.091803 -3.345181
v 3.445788 0.246669 -3.345181
v 3.679672 0.206749 -3.345181
v 3.445788 0.246669 -3.345181
v 3.527015 0.382856 -3.345181
v 3.679672 0.206749 -3.345181
v 3.445788 0.246669 3.303207
v 3.445788 0.246669 3.303207
v 3.473998 0.091803 3.303207
v 3.598445 -0.009279 3.303207
v 3.760899 -0.009279 3.303207
v 3.885347 0.091803 3.303207
v 3.913557 0.246669 3.303207
v 3.832330 0.382856 3.303207
v 4.633331 0.440018 -2.270710
v 4.633331 0.942922 -2.270710
v 4.633331 0.942922 -1.767806
v 4.633331 0.440018 -1.767806
v -1.649084 3.888344 -2.224950
v -1.649084 3.888344 -1.549569
v -0.408480 3.985554 -1.665913
v -0.408480 3.985554 -2.112495
v 3.304047 0.947216 -2.431098
v 3.304047 1.450120 -2.431098
v 4.082247 1.450120 -2.431098
v 4.082247 0.947216 -2.431098
v -2.993070 0.947216 -2.431098
v -2.993070 1.450120 -2.431098
v -2.993070 1.450120 -0.046511
v -2.993070 0.947216 -0.046511
v -2.993070 0.947216 -2.431098
v -2.993070 0.947216 -0.046511
v -3.771270 0.947216 -0.046511
v -3.771270 0.947216 -2.431098
v 3.304047 0.947216 -0.046511
v 3.304047 1.450120 -0.046511
v 3.304047 1.450120 -2.431098
v 3.304047 0.947216 -2.431098
v -2.993070 1.450120 -0.046511
v -2.993070 1.450120 -2.431098
v -3.771270 1.450120 -2.431098
v -3.771270 1.450120 -0.046511
v 4.082248 1.450120 -0.046511
v 4.082247 1.450120 -2.431098
v 3.304047 1.450120 -2.431098
v 3.304047 1.450120 -0.046511
v -3.771270 0.947216 -0.046511
v -3.771270 1.450120 -0.046511
v -3.771270 1.450120 -2.431098
v -3.771270 0.947216 -2.431098
v 4.082247 0.947216 -2.431098
v 4.082248 0.947216 -0.046511
v 3.304047 0.947216 -0.046511
v 3.304047 0.947216 -2.431098
v -3.771270 0.947216 -2.431098
v -3.771270 1.450120 -2.431098
v -2.993070 1.450120 -2.431098
v -2.993070 0.947216 -2.431098
v 4.082247 0.947216 -2.431098
v 4.082247 1.450120 -2.431098
v 4.082248 1.450120 -0.046511
v 4.082248 0.947216 -0.046511
v 3.681508 1.147185 -2.479345
v 3.681508 1.147185 -3.170775
v 2.974401 0.854292 -3.170775
v 2.974401 0.854292 -2.479345
v 2.974401 0.854292 -2.479345
v 2.974401 0.854292 -3.170775
v 2.681508 0.147185 -3.170775
v 2.681508 0.147185 -2.479345
v 2.681508 0.147185 -2.479345
v 2.681508 0.147185 -3.170775
v 2.974401 -0.559922 -3.170775
v 2.974401 -0.559922 -2.479345
v 2.974401 -0.559922 -2.479345
v 2.974401 -0.559922 -3.170775
v 3.681508 -0.852815 -3.170775
v 3.681508 -0.852815 -2.479345
v 3.681508 -0.852815 -2.479345
v 3.681508 -0.852815 -3.170775
v 4.388615 -0.559922 -3.170775
v 4.388615 -0.559922 -2.479345
v 4.388615 -0.559922 -2.479345
v 4.388615 -0.559922 -3.170775
v 4.681508 0.147185 -3.170775
v 4.681508 0.147185 -2.479345
v 4.681508 0.147185 -2.479345
v 4.681508 0.147185 -3.170775
v 4.388615 0.854292 -3.170775
v 4.388615 0.854292 -2.479345
v 4.388615 0.854292 -2.479345
v 4.388615 0.854292 -3.170775
v 3.681508 1.147185 -3.170775
v 3.681508 1.147185 -2.479345
v -4.546287 0.440018 -1.767806
v -4.546287 0.942922 -1.767806
v -4.546287 0.942922 -2.270710
v -4.546287 0.440018 -2.270710
v -3.631012 1.346943 -1.549569
v -1.649084 3.888344 -1.549569
v -1.649084 3.888344 -2.224950
v -3.631012 1.346943 -2.224950
v -2.791571 0.879581 2.415773
v -3.498678 1.172474 2.415773
v -3.498678 1.172474 3.107203
v -2.791571 0.879581 3.107203
v -2.498678 0.172474 2.415773
v -2.791571 0.879581 2.415773
v -2.791571 0.879581 3.107203
v -2.498678 0.172474 3.107203
v -2.791571 -0.534632 2.415773
v -2.498678 0.172474 2.415773
v -2.498678 0.172474 3.107203
v -2.791571 -0.534632 3.107203
v -3.498678 -0.827526 2.415773
v -2.791571 -0.534632 2.415773
v -2.791571 -0.534632 3.107203
v -3.498678 -0.827526 3.107203
v -4.205785 -0.534632 2.415773
v -3.498678 -0.827526 2.415773
v -3.498678 -0.827526 3.107203
v -4.205785 -0.534632 3.107203
v -4.498677 0.172474 2.415773
v -4.205785 -0.534632 2.415773
v -4.205785 -0.534632 3.107203
v -4.498677 0.172474 3.107203
v -4.205785 0.879581 2.415773
v -4.498677 0.172474 2.415773
v -4.498677 0.172474 3.107203
v -4.205785 0.879581 3.107203
v -3.498678 1.172474 2.415773
v -4.205785 0.879581 2.415773
v -4.205785 0.879581 3.107203
v -3.498678 1.172474 3.107203
v -0.408480 3.985554 -1.665913
v 4.058955 1.441010 -1.665913
v 4.058955 1.441010 -2.112495
v -0.408480 3.985554 -2.112495
v 3.669120 1.168101 -1.665913
v -0.687637 3.372353 -1.665913
v -0.687637 3.372353 -2.112495
v 3.669120 1.168101 -2.112495
v -1.009037 3.369391 -1.602702
v -3.101643 1.346943 -1.496436
v -3.101643 1.346943 -2.288929
v -1.009037 3.369391 -2.160971
v -1.649084 3.888344 -2.224950
v -0.408480 3.985554 -2.112495
v -0.551117 3.672236 -2.112495
v -1.285673 3.593689 -2.160971
v -0.687637 3.372353 -2.112495
v -0.687637 3.372353 -1.665913
v -1.009037 3.369391 -1.602702
v -1.009037 3.369391 -2.160971
v -1.009037 3.369391 -1.602702
v -0.687637 3.372353 -1.665913
v -0.544180 3.687474 -1.665913
v -1.400284 3.686616 -1.602702
v -1.285673 3.593689 -2.160971
v -0.551117 3.672236 -2.112495
v -0.687637 3.372353 -2.112495
v -1.009037 3.369391 -2.160971
v -1.400284 3.686616 -1.602702
v -0.544180 3.687474 -1.665913
v -0.408480 3.985554 -1.665913
v -1.649084 3.888344 -1.549569
v -0.679585 3.677408 -0.605079
v -0.749772 3.839049 -0.605079
v -0.749772 3.839049 -0.046511
v -0.679585 3.677408 -0.046511
v -0.919217 3.448813 -0.605079
v -0.749772 3.515767 -0.605079
v -0.749772 3.515767 -0.046511
v -0.919217 3.448813 -0.046511
v -1.158849 3.677408 -0.605079
v -1.088663 3.515767 -0.605079
v -1.088663 3.515767 -0.046511
v -1.158849 3.677408 -0.046511
v -0.919217 3.906002 -0.605079
v -1.088663 3.839049 -0.605079
v -1.088663 3.839049 -0.046511
v -0.919217 3.906002 -0.046511
v -0.749772 3.839049 -0.605079
v -0.919217 3.906002 -0.605079
v -0.919217 3.906002 -0.046511
v -0.749772 3.839049 -0.046511
v -0.749772 3.515767 -0.605079
v -0.679585 3.677408 -0.605079
v -0.679585 3.677408 -0.046511
v -0.749772 3.515767 -0.046511
v -1.088663 3.515767 -0.605079
v -0.919217 3.448813 -0.605079
v -0.919217 3.448813 -0.046511
v -1.088663 3.515767 -0.046511
v -1.088663 3.839049 -0.605079
v -1.158849 3.677408 -0.605079
v -1.158849 3.677408 -0.046511
v -1.088663 3.839049 -0.046511
v -3.482940 4.055488 -0.268562
v -4.208644 3.675672 -0.205098
v -4.205989 3.675672 0.101961
v -3.509199 4.053516 0.038275
v 0.941863 3.811393 -0.230188
v 1.729915 3.463951 -0.155688
v 1.767419 3.463951 0.093764
v 0.979104 3.813364 0.073721
v -3.509199 3.811393 0.038275
v -3.509199 4.053516 0.038275
v -4.205989 3.675672 0.101961
v -4.205989 3.433548 0.101961
v 1.767419 3.463951 0.093764
v 1.767419 3.655818 0.093764
v 0.978983 4.056400 0.073322
v 0.979104 3.813364 0.073721
v 0.979104 3.813364 0.073721
v 0.978983 4.056400 0.073322
v 0.206638 4.282740 0.044814
v 0.206664 4.040283 0.044964
v 0.206664 4.040283 0.044964
v 0.206638 4.282740 0.044814
v -0.544835 4.384368 -0.000962
v -0.544835 4.142244 -0.000962
v -0.544835 4.142244 -0.000962
v -0.544835 4.384368 -0.000962
v -1.290791 4.415392 -0.014936
v -1.290791 4.173268 -0.014936
v -1.290791 4.173268 -0.014936
v -1.290791 4.415392 -0.014936
v -2.031898 4.384368 -0.000961
v -2.031898 4.142244 -0.000961
v -2.031898 4.142244 -0.000961
v -2.031898 4.384368 -0.000961
v -2.778854 4.281843 0.007315
v -2.778854 4.039720 0.007315
v -2.778854 4.039720 0.007315
v -2.778854 4.281843 0.007315
v -3.509199 4.053516 0.038275
v -3.509199 3.811393 0.038275
v -4.208644 3.433548 -0.205098
v -3.482976 3.814276 -0.268977
v -3.509199 3.811393 0.038275
v -4.205989 3.433548 0.101961
v -3.482976 3.814276 -0.268977
v -2.749907 4.040616 -0.298794
v -2.778854 4.039720 0.007315
v -3.509199 3.811393 0.038275
v -2.749907 4.040616 -0.298794
v -2.031898 4.142244 -0.308031
v -2.031898 4.142244 -0.000961
v -2.778854 4.039720 0.007315
v -2.031898 4.142244 -0.308031
v -1.290791 4.173268 -0.322005
v -1.290791 4.173268 -0.014936
v -2.031898 4.142244 -0.000961
v -1.290791 4.173268 -0.014936
v -1.290791 4.173268 -0.322005
v -1.029650 3.560008 -0.209616
v -1.029650 3.560008 -0.117542
v -0.544835 4.142244 -0.308032
v 0.206708 4.039720 -0.261853
v 0.206664 4.040283 0.044964
v -0.544835 4.142244 -0.000962
v 1.729915 3.655818 -0.155688
v 0.941863 4.053516 -0.230188
v 0.978983 4.056400 0.073322
v 1.767419 3.655818 0.093764
v 0.941863 4.053516 -0.230188
v 0.206708 4.281843 -0.261853
v 0.206638 4.282740 0.044814
v 0.978983 4.056400 0.073322
v 0.206708 4.281843 -0.261853
v -0.544835 4.384368 -0.308032
v -0.544835 4.384368 -0.000962
v 0.206638 4.282740 0.044814
v -0.544835 4.384368 -0.308032
v -1.290791 4.415392 -0.322005
v -1.290791 4.415392 -0.014936
v -0.544835 4.384368 -0.000962
v -1.290791 4.415392 -0.322005
v -2.031898 4.384368 -0.308031
v -2.031898 4.384368 -0.000961
v -1.290791 4.415392 -0.014936
v -2.031898 4.384368 -0.308031
v -2.749894 4.282406 -0.298642
v -2.778854 4.281843 0.007315
v -2.031898 4.384368 -0.000961
v -2.749894 4.282406 -0.298642
v -3.482940 4.055488 -0.268562
v -3.509199 4.053516 0.038275
v -2.778854 4.281843 0.007315
v 2.952024 2.869002 0.504726
v 2.882343 2.869002 0.574407
v 2.361507 2.869002 -0.041664
v 2.952024 2.869002 -0.050874
v 2.744559 4.167383 -0.507735
v 2.818092 4.167383 -0.434201
v 2.952024 4.167383 -0.489678
v 2.800035 4.167383 -0.641667
v 2.818092 4.167383 0.449250
v 2.744559 4.167383 0.522783
v 2.800035 4.167383 0.656715
v 2.952024 4.167383 0.504726
v 1.861109 4.167383 0.522783
v 1.787575 4.167383 0.449250
v 1.653642 4.167383 0.504726
v 1.805632 4.167383 0.656715
v 1.787575 4.167383 -0.434201
v 1.861109 4.167383 -0.507735
v 1.805631 4.167383 -0.641667
v 1.653642 4.167383 -0.489678
v 2.818092 4.167383 -0.434201
v 2.952024 4.167383 -0.489678
v 2.744559 4.167383 -0.507735
v 2.800035 4.167383 -0.641667
v 2.831709 3.029423 0.412579
v 2.831709 3.029423 -0.012585
v 2.300628 3.029423 -0.004181
v 2.767382 3.029423 0.476906
v 2.662694 4.087173 -0.412241
v 2.707888 4.087173 -0.521352
v 2.831709 4.087173 -0.397531
v 2.722599 4.087173 -0.352336
v 2.722599 4.087173 0.367384
v 2.831709 4.087173 0.412579
v 2.707888 4.087173 0.536399
v 2.662694 4.087173 0.427289
v 1.942974 4.087173 0.427289
v 1.897779 4.087173 0.536399
v 1.773958 4.087173 0.412579
v 1.883069 4.087173 0.367384
v 1.883069 4.087173 -0.352335
v 1.773958 4.087173 -0.397530
v 1.897778 4.087173 -0.521351
v 1.942974 4.087173 -0.412241
v 1.653642 4.167383 0.504726
v 1.773958 4.087173 0.412579
v 1.773958 3.029423 0.412579
v 1.653642 2.869002 0.504726
v 2.744559 4.167383 -0.507735
v 2.662694 4.087173 -0.412241
v 2.722599 4.087173 -0.352336
v 2.818092 4.167383 -0.434201
v 2.818092 4.167383 0.449250
v 2.722599 4.087173 0.367384
v 2.662694 4.087173 0.427289
v 2.744559 4.167383 0.522783
v 2.952024 4.167383 -0.489678
v 2.831709 4.087173 -0.397531
v 2.831709 3.029423 -0.397531
v 2.952024 2.869002 -0.489678
v 1.805632 2.869002 0.656715
v 1.897779 3.029423 0.536399
v 1.897779 4.087173 0.536399
v 1.805632 4.167383 0.656715
v 1.861109 4.167383 0.522783
v 1.942974 4.087173 0.427289
v 1.883069 4.087173 0.367384
v 1.787575 4.167383 0.449250
v 1.787575 4.167383 -0.434201
v 1.883069 4.087173 -0.352335
v 1.942974 4.087173 -0.412241
v 1.861109 4.167383 -0.507735
v 2.800035 4.167383 0.656715
v 2.707888 4.087173 0.536399
v 2.707888 3.029423 0.536399
v 2.800035 2.869002 0.656715
v 2.818092 4.167383 -0.434201
v 2.722599 4.087173 -0.352336
v 2.722599 4.087173 0.367384
v 2.818092 4.167383 0.449250
v 1.805631 4.167383 -0.641667
v 1.897778 4.087173 -0.521351
v 1.897778 3.029423 -0.521351
v 1.805631 2.869002 -0.641667
v 2.952024 4.167383 0.504726
v 2.831709 4.087173 0.412579
v 2.831709 4.087173 -0.397531
v 2.952024 4.167383 -0.489678
v 1.861109 4.167383 -0.507735
v 1.942974 4.087173 -0.412241
v 2.662694 4.087173 -0.412241
v 2.744559 4.167383 -0.507735
v 2.800035 4.167383 -0.641667
v 2.707888 4.087173 -0.521352
v 1.897778 4.087173 -0.521351
v 1.805631 4.167383 -0.641667
v 2.952024 2.869002 0.504726
v 2.831709 3.029423 0.412579
v 2.831709 4.087173 0.412579
v 2.952024 4.167383 0.504726
v 1.787575 4.167383 0.449250
v 1.883069 4.087173 0.367384
v 1.883069 4.087173 -0.352335
v 1.787575 4.167383 -0.434201
v 1.653642 2.869002 -0.489678
v 1.773958 3.029423 -0.397530
v 1.773958 4.087173 -0.397530
v 1.653642 4.167383 -0.489678
v 1.653642 4.167383 -0.489678
v 1.773958 4.087173 -0.397530
v 1.773958 4.087173 0.412579
v 1.653642 4.167383 0.504726
v 2.744559 4.167383 0.522783
v 2.662694 4.087173 0.427289
v 1.942974 4.087173 0.427289
v 1.861109 4.167383 0.522783
v 2.800035 2.869002 -0.641667
v 2.707888 3.029423 -0.521352
v 2.707888 4.087173 -0.521352
v 2.800035 4.167383 -0.641667
v 1.805632 4.167383 0.656715
v 1.897779 4.087173 0.536399
v 2.707888 4.087173 0.536399
v 2.800035 4.167383 0.656715
v -5.225039 3.420744 0.689991
v -5.225039 3.695475 0.689991
v -5.652770 3.695475 0.268986
v -5.652770 3.420744 0.268986
v -4.624892 3.420744 0.685236
v -4.624892 3.695475 0.685236
v -5.225039 3.695475 0.689991
v -5.225039 3.420744 0.689991
v -4.636374 3.420744 -0.763646
v -4.208644 3.420744 -0.342641
v -4.208644 3.390204 -0.342641
v -4.636374 3.390204 -0.763646
v -4.203889 3.420744 0.257505
v -4.203889 3.695475 0.257505
v -4.624892 3.695475 0.685236
v -4.624892 3.420744 0.685236
v -4.646869 3.059538 -0.157041
v -4.815007 3.059538 -0.322536
v -4.815007 3.028997 -0.322536
v -4.646869 3.028997 -0.157041
v -5.050920 3.059538 -0.320666
v -5.216414 3.059538 -0.152528
v -5.216414 3.028997 -0.152528
v -5.050920 3.028997 -0.320666
v -4.208644 3.420744 -0.342641
v -4.208644 3.695475 -0.342641
v -4.203889 3.695475 0.257505
v -4.203889 3.420744 0.257505
v -4.810493 3.059538 0.247011
v -4.645000 3.059538 0.078873
v -4.645000 3.028997 0.078873
v -4.810493 3.028997 0.247011
v -5.657525 3.420744 -0.331160
v -5.657525 3.695475 -0.331160
v -5.236520 3.695475 -0.758891
v -5.236520 3.420744 -0.758891
v -4.636374 3.695475 -0.763646
v -4.208644 3.695475 -0.342641
v -5.652770 3.420744 0.268986
v -5.657525 3.420744 -0.331160
v -5.657525 3.390204 -0.331160
v -5.652770 3.390204 0.268986
v -5.236520 3.420744 -0.758891
v -4.636374 3.420744 -0.763646
v -4.636374 3.390204 -0.763646
v -5.236520 3.390204 -0.758891
v -5.236520 3.420744 -0.758891
v -5.236520 3.695475 -0.758891
v -4.636374 3.695475 -0.763646
v -4.636374 3.420744 -0.763646
v -4.624892 3.420744 0.685236
v -5.225039 3.420744 0.689991
v -5.225039 3.390204 0.689991
v -4.624892 3.390204 0.685236
v -5.652770 3.695475 0.268986
v -5.657525 3.695475 -0.331160
v -4.815007 3.059538 -0.322536
v -5.050920 3.059538 -0.320666
v -5.050920 3.028997 -0.320666
v -4.815007 3.028997 -0.322536
v -4.810493 3.059538 0.247011
v -5.046407 3.059538 0.248881
v -5.005860 2.979894 0.148752
v -4.852622 2.979894 0.147538
v -4.645000 3.059538 0.078873
v -4.810493 3.059538 0.247011
v -4.852622 2.979894 0.147538
v -4.745128 2.979894 0.038325
v -5.050920 3.059538 -0.320666
v -4.815007 3.059538 -0.322536
v -4.855554 2.979894 -0.222407
v -5.008790 2.979894 -0.221193
v -5.046407 3.059538 0.248881
v -5.214545 3.059538 0.083386
v -5.115071 2.979894 0.041256
v -5.005860 2.979894 0.148752
v -4.646869 3.059538 -0.157041
v -4.645000 3.059538 0.078873
v -4.745128 2.979894 0.038325
v -4.746341 2.979894 -0.114911
v -4.815007 3.059538 -0.322536
v -4.646869 3.059538 -0.157041
v -4.746341 2.979894 -0.114911
v -4.855554 2.979894 -0.222407
v -5.214545 3.059538 0.083386
v -5.216414 3.059538 -0.152528
v -5.116286 2.979894 -0.111979
v -5.115071 2.979894 0.041256
v -5.216414 3.059538 -0.152528
v -5.050920 3.059538 -0.320666
v -5.008790 2.979894 -0.221193
v -5.116286 2.979894 -0.111979
v -4.666680 3.695475 0.586570
v -5.184821 3.695475 0.590676
v -5.225039 3.695475 0.689991
v -4.624892 3.695475 0.685236
v -4.676593 3.695475 -0.664331
v -4.307309 3.695475 -0.300854
v -4.208644 3.695475 -0.342641
v -4.636374 3.695475 -0.763646
v -4.303204 3.695475 0.217287
v -4.203889 3.695475 0.257505
v -5.194734 3.695475 -0.660225
v -5.236520 3.695475 -0.758891
v -5.554105 3.695475 0.227199
v -5.652770 3.695475 0.268986
v -5.558211 3.695475 -0.290941
v -5.657525 3.695475 -0.331160
v -5.558211 3.695475 -0.290941
v -5.554105 3.695475 0.227199
v -5.554105 3.516215 0.227199
v -5.558211 3.516215 -0.290941
v -4.307309 3.516215 -0.300854
v -4.676593 3.516215 -0.664331
v -4.676593 3.319091 -0.664331
v -4.307309 3.319091 -0.300854
v -4.303204 3.695475 0.217287
v -4.307309 3.695475 -0.300854
v -4.307309 3.516215 -0.300854
v -4.303204 3.516215 0.217287
v -4.666680 3.695475 0.586570
v -4.303204 3.695475 0.217287
v -4.303204 3.516215 0.217287
v -4.666680 3.516215 0.586570
v -5.184821 3.695475 0.590676
v -4.666680 3.695475 0.586570
v -4.666680 3.516215 0.586570
v -5.184821 3.516215 0.590676
v -5.194734 3.695475 -0.660225
v -5.558211 3.695475 -0.290941
v -5.558211 3.516215 -0.290941
v -5.194734 3.516215 -0.660225
v -5.554105 3.695475 0.227199
v -5.184821 3.695475 0.590676
v -5.184821 3.516215 0.590676
v -5.554105 3.516215 0.227199
v -4.676593 3.695475 -0.664331
v -5.194734 3.695475 -0.660225
v -5.194734 3.516215 -0.660225
v -4.676593 3.516215 -0.664331
v -4.307309 3.695475 -0.300854
v -4.676593 3.695475 -0.664331
v -4.676593 3.516215 -0.664331
v -4.307309 3.516215 -0.300854
v -5.554105 3.319091 0.227199
v -5.558211 3.319091 -0.290941
v -4.303204 3.516215 0.217287
v -4.307309 3.516215 -0.300854
v -4.307309 3.319091 -0.300854
v -4.303204 3.319091 0.217287
v -4.666680 3.516215 0.586570
v -4.303204 3.516215 0.217287
v -4.303204 3.319091 0.217287
v -4.666680 3.319091 0.586570
v -5.184821 3.516215 0.590676
v -4.666680 3.516215 0.586570
v -4.666680 3.319091 0.586570
v -5.184821 3.319091 0.590676
v -5.194734 3.516215 -0.660225
v -5.558211 3.516215 -0.290941
v -5.558211 3.319091 -0.290941
v -5.194734 3.319091 -0.660225
v -5.554105 3.516215 0.227199
v -5.184821 3.516215 0.590676
v -5.184821 3.319091 0.590676
v -5.554105 3.319091 0.227199
v -5.194734 3.319091 -0.660225
v -4.676593 3.319091 -0.664331
v -4.760798 3.319091 0.364345
v -5.094235 3.319091 0.366987
v -5.184821 3.319091 0.590676
v -4.666680 3.319091 0.586570
v -4.767179 3.319091 -0.440642
v -4.529534 3.319091 -0.206735
v -4.307309 3.319091 -0.300854
v -4.676593 3.319091 -0.664331
v -4.526893 3.319091 0.126702
v -4.303204 3.319091 0.217287
v -5.100614 3.319091 -0.438000
v -5.194734 3.319091 -0.660225
v -4.529534 3.319091 -0.206735
v -4.307309 3.319091 -0.300854
v -5.331880 3.319091 0.133080
v -5.554105 3.319091 0.227199
v -5.334521 3.319091 -0.200356
v -5.558211 3.319091 -0.290941
v 1.729915 3.463951 -0.155688
v 0.941863 3.811393 -0.230188
v 0.941863 4.053516 -0.230188
v 1.729915 3.655818 -0.155688
v -5.652770 3.390204 0.268986
v -5.657525 3.390204 -0.331160
v -5.216414 3.028997 -0.152528
v -5.214545 3.028997 0.083386
v -4.203889 3.390204 0.257505
v -4.624892 3.390204 0.685236
v -4.810493 3.028997 0.247011
v -4.645000 3.028997 0.078873
v -4.624892 3.390204 0.685236
v -5.225039 3.390204 0.689991
v -5.046407 3.028997 0.248881
v -4.810493 3.028997 0.247011
v -4.208644 3.390204 -0.342641
v -4.203889 3.390204 0.257505
v -4.645000 3.028997 0.078873
v -4.646869 3.028997 -0.157041
v -5.225039 3.390204 0.689991
v -5.652770 3.390204 0.268986
v -5.214545 3.028997 0.083386
v -5.046407 3.028997 0.248881
v -5.236520 3.390204 -0.758891
v -4.636374 3.390204 -0.763646
v -4.815007 3.028997 -0.322536
v -5.050920 3.028997 -0.320666
v -5.657525 3.390204 -0.331160
v -5.236520 3.390204 -0.758891
v -5.050920 3.028997 -0.320666
v -5.216414 3.028997 -0.152528
v -4.636374 3.390204 -0.763646
v -4.208644 3.390204 -0.342641
v -4.646869 3.028997 -0.157041
v -4.815007 3.028997 -0.322536
v -4.624892 3.390204 0.685236
v -4.203889 3.390204 0.257505
v -5.046407 3.059538 0.248881
v -4.810493 3.059538 0.247011
v -4.810493 3.028997 0.247011
v -5.046407 3.028997 0.248881
v -5.216414 3.059538 -0.152528
v -5.214545 3.059538 0.083386
v -5.214545 3.028997 0.083386
v -5.216414 3.028997 -0.152528
v -5.236520 3.390204 -0.758891
v -5.657525 3.390204 -0.331160
v -4.645000 3.059538 0.078873
v -4.646869 3.059538 -0.157041
v -4.646869 3.028997 -0.157041
v -4.645000 3.028997 0.078873
v -5.214545 3.059538 0.083386
v -5.046407 3.059538 0.248881
v -5.046407 3.028997 0.248881
v -5.214545 3.028997 0.083386
v -4.208644 3.420744 -0.342641
v -4.203889 3.420744 0.257505
v -4.203889 3.390204 0.257505
v -4.208644 3.390204 -0.342641
v -5.652770 3.390204 0.268986
v -5.225039 3.390204 0.689991
v 4.633331 0.440018 2.177688
v 4.633331 0.440018 1.674783
v 4.633331 0.942922 1.674783
v 4.633331 0.942922 2.177688
v -1.649084 3.888344 2.131928
v -0.408480 3.985554 2.019473
v -0.408480 3.985554 1.572891
v -1.649084 3.888344 1.456547
v 3.304047 0.947216 2.338075
v 4.082247 0.947216 2.338075
v 4.082247 1.450120 2.338075
v 3.304047 1.450120 2.338075
v -2.993070 0.947216 2.338075
v -2.993070 1.450120 2.338075
v -2.993070 0.947216 2.338075
v -3.771270 0.947216 2.338075
v 3.304047 0.947216 -0.046511
v 3.304047 0.947216 2.338075
v 3.304047 1.450120 2.338075
v 3.304047 1.450120 -0.046511
v -3.771270 1.450120 2.338075
v -2.993070 1.450120 2.338075
v 3.304047 1.450120 2.338075
v 4.082247 1.450120 2.338075
v -3.771270 0.947216 2.338075
v -3.771270 1.450120 2.338075
v 4.082247 0.947216 2.338075
v 3.304047 0.947216 2.338075
v -3.771270 0.947216 2.338075
v -2.993070 0.947216 2.338075
v -2.993070 1.450120 2.338075
v -3.771270 1.450120 2.338075
v 4.082247 0.947216 2.338075
v 4.082248 0.947216 -0.046511
v 4.082248 1.450120 -0.046511
v 4.082247 1.450120 2.338075
v 3.681508 1.147185 2.415773
v 2.974401 0.854292 2.415773
v 2.974401 0.854292 3.107203
v 3.681508 1.147185 3.107203
v 2.974401 0.854292 2.415773
v 2.681508 0.147185 2.415773
v 2.681508 0.147185 3.107203
v 2.974401 0.854292 3.107203
v 2.681508 0.147185 2.415773
v 2.974401 -0.559922 2.415773
v 2.974401 -0.559922 3.107203
v 2.681508 0.147185 3.107203
v 2.974401 -0.559922 2.415773
v 3.681508 -0.852815 2.415773
v 3.681508 -0.852815 3.107203
v 2.974401 -0.559922 3.107203
v 3.681508 -0.852815 2.415773
v 4.388615 -0.559922 2.415773
v 4.388615 -0.559922 3.107203
v 3.681508 -0.852815 3.107203
v 4.388615 -0.559922 2.415773
v 4.681508 0.147185 2.415773
v 4.681508 0.147185 3.107203
v 4.388615 -0.559922 3.107203
v 4.681508 0.147185 2.415773
v 4.388615 0.854292 2.415773
v 4.388615 0.854292 3.107203
v 4.681508 0.147185 3.107203
v 4.388615 0.854292 2.415773
v 3.681508 1.147185 2.415773
v 3.681508 1.147185 3.107203
v 4.388615 0.854292 3.107203
v -4.546287 0.440018 1.674783
v -4.546287 0.440018 2.177688
v -4.546287 0.942922 2.177688
v -4.546287 0.942922 1.674783
v -3.631012 1.346943 1.456547
v -3.631012 1.346943 2.131928
v -1.649084 3.888344 2.131928
v -1.649084 3.888344 1.456547
v -2.791572 0.879581 -2.479345
v -2.791572 0.879581 -3.170775
v -3.498678 1.172474 -3.170775
v -3.498678 1.172474 -2.479345
v -2.498678 0.172474 -2.479345
v -2.498678 0.172474 -3.170775
v -2.791572 0.879581 -3.170775
v -2.791572 0.879581 -2.479345
v -2.791572 -0.534632 -2.479345
v -2.791572 -0.534632 -3.170775
v -2.498678 0.172474 -3.170775
v -2.498678 0.172474 -2.479345
v -3.498678 -0.827526 -2.479345
v -3.498678 -0.827526 -3.170775
v -2.791572 -0.534632 -3.170775
v -2.791572 -0.534632 -2.479345
v -4.205785 -0.534632 -2.479345
v -4.205785 -0.534632 -3.170775
v -3.498678 -0.827526 -3.170775
v -3.498678 -0.827526 -2.479345
v -4.498677 0.172474 -2.479345
v -4.498677 0.172474 -3.170775
v -4.205785 -0.534632 -3.170775
v -4.205785 -0.534632 -2.479345
v -4.205785 0.879581 -2.479345
v -4.205785 0.879581 -3.170775
v -4.498677 0.172474 -3.170775
v -4.498677 0.172474 -2.479345
v -3.498678 1.172474 -2.479345
v -3.498678 1.172474 -3.170775
v -4.205785 0.879581 -3.170775
v -4.205785 0.879581 -2.479345
v -0.408480 3.985554 1.572891
v -0.408480 3.985554 2.019473
v 4.058955 1.441010 2.019473
v 4.058955 1.441010 1.572891
v 3.669120 1.168101 1.572891
v 3.669120 1.168101 2.019473
v -0.687637 3.372353 2.019473
v -0.687637 3.372353 1.572891
v -1.009037 3.369391 1.509680
v -1.009037 3.369391 2.067949
v -3.101643 1.346943 2.195906
v -3.101643 1.346943 1.403414
v -1.649084 3.888344 2.131928
v -1.285673 3.593689 2.067949
v -0.551117 3.672236 2.019473
v -0.408480 3.985554 2.019473
v -0.687637 3.372353 2.019473
v -1.009037 3.369391 2.067949
v -1.009037 3.369391 1.509680
v -0.687637 3.372353 1.572891
v -1.009037 3.369391 1.509680
v -1.400284 3.686616 1.509680
v -0.544180 3.687474 1.572891
v -0.687637 3.372353 1.572891
v -1.285673 3.593689 2.067949
v -1.009037 3.369391 2.067949
v -0.687637 3.372353 2.019473
v -0.551117 3.672236 2.019473
v -1.400284 3.686616 1.509680
v -1.649084 3.888344 1.456547
v -0.408480 3.985554 1.572891
v -0.544180 3.687474 1.572891
v -0.679585 3.677408 0.512057
v -0.679585 3.677408 -0.046511
v -0.749772 3.839049 -0.046511
v -0.749772 3.839049 0.512057
v -0.919217 3.448813 0.512057
v -0.749772 3.515767 0.512057
v -1.158849 3.677408 0.512057
v -1.158849 3.677408 -0.046511
v -1.088663 3.515767 -0.046511
v -1.088663 3.515767 0.512057
v -0.919217 3.906002 0.512057
v -0.919217 3.906002 -0.046511
v -1.088663 3.839049 -0.046511
v -1.088663 3.839049 0.512057
v -0.749772 3.839049 0.512057
v -0.919217 3.906002 0.512057
v -0.749772 3.515767 0.512057
v -0.749772 3.515767 -0.046511
v -0.679585 3.677408 -0.046511
v -0.679585 3.677408 0.512057
v -1.088663 3.515767 0.512057
v -1.088663 3.515767 -0.046511
v -0.919217 3.448813 -0.046511
v -0.919217 3.448813 0.512057
v -1.088663 3.839049 0.512057
v -1.088663 3.839049 -0.046511
v -1.158849 3.677408 -0.046511
v -1.158849 3.677408 0.512057
v -0.544835 4.384368 -0.308032
v 0.206708 4.281843 -0.261853
v 0.206708 4.039720 -0.261853
v -0.544835 4.142244 -0.308032
v -1.290791 4.415392 -0.322005
v -0.544835 4.384368 -0.308032
v -0.544835 4.142244 -0.308032
v -1.290791 4.173268 -0.322005
v -2.031898 4.384368 -0.308031
v -1.290791 4.415392 -0.322005
v -1.290791 4.173268 -0.322005
v -2.031898 4.142244 -0.308031
v -2.749894 4.282406 -0.298642
v -2.031898 4.384368 -0.308031
v -2.031898 4.142244 -0.308031
v -2.749907 4.040616 -0.298794
v -3.482940 4.055488 -0.268562
v -2.749894 4.282406 -0.298642
v -2.749907 4.040616 -0.298794
v -3.482976 3.814276 -0.268977
v -3.482976 3.814276 -0.268977
v -4.208644 3.433548 -0.205098
v -4.208644 3.675672 -0.205098
v -3.482940 4.055488 -0.268562
v 0.206708 4.281843 -0.261853
v 0.941863 4.053516 -0.230188
v 0.941863 3.811393 -0.230188
v 0.206708 4.039720 -0.261853
v 1.773958 4.087173 0.412579
v 1.773958 4.087173 -0.397530
v 1.773958 3.029423 -0.397530
v 1.773958 3.029423 0.412579
v 2.880141 2.869002 -0.561562
v 2.952024 2.869002 -0.489678
v 2.384565 2.869002 -0.641667
v 2.361507 2.869002 -0.041664
v 1.722659 2.869002 -0.558694
v 1.805631 2.869002 -0.641667
v 2.334667 2.869002 0.656715
v 1.805632 2.869002 0.656715
v 1.729757 2.869002 0.580841
v 2.800035 2.869002 0.656715
v 1.653642 2.869002 -0.030624
v 1.653642 2.869002 -0.489678
v 1.653642 2.869002 0.504726
v 2.384565 2.869002 -0.641667
v 2.800035 2.869002 -0.641667
v 1.773958 3.029423 0.004152
v 1.839080 3.029423 -0.462652
v 1.773958 3.029423 -0.397530
v 2.300451 3.029423 -0.521352
v 2.767093 3.029423 -0.462147
v 2.707888 3.029423 -0.521352
v 2.300814 3.029423 0.536399
v 1.847510 3.029423 0.486130
v 1.897779 3.029423 0.536399
v 1.897778 3.029423 -0.521351
v 2.707888 3.029423 0.536399
v 2.831709 3.029423 -0.397531
v 1.773958 3.029423 0.412579
v -1.029650 3.560008 -0.209616
v -0.805976 3.550705 -0.205426
v -0.805976 3.550705 -0.113351
v -1.029650 3.560008 -0.117542
v -0.544835 4.142244 -0.308032
v -0.544835 4.142244 -0.000962
v -0.805976 3.550705 -0.113351
v -0.805976 3.550705 -0.205426
v -0.544835 4.142244 -0.000962
v -1.290791 4.173268 -0.014936
v -1.029650 3.560008 -0.117542
v -0.805976 3.550705 -0.113351
v -1.290791 4.173268 -0.322005
v -0.544835 4.142244 -0.308032
v -0.805976 3.550705 -0.205426
v -1.029650 3.560008 -0.209616
v -3.466836 0.436640 3.303207
v -3.466836 0.436640 -3.345181
v -3.619494 0.382856 -3.345181
v -3.619494 0.382856 3.303207
v -3.619494 0.382856 3.303207
v -3.619494 0.382856 -3.345181
v -3.700721 0.246669 -3.345181
v -3.700721 0.246669 3.303207
v -3.700721 0.246669 3.303207
v -3.700721 0.246669 -3.345181
v -3.672512 0.091803 -3.345181
v -3.672512 0.091803 3.303207
v -3.672512 0.091803 3.303207
v -3.672512 0.091803 -3.345181
v -3.548064 -0.009279 -3.345181
v -3.548064 -0.009279 3.303207
v -3.548064 -0.009279 3.303207
v -3.548064 -0.009279 -3.345181
v -3.385610 -0.009279 -3.345181
v -3.385610 -0.009279 3.303207
v -3.385610 -0.009279 3.303207
v -3.385610 -0.009279 -3.345181
v -3.261162 0.091803 -3.345181
v -3.261162 0.091803 3.303207
v -3.261162 0.091803 3.303207
v -3.261162 0.091803 -3.345181
v -3.232952 0.246669 -3.345181
v -3.232952 0.246669 3.303207
v -3.232952 0.246669 3.303207
v -3.232952 0.246669 -3.345181
v -3.314179 0.382856 -3.345181
v -3.314179 0.382856 3.303207
v -3.314179 0.382856 3.303207
v -3.314179 0.382856 -3.345181
v -3.466836 0.436640 -3.345181
v -3.466836 0.436640 3.303207
v 3.679673 0.436640 3.303207
v 3.679673 0.436640 -3.345181
v 3.527015 0.382856 -3.345181
v 3.527015 0.382856 3.303207
v 3.527015 0.382856 3.303207
v 3.527015 0.382856 -3.345181
v 3.445788 0.246669 -3.345181
v 3.445788 0.246669 3.303207
v 3.445788 0.246669 3.303207
v 3.445788 0.246669 -3.345181
v 3.473998 0.091803 -3.345181
v 3.473998 0.091803 3.303207
v 3.473998 0.091803 3.303207
v 3.473998 0.091803 -3.345181
v 3.598445 -0.009279 -3.345181
v 3.598445 -0.009279 3.303207
v 3.598445 -0.009279 3.303207
v 3.598445 -0.009279 -3.345181
v 3.760899 -0.009279 -3.345181
v 3.760899 -0.009279 3.303207
v 3.760899 -0.009279 3.303207
v 3.760899 -0.009279 -3.345181
v 3.885347 0.091803 -3.345181
v 3.885347 0.091803 3.303207
v 3.885347 0.091803 3.303207
v 3.885347 0.091803 -3.345181
v 3.913557 0.246669 -3.345181
v 3.913557 0.246669 3.303207
v 3.913557 0.246669 3.303207
v 3.913557 0.246669 -3.345181
v 3.832330 0.382856 -3.345181
v 3.832330 0.382856 3.303207
v 3.832330 0.382856 3.303207
v 3.832330 0.382856 -3.345181
v 3.679673 0.436640 -3.345181
v 3.679673 0.436640 3.303207
v -4.546287 0.440018 -2.270710
v -4.093990 0.440018 -1.767806
v -4.546287 0.440018 -1.767806
v 4.633331 0.440018 -1.767806
v 4.633331 0.440018 -2.270710
v 4.633331 0.942922 -2.270710
v -4.093990 0.942922 -1.767806
v 4.633331 0.942922 -1.767806
v -4.546287 0.942922 -1.767806
v -4.546287 0.942922 -2.270710
v -3.101643 1.346943 -2.288929
v -1.285673 3.593689 -2.160971
v -1.009037 3.369391 -2.160971
v -1.649084 3.888344 -2.224950
v -3.631012 1.346943 -2.224950
v 4.388615 0.854292 -2.479345
v 4.388615 -0.559922 -2.479345
v 4.681508 0.147185 -2.479345
v 3.681508 1.147185 -2.479345
v 3.681508 -0.852815 -2.479345
v 2.974401 -0.559922 -2.479345
v 2.974401 0.854292 -2.479345
v 2.681508 0.147185 -2.479345
v -4.093990 0.440018 -2.270710
v 4.633331 0.942922 -2.270710
v 4.633331 0.440018 -2.270710
v -4.093990 0.942922 -2.270710
v -4.546287 0.440018 -2.270710
v -4.546287 0.942922 -2.270710
v -4.093990 0.942922 -1.767806
v 4.633331 0.440018 -1.767806
v 4.633331 0.942922 -1.767806
v -4.093990 0.440018 -1.767806
v -4.546287 0.942922 -1.767806
v -4.546287 0.440018 -1.767806
v -1.400284 3.686616 -1.602702
v -3.101643 1.346943 -1.496436
v -1.009037 3.369391 -1.602702
v -1.649084 3.888344 -1.549569
v -3.631012 1.346943 -1.549569
v -2.791571 -0.534632 2.415773
v -2.791571 0.879581 2.415773
v -2.498678 0.172474 2.415773
v -3.498678 -0.827526 2.415773
v -3.498678 1.172474 2.415773
v -4.205785 -0.534632 2.415773
v -4.205785 0.879581 2.415773
v -4.498677 0.172474 2.415773
v 3.669120 1.168101 -2.112495
v -0.408480 3.985554 -2.112495
v 4.058955 1.441010 -2.112495
v -0.551117 3.672236 -2.112495
v -0.687637 3.372353 -2.112495
v -0.408480 3.985554 -1.665913
v 3.669120 1.168101 -1.665913
v 4.058955 1.441010 -1.665913
v -0.687637 3.372353 -1.665913
v -0.544180 3.687474 -1.665913
v -0.679585 3.677407 -2.216730
v -0.749772 3.515766 -1.147942
v -0.749772 3.515766 -2.216730
v -0.749772 3.515767 -0.605079
v -0.679585 3.677407 -1.147942
v -0.679585 3.677408 -0.605079
v -0.919217 3.448813 -1.147942
v -0.749772 3.515767 -0.605079
v -0.919217 3.448813 -0.605079
v -0.749772 3.515766 -1.147942
v -0.919217 3.448813 -2.216730
v -0.749772 3.515766 -2.216730
v -1.088662 3.515766 -1.147942
v -0.919217 3.448813 -0.605079
v -1.088663 3.515767 -0.605079
v -0.919217 3.448813 -1.147942
v -1.088662 3.515766 -2.216730
v -0.919217 3.448813 -2.216730
v -1.158849 3.677408 -0.605079
v -1.158849 3.677407 -1.147942
v -1.088663 3.515767 -0.605079
v -1.088662 3.515766 -2.216730
v -1.088662 3.515766 -1.147942
v -1.158849 3.677407 -2.216730
v -1.088663 3.839049 -0.605079
v -1.088662 3.839048 -1.147942
v -1.158849 3.677408 -0.605079
v -1.158849 3.677407 -2.216730
v -1.158849 3.677407 -1.147942
v -1.088662 3.839048 -2.216730
v -0.919217 3.906002 -1.147942
v -1.088663 3.839049 -0.605079
v -0.919217 3.906002 -0.605079
v -1.088662 3.839048 -1.147942
v -0.919217 3.906002 -2.216730
v -1.088662 3.839048 -2.216730
v -0.749772 3.839048 -1.147942
v -0.919217 3.906002 -0.605079
v -0.749772 3.839049 -0.605079
v -0.919217 3.906002 -1.147942
v -0.749772 3.839048 -2.216730
v -0.919217 3.906002 -2.216730
v -0.749772 3.839048 -2.216730
v -0.679585 3.677407 -1.147942
v -0.679585 3.677407 -2.216730
v -0.679585 3.677408 -0.605079
v -0.749772 3.839048 -1.147942
v -0.749772 3.839049 -0.605079
v 2.831709 4.087173 -0.397531
v 2.767093 3.029423 -0.462147
v 2.831709 3.029423 -0.397531
v 2.707888 3.029423 -0.521352
v 2.707888 4.087173 -0.521352
v 2.880141 2.869002 -0.561562
v 2.952024 4.167383 -0.489678
v 2.952024 2.869002 -0.489678
v 2.800035 4.167383 -0.641667
v 2.800035 2.869002 -0.641667
v 2.952024 4.167383 0.504726
v 2.882343 2.869002 0.574407
v 2.952024 2.869002 0.504726
v 2.800035 2.869002 0.656715
v 2.800035 4.167383 0.656715
v 1.653642 4.167383 0.504726
v 1.805632 2.869002 0.656715
v 1.805632 4.167383 0.656715
v 1.729757 2.869002 0.580841
v 1.653642 2.869002 0.504726
v 1.653642 4.167383 -0.489678
v 1.722659 2.869002 -0.558694
v 1.653642 2.869002 -0.489678
v 1.805631 2.869002 -0.641667
v 1.805631 4.167383 -0.641667
v 2.707888 4.087173 0.536399
v 2.767382 3.029423 0.476906
v 2.707888 3.029423 0.536399
v 2.831709 3.029423 0.412579
v 2.831709 4.087173 0.412579
v 1.773958 4.087173 0.412579
v 1.847510 3.029423 0.486130
v 1.773958 3.029423 0.412579
v 1.897779 3.029423 0.536399
v 1.897779 4.087173 0.536399
v 1.897778 4.087173 -0.521351
v 1.839080 3.029423 -0.462652
v 1.897778 3.029423 -0.521351
v 1.773958 3.029423 -0.397530
v 1.773958 4.087173 -0.397530
v 2.707888 3.029423 0.536399
v 2.334667 2.869002 0.656715
v 2.800035 2.869002 0.656715
v 2.300814 3.029423 0.536399
v 1.805632 2.869002 0.656715
v 1.897779 3.029423 0.536399
v 1.773958 3.029423 0.412579
v 1.653642 2.869002 -0.030624
v 1.653642 2.869002 0.504726
v 1.653642 2.869002 -0.489678
v 1.773958 3.029423 -0.397530
v 1.773958 3.029423 0.004152
v 2.384565 2.869002 -0.641667
v 2.707888 3.029423 -0.521352
v 2.800035 2.869002 -0.641667
v 2.300451 3.029423 -0.521352
v 1.805631 2.869002 -0.641667
v 1.897778 3.029423 -0.521351
v 2.831709 3.029423 -0.397531
v 2.952024 2.869002 -0.050874
v 2.952024 2.869002 -0.489678
v 2.952024 2.869002 0.504726
v 2.831709 3.029423 0.412579
v 2.831709 3.029423 -0.012585
v -4.760798 3.319091 0.364345
v -5.331880 3.319091 0.133080
v -5.094235 3.319091 0.366987
v -4.526893 3.319091 0.126702
v -5.334521 3.319091 -0.200356
v -4.529534 3.319091 -0.206735
v -5.100614 3.319091 -0.438000
v -4.767179 3.319091 -0.440642
v -4.546287 0.440018 1.674783
v -4.093990 0.440018 2.177688
v -4.546287 0.440018 2.177688
v 4.633331 0.440018 2.177688
v 4.633331 0.440018 1.674783
v 4.633331 0.942922 1.674783
v -4.093990 0.942922 2.177688
v 4.633331 0.942922 2.177688
v -4.546287 0.942922 2.177688
v -4.546287 0.942922 1.674783
v -1.285673 3.593689 2.067949
v -3.101643 1.346943 2.195906
v -1.009037 3.369391 2.067949
v -1.649084 3.888344 2.131928
v -3.631012 1.346943 2.131928
v 4.388615 -0.559922 2.415773
v 4.388615 0.854292 2.415773
v 4.681508 0.147185 2.415773
v 3.681508 -0.852815 2.415773
v 3.681508 1.147185 2.415773
v 2.974401 -0.559922 2.415773
v 2.974401 0.854292 2.415773
v 2.681508 0.147185 2.415773
v -4.093990 0.942922 2.177688
v 4.633331 0.440018 2.177688
v 4.633331 0.942922 2.177688
v -4.093990 0.440018 2.177688
v -4.546287 0.942922 2.177688
v -4.546287 0.440018 2.177688
v -4.093990 0.440018 1.674783
v 4.633331 0.942922 1.674783
v 4.633331 0.440018 1.674783
v -4.093990 0.942922 1.674783
v -4.546287 0.440018 1.674783
v -4.546287 0.942922 1.674783
v -3.101643 1.346943 1.403414
v -1.400284 3.686616 1.509680
v -1.009037 3.369391 1.509680
v -1.649084 3.888344 1.456547
v -3.631012 1.346943 1.456547
v -2.791572 0.879581 -2.479345
v -2.791572 -0.534632 -2.479345
v -2.498678 0.172474 -2.479345
v -3.498678 1.172474 -2.479345
v -3.498678 -0.827526 -2.479345
v -4.205785 0.879581 -2.479345
v -4.205785 -0.534632 -2.479345
v -4.498677 0.172474 -2.479345
v -0.408480 3.985554 2.019473
v 3.669120 1.168101 2.019473
v 4.058955 1.441010 2.019473
v -0.551117 3.672236 2.019473
v -0.687637 3.372353 2.019473
v 3.669120 1.168101 1.572891
v -0.408480 3.985554 1.572891
v 4.058955 1.441010 1.572891
v -0.687637 3.372353 1.572891
v -0.544180 3.687474 1.572891
v -0.679585 3.677408 0.512057
v -0.679585 3.677407 1.054919
v -0.749772 3.515767 0.512057
v -0.749772 3.515766 2.123707
v -0.749772 3.515766 1.054919
v -0.679585 3.677407 2.123707
v -0.919217 3.448813 1.054919
v -0.749772 3.515766 2.123707
v -0.919217 3.448813 2.123707
v -0.749772 3.515766 1.054919
v -0.919217 3.448813 0.512057
v -0.749772 3.515767 0.512057
v -1.088662 3.515766 1.054919
v -0.919217 3.448813 2.123707
v -1.088662 3.515766 2.123707
v -0.919217 3.448813 1.054919
v -1.088663 3.515767 0.512057
v -0.919217 3.448813 0.512057
v -1.158849 3.677407 2.123707
v -1.088662 3.515766 1.054919
v -1.088662 3.515766 2.123707
v -1.088663 3.515767 0.512057
v -1.158849 3.677407 1.054919
v -1.158849 3.677408 0.512057
v -1.088662 3.839048 2.123707
v -1.158849 3.677407 1.054919
v -1.158849 3.677407 2.123707
v -1.158849 3.677408 0.512057
v -1.088662 3.839048 1.054919
v -1.088663 3.839049 0.512057
v -0.919217 3.906002 1.054919
v -1.088662 3.839048 2.123707
v -0.919217 3.906002 2.123707
v -1.088662 3.839048 1.054919
v -0.919217 3.906002 0.512057
v -1.088663 3.839049 0.512057
v -0.749772 3.839048 1.054919
v -0.919217 3.906002 2.123707
v -0.749772 3.839048 2.123707
v -0.919217 3.906002 1.054919
v -0.749772 3.839049 0.512057
v -0.919217 3.906002 0.512057
v -0.749772 3.839049 0.512057
v -0.749772 3.839048 1.054919
v -0.679585 3.677408 0.512057
v -0.679585 3.677407 2.123707
v -0.679585 3.677407 1.054919
v -0.749772 3.839048 2.123707
vn -0.0000 -0.0000 1.0000
vn -0.0000 -0.0000 -1.0000
vn -0.0000 -1.0000 -0.0000
vn 1.0000 -0.0000 -0.0000
vn -0.0781 0.9969 -0.0000
vn -1.0000 -0.0000 -0.0000
vn -0.0000 1.0000 -0.0000
vn -0.3827 0.9239 -0.0000
vn -0.9239 0.3827 -0.0000
vn -0.9239 -0.3827 -0.0000
vn -0.3827 -0.9239 -0.0000
vn 0.3827 -0.9239 -0.0000
vn 0.9239 -0.3827 -0.0000
vn 0.9239 0.3827 -0.0000
vn 0.3827 0.9239 -0.0000
vn -0.7886 0.6150 -0.0000
vn 0.4949 0.8689 -0.0000
vn -0.4514 -0.8923 -0.0000
vn 0.6950 -0.7191 -0.0000
vn 0.0874 -0.0728 -0.9935
vn 0.0092 -1.0000 -0.0000
vn 0.1065 0.0418 0.9934
vn 0.1066 0.0417 0.9934
vn 0.1065 0.0417 0.9934
vn 0.0896 0.0240 -0.9957
vn 0.0896 0.0239 -0.9957
vn 0.0890 -0.0854 0.9924
vn 0.0890 -0.0853 0.9924
vn 0.9173 0.3983 -0.0000
vn 0.3675 -0.9300 -0.0000
vn -0.9173 -0.3983 -0.0000
vn -0.3675 0.9300 -0.0000
vn 0.3675 0.9300 -0.0000
vn 0.9173 -0.3983 -0.0000
vn -0.3675 -0.9300 -0.0000
vn -0.9173 0.3983 -0.0000
vn -0.4711 0.8819 -0.0153
vn -0.4065 -0.9118 0.0580
vn -0.4066 -0.9118 0.0582
vn 0.0910 -0.0000 0.9958
vn -0.0253 0.0009 0.9997
vn -0.0252 0.0009 0.9997
vn -0.0252 0.0010 0.9997
vn -0.0365 0.0014 0.9993
vn -0.0366 0.0013 0.9993
vn -0.0369 0.0008 0.9993
vn -0.0368 0.0009 0.9993
vn -0.0607 0.0006 0.9982
vn -0.0609 0.0003 0.9981
vn -0.0610 -0.0000 0.9981
vn -0.0187 -0.0000 0.9998
vn 0.0189 -0.0000 0.9998
vn 0.0111 -0.0000 0.9999
vn 0.0424 -0.0000 0.9991
vn 0.4715 -0.8818 0.0139
vn 0.4715 -0.8818 0.0140
vn 0.2974 -0.9545 0.0209
vn 0.1381 -0.9904 0.0050
vn 0.1381 -0.9904 0.0051
vn 0.0418 -0.9991 -0.0000
vn -0.9201 -0.3918 -0.0000
vn -0.1347 -0.9909 0.0004
vn -0.1349 -0.9909 0.0009
vn -0.1351 -0.9908 0.0014
vn -0.1347 -0.9909 0.0006
vn 0.4539 0.8886 -0.0659
vn 0.4540 0.8886 -0.0658
vn 0.4539 0.8886 -0.0658
vn 0.2895 0.9569 -0.0235
vn 0.1347 0.9909 -0.0014
vn 0.1346 0.9909 -0.0015
vn 0.1347 0.9909 -0.0015
vn 0.0416 0.9991 -0.0000
vn -0.0418 0.9991 -0.0000
vn -0.1383 0.9904 -0.0057
vn -0.1383 0.9904 -0.0056
vn -0.2979 0.9543 -0.0229
vn -0.2978 0.9543 -0.0228
vn -0.2978 0.9543 -0.0229
vn -0.6080 -0.0000 -0.7939
vn -0.3810 0.8424 0.3810
vn -0.3810 0.8424 -0.3810
vn 0.6080 -0.0000 0.7939
vn 0.7939 -0.0000 0.6080
vn 0.3810 0.8424 -0.3810
vn 0.3810 0.8424 0.3810
vn -0.7939 -0.0000 0.6080
vn -0.6432 0.7657 -0.0000
vn 0.7939 -0.0000 -0.6080
vn 0.5547 -0.8321 -0.0000
vn -0.0000 0.7657 0.6432
vn -0.0000 -0.8321 -0.5547
vn 0.6080 -0.0000 -0.7939
vn 0.6432 0.7657 -0.0000
vn -0.6080 -0.0000 0.7939
vn -0.5547 -0.8321 -0.0000
vn -0.0000 0.7657 -0.6432
vn -0.7939 -0.0000 -0.6080
vn -0.0000 -0.8321 0.5547
vn -0.7015 -0.0000 0.7127
vn 0.0079 -0.0000 1.0000
vn 0.7015 -0.0000 -0.7127
vn 0.7127 -0.0000 0.7015
vn 1.0000 -0.0000 -0.0079
vn -0.7127 -0.0000 -0.7015
vn -1.0000 -0.0000 0.0079
vn -0.0079 -0.0000 -1.0000
vn 0.0049 -0.7816 0.6237
vn 0.4445 -0.7816 0.4375
vn -0.0049 -0.7816 -0.6237
vn -0.4375 -0.7816 0.4445
vn -0.4376 -0.7816 0.4445
vn 0.6237 -0.7816 -0.0049
vn 0.4375 -0.7816 -0.4445
vn -0.6237 -0.7816 0.0049
vn -0.4445 -0.7816 -0.4375
vn 0.0941 -0.0000 -0.9956
vn -0.6348 -0.7727 0.0050
vn 0.4524 -0.7727 0.4453
vn 0.0050 -0.7727 0.6348
vn 0.6348 -0.7727 -0.0050
vn -0.4453 -0.7727 0.4524
vn -0.0050 -0.7727 -0.6348
vn -0.4524 -0.7727 -0.4453
vn 0.4453 -0.7727 -0.4524
vn 0.0874 -0.0728 0.9935
vn 0.1065 0.0418 -0.9934
vn 0.1065 0.0417 -0.9934
vn 0.1066 0.0417 -0.9934
vn 0.0896 0.0240 0.9957
vn 0.0896 0.0239 0.9957
vn 0.0890 -0.0854 -0.9924
vn 0.0890 -0.0853 -0.9924
vn 0.0613 -0.0000 -0.9981
vn 0.0187 -0.0000 -0.9998
vn -0.0189 -0.0000 -0.9998
vn -0.0131 -0.0000 -0.9999
vn -0.0130 0.0002 -0.9999
vn -0.0130 0.0003 -0.9999
vn -0.0412 0.0015 -0.9992
vn -0.0412 0.0012 -0.9992
vn -0.0412 0.0017 -0.9992
vn -0.0878 0.0006 -0.9961
vn -0.0878 0.0008 -0.9961
vn -0.0879 0.0009 -0.9961
vn 0.0430 -0.0000 -0.9991
vn -0.0416 -0.9991 -0.0000
vn 0.9148 -0.4039 -0.0000
vn -0.0257 -0.1756 0.9841
vn 0.0111 -0.1757 -0.9844
vn -0.3323 0.9432 -0.0000
vn -0.8588 0.5122 -0.0000
vn -0.9838 -0.1792 -0.0000
vn -0.6305 -0.7762 -0.0000
vn 0.6305 -0.7762 -0.0000
vn 0.9838 -0.1792 -0.0000
vn 0.8588 0.5122 -0.0000
vn 0.3323 0.9432 -0.0000
vn 0.0127 0.0249 -0.9996
vn 0.0128 0.0248 -0.9996
vn 0.0120 0.0222 0.9997
vn 0.0119 0.0223 0.9997
vn 0.0120 0.0223 0.9997
vn -0.7180 0.3268 0.6145
vn -0.5512 0.2509 -0.7958
vn -0.9100 0.4145 -0.0000
vn -0.9172 -0.3984 -0.0000
vn -0.7071 -0.0000 0.7071
vn 0.7071 -0.0000 -0.7071
vn 0.7071 -0.0000 0.7071
vn -0.7071 -0.0000 -0.7071
vn -0.0000 0.6000 0.8000
vn -0.8000 0.6000 -0.0000
vn -0.0000 0.6000 -0.8000
vn 0.8000 0.6000 -0.0000
vn 0.8000 0.5999 -0.0000
vn 0.0128 0.0248 0.9996
vn 0.0127 0.0249 0.9996
vn 0.0118 0.0223 -0.9997
vn 0.0120 0.0222 -0.9997
vn 0.0119 0.0222 -0.9997
vn 0.6368 -0.4623 -0.6171
vn 0.4111 0.0289 0.9111
vn 0.9053 -0.4122 0.1030
vn 0.9173 -0.3982 -0.0000
vn 0.9172 0.3984 -0.0000
vt 0.092377 0.134184
vt 0.051260 0.134184
vt 0.080334 0.105111
vt 0.339693 0.106509
vt 0.310211 0.094297
vt 0.310211 0.135991
vt 0.280728 0.106509
vt 0.268516 0.135991
vt 0.280728 0.165474
vt 0.310211 0.177686
vt 0.339693 0.165474
vt 0.351905 0.135991
vt 0.080334 0.163258
vt 0.051260 0.175301
vt 0.022187 0.163258
vt 0.010144 0.134184
vt 0.022187 0.105111
vt 0.051260 0.093068
vt 0.603896 0.265934
vt 0.532100 0.236195
vt 0.532100 0.337730
vt 0.460304 0.265934
vt 0.430566 0.337730
vt 0.460304 0.409526
vt 0.532100 0.439265
vt 0.603896 0.409526
vt 0.633635 0.337730
vt 0.090312 0.389988
vt 0.154007 0.416371
vt 0.090313 0.480065
vt 0.180389 0.480065
vt 0.154007 0.543759
vt 0.090312 0.570142
vt 0.026618 0.543759
vt 0.000236 0.480065
vt 0.026618 0.416371
vt 0.092458 0.134309
vt 0.080404 0.105207
vt 0.051302 0.134309
vt 0.339777 0.105906
vt 0.310470 0.135213
vt 0.310470 0.093767
vt 0.281164 0.105906
vt 0.269025 0.135213
vt 0.281164 0.164519
vt 0.310470 0.176658
vt 0.339777 0.164519
vt 0.351916 0.135213
vt 0.080404 0.163411
vt 0.051302 0.175465
vt 0.022200 0.163411
vt 0.010146 0.134309
vt 0.022200 0.105207
vt 0.051302 0.093153
vt 0.100123 0.330199
vt 0.109024 0.304795
vt 0.139472 0.329725
vt 0.109041 0.304812
vt 0.100138 0.330220
vt 0.139494 0.329746
vt 0.109634 0.355381
vt 0.133106 0.368558
vt 0.159557 0.363565
vt 0.176610 0.342737
vt 0.176286 0.315821
vt 0.158736 0.295411
vt 0.132172 0.291056
vt 0.109651 0.355407
vt 0.133127 0.368586
vt 0.159582 0.363592
vt 0.176638 0.342761
vt 0.176314 0.315840
vt 0.158761 0.295426
vt 0.132193 0.291071
vt 0.216087 0.489421
vt 0.216087 0.571279
vt 0.297945 0.571279
vt 0.297945 0.489421
vt 0.422481 0.612051
vt 0.422481 0.715261
vt 0.319271 0.818471
vt 0.723666 0.750632
vt 0.827938 0.750632
vt 0.827938 0.646360
vt 0.723666 0.646360
vt 0.827938 0.594224
vt 0.723666 0.594224
vt 0.619394 0.542088
vt 0.671530 0.542088
vt 0.671530 0.437817
vt 0.619394 0.437816
vt 0.723666 0.385681
vt 0.827938 0.385681
vt 0.827938 0.333545
vt 0.723666 0.333545
vt 0.880074 0.542088
vt 0.932210 0.542088
vt 0.932210 0.437816
vt 0.880074 0.437817
vt 0.880074 0.437816
vt 0.671530 0.437816
vt 0.353643 0.092559
vt 0.353643 0.005696
vt 0.331927 0.005696
vt 0.331927 0.092559
vt 0.310211 0.005696
vt 0.310211 0.092559
vt 0.288495 0.005696
vt 0.288495 0.092559
vt 0.266779 0.005696
vt 0.266779 0.092559
vt 0.245063 0.005696
vt 0.245063 0.092559
vt 0.223347 0.005696
vt 0.223347 0.092559
vt 0.201631 0.005696
vt 0.201631 0.092559
vt 0.179915 0.005696
vt 0.179915 0.092559
vt 0.379803 0.489421
vt 0.379803 0.571279
vt 0.461661 0.571279
vt 0.461661 0.489421
vt 0.319271 0.715261
vt 0.319271 0.612051
vt 0.029846 0.091355
vt 0.008431 0.091355
vt 0.008431 0.005696
vt 0.029846 0.005696
vt 0.051260 0.091355
vt 0.051260 0.005696
vt 0.072675 0.091355
vt 0.072675 0.005696
vt 0.094090 0.091355
vt 0.094090 0.005696
vt 0.115505 0.091355
vt 0.115505 0.005696
vt 0.136919 0.091355
vt 0.136919 0.005696
vt 0.158334 0.091355
vt 0.158334 0.005696
vt 0.179749 0.091355
vt 0.179749 0.005696
vt 0.216061 0.818471
vt 0.319271 0.921681
vt 0.422481 0.767997
vt 0.422481 0.670652
vt 0.369442 0.768300
vt 0.382361 0.755381
vt 0.422481 0.818471
vt 0.532100 0.231965
vt 0.479218 0.231965
vt 0.637866 0.231965
vt 0.584983 0.231965
vt 0.743631 0.231965
vt 0.690749 0.231965
vt 0.849397 0.231965
vt 0.796514 0.231965
vt 0.426335 0.231965
vt 0.346139 0.210911
vt 0.345953 0.202602
vt 0.279477 0.204090
vt 0.279663 0.212400
vt 0.213002 0.205579
vt 0.213188 0.213889
vt 0.156324 0.273357
vt 0.154836 0.206882
vt 0.146526 0.207068
vt 0.148015 0.273543
vt 0.214490 0.272054
vt 0.204692 0.205765
vt 0.206181 0.272241
vt 0.196383 0.205951
vt 0.197872 0.272427
vt 0.188074 0.206137
vt 0.189562 0.272613
vt 0.179764 0.206323
vt 0.181253 0.272799
vt 0.171455 0.206509
vt 0.172943 0.272985
vt 0.163145 0.206696
vt 0.164634 0.273171
vt 0.280966 0.270566
vt 0.280780 0.262257
vt 0.214304 0.263745
vt 0.280594 0.253947
vt 0.214118 0.255436
vt 0.280408 0.245638
vt 0.213932 0.247126
vt 0.280222 0.237328
vt 0.213746 0.238817
vt 0.280036 0.229019
vt 0.279849 0.220709
vt 0.213374 0.222198
vt 0.213560 0.230507
vt 0.347441 0.269077
vt 0.347255 0.260768
vt 0.347069 0.252458
vt 0.346883 0.244149
vt 0.346697 0.235839
vt 0.346511 0.227530
vt 0.346325 0.219221
vt 0.654411 0.981673
vt 0.659871 0.976212
vt 0.611592 0.935396
vt 0.610871 0.981673
vt 0.575068 0.692683
vt 0.580831 0.686921
vt 0.576483 0.676425
vt 0.564572 0.688336
vt 0.650063 0.686921
vt 0.655826 0.692683
vt 0.666322 0.688336
vt 0.654411 0.676425
vt 0.655826 0.761916
vt 0.650063 0.767678
vt 0.654411 0.778174
vt 0.666322 0.766263
vt 0.580831 0.767678
vt 0.575068 0.761916
vt 0.564572 0.766263
vt 0.576483 0.778174
vt 0.613513 0.981673
vt 0.614321 0.930586
vt 0.660599 0.975485
vt 0.575068 0.692683
vt 0.564572 0.688336
vt 0.580831 0.686921
vt 0.655826 0.692683
vt 0.654411 0.879924
vt 0.462823 0.778174
vt 0.462823 0.778174
vt 0.462823 0.879923
vt 0.678232 0.879924
vt 0.678232 0.778174
vt 0.756160 0.778174
vt 0.756160 0.778174
vt 0.756160 0.879924
vt 0.552661 0.778174
vt 0.552661 0.778174
vt 0.552661 0.879924
vt 0.779982 0.879924
vt 0.779982 0.778174
vt 0.576483 0.879924
vt 0.576483 0.879924
vt 0.474734 0.879923
vt 0.474734 0.778174
vt 0.474734 0.778174
vt 0.199477 0.851281
vt 0.011818 0.850851
vt 0.011710 0.897766
vt 0.199370 0.898196
vt 0.199585 0.804366
vt 0.011925 0.803936
vt 0.199907 0.663621
vt 0.199800 0.710536
vt 0.199692 0.757451
vt 0.012032 0.757022
vt 0.199155 0.992026
vt 0.199263 0.945111
vt 0.012140 0.710107
vt 0.011603 0.944681
vt 0.011495 0.991596
vt 0.012247 0.663192
vt 0.200014 0.616706
vt 0.012355 0.616277
vt 0.090312 0.557833
vt 0.035322 0.535055
vt 0.145303 0.425074
vt 0.168081 0.480065
vt 0.145303 0.535055
vt 0.090312 0.402296
vt 0.012544 0.480065
vt 0.035322 0.425074
vt 0.090312 0.530111
vt 0.054925 0.515453
vt 0.125700 0.444677
vt 0.140359 0.480065
vt 0.125700 0.515453
vt 0.090312 0.430018
vt 0.040266 0.480065
vt 0.054925 0.444677
vt 0.216087 0.489263
vt 0.298103 0.489263
vt 0.298103 0.571279
vt 0.423363 0.610286
vt 0.423363 0.714379
vt 0.353643 0.092041
vt 0.332056 0.092041
vt 0.332056 0.005696
vt 0.310470 0.092041
vt 0.310470 0.005696
vt 0.288884 0.092041
vt 0.288884 0.005696
vt 0.267298 0.092041
vt 0.267298 0.005696
vt 0.245711 0.092041
vt 0.245711 0.005696
vt 0.224125 0.092041
vt 0.224125 0.005696
vt 0.202539 0.092041
vt 0.202539 0.005696
vt 0.180953 0.092041
vt 0.180953 0.005696
vt 0.380120 0.489263
vt 0.462137 0.489263
vt 0.462137 0.571279
vt 0.380120 0.571279
vt 0.319271 0.714379
vt 0.319271 0.610286
vt 0.029866 0.091438
vt 0.029866 0.005696
vt 0.008431 0.091438
vt 0.051302 0.091438
vt 0.051302 0.005696
vt 0.072737 0.091438
vt 0.072737 0.005696
vt 0.094173 0.091438
vt 0.094173 0.005696
vt 0.115608 0.091438
vt 0.115608 0.005696
vt 0.137044 0.091438
vt 0.137044 0.005696
vt 0.158479 0.091438
vt 0.158479 0.005696
vt 0.179915 0.091438
vt 0.215179 0.818471
vt 0.319271 0.922563
vt 0.423363 0.669389
vt 0.423363 0.767565
vt 0.382900 0.754841
vt 0.369871 0.767871
vt 0.423363 0.818471
vt 0.349674 0.368791
vt 0.570850 0.976040
vt 0.576483 0.981673
vt 0.564572 0.937203
vt 0.571074 0.885332
vt 0.564572 0.891834
vt 0.666322 0.933293
vt 0.666322 0.891834
vt 0.660376 0.885888
vt 0.666322 0.969762
vt 0.612457 0.879924
vt 0.564572 0.969762
vt 0.615123 0.879924
vt 0.570219 0.886188
vt 0.564572 0.930569
vt 0.570267 0.975457
vt 0.666322 0.930604
vt 0.661486 0.886999
vt 0.097002 0.207254
vt 0.015026 0.208241
vt 0.015245 0.226459
vt 0.097222 0.225471
vt 0.015465 0.244676
vt 0.097441 0.243688
vt 0.015684 0.262893
vt 0.097661 0.261905
vt 0.015903 0.281110
vt 0.097880 0.280122
vt 0.016123 0.299327
vt 0.098100 0.298339
vt 0.016342 0.317544
vt 0.098319 0.316556
vt 0.016562 0.335761
vt 0.098539 0.334773
vt 0.016781 0.353978
vt 0.098758 0.352990
vt 0.017001 0.372195
vt 0.098978 0.371207
vt 0.097017 0.207254
vt 0.015245 0.226462
vt 0.097236 0.225474
vt 0.015465 0.244682
vt 0.097456 0.243694
vt 0.015684 0.262902
vt 0.097675 0.261914
vt 0.015904 0.281122
vt 0.097895 0.280135
vt 0.016123 0.299343
vt 0.098114 0.298355
vt 0.016343 0.317563
vt 0.098334 0.316575
vt 0.016562 0.335783
vt 0.098553 0.334795
vt 0.016782 0.354003
vt 0.098773 0.353016
vt 0.017001 0.372224
vt 0.098992 0.371236
vt 0.216087 0.366634
vt 0.422481 0.759870
vt 0.280728 0.106509
vt 0.280728 0.165474
vt 0.319271 0.755381
vt 0.216061 0.715261
vt 0.319271 0.768300
vt 0.532100 0.020434
vt 0.426335 0.443495
vt 0.584983 0.020434
vt 0.637866 0.020434
vt 0.690749 0.020434
vt 0.743631 0.020434
vt 0.796514 0.020434
vt 0.849397 0.020434
vt 0.479218 0.020434
vt 0.426335 0.020434
vt 0.469039 0.879923
vt 0.468456 0.879923
vt 0.769061 0.879924
vt 0.666340 0.879924
vt 0.565666 0.879924
vt 0.767606 0.879924
vt 0.668561 0.879924
vt 0.563954 0.879924
vt 0.216087 0.366238
vt 0.423363 0.759369
vt 0.319271 0.754841
vt 0.215179 0.714379
vt 0.319271 0.767871
s 0
g off
g Object_4_Material.002
usemtl Material.002
f 1/1/1 2/2/1 3/3/1
f 4/4/2 5/5/2 6/6/2
f 5/5/2 7/7/2 6/6/2
f 7/7/2 8/8/2 6/6/2
f 8/8/2 9/9/2 6/6/2
f 9/9/2 10/10/2 6/6/2
f 10/10/2 11/11/2 6/6/2
f 11/11/2 12/12/2 6/6/2
f 12/12/2 4/4/2 6/6/2
f 13/13/1 2/2/1 1/1/1
f 14/14/1 2/2/1 13/13/1
f 15/15/1 2/2/1 14/14/1
f 16/16/1 2/2/1 15/15/1
f 17/17/1 2/2/1 16/16/1
f 18/18/1 2/2/1 17/17/1
f 3/3/1 2/2/1 18/18/1
f 19/19/2 20/20/2 21/21/2
f 22/20/2 23/22/2 24/21/2
f 25/22/2 26/23/2 27/21/2
f 28/23/2 29/24/2 30/21/2
f 31/24/2 32/25/2 33/21/2
f 34/25/2 35/26/2 36/21/2
f 37/26/2 38/27/2 39/21/2
f 40/27/2 41/19/2 42/21/2
f 43/28/3 44/29/3 45/30/3
f 46/29/3 47/31/3 48/30/3
f 49/31/3 50/32/3 51/30/3
f 52/32/3 53/33/3 54/30/3
f 55/33/3 56/34/3 57/30/3
f 58/34/3 59/35/3 60/30/3
f 61/35/3 62/36/3 63/30/3
f 64/36/3 65/28/3 66/30/3
f 67/37/2 68/38/2 69/39/2
f 70/40/1 71/41/1 72/42/1
f 72/42/1 71/41/1 73/43/1
f 73/43/1 71/41/1 74/44/1
f 74/44/1 71/41/1 75/45/1
f 75/45/1 71/41/1 76/46/1
f 76/46/1 71/41/1 77/47/1
f 77/47/1 71/41/1 78/48/1
f 78/48/1 71/41/1 70/40/1
f 79/49/2 67/37/2 69/39/2
f 80/50/2 79/49/2 69/39/2
f 81/51/2 80/50/2 69/39/2
f 82/52/2 81/51/2 69/39/2
f 83/53/2 82/52/2 69/39/2
f 84/54/2 83/53/2 69/39/2
f 68/38/2 84/54/2 69/39/2
f 85/19/1 86/21/1 87/20/1
f 87/20/1 86/21/1 88/22/1
f 88/22/1 86/21/1 89/23/1
f 89/23/1 86/21/1 90/24/1
f 90/24/1 86/21/1 91/25/1
f 91/25/1 86/21/1 92/26/1
f 92/26/1 86/21/1 93/27/1
f 93/27/1 86/21/1 85/19/1
f 94/55/1 95/56/1 96/57/1
f 97/58/2 98/59/2 99/60/2
f 100/59/1 101/58/1 102/60/1
f 103/56/2 104/55/2 105/57/2
f 106/55/2 107/61/2 108/57/2
f 109/61/2 110/62/2 111/57/2
f 112/62/2 113/63/2 114/57/2
f 115/63/2 116/64/2 117/57/2
f 118/64/2 119/65/2 120/57/2
f 121/65/2 122/66/2 123/57/2
f 124/66/2 125/67/2 126/57/2
f 127/67/2 128/56/2 129/57/2
f 130/56/1 131/67/1 132/57/1
f 133/67/1 134/66/1 135/57/1
f 136/66/1 137/65/1 138/57/1
f 139/65/1 140/64/1 141/57/1
f 142/64/1 143/63/1 144/57/1
f 145/63/1 146/62/1 147/57/1
f 148/62/1 149/61/1 150/57/1
f 151/61/1 152/55/1 153/57/1
f 154/59/2 155/68/2 156/60/2
f 157/68/2 158/69/2 159/60/2
f 160/69/2 161/70/2 162/60/2
f 163/70/2 164/71/2 165/60/2
f 166/71/2 167/72/2 168/60/2
f 169/72/2 170/73/2 171/60/2
f 172/73/2 173/74/2 174/60/2
f 175/74/2 176/58/2 177/60/2
f 101/58/1 178/74/1 102/60/1
f 179/74/1 180/73/1 102/60/1
f 180/73/1 181/72/1 102/60/1
f 181/72/1 182/71/1 102/60/1
f 182/71/1 183/70/1 102/60/1
f 183/70/1 184/69/1 102/60/1
f 184/69/1 185/68/1 102/60/1
f 185/68/1 100/59/1 102/60/1
f 186/75/4 187/76/4 188/77/4
f 186/75/4 188/77/4 189/78/4
f 190/79/5 191/80/5 192/81/5
f 190/79/5 192/81/5 193/80/5
f 194/82/2 195/83/2 196/84/2
f 194/82/2 196/84/2 197/85/2
f 198/85/4 199/84/4 200/86/4
f 198/85/4 200/86/4 201/87/4
f 202/88/3 203/89/3 204/90/3
f 202/88/3 204/90/3 205/91/3
f 206/92/6 207/93/6 208/94/6
f 206/92/6 208/94/6 209/95/6
f 210/96/7 211/97/7 212/98/7
f 210/96/7 212/98/7 213/99/7
f 214/96/7 215/97/7 216/98/7
f 214/96/7 216/98/7 217/100/7
f 218/92/6 219/93/6 220/94/6
f 218/92/6 220/94/6 221/95/6
f 222/88/3 223/89/3 224/101/3
f 222/88/3 224/101/3 225/91/3
f 226/82/2 227/83/2 228/84/2
f 226/82/2 228/84/2 229/85/2
f 230/85/4 231/84/4 232/86/4
f 230/85/4 232/86/4 233/87/4
f 234/102/8 235/103/8 236/104/8
f 234/102/8 236/104/8 237/105/8
f 238/105/9 239/104/9 240/106/9
f 238/105/9 240/106/9 241/107/9
f 242/107/10 243/106/10 244/108/10
f 242/107/10 244/108/10 245/109/10
f 246/109/11 247/108/11 248/110/11
f 246/109/11 248/110/11 249/111/11
f 250/111/12 251/110/12 252/112/12
f 250/111/12 252/112/12 253/113/12
f 254/113/13 255/112/13 256/114/13
f 254/113/13 256/114/13 257/115/13
f 258/115/14 259/114/14 260/116/14
f 258/115/14 260/116/14 261/117/14
f 262/117/15 263/116/15 264/118/15
f 262/117/15 264/118/15 265/119/15
f 266/120/6 267/121/6 268/122/6
f 266/120/6 268/122/6 269/123/6
f 270/124/16 271/80/16 272/79/16
f 270/124/16 272/79/16 273/125/16
f 274/126/15 275/127/15 276/128/15
f 274/126/15 276/128/15 277/129/15
f 278/130/14 279/126/14 280/129/14
f 278/130/14 280/129/14 281/131/14
f 282/132/13 283/130/13 284/131/13
f 282/132/13 284/131/13 285/133/13
f 286/134/12 287/132/12 288/133/12
f 286/134/12 288/133/12 289/135/12
f 290/136/11 291/134/11 292/135/11
f 290/136/11 292/135/11 293/137/11
f 294/138/10 295/136/10 296/137/10
f 294/138/10 296/137/10 297/139/10
f 298/140/9 299/138/9 300/139/9
f 298/140/9 300/139/9 301/141/9
f 302/142/8 303/140/8 304/141/8
f 302/142/8 304/141/8 305/143/8
f 306/81/17 307/144/17 308/124/17
f 306/81/17 308/124/17 309/80/17
f 310/124/18 311/80/18 312/79/18
f 310/124/18 312/79/18 313/125/18
f 314/81/19 315/145/19 316/124/19
f 314/81/19 316/124/19 317/80/19
s 159
f 318/79/20 319/80/20 320/146/20
f 318/79/20 320/146/20 321/147/20
s 0
f 322/79/21 323/80/21 324/81/21
f 322/79/21 324/81/21 325/80/21
s 162
f 326/81/22 327/80/23 328/148/24
f 326/81/22 328/148/24 329/149/22
s 163
f 330/147/25 331/146/26 332/150/26
f 330/147/25 332/150/26 333/80/25
s 164
f 334/149/27 335/148/28 336/81/28
f 334/149/27 336/81/28 337/80/27
s 0
f 338/151/29 339/152/29 340/152/29
f 338/151/29 340/152/29 341/151/29
f 342/153/30 343/154/30 344/154/30
f 342/153/30 344/154/30 345/153/30
f 346/155/31 347/156/31 348/156/31
f 346/155/31 348/156/31 349/155/31
f 350/157/32 351/158/32 352/158/32
f 350/157/32 352/158/32 353/157/32
f 354/152/33 355/159/33 356/159/33
f 354/152/33 356/159/33 357/152/33
f 358/154/34 359/151/34 360/151/34
f 358/154/34 360/151/34 361/154/34
f 362/156/35 363/153/35 364/153/35
f 362/156/35 364/153/35 365/156/35
f 366/158/36 367/155/36 368/155/36
f 366/158/36 368/155/36 369/158/36
s 181
f 370/160/37 371/161/37 372/162/37
f 370/160/37 372/162/37 373/163/37
s 182
f 374/163/38 375/162/39 376/164/39
f 374/163/38 376/164/39 377/165/39
s 0
f 378/166/40 379/167/40 380/168/40
f 378/166/40 380/168/40 381/169/40
s 185
f 382/170/41 383/164/42 384/171/43
f 382/170/41 384/171/43 385/172/42
s 186
f 386/172/44 387/171/45 388/173/46
f 386/172/44 388/173/46 389/174/47
s 0
f 390/174/48 391/173/49 392/175/49
f 390/174/50 392/175/50 393/176/50
f 394/176/51 395/175/51 396/177/51
f 394/176/51 396/177/51 397/178/51
f 398/178/52 399/177/52 400/179/52
f 398/178/52 400/179/52 401/180/52
f 402/180/53 403/179/53 404/181/53
f 402/180/53 404/181/53 405/182/53
f 406/182/54 407/181/54 408/167/54
f 406/182/54 408/167/54 409/166/54
s 197
f 410/183/55 411/184/56 412/185/55
f 410/183/55 412/185/55 413/170/55
s 198
f 414/184/57 415/186/57 416/187/57
f 414/184/57 416/187/57 417/185/57
s 199
f 418/186/58 419/188/59 420/189/59
f 418/186/58 420/189/59 421/187/59
s 0
f 422/188/60 423/190/60 424/191/60
f 422/188/60 424/191/60 425/189/60
f 426/191/61 427/190/61 428/190/61
f 426/191/61 428/190/61 429/191/61
s 204
f 430/192/62 431/193/63 432/194/64
f 430/192/62 432/194/64 433/195/65
s 205
f 434/196/66 435/197/66 436/184/67
f 434/196/66 436/184/67 437/183/68
s 206
f 438/197/69 439/198/69 440/186/69
f 438/197/69 440/186/69 441/184/69
s 207
f 442/198/70 443/199/70 444/188/71
f 442/198/70 444/188/71 445/186/72
s 0
f 446/199/73 447/200/73 448/190/73
f 446/199/73 448/190/73 449/188/73
f 450/200/74 451/201/74 452/192/74
f 450/200/74 452/192/74 453/190/74
s 212
f 454/201/75 455/202/76 456/193/76
f 454/201/75 456/193/76 457/192/76
s 213
f 458/202/77 459/160/78 460/163/79
f 458/202/77 460/163/79 461/193/79
s 0
f 462/203/3 463/204/3 464/205/3
f 462/203/3 464/205/3 465/206/3
f 466/207/7 467/208/7 468/209/7
f 466/207/7 468/209/7 469/210/7
f 470/211/7 471/212/7 472/213/7
f 470/211/7 472/213/7 473/214/7
f 474/215/7 475/216/7 476/217/7
f 474/215/7 476/217/7 477/218/7
f 478/219/7 479/220/7 480/221/7
f 478/219/7 480/221/7 481/222/7
f 482/208/7 470/211/7 473/214/7
f 482/208/7 473/214/7 483/209/7
f 479/220/7 484/207/7 485/210/7
f 479/220/7 485/210/7 480/221/7
f 475/216/7 478/219/7 481/222/7
f 475/216/7 481/222/7 476/217/7
f 471/212/7 474/215/7 477/218/7
f 471/212/7 477/218/7 472/213/7
f 486/203/7 487/223/7 488/224/7
f 486/203/7 488/224/7 489/225/7
f 490/226/3 491/227/3 492/209/3
f 490/226/3 492/209/3 493/228/3
f 494/211/3 495/214/3 496/213/3
f 494/211/3 496/213/3 497/229/3
f 498/215/3 499/218/3 500/217/3
f 498/215/3 500/217/3 501/216/3
f 502/219/3 503/222/3 504/221/3
f 502/219/3 504/221/3 505/220/3
f 493/228/3 492/209/3 495/214/3
f 493/228/3 495/214/3 494/211/3
f 505/220/3 504/221/3 491/227/3
f 505/220/3 491/227/3 490/226/3
f 501/216/3 500/217/3 503/222/3
f 501/216/3 503/222/3 502/219/3
f 497/229/3 496/213/3 499/218/3
f 497/229/3 499/218/3 498/215/3
s 250
f 506/217/80 507/217/80 508/230/80
s 0
f 506/217/80 508/230/80 509/230/80
f 510/207/81 511/226/81 512/228/81
f 510/207/81 512/228/81 513/208/81
f 514/211/82 515/211/82 516/229/82
f 514/211/82 516/229/82 517/212/82
f 518/231/83 519/232/83 520/233/83
f 518/231/83 520/233/83 521/233/83
f 522/234/84 523/234/84 524/235/84
f 522/234/84 524/235/84 525/235/84
f 526/215/85 527/215/85 528/216/85
f 526/215/85 528/216/85 529/216/85
f 530/219/86 531/219/86 532/220/86
f 530/219/86 532/220/86 533/220/86
f 534/236/87 535/237/87 536/238/87
f 534/236/87 536/238/87 537/238/87
f 538/208/88 539/228/88 540/211/88
f 538/208/88 540/211/88 541/211/88
f 542/239/89 543/240/89 544/241/89
f 542/239/89 544/241/89 545/241/89
f 546/214/90 547/214/90 548/209/90
f 546/214/90 548/209/90 549/209/90
f 550/220/91 551/220/91 552/226/91
f 550/220/91 552/226/91 553/207/91
f 554/210/92 555/227/92 556/221/92
f 554/210/92 556/221/92 557/221/92
f 558/242/93 559/242/93 560/243/93
f 558/242/93 560/243/93 561/243/93
f 562/216/94 563/216/94 564/219/94
f 562/216/94 564/219/94 565/219/94
f 566/244/95 567/245/95 568/222/95
f 566/244/95 568/222/95 569/222/95
f 570/222/96 571/222/96 572/217/96
f 570/222/96 572/217/96 573/217/96
f 574/212/97 575/229/97 576/215/97
f 574/212/97 576/215/97 577/215/97
f 578/246/98 579/246/98 580/247/98
f 578/246/98 580/247/98 581/248/98
f 582/218/99 583/218/99 584/213/99
f 582/218/99 584/213/99 585/213/99
f 586/249/100 587/250/100 588/251/100
f 586/249/100 588/251/100 589/252/100
f 590/253/101 591/254/101 592/250/101
f 590/253/101 592/250/101 593/249/101
f 594/255/102 595/256/102 596/256/102
f 594/255/102 596/256/102 597/255/102
f 598/257/103 599/258/103 600/254/103
f 598/257/103 600/254/103 601/253/103
f 602/256/100 603/255/100 604/255/100
s 299
f 602/256/100 604/255/100 605/256/100
s 0
f 606/259/103 607/260/103 608/260/103
f 606/259/103 608/260/103 609/259/103
f 610/256/104 611/261/104 612/258/104
f 610/256/104 612/258/104 613/257/104
f 614/253/105 615/257/105 616/257/105
f 614/253/105 616/257/105 617/253/105
f 618/260/105 619/262/105 620/263/105
f 618/260/105 620/263/105 621/259/105
f 594/255/102 622/264/102 623/261/102
f 594/255/102 623/261/102 595/256/102
f 624/252/106 625/260/106 626/260/106
f 624/252/106 626/260/106 627/252/106
f 628/265/107 629/255/107 630/255/107
f 628/265/107 630/255/107 631/265/107
f 632/265/107 633/266/107 634/264/107
f 632/265/107 634/264/107 635/255/107
f 636/253/101 637/249/101 638/249/101
f 636/253/101 638/249/101 639/253/101
f 624/252/106 640/251/106 641/262/106
f 624/252/106 641/262/106 625/260/106
f 642/255/101 643/265/101 644/265/101
f 642/255/101 644/265/101 645/255/101
f 646/253/108 647/249/108 648/249/108
f 646/253/108 648/249/108 649/253/108
f 650/257/109 651/253/109 652/253/109
f 650/257/109 652/253/109 653/257/109
f 654/265/110 655/255/110 656/255/110
f 654/265/110 656/255/110 657/265/110
f 658/249/111 659/252/111 660/252/111
f 658/249/112 660/252/112 661/249/112
f 662/256/113 663/257/113 664/257/113
f 662/256/113 664/257/113 665/256/113
f 666/255/114 667/256/114 668/256/114
f 666/255/114 668/256/114 669/255/114
f 670/252/115 671/260/115 672/260/115
f 670/252/115 672/260/115 673/252/115
f 674/260/116 675/259/116 676/259/116
f 674/260/116 676/259/116 677/260/116
f 678/267/7 679/268/7 680/34/7
f 678/267/7 680/34/7 681/33/7
f 682/269/7 683/270/7 684/31/7
f 682/269/7 684/31/7 685/29/7
f 686/271/7 678/267/7 681/33/7
f 686/271/7 681/33/7 687/32/7
f 688/272/7 682/269/7 685/29/7
f 688/272/7 685/29/7 689/28/7
f 683/270/7 686/271/7 687/32/7
f 683/270/7 687/32/7 684/31/7
f 679/268/7 690/273/7 691/35/7
f 679/268/7 691/35/7 680/34/7
f 690/273/7 692/274/7 693/36/7
f 690/273/7 693/36/7 691/35/7
f 692/274/7 688/272/7 689/28/7
f 692/274/7 689/28/7 693/36/7
f 694/274/104 695/273/104 696/273/104
f 694/274/104 696/273/104 697/274/104
f 698/270/100 699/269/100 700/269/100
f 698/270/100 700/269/100 701/270/100
f 702/271/106 703/270/106 704/270/106
f 702/271/106 704/270/106 705/271/106
f 706/267/105 707/271/105 708/271/105
f 706/267/105 708/271/105 709/267/105
f 710/268/107 711/267/107 712/267/107
f 710/268/107 712/267/107 713/268/107
f 714/272/103 715/274/103 716/274/103
f 714/272/103 716/274/103 717/272/103
f 718/273/102 719/268/102 720/268/102
f 718/273/102 720/268/102 721/273/102
f 722/269/101 723/272/101 724/272/101
f 722/269/101 724/272/101 725/269/101
f 726/270/100 727/269/100 728/269/100
f 726/270/100 728/269/100 729/270/100
f 697/274/104 696/273/104 730/273/104
f 697/274/104 730/273/104 731/274/104
f 732/271/106 733/270/106 734/270/106
f 732/271/106 734/270/106 735/271/106
f 736/267/105 737/271/105 738/271/105
f 736/267/105 738/271/105 739/267/105
f 740/268/107 741/267/107 742/267/107
f 740/268/107 742/267/107 743/268/107
f 744/272/103 745/274/103 746/274/103
f 744/272/103 746/274/103 747/272/103
f 748/273/102 749/268/102 750/268/102
f 748/273/102 750/268/102 751/273/102
f 725/269/101 724/272/101 752/272/101
f 725/269/101 752/272/101 753/269/101
f 754/275/7 755/276/7 756/268/7
f 754/275/7 756/268/7 757/267/7
f 758/277/7 759/278/7 760/270/7
f 758/277/7 760/270/7 761/269/7
f 762/279/7 754/275/7 757/267/7
f 762/279/7 757/267/7 763/271/7
f 764/280/7 758/277/7 761/269/7
f 764/280/7 761/269/7 765/272/7
f 766/278/7 762/279/7 763/271/7
f 766/278/7 763/271/7 767/270/7
f 755/276/7 768/281/7 769/273/7
f 755/276/7 769/273/7 756/268/7
f 768/281/7 770/282/7 771/274/7
f 768/281/7 771/274/7 769/273/7
f 770/282/7 764/280/7 765/272/7
f 770/282/7 765/272/7 771/274/7
f 772/162/117 773/163/117 774/197/117
f 772/162/117 774/197/117 775/196/117
f 776/252/118 777/260/118 778/260/118
f 776/252/118 778/260/118 779/252/118
f 780/257/119 781/253/119 782/253/119
f 780/257/119 782/253/119 783/257/119
f 784/253/120 785/249/120 786/249/120
f 784/253/120 786/249/120 787/253/120
f 788/256/121 789/257/121 790/257/121
f 788/256/121 790/257/121 791/256/121
f 792/249/122 793/252/122 794/252/122
f 792/249/122 794/252/122 795/249/122
f 796/265/123 797/255/123 798/255/123
f 796/265/123 798/255/123 799/265/123
f 800/260/124 801/259/124 802/259/124
f 800/260/124 802/259/124 803/260/124
f 804/255/125 805/256/125 806/256/125
f 804/255/125 806/256/125 807/255/125
f 598/257/103 601/253/103 808/253/103
f 598/257/103 808/253/103 809/257/103
f 810/249/107 811/253/107 812/253/107
f 810/249/107 812/253/107 813/249/107
f 814/260/104 815/252/104 816/252/104
f 814/260/104 816/252/104 817/260/104
f 618/260/105 621/259/105 818/259/105
f 618/260/105 818/259/105 819/260/105
f 820/257/106 821/256/106 822/256/106
f 820/257/106 822/256/106 823/257/106
s 430
f 824/252/102 825/249/102 826/249/102
s 0
f 824/252/102 826/249/102 827/252/102
f 828/256/104 829/257/104 830/257/104
f 828/256/104 830/257/104 831/256/104
f 586/249/100 589/252/100 832/252/100
f 586/249/100 832/252/100 833/249/100
f 834/283/4 835/284/4 836/285/4
f 834/283/4 836/285/4 837/76/4
f 838/286/5 839/287/5 840/81/5
f 838/286/5 840/81/5 841/287/5
f 842/82/1 843/85/1 844/84/1
f 842/82/1 844/84/1 845/83/1
f 846/85/4 201/87/4 200/86/4
f 846/85/4 200/86/4 847/84/4
f 848/88/3 849/91/3 204/90/3
f 848/88/3 204/90/3 203/89/3
f 850/92/6 851/95/6 852/94/6
f 850/92/6 852/94/6 853/93/6
f 210/96/7 213/99/7 854/98/7
f 210/96/7 854/98/7 855/97/7
f 214/96/7 217/100/7 856/98/7
f 214/96/7 856/98/7 857/97/7
f 218/92/6 858/95/6 859/94/6
f 218/92/6 859/94/6 219/93/6
f 860/88/3 861/91/3 224/101/3
f 860/88/3 224/101/3 223/89/3
f 862/82/1 863/85/1 864/84/1
f 862/82/1 864/84/1 865/83/1
f 866/85/4 867/87/4 868/86/4
f 866/85/4 868/86/4 869/84/4
f 870/288/8 871/289/8 872/290/8
f 870/288/8 872/290/8 873/103/8
f 874/289/9 875/291/9 876/292/9
f 874/289/9 876/292/9 877/290/9
f 878/291/10 879/293/10 880/294/10
f 878/291/10 880/294/10 881/292/10
f 882/293/11 883/295/11 884/296/11
f 882/293/11 884/296/11 885/294/11
f 886/295/12 887/297/12 888/298/12
f 886/295/12 888/298/12 889/296/12
f 890/297/13 891/299/13 892/300/13
f 890/297/13 892/300/13 893/298/13
f 894/299/14 895/301/14 896/302/14
f 894/299/14 896/302/14 897/300/14
f 898/301/15 899/303/15 900/304/15
f 898/301/15 900/304/15 901/302/15
f 902/305/6 903/306/6 904/307/6
f 902/305/6 904/307/6 905/308/6
f 906/309/16 907/310/16 908/286/16
f 906/309/16 908/286/16 909/287/16
f 910/311/15 911/312/15 912/128/15
f 910/311/15 912/128/15 913/313/15
f 914/314/14 915/315/14 916/312/14
f 914/314/14 916/312/14 917/311/14
f 918/316/13 919/317/13 920/315/13
f 918/316/13 920/315/13 921/314/13
f 922/318/12 923/319/12 924/317/12
f 922/318/12 924/317/12 925/316/12
f 926/320/11 927/321/11 928/319/11
f 926/320/11 928/319/11 929/318/11
f 930/322/10 931/323/10 932/321/10
f 930/322/10 932/321/10 933/320/10
f 934/324/9 935/325/9 936/323/9
f 934/324/9 936/323/9 937/322/9
f 938/326/8 939/118/8 940/325/8
f 938/326/8 940/325/8 941/324/8
f 942/81/17 943/287/17 944/309/17
f 942/81/17 944/309/17 945/327/17
f 946/309/18 947/310/18 948/286/18
f 946/309/18 948/286/18 949/287/18
f 950/81/19 951/287/19 952/309/19
f 950/81/19 952/309/19 953/328/19
s 502
f 954/286/126 955/329/126 956/330/126
f 954/286/126 956/330/126 957/287/126
s 0
f 958/286/21 959/287/21 960/81/21
f 958/286/21 960/81/21 961/287/21
s 505
f 962/81/127 963/331/127 964/332/128
f 962/81/127 964/332/128 965/287/129
s 506
f 966/329/130 967/287/130 968/333/131
f 966/329/130 968/333/131 969/330/131
s 507
f 970/331/132 971/287/132 972/81/133
f 970/331/132 972/81/133 973/332/133
s 0
f 974/151/29 975/151/29 976/152/29
f 974/151/29 976/152/29 977/152/29
f 978/153/30 345/153/30 344/154/30
f 978/153/30 344/154/30 979/154/30
f 980/155/31 981/155/31 982/156/31
f 980/155/31 982/156/31 983/156/31
f 984/157/32 985/157/32 986/158/32
f 984/157/32 986/158/32 987/158/32
f 988/152/33 357/152/33 356/159/33
f 988/152/33 356/159/33 989/159/33
f 990/154/34 991/154/34 992/151/34
f 990/154/34 992/151/34 993/151/34
f 994/156/35 995/156/35 996/153/35
f 994/156/35 996/153/35 997/153/35
f 998/158/36 999/158/36 1000/155/36
f 998/158/36 1000/155/36 1001/155/36
f 1002/199/134 1003/198/134 1004/193/134
f 1002/199/134 1004/193/134 1005/192/134
f 1006/200/135 1007/199/135 1008/192/135
f 1006/200/135 1008/192/135 1009/190/135
f 1010/201/136 1011/200/136 1012/190/136
f 1010/201/136 1012/190/136 1013/188/136
f 1014/202/137 1015/201/137 1016/188/137
f 1014/202/138 1016/188/139 1017/186/138
s 532
f 1018/160/140 1019/202/141 1020/186/141
f 1018/160/140 1020/186/141 1021/184/142
s 533
f 1022/184/143 1023/334/144 1024/161/144
f 1022/184/143 1024/161/144 1025/160/145
s 0
f 1026/198/146 1027/197/146 1028/163/146
f 1026/198/146 1028/163/146 1029/193/146
f 1030/217/6 1031/222/6 1032/245/6
f 1030/217/6 1032/245/6 1033/230/6
f 465/206/3 464/205/3 1034/335/3
f 465/206/3 1034/335/3 1035/336/3
f 1036/337/3 1037/205/3 1038/338/3
f 1036/337/3 1038/338/3 1039/339/3
f 464/205/3 1040/340/3 1041/341/3
f 464/205/3 1041/341/3 1042/342/3
f 464/205/3 463/204/3 1043/343/3
f 464/205/3 1043/343/3 1040/340/3
f 1038/338/3 464/205/3 1044/344/3
f 1038/338/3 1044/344/3 1045/244/3
f 1042/342/3 1046/230/3 1044/344/3
f 1042/342/3 1044/344/3 464/205/3
f 1034/335/3 464/205/3 1047/337/3
f 1034/335/3 1047/337/3 1048/345/3
f 1049/346/7 488/224/7 1050/347/7
f 1049/346/7 1050/347/7 1051/245/7
f 1052/348/7 488/224/7 1053/349/7
f 1052/348/7 1053/349/7 1054/345/7
f 1055/350/7 488/224/7 1056/351/7
f 1055/350/7 1056/351/7 1057/341/7
f 1050/347/7 488/224/7 1052/348/7
f 1050/347/7 1052/348/7 1058/339/7
f 489/225/7 488/224/7 1055/350/7
f 489/225/7 1055/350/7 1059/343/7
f 1053/349/7 488/224/7 487/223/7
f 1053/349/7 487/223/7 1060/336/7
f 1056/351/7 488/224/7 1049/346/7
f 1056/351/7 1049/346/7 1061/230/7
f 1062/190/147 1063/192/147 1064/195/147
f 1062/190/147 1064/195/147 1065/191/147
f 1066/192/148 1067/195/148 1068/195/148
f 1066/192/148 1068/195/148 1069/192/148
f 1070/176/149 1071/178/149 1072/178/149
f 1070/176/149 1072/178/149 1073/176/149
f 1074/190/150 1075/192/150 1076/192/150
f 1074/190/150 1076/192/150 1077/190/150
f 1078/352/151 1079/353/151 1080/354/151
f 1078/352/151 1080/354/151 1081/355/151
f 1082/355/152 1083/354/152 1084/356/152
f 1082/355/152 1084/356/152 1085/357/152
f 1086/357/153 1087/356/153 1088/358/153
f 1086/357/153 1088/358/153 1089/359/153
f 1090/359/154 1091/358/154 1092/360/154
f 1090/359/154 1092/360/154 1093/361/154
f 1094/361/3 1095/360/3 1096/362/3
f 1094/361/3 1096/362/3 1097/363/3
f 1098/363/155 1099/362/155 1100/364/155
f 1098/363/155 1100/364/155 1101/365/155
f 1102/365/156 1103/364/156 1104/366/156
f 1102/365/156 1104/366/156 1105/367/156
f 1106/367/157 1107/366/157 1108/368/157
f 1106/367/157 1108/368/157 1109/369/157
f 1110/369/158 1111/368/158 1112/370/158
f 1110/369/158 1112/370/158 1113/371/158
f 1114/372/151 1115/353/151 1116/373/151
f 1114/372/151 1116/373/151 1117/374/151
f 1118/374/152 1119/373/152 1120/375/152
f 1118/374/152 1120/375/152 1121/376/152
f 1122/376/153 1123/375/153 1124/377/153
f 1122/376/153 1124/377/153 1125/378/153
f 1126/378/154 1127/377/154 1128/379/154
f 1126/378/154 1128/379/154 1129/380/154
f 1130/380/3 1131/379/3 1132/381/3
f 1130/380/3 1132/381/3 1133/382/3
f 1134/382/155 1135/381/155 1136/383/155
f 1134/382/155 1136/383/155 1137/384/155
f 1138/384/156 1139/383/156 1140/385/156
f 1138/384/156 1140/385/156 1141/386/156
f 1142/386/157 1143/385/157 1144/387/157
s 607
f 1142/386/157 1144/387/157 1145/388/157
s 0
f 1146/388/158 1147/387/158 1148/389/158
f 1146/388/158 1148/389/158 1149/390/158
f 1150/123/3 1151/391/3 1152/120/3
f 1151/391/3 1150/123/3 1153/78/3
f 1153/78/3 1150/123/3 1154/75/3
f 1155/76/7 1156/391/7 1157/77/7
f 1156/391/7 1155/76/7 1158/121/7
f 1158/121/7 1155/76/7 1159/122/7
s 616
f 1160/124/159 1161/392/160 1162/80/160
f 1161/392/160 1160/124/159 1163/150/160
f 1163/150/160 1160/124/159 1164/81/159
s 0
f 1165/393/1 1166/394/1 1167/8/1
f 1166/394/1 1165/393/1 1168/5/1
f 1166/394/1 1168/5/1 1169/10/1
f 1169/10/1 1168/5/1 1170/11/1
f 1170/11/1 1168/5/1 1171/4/1
f 1170/11/1 1171/4/1 1172/12/1
f 1173/391/2 1174/76/2 1175/75/2
f 1174/76/2 1173/391/2 1176/391/2
f 1176/391/2 1173/391/2 1177/123/2
f 1176/391/2 1177/123/2 1178/122/2
f 1179/391/1 1180/78/1 1181/77/1
f 1180/78/1 1179/391/1 1182/391/1
f 1182/391/1 1179/391/1 1183/121/1
f 1182/391/1 1183/121/1 1184/120/1
s 631
f 1185/395/161 1186/144/162 1187/81/163
f 1186/144/162 1185/395/161 1188/124/161
f 1186/144/162 1188/124/161 1189/396/162
s 0
f 1190/15/2 1191/17/2 1192/16/2
f 1191/17/2 1190/15/2 1193/14/2
f 1191/17/2 1193/14/2 1194/18/2
f 1194/18/2 1193/14/2 1195/13/2
f 1194/18/2 1195/13/2 1196/3/2
f 1196/3/2 1195/13/2 1197/1/2
f 1198/81/2 1199/80/2 1200/124/2
f 1199/80/2 1198/81/2 1201/146/2
f 1201/146/2 1198/81/2 1202/150/2
f 1203/81/1 1204/396/1 1205/144/1
f 1204/396/1 1203/81/1 1206/124/1
s 643
f 1206/124/164 1203/81/165 1207/397/166
s 0
f 1208/398/34 1209/399/34 1210/400/34
f 1209/399/34 1208/398/34 1211/154/34
f 1211/154/34 1208/398/34 1212/399/34
f 1211/154/34 1212/399/34 1213/151/34
f 1214/399/30 1215/154/30 1216/153/30
f 1215/154/30 1214/399/30 1217/399/30
f 1217/399/30 1214/399/30 1218/401/30
f 1217/399/30 1218/401/30 1219/400/30
f 1220/399/35 1221/153/35 1222/156/35
f 1221/153/35 1220/399/35 1223/399/35
f 1223/399/35 1220/399/35 1224/402/35
f 1223/399/35 1224/402/35 1225/401/35
f 1226/155/31 1227/399/31 1228/156/31
s 657
f 1228/156/167 1229/402/167 1230/399/167
s 0
f 1229/402/31 1228/156/31 1231/403/31
f 1231/403/31 1228/156/31 1227/399/31
f 1232/158/36 1233/399/36 1234/155/36
s 661
f 1234/155/34 1235/403/34 1236/399/34
s 0
f 1235/403/36 1234/155/36 1237/404/36
f 1237/404/36 1234/155/36 1233/399/36
f 1238/399/32 1239/158/32 1240/157/32
f 1239/158/32 1238/399/32 1241/399/32
f 1241/399/32 1238/399/32 1242/405/32
f 1241/399/32 1242/405/32 1243/404/32
f 1244/399/33 1245/157/33 1246/152/33
f 1245/157/33 1244/399/33 1247/399/33
f 1247/399/33 1244/399/33 1248/406/33
f 1247/399/33 1248/406/33 1249/407/33
f 1250/406/29 1251/399/29 1252/398/29
f 1251/399/29 1250/406/29 1253/151/29
f 1253/151/29 1250/406/29 1254/399/29
f 1253/151/29 1254/399/29 1255/152/29
s 676
f 1256/232/168 1257/408/168 1258/233/168
s 0
f 1257/408/168 1256/232/168 1259/246/168
s 678
f 1259/246/168 1256/232/168 1260/247/168
s 0
f 1261/409/169 1262/231/169 1263/233/169
f 1262/231/169 1261/409/169 1264/248/169
f 1264/248/169 1261/409/169 1265/246/169
s 682
f 1266/243/170 1267/410/170 1268/242/170
s 0
f 1267/410/170 1266/243/170 1269/238/170
f 1269/238/170 1266/243/170 1270/236/170
f 1271/217/168 1272/234/168 1273/235/168
f 1272/234/168 1271/217/168 1274/411/168
f 1274/411/168 1271/217/168 1275/230/168
f 1276/222/171 1277/412/171 1278/244/171
f 1277/412/171 1276/222/171 1279/241/171
f 1279/241/171 1276/222/171 1280/239/171
f 1281/237/171 1282/413/171 1283/238/171
f 1282/413/171 1281/237/171 1284/242/171
f 1284/242/171 1281/237/171 1285/243/171
f 1286/217/169 1287/414/169 1288/230/169
f 1287/414/169 1286/217/169 1289/234/169
f 1289/234/169 1286/217/169 1290/235/169
f 1291/240/170 1292/415/170 1293/241/170
f 1292/415/170 1291/240/170 1294/245/170
f 1294/245/170 1291/240/170 1295/222/170
f 1296/343/172 1297/340/172 1298/343/172
f 1297/340/172 1296/343/172 1299/350/172
f 1297/340/172 1299/350/172 1300/341/172
f 1300/341/172 1299/350/172 1301/341/172
f 1302/230/173 1303/344/173 1304/230/173
f 1303/344/173 1302/230/173 1305/244/173
f 1305/244/173 1302/230/173 1306/245/173
s 707
f 1306/245/173 1302/230/173 1307/346/173
s 0
f 1308/337/174 1309/345/174 1310/345/174
f 1309/345/174 1308/337/174 1311/348/174
f 1311/348/174 1308/337/174 1312/339/174
f 1311/348/174 1312/339/174 1313/339/174
f 1314/336/175 1315/206/175 1316/336/175
f 1315/206/175 1314/336/175 1317/203/175
f 1317/203/175 1314/336/175 1318/203/175
s 715
f 1318/203/176 1314/336/176 1319/223/176
s 0
f 1320/275/7 1321/281/7 1322/276/7
f 1321/281/7 1320/275/7 1323/279/7
f 1321/281/7 1323/279/7 1324/282/7
f 1324/282/7 1323/279/7 1325/278/7
f 1324/282/7 1325/278/7 1326/280/7
f 1326/280/7 1325/278/7 1327/277/7
f 1328/305/3 1329/416/3 1330/306/3
f 1329/416/3 1328/305/3 1331/283/3
f 1331/283/3 1328/305/3 1332/284/3
f 1333/285/7 1334/416/7 1335/76/7
f 1334/416/7 1333/285/7 1336/307/7
f 1336/307/7 1333/285/7 1337/308/7
s 728
f 1338/417/177 1339/309/178 1340/287/177
f 1339/309/178 1338/417/177 1341/333/177
f 1339/309/178 1341/333/177 1342/81/178
s 0
f 1343/45/2 1344/43/2 1345/44/2
f 1344/43/2 1343/45/2 1346/46/2
f 1344/43/2 1346/46/2 1347/42/2
f 1347/42/2 1346/46/2 1348/47/2
f 1347/42/2 1348/47/2 1349/40/2
f 1349/40/2 1348/47/2 1350/48/2
f 1351/416/1 1352/283/1 1353/76/1
f 1352/283/1 1351/416/1 1354/416/1
f 1354/416/1 1351/416/1 1355/307/1
f 1354/416/1 1355/307/1 1356/306/1
f 1357/416/2 1358/285/2 1359/284/2
f 1358/285/2 1357/416/2 1360/416/2
f 1360/416/2 1357/416/2 1361/305/2
f 1360/416/2 1361/305/2 1362/308/2
s 743
f 1363/327/179 1364/418/180 1365/81/181
f 1364/418/180 1363/327/179 1366/309/180
f 1366/309/180 1363/327/179 1367/419/179
s 0
f 1368/53/1 1369/51/1 1370/52/1
f 1369/51/1 1368/53/1 1371/54/1
f 1369/51/1 1371/54/1 1372/50/1
f 1372/50/1 1371/54/1 1373/38/1
f 1372/50/1 1373/38/1 1374/49/1
f 1374/49/1 1373/38/1 1375/37/1
f 1376/287/1 1377/81/1 1378/309/1
f 1377/81/1 1376/287/1 1379/330/1
f 1377/81/1 1379/330/1 1380/333/1
f 1381/419/2 1382/81/2 1383/327/2
f 1382/81/2 1381/419/2 1384/309/2
s 755
f 1382/81/182 1384/309/183 1385/420/184
s 0
f 1386/151/34 1387/399/34 1388/154/34
s 757
f 1388/154/185 1389/400/185 1390/399/185
s 0
f 1389/400/34 1388/154/34 1391/398/34
f 1391/398/34 1388/154/34 1387/399/34
f 1392/399/30 1393/400/30 1394/401/30
f 1393/400/30 1392/399/30 1395/399/30
f 1395/399/30 1392/399/30 1396/153/30
f 1395/399/30 1396/153/30 1397/154/30
f 1398/399/35 1399/401/35 1400/402/35
f 1399/401/35 1398/399/35 1401/399/35
f 1401/399/35 1398/399/35 1402/156/35
f 1401/399/35 1402/156/35 1403/153/35
f 1404/403/31 1405/399/31 1406/402/31
f 1405/399/31 1404/403/31 1407/156/31
f 1407/156/31 1404/403/31 1408/399/31
f 1407/156/31 1408/399/31 1409/155/31
f 1410/404/36 1411/399/36 1412/403/36
f 1411/399/36 1410/404/36 1413/155/36
f 1413/155/36 1410/404/36 1414/399/36
f 1413/155/36 1414/399/36 1415/158/36
f 1416/399/32 1417/404/32 1418/405/32
s 777
f 1417/404/32 1416/399/32 1419/399/32
s 0
f 1419/399/32 1416/399/32 1420/157/32
f 1419/399/32 1420/157/32 1421/158/32
f 1422/399/33 1423/407/33 1424/406/33
f 1423/407/33 1422/399/33 1425/399/33
f 1425/399/33 1422/399/33 1426/152/33
f 1425/399/33 1426/152/33 1427/157/33
f 1428/152/29 1429/399/29 1430/151/29
s 785
f 1430/151/186 1431/398/186 1432/399/186
s 0
f 1431/398/29 1430/151/29 1433/406/29
f 1433/406/29 1430/151/29 1429/399/29
