# Blender 5.0.1
# www.blender.org
mtllib piedra.mtl
g Sphere_Mesh
v 0.000000 1.000000 0.000000
v 0.000000 0.831470 0.555570
v 0.000000 0.555570 0.831470
v 0.000000 0.195090 0.980785
v 0.000000 0.000000 1.000000
v 0.000000 -0.195090 0.980785
v 0.000000 -0.555570 0.831470
v 0.000000 -1.000000 0.000000
v -0.038060 0.980785 0.191342
v -0.074658 0.923880 0.375330
v -0.108386 0.831470 0.544895
v -0.137950 0.707107 0.693520
v -0.162212 0.555570 0.815493
v -0.180240 0.382683 0.906127
v -0.191342 0.195090 0.961940
v -0.195090 0.000000 0.980785
v -0.191342 -0.195090 0.961940
v -0.180240 -0.382683 0.906127
v -0.162212 -0.555570 0.815493
v -0.137950 -0.707107 0.693520
v -0.108386 -0.831470 0.544895
v -0.074658 -0.923880 0.375330
v -0.038060 -0.980785 0.191342
v -0.074658 0.980785 0.180240
v -0.146447 0.923880 0.353553
v -0.212608 0.831470 0.513280
v -0.270598 0.707107 0.653281
v -0.318190 0.555570 0.768178
v -0.353553 0.382683 0.853553
v -0.375330 0.195090 0.906127
v -0.382683 0.000000 0.923879
v -0.375330 -0.195090 0.906127
v -0.353553 -0.382683 0.853553
v -0.318190 -0.555570 0.768178
v -0.270598 -0.707107 0.653281
v -0.212608 -0.831470 0.513280
v -0.146447 -0.923880 0.353553
v -0.074658 -0.980785 0.180240
v -0.108386 0.980785 0.162212
v -0.212608 0.923880 0.318190
v -0.308658 0.831470 0.461940
v -0.392847 0.707107 0.587938
v -0.461940 0.555570 0.691342
v -0.513280 0.382683 0.768178
v -0.544895 0.195090 0.815493
v -0.555570 0.000000 0.831469
v -0.544895 -0.195090 0.815493
v -0.513280 -0.382683 0.768178
v -0.461940 -0.555570 0.691342
v -0.392847 -0.707107 0.587938
v -0.308658 -0.831470 0.461940
v -0.212608 -0.923880 0.318190
v -0.108386 -0.980785 0.162212
v -0.137950 0.980785 0.137950
v -0.270598 0.923880 0.270598
v -0.392847 0.831470 0.392847
v -0.500000 0.707107 0.500000
v -0.587938 0.555570 0.587938
v -0.653281 0.382683 0.653281
v -0.693520 0.195090 0.693520
v -0.707107 0.000000 0.707107
v -0.693520 -0.195090 0.693520
v -0.653281 -0.382683 0.653281
v -0.587938 -0.555570 0.587938
v -0.500000 -0.707107 0.500000
v -0.392847 -0.831470 0.392847
v -0.270598 -0.923880 0.270598
v -0.137950 -0.980785 0.137950
v -0.162212 0.980785 0.108386
v -0.318190 0.923880 0.212608
v -0.461940 0.831470 0.308658
v -0.587938 0.707107 0.392847
v -0.691342 0.555570 0.461940
v -0.768178 0.382683 0.513280
v -0.815493 0.195090 0.544895
v -0.831470 0.000000 0.555570
v -0.815493 -0.195090 0.544895
v -0.768178 -0.382683 0.513280
v -0.691342 -0.555570 0.461940
v -0.587938 -0.707107 0.392847
v -0.461940 -0.831470 0.308658
v -0.318190 -0.923880 0.212608
v -0.162212 -0.980785 0.108386
v -0.180240 0.980785 0.074658
v -0.353553 0.923880 0.146447
v -0.513280 0.831470 0.212607
v -0.653281 0.707107 0.270598
v -0.768178 0.555570 0.318190
v -0.853553 0.382683 0.353553
v -0.906127 0.195090 0.375330
v -0.923879 0.000000 0.382683
v -0.906127 -0.195090 0.375330
v -0.853553 -0.382683 0.353553
v -0.768178 -0.555570 0.318190
v -0.653281 -0.707107 0.270598
v -0.513280 -0.831470 0.212607
v -0.353553 -0.923880 0.146447
v -0.180240 -0.980785 0.074658
v -0.191342 0.980785 0.038060
v -0.375330 0.923880 0.074658
v -0.544895 0.831470 0.108386
v -0.693520 0.707107 0.137950
v -0.815493 0.555570 0.162212
v -0.906127 0.382683 0.180240
v -0.961940 0.195090 0.191342
v -0.980785 0.000000 0.195090
v -0.961940 -0.195090 0.191342
v -0.906127 -0.382683 0.180240
v -0.815493 -0.555570 0.162212
v -0.693520 -0.707107 0.137950
v -0.544895 -0.831470 0.108386
v -0.375330 -0.923880 0.074658
v -0.191342 -0.980785 0.038060
v -0.195090 0.980785 -0.000000
v -0.382683 0.923880 -0.000000
v -0.555570 0.831470 -0.000000
v -0.707107 0.707107 0.000000
v -0.831469 0.555570 -0.000000
v -0.923879 0.382683 0.000000
v -0.980785 0.195090 -0.000000
v -1.000000 0.000000 -0.000000
v -0.980785 -0.195090 -0.000000
v -0.923879 -0.382683 0.000000
v -0.831469 -0.555570 -0.000000
v -0.707107 -0.707107 0.000000
v -0.555570 -0.831470 -0.000000
v -0.382683 -0.923880 -0.000000
v -0.195090 -0.980785 -0.000000
v -0.191342 0.980785 -0.038060
v -0.375330 0.923880 -0.074658
v -0.544895 0.831470 -0.108386
v -0.693520 0.707107 -0.137950
v -0.815493 0.555570 -0.162212
v -0.906127 0.382683 -0.180240
v -0.961940 0.195090 -0.191342
v -0.980785 0.000000 -0.195090
v -0.961940 -0.195090 -0.191342
v -0.906127 -0.382683 -0.180240
v -0.815493 -0.555570 -0.162212
v -0.693520 -0.707107 -0.137950
v -0.544895 -0.831470 -0.108386
v -0.375330 -0.923880 -0.074658
v -0.191342 -0.980785 -0.038060
v -0.180240 0.980785 -0.074658
v -0.353553 0.923880 -0.146447
v -0.513280 0.831470 -0.212608
v -0.653281 0.707107 -0.270598
v -0.768178 0.555570 -0.318190
v -0.853553 0.382683 -0.353553
v -0.906127 0.195090 -0.375330
v -0.923879 0.000000 -0.382683
v -0.906127 -0.195090 -0.375330
v -0.853553 -0.382683 -0.353553
v -0.768178 -0.555570 -0.318190
v -0.653281 -0.707107 -0.270598
v -0.513280 -0.831470 -0.212608
v -0.353553 -0.923880 -0.146447
v -0.180240 -0.980785 -0.074658
v -0.162212 0.980785 -0.108386
v -0.318190 0.923880 -0.212608
v -0.461940 0.831470 -0.308658
v -0.587938 0.707107 -0.392847
v -0.691341 0.555570 -0.461940
v -0.768178 0.382683 -0.513280
v -0.815493 0.195090 -0.544895
v -0.831469 0.000000 -0.555570
v -0.815493 -0.195090 -0.544895
v -0.768178 -0.382683 -0.513280
v -0.691341 -0.555570 -0.461940
v -0.587938 -0.707107 -0.392847
v -0.461940 -0.831470 -0.308658
v -0.318190 -0.923880 -0.212608
v -0.162212 -0.980785 -0.108386
v -0.137950 0.980785 -0.137950
v -0.270598 0.923880 -0.270598
v -0.392847 0.831470 -0.392847
v -0.500000 0.707107 -0.500000
v -0.587938 0.555570 -0.587938
v -0.653281 0.382683 -0.653281
v -0.693520 0.195090 -0.693520
v -0.707106 0.000000 -0.707107
v -0.693520 -0.195090 -0.693520
v -0.653281 -0.382683 -0.653281
v -0.587938 -0.555570 -0.587938
v -0.500000 -0.707107 -0.500000
v -0.392847 -0.831470 -0.392847
v -0.270598 -0.923880 -0.270598
v -0.137950 -0.980785 -0.137950
v -0.108386 0.980785 -0.162212
v -0.212607 0.923880 -0.318190
v -0.308658 0.831470 -0.461940
v -0.392847 0.707107 -0.587938
v -0.461940 0.555570 -0.691342
v -0.513280 0.382683 -0.768178
v -0.544895 0.195090 -0.815493
v -0.555570 0.000000 -0.831469
v -0.544895 -0.195090 -0.815493
v -0.513280 -0.382683 -0.768178
v -0.461940 -0.555570 -0.691342
v -0.392847 -0.707107 -0.587938
v -0.308658 -0.831470 -0.461940
v -0.212607 -0.923880 -0.318190
v -0.108386 -0.980785 -0.162212
v -0.074658 0.980785 -0.180240
v -0.146447 0.923880 -0.353553
v -0.212607 0.831470 -0.513280
v -0.270598 0.707107 -0.653281
v -0.318189 0.555570 -0.768178
v -0.353553 0.382683 -0.853553
v -0.375330 0.195090 -0.906127
v -0.382683 0.000000 -0.923879
v -0.375330 -0.195090 -0.906127
v -0.353553 -0.382683 -0.853553
v -0.318189 -0.555570 -0.768178
v -0.270598 -0.707107 -0.653281
v -0.212607 -0.831470 -0.513280
v -0.146447 -0.923880 -0.353553
v -0.074658 -0.980785 -0.180240
v -0.038060 0.980785 -0.191342
v -0.074658 0.923880 -0.375330
v -0.108386 0.831470 -0.544895
v -0.137950 0.707107 -0.693520
v -0.162212 0.555570 -0.815493
v -0.180240 0.382683 -0.906127
v -0.191342 0.195090 -0.961939
v -0.195090 0.000000 -0.980785
v -0.191342 -0.195090 -0.961939
v -0.180240 -0.382683 -0.906127
v -0.162212 -0.555570 -0.815493
v -0.137950 -0.707107 -0.693520
v -0.108386 -0.831470 -0.544895
v -0.074658 -0.923880 -0.375330
v -0.038060 -0.980785 -0.191342
v 0.000000 0.980785 -0.195090
v 0.000000 0.923880 -0.382683
v 0.000000 0.831470 -0.555570
v 0.000000 0.707107 -0.707107
v 0.000000 0.555570 -0.831469
v -0.000000 0.382683 -0.923879
v 0.000000 0.195090 -0.980785
v 0.000000 0.000000 -0.999999
v 0.000000 -0.195090 -0.980785
v -0.000000 -0.382683 -0.923879
v 0.000000 -0.555570 -0.831469
v 0.000000 -0.707107 -0.707107
v 0.000000 -0.831470 -0.555570
v 0.000000 -0.923880 -0.382683
v 0.000000 -0.980785 -0.195090
v 0.038060 0.980785 -0.191342
v 0.074658 0.923880 -0.375330
v 0.108386 0.831470 -0.544895
v 0.137950 0.707107 -0.693520
v 0.162212 0.555570 -0.815493
v 0.180240 0.382683 -0.906127
v 0.191342 0.195090 -0.961939
v 0.195091 0.000000 -0.980785
v 0.191342 -0.195090 -0.961939
v 0.180240 -0.382683 -0.906127
v 0.162212 -0.555570 -0.815493
v 0.137950 -0.707107 -0.693520
v 0.108386 -0.831470 -0.544895
v 0.074658 -0.923880 -0.375330
v 0.038060 -0.980785 -0.191342
v 0.074658 0.980785 -0.180240
v 0.146447 0.923880 -0.353553
v 0.212608 0.831470 -0.513280
v 0.270598 0.707107 -0.653281
v 0.318190 0.555570 -0.768177
v 0.353553 0.382683 -0.853553
v 0.375330 0.195090 -0.906127
v 0.382683 0.000000 -0.923879
v 0.375330 -0.195090 -0.906127
v 0.353553 -0.382683 -0.853553
v 0.318190 -0.555570 -0.768177
v 0.270598 -0.707107 -0.653281
v 0.212608 -0.831470 -0.513280
v 0.146447 -0.923880 -0.353553
v 0.074658 -0.980785 -0.180240
v 0.108386 0.980785 -0.162212
v 0.212608 0.923880 -0.318190
v 0.308658 0.831470 -0.461939
v 0.392847 0.707107 -0.587938
v 0.461940 0.555570 -0.691341
v 0.513280 0.382683 -0.768178
v 0.544895 0.195090 -0.815493
v 0.555570 0.000000 -0.831469
v 0.544895 -0.195090 -0.815493
v 0.513280 -0.382683 -0.768178
v 0.461940 -0.555570 -0.691341
v 0.392847 -0.707107 -0.587938
v 0.308658 -0.831470 -0.461939
v 0.212608 -0.923880 -0.318190
v 0.108386 -0.980785 -0.162212
v 0.137950 0.980785 -0.137950
v 0.270598 0.923880 -0.270598
v 0.392847 0.831470 -0.392847
v 0.500000 0.707107 -0.500000
v 0.587938 0.555570 -0.587937
v 0.653281 0.382683 -0.653281
v 0.693520 0.195090 -0.693520
v 0.707106 0.000000 -0.707106
v 0.693520 -0.195090 -0.693520
v 0.653281 -0.382683 -0.653281
v 0.587938 -0.555570 -0.587937
v 0.500000 -0.707107 -0.500000
v 0.392847 -0.831470 -0.392847
v 0.270598 -0.923880 -0.270598
v 0.137950 -0.980785 -0.137950
v 0.162212 0.980785 -0.108386
v 0.318190 0.923880 -0.212607
v 0.461940 0.831470 -0.308658
v 0.587938 0.707107 -0.392847
v 0.691341 0.555570 -0.461939
v 0.768177 0.382683 -0.513280
v 0.815493 0.195090 -0.544895
v 0.831469 0.000000 -0.555569
v 0.815493 -0.195090 -0.544895
v 0.768177 -0.382683 -0.513280
v 0.691341 -0.555570 -0.461939
v 0.587938 -0.707107 -0.392847
v 0.461940 -0.831470 -0.308658
v 0.318190 -0.923880 -0.212607
v 0.162212 -0.980785 -0.108386
v 0.180240 0.980785 -0.074658
v 0.353553 0.923880 -0.146447
v 0.513280 0.831470 -0.212607
v 0.653281 0.707107 -0.270598
v 0.768177 0.555570 -0.318189
v 0.853553 0.382683 -0.353553
v 0.906127 0.195090 -0.375330
v 0.923879 0.000000 -0.382683
v 0.906127 -0.195090 -0.375330
v 0.853553 -0.382683 -0.353553
v 0.768177 -0.555570 -0.318189
v 0.653281 -0.707107 -0.270598
v 0.513280 -0.831470 -0.212607
v 0.353553 -0.923880 -0.146447
v 0.180240 -0.980785 -0.074658
v 0.191342 0.980785 -0.038060
v 0.375330 0.923880 -0.074658
v 0.544895 0.831470 -0.108386
v 0.693520 0.707107 -0.137950
v 0.815493 0.555570 -0.162211
v 0.906127 0.382683 -0.180240
v 0.961939 0.195090 -0.191341
v 0.980784 0.000000 -0.195090
v 0.961939 -0.195090 -0.191341
v 0.906127 -0.382683 -0.180240
v 0.815493 -0.555570 -0.162211
v 0.693520 -0.707107 -0.137950
v 0.544895 -0.831470 -0.108386
v 0.375330 -0.923880 -0.074658
v 0.191342 -0.980785 -0.038060
v 0.195090 0.980785 0.000000
v 0.382683 0.923880 0.000000
v 0.555570 0.831470 0.000000
v 0.707107 0.707107 0.000000
v 0.831469 0.555570 0.000000
v 0.923879 0.382683 0.000000
v 0.980785 0.195090 0.000000
v 0.999999 0.000000 0.000000
v 0.980785 -0.195090 0.000000
v 0.923879 -0.382683 0.000000
v 0.831469 -0.555570 0.000000
v 0.707107 -0.707107 0.000000
v 0.555570 -0.831470 0.000000
v 0.382683 -0.923880 0.000000
v 0.195090 -0.980785 0.000000
v 0.191342 0.980785 0.038060
v 0.375330 0.923880 0.074658
v 0.544895 0.831470 0.108386
v 0.693520 0.707107 0.137950
v 0.815493 0.555570 0.162212
v 0.906127 0.382683 0.180240
v 0.961939 0.195090 0.191342
v 0.980784 0.000000 0.195091
v 0.961939 -0.195090 0.191342
v 0.906127 -0.382683 0.180240
v 0.815493 -0.555570 0.162212
v 0.693520 -0.707107 0.137950
v 0.544895 -0.831470 0.108386
v 0.375330 -0.923880 0.074658
v 0.191342 -0.980785 0.038060
v 0.180240 0.980785 0.074658
v 0.353553 0.923880 0.146447
v 0.513279 0.831470 0.212607
v 0.653281 0.707107 0.270598
v 0.768177 0.555570 0.318190
v 0.853553 0.382683 0.353553
v 0.906127 0.195090 0.375330
v 0.923878 0.000000 0.382683
v 0.906127 -0.195090 0.375330
v 0.853553 -0.382683 0.353553
v 0.768177 -0.555570 0.318190
v 0.653281 -0.707107 0.270598
v 0.513279 -0.831470 0.212607
v 0.353553 -0.923880 0.146447
v 0.180240 -0.980785 0.074658
v 0.162212 0.980785 0.108386
v 0.318189 0.923880 0.212607
v 0.461939 0.831470 0.308658
v 0.587938 0.707107 0.392847
v 0.691341 0.555570 0.461940
v 0.768177 0.382683 0.513280
v 0.815493 0.195090 0.544895
v 0.831468 0.000000 0.555570
v 0.815493 -0.195090 0.544895
v 0.768177 -0.382683 0.513280
v 0.691341 -0.555570 0.461940
v 0.587938 -0.707107 0.392847
v 0.461939 -0.831470 0.308658
v 0.318189 -0.923880 0.212607
v 0.162212 -0.980785 0.108386
v 0.137950 0.980785 0.137950
v 0.270598 0.923880 0.270598
v 0.392847 0.831470 0.392847
v 0.500000 0.707107 0.500000
v 0.587937 0.555570 0.587938
v 0.653281 0.382683 0.653281
v 0.693519 0.195090 0.693520
v 0.707106 0.000000 0.707106
v 0.693519 -0.195090 0.693520
v 0.653281 -0.382683 0.653281
v 0.587937 -0.555570 0.587938
v 0.500000 -0.707107 0.500000
v 0.392847 -0.831470 0.392847
v 0.270598 -0.923880 0.270598
v 0.137950 -0.980785 0.137950
v 0.108386 0.980785 0.162212
v 0.212607 0.923880 0.318190
v 0.308658 0.831470 0.461939
v 0.392847 0.707107 0.587938
v 0.461939 0.555570 0.691341
v 0.513280 0.382683 0.768177
v 0.544895 0.195090 0.815493
v 0.555569 0.000000 0.831469
v 0.544895 -0.195090 0.815493
v 0.513280 -0.382683 0.768177
v 0.461939 -0.555570 0.691341
v 0.392847 -0.707107 0.587938
v 0.308658 -0.831470 0.461939
v 0.212607 -0.923880 0.318190
v 0.108386 -0.980785 0.162212
v 0.074658 0.980785 0.180240
v 0.146446 0.923880 0.353553
v 0.212607 0.831470 0.513279
v 0.270598 0.707107 0.653281
v 0.318189 0.555570 0.768177
v 0.353553 0.382683 0.853553
v 0.375330 0.195090 0.906127
v 0.382683 0.000000 0.923879
v 0.375330 -0.195090 0.906127
v 0.353553 -0.382683 0.853553
v 0.318189 -0.555570 0.768177
v 0.270598 -0.707107 0.653281
v 0.212607 -0.831470 0.513279
v 0.146446 -0.923880 0.353553
v 0.074658 -0.980785 0.180240
v 0.038060 0.980785 0.191342
v 0.074658 0.923880 0.375330
v 0.108386 0.831470 0.544895
v 0.137950 0.707107 0.693520
v 0.162211 0.555570 0.815493
v 0.180240 0.382683 0.906127
v 0.191341 0.195090 0.961939
v 0.195090 0.000000 0.980784
v 0.191341 -0.195090 0.961939
v 0.180240 -0.382683 0.906127
v 0.162211 -0.555570 0.815493
v 0.137950 -0.707107 0.693520
v 0.108386 -0.831470 0.544895
v 0.074658 -0.923880 0.375330
v 0.038060 -0.980785 0.191342
v -0.000000 0.980785 0.195090
v -0.000000 0.923880 0.382683
v -0.000000 0.707107 0.707107
v -0.000000 0.382683 0.923879
v -0.000000 -0.382683 0.923879
v -0.000000 -0.707107 0.707107
v -0.000000 -0.831470 0.555570
v -0.000000 -0.923880 0.382683
v -0.000000 -0.980785 0.195090
vn -0.0624 -0.7715 0.6332
vn -0.0865 0.4696 0.8786
vn -0.0464 -0.8810 0.4709
vn -0.0938 0.2890 0.9527
vn -0.0286 -0.9565 0.2902
vn -0.0975 0.0975 0.9904
vn -0.0097 0.9951 0.0980
vn -0.0097 -0.9951 0.0980
vn -0.0975 -0.0976 0.9904
vn -0.0286 0.9565 0.2902
vn -0.0938 -0.2890 0.9527
vn -0.0464 0.8810 0.4709
vn -0.0865 -0.4696 0.8786
vn -0.0624 0.7715 0.6332
vn -0.0759 -0.6326 0.7708
vn -0.0759 0.6326 0.7708
vn -0.1847 0.7715 0.6088
vn -0.2248 -0.6326 0.7412
vn -0.2248 0.6326 0.7412
vn -0.1847 -0.7715 0.6088
vn -0.2563 0.4696 0.8448
vn -0.1374 -0.8810 0.4528
vn -0.2779 0.2890 0.9161
vn -0.0846 -0.9565 0.2790
vn -0.2889 0.0976 0.9524
vn -0.0286 0.9951 0.0942
vn -0.0286 -0.9951 0.0942
vn -0.2889 -0.0976 0.9524
vn -0.0846 0.9565 0.2790
vn -0.2779 -0.2890 0.9161
vn -0.1374 0.8810 0.4528
vn -0.2563 -0.4696 0.8448
vn -0.4691 0.0975 0.8777
vn -0.0464 0.9951 0.0869
vn -0.0464 -0.9951 0.0869
vn -0.4691 -0.0975 0.8777
vn -0.1374 0.9565 0.2571
vn -0.4513 -0.2890 0.8443
vn -0.2231 0.8810 0.4173
vn -0.4162 -0.4696 0.7786
vn -0.2999 0.7715 0.5611
vn -0.3651 -0.6326 0.6831
vn -0.3651 0.6326 0.6831
vn -0.2999 -0.7715 0.5611
vn -0.4162 0.4696 0.7786
vn -0.2230 -0.8810 0.4173
vn -0.4513 0.2890 0.8443
vn -0.1374 -0.9565 0.2571
vn -0.4913 -0.6326 0.5987
vn -0.4913 0.6326 0.5987
vn -0.4036 -0.7715 0.4918
vn -0.5601 0.4696 0.6825
vn -0.3002 -0.8810 0.3658
vn -0.6073 0.2890 0.7400
vn -0.1850 -0.9565 0.2254
vn -0.6314 0.0975 0.7693
vn -0.0625 0.9951 0.0761
vn -0.0625 -0.9951 0.0761
vn -0.6314 -0.0975 0.7693
vn -0.1850 0.9565 0.2254
vn -0.6073 -0.2890 0.7400
vn -0.3002 0.8810 0.3658
vn -0.5601 -0.4696 0.6825
vn -0.4036 0.7715 0.4918
vn -0.0761 -0.9951 0.0625
vn -0.7693 -0.0975 0.6314
vn -0.2254 0.9565 0.1850
vn -0.7400 -0.2890 0.6073
vn -0.3658 0.8810 0.3002
vn -0.6825 -0.4696 0.5601
vn -0.4918 0.7715 0.4036
vn -0.5987 -0.6326 0.4913
vn -0.5987 0.6326 0.4913
vn -0.4918 -0.7715 0.4036
vn -0.6825 0.4696 0.5601
vn -0.3658 -0.8810 0.3002
vn -0.7400 0.2890 0.6073
vn -0.2254 -0.9566 0.1850
vn -0.7693 0.0975 0.6314
vn -0.0761 0.9951 0.0625
vn -0.5611 -0.7715 0.2999
vn -0.7786 0.4696 0.4162
vn -0.4173 -0.8810 0.2230
vn -0.8443 0.2890 0.4513
vn -0.2571 -0.9565 0.1374
vn -0.8777 0.0975 0.4691
vn -0.0869 0.9951 0.0464
vn -0.0869 -0.9951 0.0464
vn -0.8777 -0.0975 0.4691
vn -0.2571 0.9565 0.1374
vn -0.8443 -0.2890 0.4513
vn -0.4173 0.8810 0.2230
vn -0.7786 -0.4696 0.4162
vn -0.5611 0.7715 0.2999
vn -0.6831 -0.6326 0.3651
vn -0.6831 0.6326 0.3651
vn -0.2790 0.9565 0.0846
vn -0.9161 -0.2890 0.2779
vn -0.4528 0.8810 0.1374
vn -0.8448 -0.4696 0.2563
vn -0.6088 0.7715 0.1847
vn -0.7412 -0.6326 0.2248
vn -0.7412 0.6326 0.2248
vn -0.6088 -0.7715 0.1847
vn -0.8448 0.4696 0.2563
vn -0.4528 -0.8810 0.1374
vn -0.9161 0.2890 0.2779
vn -0.2790 -0.9565 0.0846
vn -0.9524 0.0975 0.2889
vn -0.0942 0.9951 0.0286
vn -0.0942 -0.9951 0.0286
vn -0.9524 -0.0975 0.2889
vn -0.8786 0.4696 0.0865
vn -0.4709 -0.8810 0.0464
vn -0.9527 0.2890 0.0938
vn -0.2902 -0.9565 0.0286
vn -0.9904 0.0975 0.0975
vn -0.0980 0.9951 0.0097
vn -0.0980 -0.9951 0.0097
vn -0.9904 -0.0975 0.0975
vn -0.2902 0.9565 0.0286
vn -0.9527 -0.2890 0.0938
vn -0.4709 0.8810 0.0464
vn -0.8786 -0.4696 0.0865
vn -0.6332 0.7715 0.0624
vn -0.7708 -0.6326 0.0759
vn -0.7708 0.6326 0.0759
vn -0.6332 -0.7715 0.0624
vn -0.9527 -0.2890 -0.0938
vn -0.4709 0.8810 -0.0464
vn -0.8786 -0.4696 -0.0865
vn -0.6332 0.7715 -0.0624
vn -0.7708 -0.6326 -0.0759
vn -0.7708 0.6326 -0.0759
vn -0.6332 -0.7715 -0.0624
vn -0.8786 0.4696 -0.0865
vn -0.4709 -0.8810 -0.0464
vn -0.9527 0.2890 -0.0938
vn -0.2902 -0.9565 -0.0286
vn -0.9904 0.0975 -0.0976
vn -0.0980 0.9951 -0.0097
vn -0.0980 -0.9951 -0.0097
vn -0.9904 -0.0975 -0.0976
vn -0.2902 0.9565 -0.0286
vn -0.4528 -0.8810 -0.1374
vn -0.9161 0.2890 -0.2779
vn -0.2790 -0.9565 -0.0846
vn -0.9524 0.0975 -0.2889
vn -0.0942 0.9951 -0.0286
vn -0.0942 -0.9951 -0.0286
vn -0.9524 -0.0975 -0.2889
vn -0.2790 0.9565 -0.0846
vn -0.9161 -0.2890 -0.2779
vn -0.4528 0.8810 -0.1374
vn -0.8448 -0.4696 -0.2563
vn -0.6088 0.7715 -0.1847
vn -0.7412 -0.6326 -0.2248
vn -0.7412 0.6326 -0.2248
vn -0.6088 -0.7715 -0.1847
vn -0.8448 0.4696 -0.2563
vn -0.4173 0.8810 -0.2231
vn -0.7786 -0.4696 -0.4162
vn -0.5611 0.7715 -0.2999
vn -0.6831 -0.6326 -0.3651
vn -0.6831 0.6326 -0.3651
vn -0.5611 -0.7715 -0.2999
vn -0.7786 0.4696 -0.4162
vn -0.4173 -0.8810 -0.2230
vn -0.8443 0.2890 -0.4513
vn -0.2571 -0.9565 -0.1374
vn -0.8777 0.0975 -0.4691
vn -0.0869 0.9951 -0.0464
vn -0.0869 -0.9951 -0.0464
vn -0.8777 -0.0975 -0.4691
vn -0.2571 0.9565 -0.1374
vn -0.8443 -0.2890 -0.4513
vn -0.7400 0.2890 -0.6073
vn -0.2254 -0.9565 -0.1850
vn -0.7693 0.0975 -0.6314
vn -0.0761 0.9951 -0.0625
vn -0.0761 -0.9951 -0.0625
vn -0.7693 -0.0975 -0.6314
vn -0.2254 0.9565 -0.1850
vn -0.7400 -0.2890 -0.6073
vn -0.3658 0.8810 -0.3002
vn -0.6825 -0.4696 -0.5601
vn -0.4918 0.7715 -0.4036
vn -0.5987 -0.6326 -0.4913
vn -0.5987 0.6326 -0.4913
vn -0.4918 -0.7715 -0.4036
vn -0.6825 0.4696 -0.5601
vn -0.3658 -0.8810 -0.3002
vn -0.5601 -0.4696 -0.6825
vn -0.4036 0.7715 -0.4918
vn -0.4913 -0.6326 -0.5987
vn -0.4913 0.6326 -0.5987
vn -0.4036 -0.7715 -0.4918
vn -0.5601 0.4696 -0.6825
vn -0.3002 -0.8810 -0.3658
vn -0.6073 0.2890 -0.7400
vn -0.1850 -0.9565 -0.2254
vn -0.6314 0.0975 -0.7693
vn -0.0625 0.9951 -0.0761
vn -0.0625 -0.9951 -0.0761
vn -0.6314 -0.0975 -0.7693
vn -0.1850 0.9565 -0.2254
vn -0.6073 -0.2890 -0.7400
vn -0.3002 0.8810 -0.3658
vn -0.1374 -0.9565 -0.2571
vn -0.4691 0.0975 -0.8777
vn -0.0464 0.9951 -0.0869
vn -0.0464 -0.9951 -0.0869
vn -0.4691 -0.0975 -0.8777
vn -0.1374 0.9565 -0.2571
vn -0.4513 -0.2890 -0.8443
vn -0.2230 0.8810 -0.4173
vn -0.4162 -0.4696 -0.7786
vn -0.2999 0.7715 -0.5611
vn -0.3651 -0.6326 -0.6831
vn -0.3651 0.6326 -0.6831
vn -0.2999 -0.7715 -0.5611
vn -0.4162 0.4696 -0.7786
vn -0.2230 -0.8810 -0.4173
vn -0.4513 0.2890 -0.8443
vn -0.2248 -0.6326 -0.7412
vn -0.2248 0.6326 -0.7412
vn -0.1847 -0.7715 -0.6088
vn -0.2563 0.4696 -0.8448
vn -0.1374 -0.8810 -0.4528
vn -0.2779 0.2890 -0.9161
vn -0.0846 -0.9565 -0.2790
vn -0.2889 0.0975 -0.9524
vn -0.0286 0.9951 -0.0942
vn -0.0286 -0.9951 -0.0942
vn -0.2889 -0.0975 -0.9524
vn -0.0846 0.9565 -0.2790
vn -0.2779 -0.2890 -0.9161
vn -0.1374 0.8810 -0.4528
vn -0.2563 -0.4696 -0.8448
vn -0.1847 0.7715 -0.6088
vn -0.0097 0.9951 -0.0980
vn -0.0097 -0.9951 -0.0980
vn -0.0975 -0.0975 -0.9904
vn -0.0286 0.9565 -0.2902
vn -0.0938 -0.2890 -0.9527
vn -0.0464 0.8810 -0.4709
vn -0.0865 -0.4696 -0.8786
vn -0.0624 0.7715 -0.6332
vn -0.0759 -0.6326 -0.7708
vn -0.0759 0.6326 -0.7708
vn -0.0624 -0.7715 -0.6332
vn -0.0865 0.4696 -0.8786
vn -0.0464 -0.8810 -0.4709
vn -0.0938 0.2890 -0.9527
vn -0.0286 -0.9565 -0.2902
vn -0.0975 0.0975 -0.9904
vn 0.0759 0.6326 -0.7708
vn 0.0624 -0.7715 -0.6332
vn 0.0865 0.4696 -0.8786
vn 0.0464 -0.8810 -0.4709
vn 0.0938 0.2890 -0.9527
vn 0.0286 -0.9565 -0.2902
vn 0.0976 0.0975 -0.9904
vn 0.0097 0.9951 -0.0980
vn 0.0097 -0.9951 -0.0980
vn 0.0975 -0.0975 -0.9904
vn 0.0286 0.9565 -0.2902
vn 0.0938 -0.2890 -0.9527
vn 0.0464 0.8810 -0.4709
vn 0.0865 -0.4696 -0.8786
vn 0.0624 0.7715 -0.6332
vn 0.0759 -0.6326 -0.7708
vn 0.2889 -0.0975 -0.9524
vn 0.0846 0.9565 -0.2790
vn 0.2779 -0.2890 -0.9161
vn 0.1374 0.8810 -0.4528
vn 0.2563 -0.4696 -0.8448
vn 0.1847 0.7715 -0.6088
vn 0.2248 -0.6326 -0.7412
vn 0.2248 0.6326 -0.7412
vn 0.1847 -0.7715 -0.6088
vn 0.2563 0.4696 -0.8448
vn 0.1374 -0.8810 -0.4528
vn 0.2779 0.2890 -0.9161
vn 0.0846 -0.9565 -0.2790
vn 0.2889 0.0975 -0.9524
vn 0.0286 0.9951 -0.0942
vn 0.0286 -0.9951 -0.0942
vn 0.2999 -0.7715 -0.5611
vn 0.4162 0.4696 -0.7786
vn 0.2230 -0.8810 -0.4173
vn 0.4513 0.2890 -0.8443
vn 0.1374 -0.9565 -0.2571
vn 0.4691 0.0975 -0.8777
vn 0.0464 0.9951 -0.0869
vn 0.0464 -0.9951 -0.0869
vn 0.4691 -0.0975 -0.8777
vn 0.1374 0.9565 -0.2571
vn 0.4513 -0.2890 -0.8443
vn 0.2230 0.8810 -0.4173
vn 0.4162 -0.4696 -0.7786
vn 0.2999 0.7715 -0.5611
vn 0.3651 -0.6326 -0.6831
vn 0.3651 0.6326 -0.6831
vn 0.1850 0.9565 -0.2254
vn 0.6073 -0.2890 -0.7400
vn 0.3002 0.8810 -0.3658
vn 0.5601 -0.4696 -0.6825
vn 0.4036 0.7715 -0.4918
vn 0.4913 -0.6326 -0.5987
vn 0.4913 0.6326 -0.5987
vn 0.4036 -0.7715 -0.4918
vn 0.5601 0.4696 -0.6825
vn 0.3002 -0.8810 -0.3658
vn 0.6073 0.2890 -0.7400
vn 0.1850 -0.9565 -0.2254
vn 0.6314 0.0975 -0.7693
vn 0.0625 0.9951 -0.0761
vn 0.0625 -0.9951 -0.0761
vn 0.6314 -0.0975 -0.7693
vn 0.6825 0.4696 -0.5601
vn 0.3658 -0.8810 -0.3002
vn 0.7400 0.2890 -0.6073
vn 0.2254 -0.9566 -0.1850
vn 0.7693 0.0975 -0.6314
vn 0.0761 0.9951 -0.0625
vn 0.0761 -0.9951 -0.0625
vn 0.7693 -0.0975 -0.6314
vn 0.2254 0.9565 -0.1850
vn 0.7400 -0.2890 -0.6073
vn 0.3658 0.8810 -0.3002
vn 0.6825 -0.4696 -0.5601
vn 0.4918 0.7715 -0.4036
vn 0.5987 -0.6326 -0.4913
vn 0.5987 0.6326 -0.4913
vn 0.4918 -0.7715 -0.4036
vn 0.8443 -0.2890 -0.4513
vn 0.4173 0.8810 -0.2230
vn 0.7786 -0.4696 -0.4162
vn 0.5611 0.7715 -0.2999
vn 0.6831 -0.6326 -0.3651
vn 0.6831 0.6326 -0.3651
vn 0.5611 -0.7715 -0.2999
vn 0.7786 0.4696 -0.4162
vn 0.4173 -0.8810 -0.2231
vn 0.8443 0.2890 -0.4513
vn 0.2571 -0.9565 -0.1374
vn 0.8777 0.0975 -0.4691
vn 0.0869 0.9951 -0.0464
vn 0.0869 -0.9951 -0.0464
vn 0.8777 -0.0975 -0.4691
vn 0.2571 0.9565 -0.1374
vn 0.4528 -0.8810 -0.1374
vn 0.9161 0.2890 -0.2779
vn 0.2790 -0.9565 -0.0846
vn 0.9524 0.0975 -0.2889
vn 0.0942 0.9951 -0.0286
vn 0.0942 -0.9951 -0.0286
vn 0.9524 -0.0975 -0.2889
vn 0.2790 0.9565 -0.0846
vn 0.9161 -0.2890 -0.2779
vn 0.4528 0.8810 -0.1374
vn 0.8448 -0.4696 -0.2563
vn 0.6088 0.7715 -0.1847
vn 0.7412 -0.6326 -0.2248
vn 0.7412 0.6326 -0.2248
vn 0.6088 -0.7715 -0.1847
vn 0.8448 0.4696 -0.2563
vn 0.8786 -0.4696 -0.0865
vn 0.6332 0.7715 -0.0624
vn 0.7708 -0.6326 -0.0759
vn 0.7708 0.6326 -0.0759
vn 0.6332 -0.7715 -0.0624
vn 0.8786 0.4696 -0.0865
vn 0.4709 -0.8810 -0.0464
vn 0.9527 0.2890 -0.0938
vn 0.2902 -0.9565 -0.0286
vn 0.9904 0.0975 -0.0975
vn 0.0980 0.9951 -0.0097
vn 0.0980 -0.9951 -0.0097
vn 0.9904 -0.0975 -0.0976
vn 0.2902 0.9565 -0.0286
vn 0.9527 -0.2890 -0.0938
vn 0.4709 0.8810 -0.0464
vn 0.2902 -0.9565 0.0286
vn 0.9904 0.0975 0.0975
vn 0.0980 0.9951 0.0097
vn 0.0980 -0.9951 0.0097
vn 0.9904 -0.0975 0.0976
vn 0.2902 0.9565 0.0286
vn 0.9527 -0.2890 0.0938
vn 0.4709 0.8810 0.0464
vn 0.8786 -0.4696 0.0865
vn 0.6332 0.7715 0.0624
vn 0.7708 -0.6326 0.0759
vn 0.7708 0.6326 0.0759
vn 0.6332 -0.7715 0.0624
vn 0.8786 0.4696 0.0865
vn 0.4709 -0.8810 0.0464
vn 0.9527 0.2890 0.0938
vn 0.6088 0.7715 0.1847
vn 0.7412 -0.6326 0.2248
vn 0.7412 0.6326 0.2248
vn 0.6088 -0.7715 0.1847
vn 0.8448 0.4696 0.2563
vn 0.4528 -0.8810 0.1374
vn 0.9161 0.2890 0.2779
vn 0.2790 -0.9565 0.0846
vn 0.9524 0.0975 0.2889
vn 0.0942 0.9951 0.0286
vn 0.0942 -0.9951 0.0286
vn 0.9524 -0.0975 0.2889
vn 0.2790 0.9565 0.0846
vn 0.9161 -0.2890 0.2779
vn 0.4528 0.8810 0.1374
vn 0.8448 -0.4696 0.2563
vn 0.8777 0.0975 0.4691
vn 0.0869 0.9951 0.0464
vn 0.0869 -0.9951 0.0464
vn 0.8777 -0.0975 0.4691
vn 0.2571 0.9565 0.1374
vn 0.8443 -0.2890 0.4513
vn 0.4173 0.8810 0.2231
vn 0.7786 -0.4696 0.4162
vn 0.5611 0.7715 0.2999
vn 0.6831 -0.6326 0.3651
vn 0.6831 0.6326 0.3651
vn 0.5611 -0.7715 0.2999
vn 0.7786 0.4696 0.4162
vn 0.4173 -0.8810 0.2231
vn 0.8443 0.2890 0.4513
vn 0.2571 -0.9565 0.1374
vn 0.5987 -0.6326 0.4913
vn 0.5987 0.6326 0.4913
vn 0.4918 -0.7715 0.4036
vn 0.6825 0.4696 0.5601
vn 0.3658 -0.8810 0.3002
vn 0.7400 0.2890 0.6073
vn 0.2254 -0.9565 0.1850
vn 0.7693 0.0975 0.6314
vn 0.0761 0.9951 0.0625
vn 0.0761 -0.9951 0.0625
vn 0.7693 -0.0975 0.6314
vn 0.2254 0.9565 0.1850
vn 0.7400 -0.2890 0.6073
vn 0.3658 0.8810 0.3002
vn 0.6825 -0.4696 0.5601
vn 0.4918 0.7715 0.4036
vn 0.0625 0.9951 0.0761
vn 0.0625 -0.9951 0.0761
vn 0.6314 -0.0975 0.7693
vn 0.1850 0.9565 0.2254
vn 0.6073 -0.2890 0.7400
vn 0.3002 0.8810 0.3658
vn 0.5601 -0.4696 0.6825
vn 0.4036 0.7715 0.4918
vn 0.4913 -0.6326 0.5987
vn 0.4913 0.6326 0.5987
vn 0.4036 -0.7715 0.4918
vn 0.5601 0.4696 0.6825
vn 0.3002 -0.8810 0.3658
vn 0.6073 0.2890 0.7400
vn 0.1850 -0.9565 0.2254
vn 0.6314 0.0975 0.7693
vn 0.3651 0.6326 0.6831
vn 0.2999 -0.7715 0.5611
vn 0.4162 0.4696 0.7786
vn 0.2230 -0.8810 0.4173
vn 0.4513 0.2890 0.8443
vn 0.1374 -0.9565 0.2571
vn 0.4691 0.0975 0.8777
vn 0.0464 0.9951 0.0869
vn 0.0464 -0.9951 0.0869
vn 0.4691 -0.0975 0.8777
vn 0.1374 0.9565 0.2571
vn 0.4513 -0.2890 0.8443
vn 0.2230 0.8810 0.4173
vn 0.4162 -0.4696 0.7786
vn 0.2999 0.7715 0.5611
vn 0.3651 -0.6326 0.6831
vn 0.2889 -0.0975 0.9524
vn 0.0846 0.9565 0.2790
vn 0.2779 -0.2890 0.9161
vn 0.1374 0.8810 0.4528
vn 0.2563 -0.4696 0.8448
vn 0.1847 0.7715 0.6088
vn 0.2248 -0.6326 0.7412
vn 0.2248 0.6326 0.7412
vn 0.1847 -0.7715 0.6088
vn 0.2563 0.4696 0.8448
vn 0.1374 -0.8810 0.4528
vn 0.2779 0.2890 0.9161
vn 0.0846 -0.9565 0.2790
vn 0.2889 0.0975 0.9524
vn 0.0286 0.9951 0.0942
vn 0.0286 -0.9951 0.0942
vn 0.0624 -0.7715 0.6332
vn 0.0865 0.4696 0.8786
vn 0.0464 -0.8810 0.4709
vn 0.0938 0.2890 0.9527
vn 0.0286 -0.9565 0.2902
vn 0.0976 0.0975 0.9904
vn 0.0097 0.9951 0.0980
vn 0.0097 -0.9951 0.0980
vn 0.0976 -0.0975 0.9904
vn 0.0286 0.9565 0.2902
vn 0.0938 -0.2890 0.9527
vn 0.0464 0.8810 0.4709
vn 0.0865 -0.4696 0.8786
vn 0.0624 0.7715 0.6332
vn 0.0759 -0.6326 0.7708
vn 0.0759 0.6326 0.7708
vn -0.0975 0.0976 0.9904
vn -0.0975 -0.0975 0.9904
vn -0.2230 0.8810 0.4173
vn -0.2231 -0.8810 0.4173
vn -0.2254 -0.9565 0.1850
vn -0.4173 0.8810 -0.2230
vn -0.4173 -0.8810 -0.2231
vn -0.2231 -0.8810 -0.4173
vn 0.0975 0.0975 -0.9904
vn 0.0976 -0.0975 -0.9904
vn 0.2231 -0.8810 -0.4173
vn 0.2231 0.8810 -0.4173
vn 0.2254 -0.9565 -0.1850
vn 0.4173 -0.8810 -0.2230
vn 0.9904 0.0975 -0.0976
vn 0.9904 -0.0975 -0.0975
vn 0.9904 0.0975 0.0976
vn 0.9904 -0.0975 0.0975
vt 0.750000 0.250000
vt 0.718750 0.187500
vt 0.750000 0.187500
vt 0.750000 0.625000
vt 0.718750 0.687500
vt 0.718750 0.625000
vt 0.718750 0.125000
vt 0.750000 0.125000
vt 0.750000 0.562500
vt 0.718750 0.562500
vt 0.718750 0.062500
vt 0.750000 0.062500
vt 0.718750 0.500000
vt 0.750000 0.500000
vt 0.750000 0.937500
vt 0.734375 1.000000
vt 0.718750 0.937500
vt 0.734375 0.000000
vt 0.718750 0.437500
vt 0.750000 0.437500
vt 0.750000 0.875000
vt 0.718750 0.875000
vt 0.718750 0.375000
vt 0.750000 0.375000
vt 0.750000 0.812500
vt 0.718750 0.812500
vt 0.718750 0.312500
vt 0.750000 0.312500
vt 0.750000 0.750000
vt 0.718750 0.750000
vt 0.718750 0.250000
vt 0.750000 0.687500
vt 0.687500 0.750000
vt 0.687500 0.250000
vt 0.687500 0.687500
vt 0.687500 0.187500
vt 0.687500 0.625000
vt 0.687500 0.125000
vt 0.687500 0.562500
vt 0.687500 0.062500
vt 0.687500 0.500000
vt 0.703125 1.000000
vt 0.687500 0.937500
vt 0.703125 0.000000
vt 0.687500 0.437500
vt 0.687500 0.875000
vt 0.687500 0.375000
vt 0.687500 0.812500
vt 0.687500 0.312500
vt 0.656250 0.500000
vt 0.671875 1.000000
vt 0.656250 0.937500
vt 0.671875 0.000000
vt 0.656250 0.062500
vt 0.656250 0.437500
vt 0.656250 0.875000
vt 0.656250 0.375000
vt 0.656250 0.812500
vt 0.656250 0.312500
vt 0.656250 0.750000
vt 0.656250 0.250000
vt 0.656250 0.687500
vt 0.656250 0.187500
vt 0.656250 0.625000
vt 0.656250 0.125000
vt 0.656250 0.562500
vt 0.625000 0.250000
vt 0.625000 0.687500
vt 0.625000 0.187500
vt 0.625000 0.625000
vt 0.625000 0.125000
vt 0.625000 0.562500
vt 0.625000 0.062500
vt 0.625000 0.500000
vt 0.640625 1.000000
vt 0.625000 0.937500
vt 0.640625 0.000000
vt 0.625000 0.437500
vt 0.625000 0.875000
vt 0.625000 0.375000
vt 0.625000 0.812500
vt 0.625000 0.312500
vt 0.625000 0.750000
vt 0.609375 0.000000
vt 0.593750 0.062500
vt 0.593750 0.437500
vt 0.593750 0.875000
vt 0.593750 0.375000
vt 0.593750 0.812500
vt 0.593750 0.312500
vt 0.593750 0.750000
vt 0.593750 0.250000
vt 0.593750 0.687500
vt 0.593750 0.187500
vt 0.593750 0.625000
vt 0.593750 0.125000
vt 0.593750 0.562500
vt 0.593750 0.500000
vt 0.609375 1.000000
vt 0.593750 0.937500
vt 0.562500 0.187500
vt 0.562500 0.625000
vt 0.562500 0.125000
vt 0.562500 0.562500
vt 0.562500 0.062500
vt 0.562500 0.500000
vt 0.578125 1.000000
vt 0.562500 0.937500
vt 0.578125 0.000000
vt 0.562500 0.437500
vt 0.562500 0.875000
vt 0.562500 0.375000
vt 0.562500 0.812500
vt 0.562500 0.312500
vt 0.562500 0.750000
vt 0.562500 0.250000
vt 0.562500 0.687500
vt 0.531250 0.937500
vt 0.531250 0.875000
vt 0.531250 0.375000
vt 0.531250 0.812500
vt 0.531250 0.312500
vt 0.531250 0.750000
vt 0.531250 0.250000
vt 0.531250 0.687500
vt 0.531250 0.187500
vt 0.531250 0.625000
vt 0.531250 0.125000
vt 0.531250 0.562500
vt 0.531250 0.062500
vt 0.531250 0.500000
vt 0.546875 1.000000
vt 0.546875 0.000000
vt 0.531250 0.437500
vt 0.500000 0.625000
vt 0.500000 0.125000
vt 0.500000 0.562500
vt 0.500000 0.062500
vt 0.500000 0.500000
vt 0.515625 1.000000
vt 0.500000 0.937500
vt 0.515625 0.000000
vt 0.500000 0.437500
vt 0.500000 0.875000
vt 0.500000 0.375000
vt 0.500000 0.812500
vt 0.500000 0.312500
vt 0.500000 0.750000
vt 0.500000 0.250000
vt 0.500000 0.687500
vt 0.500000 0.187500
vt 0.468750 0.375000
vt 0.468750 0.812500
vt 0.468750 0.312500
vt 0.468750 0.750000
vt 0.468750 0.250000
vt 0.468750 0.687500
vt 0.468750 0.187500
vt 0.468750 0.625000
vt 0.468750 0.125000
vt 0.468750 0.562500
vt 0.468750 0.062500
vt 0.468750 0.500000
vt 0.484375 1.000000
vt 0.468750 0.937500
vt 0.484375 0.000000
vt 0.468750 0.437500
vt 0.468750 0.875000
vt 0.437500 0.125000
vt 0.437500 0.625000
vt 0.437500 0.562500
vt 0.437500 0.062500
vt 0.437500 0.500000
vt 0.453125 1.000000
vt 0.437500 0.937500
vt 0.453125 0.000000
vt 0.437500 0.437500
vt 0.437500 0.875000
vt 0.437500 0.375000
vt 0.437500 0.812500
vt 0.437500 0.312500
vt 0.437500 0.750000
vt 0.437500 0.250000
vt 0.437500 0.687500
vt 0.437500 0.187500
vt 0.406250 0.875000
vt 0.406250 0.812500
vt 0.406250 0.375000
vt 0.406250 0.312500
vt 0.406250 0.750000
vt 0.406250 0.250000
vt 0.406250 0.687500
vt 0.406250 0.187500
vt 0.406250 0.625000
vt 0.406250 0.125000
vt 0.406250 0.562500
vt 0.406250 0.062500
vt 0.406250 0.500000
vt 0.421875 1.000000
vt 0.406250 0.937500
vt 0.421875 0.000000
vt 0.406250 0.437500
vt 0.375000 0.625000
vt 0.375000 0.562500
vt 0.375000 0.125000
vt 0.375000 0.062500
vt 0.375000 0.500000
vt 0.390625 1.000000
vt 0.375000 0.937500
vt 0.390625 0.000000
vt 0.375000 0.437500
vt 0.375000 0.875000
vt 0.375000 0.375000
vt 0.375000 0.812500
vt 0.375000 0.312500
vt 0.375000 0.750000
vt 0.375000 0.250000
vt 0.375000 0.687500
vt 0.375000 0.187500
vt 0.343750 0.375000
vt 0.343750 0.312500
vt 0.343750 0.750000
vt 0.343750 0.250000
vt 0.343750 0.687500
vt 0.343750 0.187500
vt 0.343750 0.625000
vt 0.343750 0.125000
vt 0.343750 0.562500
vt 0.343750 0.062500
vt 0.343750 0.500000
vt 0.359375 1.000000
vt 0.343750 0.937500
vt 0.359375 0.000000
vt 0.343750 0.437500
vt 0.343750 0.875000
vt 0.343750 0.812500
vt 0.312500 0.062500
vt 0.312500 0.562500
vt 0.312500 0.500000
vt 0.328125 1.000000
vt 0.312500 0.937500
vt 0.328125 0.000000
vt 0.312500 0.437500
vt 0.312500 0.875000
vt 0.312500 0.375000
vt 0.312500 0.812500
vt 0.312500 0.312500
vt 0.312500 0.750000
vt 0.312500 0.250000
vt 0.312500 0.687500
vt 0.312500 0.187500
vt 0.312500 0.625000
vt 0.312500 0.125000
vt 0.281250 0.250000
vt 0.281250 0.750000
vt 0.281250 0.687500
vt 0.281250 0.187500
vt 0.281250 0.625000
vt 0.281250 0.125000
vt 0.281250 0.562500
vt 0.281250 0.062500
vt 0.281250 0.500000
vt 0.296875 1.000000
vt 0.281250 0.937500
vt 0.296875 0.000000
vt 0.281250 0.437500
vt 0.281250 0.875000
vt 0.281250 0.375000
vt 0.281250 0.812500
vt 0.281250 0.312500
vt 0.265625 1.000000
vt 0.250000 0.937500
vt 0.265625 0.000000
vt 0.250000 0.062500
vt 0.250000 0.437500
vt 0.250000 0.875000
vt 0.250000 0.375000
vt 0.250000 0.812500
vt 0.250000 0.312500
vt 0.250000 0.750000
vt 0.250000 0.250000
vt 0.250000 0.687500
vt 0.250000 0.187500
vt 0.250000 0.625000
vt 0.250000 0.125000
vt 0.250000 0.562500
vt 0.250000 0.500000
vt 0.218750 0.750000
vt 0.218750 0.687500
vt 0.218750 0.250000
vt 0.218750 0.187500
vt 0.218750 0.625000
vt 0.218750 0.125000
vt 0.218750 0.562500
vt 0.218750 0.062500
vt 0.218750 0.500000
vt 0.234375 1.000000
vt 0.218750 0.937500
vt 0.234375 0.000000
vt 0.218750 0.437500
vt 0.218750 0.875000
vt 0.218750 0.375000
vt 0.218750 0.812500
vt 0.218750 0.312500
vt 0.187500 0.437500
vt 0.187500 0.937500
vt 0.187500 0.875000
vt 0.187500 0.375000
vt 0.187500 0.812500
vt 0.187500 0.312500
vt 0.187500 0.750000
vt 0.187500 0.250000
vt 0.187500 0.687500
vt 0.187500 0.187500
vt 0.187500 0.625000
vt 0.187500 0.125000
vt 0.187500 0.562500
vt 0.187500 0.062500
vt 0.187500 0.500000
vt 0.203125 1.000000
vt 0.203125 0.000000
vt 0.156250 0.250000
vt 0.156250 0.187500
vt 0.156250 0.625000
vt 0.156250 0.125000
vt 0.156250 0.562500
vt 0.156250 0.062500
vt 0.156250 0.500000
vt 0.171875 1.000000
vt 0.156250 0.937500
vt 0.171875 0.000000
vt 0.156250 0.437500
vt 0.156250 0.875000
vt 0.156250 0.375000
vt 0.156250 0.812500
vt 0.156250 0.312500
vt 0.156250 0.750000
vt 0.156250 0.687500
vt 0.125000 0.875000
vt 0.125000 0.375000
vt 0.125000 0.812500
vt 0.125000 0.312500
vt 0.125000 0.750000
vt 0.125000 0.250000
vt 0.125000 0.687500
vt 0.125000 0.187500
vt 0.125000 0.625000
vt 0.125000 0.125000
vt 0.125000 0.562500
vt 0.125000 0.062500
vt 0.125000 0.500000
vt 0.140625 1.000000
vt 0.125000 0.937500
vt 0.140625 0.000000
vt 0.125000 0.437500
vt 0.093750 0.625000
vt 0.093750 0.125000
vt 0.093750 0.562500
vt 0.093750 0.062500
vt 0.093750 0.500000
vt 0.109375 1.000000
vt 0.093750 0.937500
vt 0.109375 0.000000
vt 0.093750 0.437500
vt 0.093750 0.875000
vt 0.093750 0.375000
vt 0.093750 0.812500
vt 0.093750 0.312500
vt 0.093750 0.750000
vt 0.093750 0.250000
vt 0.093750 0.687500
vt 0.093750 0.187500
vt 0.062500 0.375000
vt 0.062500 0.812500
vt 0.062500 0.312500
vt 0.062500 0.750000
vt 0.062500 0.250000
vt 0.062500 0.687500
vt 0.062500 0.187500
vt 0.062500 0.625000
vt 0.062500 0.125000
vt 0.062500 0.562500
vt 0.062500 0.062500
vt 0.062500 0.500000
vt 0.078125 1.000000
vt 0.062500 0.937500
vt 0.078125 0.000000
vt 0.062500 0.437500
vt 0.062500 0.875000
vt 0.031250 0.125000
vt 0.031250 0.625000
vt 0.031250 0.562500
vt 0.031250 0.062500
vt 0.031250 0.500000
vt 0.046875 1.000000
vt 0.031250 0.937500
vt 0.046875 0.000000
vt 0.031250 0.437500
vt 0.031250 0.875000
vt 0.031250 0.375000
vt 0.031250 0.812500
vt 0.031250 0.312500
vt 0.031250 0.750000
vt 0.031250 0.250000
vt 0.031250 0.687500
vt 0.031250 0.187500
vt 0.000000 0.375000
vt 0.000000 0.312500
vt 0.000000 0.750000
vt 0.000000 0.250000
vt 0.000000 0.687500
vt 0.000000 0.187500
vt 0.000000 0.625000
vt 0.000000 0.125000
vt 0.000000 0.562500
vt 0.000000 0.062500
vt 0.000000 0.500000
vt 0.015625 1.000000
vt 0.000000 0.937500
vt 0.015625 0.000000
vt 0.000000 0.437500
vt 0.000000 0.875000
vt 0.000000 0.812500
vt 1.000000 0.125000
vt 0.968750 0.062500
vt 1.000000 0.062500
vt 1.000000 0.500000
vt 0.968750 0.562500
vt 0.968750 0.500000
vt 1.000000 0.937500
vt 0.984375 1.000000
vt 0.968750 0.937500
vt 0.984375 0.000000
vt 0.968750 0.437500
vt 1.000000 0.437500
vt 0.968750 0.875000
vt 1.000000 0.875000
vt 0.968750 0.375000
vt 1.000000 0.375000
vt 1.000000 0.812500
vt 0.968750 0.812500
vt 1.000000 0.312500
vt 0.968750 0.312500
vt 0.968750 0.750000
vt 1.000000 0.750000
vt 0.968750 0.250000
vt 1.000000 0.250000
vt 1.000000 0.687500
vt 0.968750 0.687500
vt 1.000000 0.187500
vt 0.968750 0.187500
vt 0.968750 0.625000
vt 1.000000 0.625000
vt 0.968750 0.125000
vt 1.000000 0.562500
vt 0.937500 0.750000
vt 0.937500 0.250000
vt 0.937500 0.687500
vt 0.937500 0.187500
vt 0.937500 0.625000
vt 0.937500 0.125000
vt 0.937500 0.562500
vt 0.937500 0.062500
vt 0.937500 0.500000
vt 0.953125 1.000000
vt 0.937500 0.937500
vt 0.953125 0.000000
vt 0.937500 0.437500
vt 0.937500 0.875000
vt 0.937500 0.375000
vt 0.937500 0.812500
vt 0.937500 0.312500
vt 0.906250 0.562500
vt 0.906250 0.500000
vt 0.921875 1.000000
vt 0.906250 0.937500
vt 0.921875 0.000000
vt 0.906250 0.062500
vt 0.906250 0.437500
vt 0.906250 0.875000
vt 0.906250 0.375000
vt 0.906250 0.812500
vt 0.906250 0.312500
vt 0.906250 0.750000
vt 0.906250 0.250000
vt 0.906250 0.687500
vt 0.906250 0.187500
vt 0.906250 0.625000
vt 0.906250 0.125000
vt 0.875000 0.250000
vt 0.875000 0.750000
vt 0.875000 0.687500
vt 0.875000 0.187500
vt 0.875000 0.625000
vt 0.875000 0.125000
vt 0.875000 0.562500
vt 0.875000 0.062500
vt 0.875000 0.500000
vt 0.890625 1.000000
vt 0.875000 0.937500
vt 0.890625 0.000000
vt 0.875000 0.437500
vt 0.875000 0.875000
vt 0.875000 0.375000
vt 0.875000 0.812500
vt 0.875000 0.312500
vt 0.859375 1.000000
vt 0.843750 0.937500
vt 0.859375 0.000000
vt 0.843750 0.062500
vt 0.843750 0.437500
vt 0.843750 0.875000
vt 0.843750 0.375000
vt 0.843750 0.812500
vt 0.843750 0.312500
vt 0.843750 0.750000
vt 0.843750 0.250000
vt 0.843750 0.687500
vt 0.843750 0.187500
vt 0.843750 0.625000
vt 0.843750 0.125000
vt 0.843750 0.562500
vt 0.843750 0.500000
vt 0.812500 0.750000
vt 0.812500 0.687500
vt 0.812500 0.250000
vt 0.812500 0.187500
vt 0.812500 0.625000
vt 0.812500 0.125000
vt 0.812500 0.562500
vt 0.812500 0.062500
vt 0.812500 0.500000
vt 0.828125 1.000000
vt 0.812500 0.937500
vt 0.828125 0.000000
vt 0.812500 0.437500
vt 0.812500 0.875000
vt 0.812500 0.375000
vt 0.812500 0.812500
vt 0.812500 0.312500
vt 0.781250 0.437500
vt 0.781250 0.875000
vt 0.781250 0.375000
vt 0.781250 0.812500
vt 0.781250 0.312500
vt 0.781250 0.750000
vt 0.781250 0.250000
vt 0.781250 0.687500
vt 0.781250 0.187500
vt 0.781250 0.625000
vt 0.781250 0.125000
vt 0.781250 0.562500
vt 0.781250 0.062500
vt 0.781250 0.500000
vt 0.796875 1.000000
vt 0.781250 0.937500
vt 0.796875 0.000000
vt 0.765625 1.000000
vt 0.765625 0.000000
s 0
g off
g Sphere_Material.001
usemtl Material.001
f 479/1/1 21/2/1 480/3/1
f 477/4/2 13/5/2 14/6/2
f 480/3/3 22/7/3 481/8/3
f 4/9/4 14/6/4 15/10/4
f 481/8/5 23/11/5 482/12/5
f 4/9/6 16/13/6 5/14/6
f 474/15/7 1/16/7 9/17/7
f 8/18/8 482/12/8 23/11/8
f 5/14/9 17/19/9 6/20/9
f 475/21/10 9/17/10 10/22/10
f 6/20/11 18/23/11 478/24/11
f 2/25/12 10/22/12 11/26/12
f 478/24/13 19/27/13 7/28/13
f 476/29/14 11/26/14 12/30/14
f 7/28/15 20/31/15 479/1/15
f 3/32/16 12/30/16 13/5/16
f 11/26/17 27/33/17 12/30/17
f 19/27/18 35/34/18 20/31/18
f 12/30/19 28/35/19 13/5/19
f 21/2/20 35/34/20 36/36/20
f 13/5/21 29/37/21 14/6/21
f 22/7/22 36/36/22 37/38/22
f 15/10/23 29/37/23 30/39/23
f 22/7/24 38/40/24 23/11/24
f 15/10/25 31/41/25 16/13/25
f 9/17/26 1/42/26 24/43/26
f 8/44/27 23/11/27 38/40/27
f 16/13/28 32/45/28 17/19/28
f 9/17/29 25/46/29 10/22/29
f 17/19/30 33/47/30 18/23/30
f 10/22/31 26/48/31 11/26/31
f 18/23/32 34/49/32 19/27/32
f 30/39/33 46/50/33 31/41/33
f 24/43/34 1/51/34 39/52/34
f 8/53/35 38/40/35 53/54/35
f 32/45/36 46/50/36 47/55/36
f 24/43/37 40/56/37 25/46/37
f 32/45/38 48/57/38 33/47/38
f 25/46/39 41/58/39 26/48/39
f 34/49/40 48/57/40 49/59/40
f 26/48/41 42/60/41 27/33/41
f 35/34/42 49/59/42 50/61/42
f 27/33/43 43/62/43 28/35/43
f 36/36/44 50/61/44 51/63/44
f 28/35/45 44/64/45 29/37/45
f 36/36/46 52/65/46 37/38/46
f 29/37/47 45/66/47 30/39/47
f 37/38/48 53/54/48 38/40/48
f 49/59/49 65/67/49 50/61/49
f 42/60/50 58/68/50 43/62/50
f 50/61/51 66/69/51 51/63/51
f 43/62/52 59/70/52 44/64/52
f 51/63/53 67/71/53 52/65/53
f 45/66/54 59/70/54 60/72/54
f 52/65/55 68/73/55 53/54/55
f 46/50/56 60/72/56 61/74/56
f 39/52/57 1/75/57 54/76/57
f 8/77/58 53/54/58 68/73/58
f 46/50/59 62/78/59 47/55/59
f 39/52/60 55/79/60 40/56/60
f 47/55/61 63/80/61 48/57/61
f 40/56/62 56/81/62 41/58/62
f 49/59/63 63/80/63 64/82/63
f 41/58/64 57/83/64 42/60/64
f 8/84/65 68/73/65 83/85/65
f 61/74/66 77/86/66 62/78/66
f 54/76/67 70/87/67 55/79/67
f 62/78/68 78/88/68 63/80/68
f 55/79/69 71/89/69 56/81/69
f 64/82/70 78/88/70 79/90/70
f 56/81/71 72/91/71 57/83/71
f 64/82/72 80/92/72 65/67/72
f 58/68/73 72/91/73 73/93/73
f 65/67/74 81/94/74 66/69/74
f 58/68/75 74/95/75 59/70/75
f 67/71/76 81/94/76 82/96/76
f 60/72/77 74/95/77 75/97/77
f 67/71/78 83/85/78 68/73/78
f 61/74/79 75/97/79 76/98/79
f 54/76/80 1/99/80 69/100/80
f 80/92/81 96/101/81 81/94/81
f 73/93/82 89/102/82 74/95/82
f 81/94/83 97/103/83 82/96/83
f 75/97/84 89/102/84 90/104/84
f 83/85/85 97/103/85 98/105/85
f 76/98/86 90/104/86 91/106/86
f 69/100/87 1/107/87 84/108/87
f 8/109/88 83/85/88 98/105/88
f 76/98/89 92/110/89 77/86/89
f 69/100/90 85/111/90 70/87/90
f 77/86/91 93/112/91 78/88/91
f 70/87/92 86/113/92 71/89/92
f 79/90/93 93/112/93 94/114/93
f 71/89/94 87/115/94 72/91/94
f 79/90/95 95/116/95 80/92/95
f 73/93/96 87/115/96 88/117/96
f 85/111/97 99/118/97 100/119/97
f 92/110/98 108/120/98 93/112/98
f 85/111/99 101/121/99 86/113/99
f 94/114/100 108/120/100 109/122/100
f 86/113/101 102/123/101 87/115/101
f 94/114/102 110/124/102 95/116/102
f 88/117/103 102/123/103 103/125/103
f 96/101/104 110/124/104 111/126/104
f 88/117/105 104/127/105 89/102/105
f 97/103/106 111/126/106 112/128/106
f 90/104/107 104/127/107 105/129/107
f 97/103/108 113/130/108 98/105/108
f 91/106/109 105/129/109 106/131/109
f 84/108/110 1/132/110 99/118/110
f 8/133/111 98/105/111 113/130/111
f 91/106/112 107/134/112 92/110/112
f 103/125/113 119/135/113 104/127/113
f 111/126/114 127/136/114 112/128/114
f 105/129/115 119/135/115 120/137/115
f 112/128/116 128/138/116 113/130/116
f 106/131/117 120/137/117 121/139/117
f 99/118/118 1/140/118 114/141/118
f 8/142/119 113/130/119 128/138/119
f 106/131/120 122/143/120 107/134/120
f 100/119/121 114/141/121 115/144/121
f 107/134/122 123/145/122 108/120/122
f 100/119/123 116/146/123 101/121/123
f 109/122/124 123/145/124 124/147/124
f 101/121/125 117/148/125 102/123/125
f 109/122/126 125/149/126 110/124/126
f 103/125/127 117/148/127 118/150/127
f 111/126/128 125/149/128 126/151/128
f 122/143/129 138/152/129 123/145/129
f 115/144/130 131/153/130 116/146/130
f 124/147/131 138/152/131 139/154/131
f 116/146/132 132/155/132 117/148/132
f 124/147/133 140/156/133 125/149/133
f 118/150/134 132/155/134 133/157/134
f 126/151/135 140/156/135 141/158/135
f 118/150/136 134/159/136 119/135/136
f 126/151/137 142/160/137 127/136/137
f 120/137/138 134/159/138 135/161/138
f 127/136/139 143/162/139 128/138/139
f 121/139/140 135/161/140 136/163/140
f 114/141/141 1/164/141 129/165/141
f 8/166/142 128/138/142 143/162/142
f 121/139/143 137/167/143 122/143/143
f 114/141/144 130/168/144 115/144/144
f 141/158/145 157/169/145 142/160/145
f 135/161/146 149/170/146 150/171/146
f 143/162/147 157/169/147 158/172/147
f 136/163/148 150/171/148 151/173/148
f 129/165/149 1/174/149 144/175/149
f 8/176/150 143/162/150 158/172/150
f 136/163/151 152/177/151 137/167/151
f 129/165/152 145/178/152 130/168/152
f 137/167/153 153/179/153 138/152/153
f 131/153/154 145/178/154 146/180/154
f 139/154/155 153/179/155 154/181/155
f 131/153/156 147/182/156 132/155/156
f 139/154/157 155/183/157 140/156/157
f 133/157/158 147/182/158 148/184/158
f 141/158/159 155/183/159 156/185/159
f 133/157/160 149/170/160 134/159/160
f 146/180/161 160/186/161 161/187/161
f 154/181/162 168/188/162 169/189/162
f 146/180/163 162/190/163 147/182/163
f 154/181/164 170/191/164 155/183/164
f 148/184/165 162/190/165 163/192/165
f 156/185/166 170/191/166 171/193/166
f 148/184/167 164/194/167 149/170/167
f 156/185/168 172/195/168 157/169/168
f 150/171/169 164/194/169 165/196/169
f 157/169/170 173/197/170 158/172/170
f 151/173/171 165/196/171 166/198/171
f 144/175/172 1/199/172 159/200/172
f 8/201/173 158/172/173 173/197/173
f 151/173/174 167/202/174 152/177/174
f 144/175/175 160/186/175 145/178/175
f 152/177/176 168/188/176 153/179/176
f 165/196/177 179/203/177 180/204/177
f 173/197/178 187/205/178 188/206/178
f 166/198/179 180/204/179 181/207/179
f 159/200/180 1/208/180 174/209/180
f 8/210/181 173/197/181 188/206/181
f 166/198/182 182/211/182 167/202/182
f 159/200/183 175/212/183 160/186/183
f 167/202/184 183/213/184 168/188/184
f 160/186/185 176/214/185 161/187/185
f 169/189/186 183/213/186 184/215/186
f 161/187/187 177/216/187 162/190/187
f 169/189/188 185/217/188 170/191/188
f 163/192/189 177/216/189 178/218/189
f 170/191/190 186/219/190 171/193/190
f 163/192/191 179/203/191 164/194/191
f 172/195/192 186/219/192 187/205/192
f 184/215/193 198/220/193 199/221/193
f 176/214/194 192/222/194 177/216/194
f 184/215/195 200/223/195 185/217/195
f 178/218/196 192/222/196 193/224/196
f 186/219/197 200/223/197 201/225/197
f 178/218/198 194/226/198 179/203/198
f 186/219/199 202/227/199 187/205/199
f 180/204/200 194/226/200 195/228/200
f 187/205/201 203/229/201 188/206/201
f 181/207/202 195/228/202 196/230/202
f 174/209/203 1/231/203 189/232/203
f 8/233/204 188/206/204 203/229/204
f 181/207/205 197/234/205 182/211/205
f 175/212/206 189/232/206 190/235/206
f 182/211/207 198/220/207 183/213/207
f 176/214/208 190/235/208 191/236/208
f 202/227/209 218/237/209 203/229/209
f 196/230/210 210/238/210 211/239/210
f 189/232/211 1/240/211 204/241/211
f 8/242/212 203/229/212 218/237/212
f 196/230/213 212/243/213 197/234/213
f 189/232/214 205/244/214 190/235/214
f 197/234/215 213/245/215 198/220/215
f 190/235/216 206/246/216 191/236/216
f 199/221/217 213/245/217 214/247/217
f 191/236/218 207/248/218 192/222/218
f 199/221/219 215/249/219 200/223/219
f 193/224/220 207/248/220 208/250/220
f 201/225/221 215/249/221 216/251/221
f 193/224/222 209/252/222 194/226/222
f 201/225/223 217/253/223 202/227/223
f 195/228/224 209/252/224 210/238/224
f 214/247/225 230/254/225 215/249/225
f 208/250/226 222/255/226 223/256/226
f 216/251/227 230/254/227 231/257/227
f 208/250/228 224/258/228 209/252/228
f 216/251/229 232/259/229 217/253/229
f 210/238/230 224/258/230 225/260/230
f 217/253/231 233/261/231 218/237/231
f 211/239/232 225/260/232 226/262/232
f 204/241/233 1/263/233 219/264/233
f 8/265/234 218/237/234 233/261/234
f 211/239/235 227/266/235 212/243/235
f 204/241/236 220/267/236 205/244/236
f 212/243/237 228/268/237 213/245/237
f 205/244/238 221/269/238 206/246/238
f 214/247/239 228/268/239 229/270/239
f 206/246/240 222/255/240 207/248/240
f 219/264/241 1/271/241 234/272/241
f 8/273/242 233/261/242 248/274/242
f 226/262/243 242/275/243 227/266/243
f 219/264/244 235/276/244 220/267/244
f 227/266/245 243/277/245 228/268/245
f 221/269/246 235/276/246 236/278/246
f 229/270/247 243/277/247 244/279/247
f 221/269/248 237/280/248 222/255/248
f 229/270/249 245/281/249 230/254/249
f 223/256/250 237/280/250 238/282/250
f 231/257/251 245/281/251 246/283/251
f 223/256/252 239/284/252 224/258/252
f 231/257/253 247/285/253 232/259/253
f 225/260/254 239/284/254 240/286/254
f 233/261/255 247/285/255 248/274/255
f 226/262/256 240/286/256 241/287/256
f 238/282/257 252/288/257 253/289/257
f 246/283/258 260/290/258 261/291/258
f 238/282/259 254/292/259 239/284/259
f 246/283/260 262/293/260 247/285/260
f 240/286/261 254/292/261 255/294/261
f 247/285/262 263/295/262 248/274/262
f 241/287/263 255/294/263 256/296/263
f 234/272/264 1/297/264 249/298/264
f 8/299/265 248/274/265 263/295/265
f 241/287/266 257/300/266 242/275/266
f 234/272/267 250/301/267 235/276/267
f 242/275/268 258/302/268 243/277/268
f 235/276/269 251/303/269 236/278/269
f 244/279/270 258/302/270 259/304/270
f 236/278/271 252/288/271 237/280/271
f 244/279/272 260/290/272 245/281/272
f 256/296/273 272/305/273 257/300/273
f 250/301/274 264/306/274 265/307/274
f 257/300/275 273/308/275 258/302/275
f 250/301/276 266/309/276 251/303/276
f 259/304/277 273/308/277 274/310/277
f 251/303/278 267/311/278 252/288/278
f 259/304/279 275/312/279 260/290/279
f 253/289/280 267/311/280 268/313/280
f 261/291/281 275/312/281 276/314/281
f 253/289/282 269/315/282 254/292/282
f 261/291/283 277/316/283 262/293/283
f 255/294/284 269/315/284 270/317/284
f 262/293/285 278/318/285 263/295/285
f 256/296/286 270/317/286 271/319/286
f 249/298/287 1/320/287 264/306/287
f 8/321/288 263/295/288 278/318/288
f 276/314/289 290/322/289 291/323/289
f 268/313/290 284/324/290 269/315/290
f 276/314/291 292/325/291 277/316/291
f 270/317/292 284/324/292 285/326/292
f 278/318/293 292/325/293 293/327/293
f 271/319/294 285/326/294 286/328/294
f 264/306/295 1/329/295 279/330/295
f 8/331/296 278/318/296 293/327/296
f 271/319/297 287/332/297 272/305/297
f 265/307/298 279/330/298 280/333/298
f 272/305/299 288/334/299 273/308/299
f 265/307/300 281/335/300 266/309/300
f 274/310/301 288/334/301 289/336/301
f 266/309/302 282/337/302 267/311/302
f 274/310/303 290/322/303 275/312/303
f 268/313/304 282/337/304 283/338/304
f 279/330/305 295/339/305 280/333/305
f 287/332/306 303/340/306 288/334/306
f 280/333/307 296/341/307 281/335/307
f 289/336/308 303/340/308 304/342/308
f 281/335/309 297/343/309 282/337/309
f 289/336/310 305/344/310 290/322/310
f 283/338/311 297/343/311 298/345/311
f 291/323/312 305/344/312 306/346/312
f 283/338/313 299/347/313 284/324/313
f 291/323/314 307/348/314 292/325/314
f 285/326/315 299/347/315 300/349/315
f 293/327/316 307/348/316 308/350/316
f 286/328/317 300/349/317 301/351/317
f 279/330/318 1/352/318 294/353/318
f 8/354/319 293/327/319 308/350/319
f 286/328/320 302/355/320 287/332/320
f 298/345/321 314/356/321 299/347/321
f 306/346/322 322/357/322 307/348/322
f 300/349/323 314/356/323 315/358/323
f 307/348/324 323/359/324 308/350/324
f 301/351/325 315/358/325 316/360/325
f 294/353/326 1/361/326 309/362/326
f 8/363/327 308/350/327 323/359/327
f 301/351/328 317/364/328 302/355/328
f 294/353/329 310/365/329 295/339/329
f 302/355/330 318/366/330 303/340/330
f 295/339/331 311/367/331 296/341/331
f 304/342/332 318/366/332 319/368/332
f 296/341/333 312/369/333 297/343/333
f 304/342/334 320/370/334 305/344/334
f 298/345/335 312/369/335 313/371/335
f 306/346/336 320/370/336 321/372/336
f 317/364/337 333/373/337 318/366/337
f 310/365/338 326/374/338 311/367/338
f 319/368/339 333/373/339 334/375/339
f 311/367/340 327/376/340 312/369/340
f 319/368/341 335/377/341 320/370/341
f 312/369/342 328/378/342 313/371/342
f 321/372/343 335/377/343 336/379/343
f 313/371/344 329/380/344 314/356/344
f 321/372/345 337/381/345 322/357/345
f 315/358/346 329/380/346 330/382/346
f 322/357/347 338/383/347 323/359/347
f 316/360/348 330/382/348 331/384/348
f 309/362/349 1/385/349 324/386/349
f 8/387/350 323/359/350 338/383/350
f 316/360/351 332/388/351 317/364/351
f 309/362/352 325/389/352 310/365/352
f 336/379/353 352/390/353 337/381/353
f 330/382/354 344/391/354 345/392/354
f 337/381/355 353/393/355 338/383/355
f 331/384/356 345/392/356 346/394/356
f 324/386/357 1/395/357 339/396/357
f 8/397/358 338/383/358 353/393/358
f 331/384/359 347/398/359 332/388/359
f 324/386/360 340/399/360 325/389/360
f 332/388/361 348/400/361 333/373/361
f 325/389/362 341/401/362 326/374/362
f 334/375/363 348/400/363 349/402/363
f 326/374/364 342/403/364 327/376/364
f 334/375/365 350/404/365 335/377/365
f 328/378/366 342/403/366 343/405/366
f 336/379/367 350/404/367 351/406/367
f 328/378/368 344/391/368 329/380/368
f 349/402/369 363/407/369 364/408/369
f 341/401/370 357/409/370 342/403/370
f 349/402/371 365/410/371 350/404/371
f 343/405/372 357/409/372 358/411/372
f 351/406/373 365/410/373 366/412/373
f 343/405/374 359/413/374 344/391/374
f 351/406/375 367/414/375 352/390/375
f 345/392/376 359/413/376 360/415/376
f 352/390/377 368/416/377 353/393/377
f 346/394/378 360/415/378 361/417/378
f 339/396/379 1/418/379 354/419/379
f 8/420/380 353/393/380 368/416/380
f 346/394/381 362/421/381 347/398/381
f 339/396/382 355/422/382 340/399/382
f 347/398/383 363/407/383 348/400/383
f 341/401/384 355/422/384 356/423/384
f 367/424/385 383/425/385 368/426/385
f 361/427/386 375/428/386 376/429/386
f 354/430/387 1/431/387 369/432/387
f 8/433/388 368/426/388 383/425/388
f 361/427/389 377/434/389 362/435/389
f 354/430/390 370/436/390 355/437/390
f 362/435/391 378/438/391 363/439/391
f 356/440/392 370/436/392 371/441/392
f 364/442/393 378/438/393 379/443/393
f 356/440/394 372/444/394 357/445/394
f 364/442/395 380/446/395 365/447/395
f 358/448/396 372/444/396 373/449/396
f 366/450/397 380/446/397 381/451/397
f 358/448/398 374/452/398 359/453/398
f 366/450/399 382/454/399 367/424/399
f 360/455/400 374/452/400 375/428/400
f 371/441/401 387/456/401 372/444/401
f 379/443/402 395/457/402 380/446/402
f 373/449/403 387/456/403 388/458/403
f 381/451/404 395/457/404 396/459/404
f 373/449/405 389/460/405 374/452/405
f 381/451/406 397/461/406 382/454/406
f 375/428/407 389/460/407 390/462/407
f 382/454/408 398/463/408 383/425/408
f 376/429/409 390/462/409 391/464/409
f 369/432/410 1/465/410 384/466/410
f 8/467/411 383/425/411 398/463/411
f 376/429/412 392/468/412 377/434/412
f 369/432/413 385/469/413 370/436/413
f 377/434/414 393/470/414 378/438/414
f 371/441/415 385/469/415 386/471/415
f 379/443/416 393/470/416 394/472/416
f 391/464/417 405/473/417 406/474/417
f 384/466/418 1/475/418 399/476/418
f 8/477/419 398/463/419 413/478/419
f 391/464/420 407/479/420 392/468/420
f 385/469/421 399/476/421 400/480/421
f 392/468/422 408/481/422 393/470/422
f 385/469/423 401/482/423 386/471/423
f 394/472/424 408/481/424 409/483/424
f 386/471/425 402/484/425 387/456/425
f 394/472/426 410/485/426 395/457/426
f 388/458/427 402/484/427 403/486/427
f 396/459/428 410/485/428 411/487/428
f 388/458/429 404/488/429 389/460/429
f 397/461/430 411/487/430 412/489/430
f 390/462/431 404/488/431 405/473/431
f 397/461/432 413/478/432 398/463/432
f 409/483/433 425/490/433 410/485/433
f 403/486/434 417/491/434 418/492/434
f 411/487/435 425/490/435 426/493/435
f 403/486/436 419/494/436 404/488/436
f 411/487/437 427/495/437 412/489/437
f 405/473/438 419/494/438 420/496/438
f 412/489/439 428/497/439 413/478/439
f 406/474/440 420/496/440 421/498/440
f 399/476/441 1/499/441 414/500/441
f 8/501/442 413/478/442 428/497/442
f 406/474/443 422/502/443 407/479/443
f 399/476/444 415/503/444 400/480/444
f 407/479/445 423/504/445 408/481/445
f 401/482/446 415/503/446 416/505/446
f 409/483/447 423/504/447 424/506/447
f 401/482/448 417/491/448 402/484/448
f 414/500/449 1/507/449 429/508/449
f 8/509/450 428/497/450 443/510/450
f 421/498/451 437/511/451 422/502/451
f 414/500/452 430/512/452 415/503/452
f 422/502/453 438/513/453 423/504/453
f 416/505/454 430/512/454 431/514/454
f 424/506/455 438/513/455 439/515/455
f 416/505/456 432/516/456 417/491/456
f 424/506/457 440/517/457 425/490/457
f 418/492/458 432/516/458 433/518/458
f 426/493/459 440/517/459 441/519/459
f 418/492/460 434/520/460 419/494/460
f 426/493/461 442/521/461 427/495/461
f 420/496/462 434/520/462 435/522/462
f 427/495/463 443/510/463 428/497/463
f 421/498/464 435/522/464 436/523/464
f 433/518/465 447/524/465 448/525/465
f 441/519/466 455/526/466 456/527/466
f 433/518/467 449/528/467 434/520/467
f 441/519/468 457/529/468 442/521/468
f 435/522/469 449/528/469 450/530/469
f 442/521/470 458/531/470 443/510/470
f 436/523/471 450/530/471 451/532/471
f 429/508/472 1/533/472 444/534/472
f 8/535/473 443/510/473 458/531/473
f 436/523/474 452/536/474 437/511/474
f 430/512/475 444/534/475 445/537/475
f 437/511/476 453/538/476 438/513/476
f 430/512/477 446/539/477 431/514/477
f 439/515/478 453/538/478 454/540/478
f 431/514/479 447/524/479 432/516/479
f 439/515/480 455/526/480 440/517/480
f 451/532/481 467/541/481 452/536/481
f 444/534/482 460/542/482 445/537/482
f 452/536/483 468/543/483 453/538/483
f 446/539/484 460/542/484 461/544/484
f 454/540/485 468/543/485 469/545/485
f 446/539/486 462/546/486 447/524/486
f 454/540/487 470/547/487 455/526/487
f 448/525/488 462/546/488 463/548/488
f 456/527/489 470/547/489 471/549/489
f 448/525/490 464/550/490 449/528/490
f 456/527/491 472/551/491 457/529/491
f 450/530/492 464/550/492 465/552/492
f 458/531/493 472/551/493 473/553/493
f 451/532/494 465/552/494 466/554/494
f 444/534/495 1/555/495 459/556/495
f 8/557/496 458/531/496 473/553/496
f 471/549/497 479/1/497 480/3/497
f 464/550/498 3/32/498 477/4/498
f 471/549/499 481/8/499 472/551/499
f 465/552/500 477/4/500 4/9/500
f 472/551/501 482/12/501 473/553/501
f 466/554/502 4/9/502 5/14/502
f 459/556/503 1/558/503 474/15/503
f 8/559/504 473/553/504 482/12/504
f 466/554/505 6/20/505 467/541/505
f 460/542/506 474/15/506 475/21/506
f 467/541/507 478/24/507 468/543/507
f 461/544/508 475/21/508 2/25/508
f 468/543/509 7/28/509 469/545/509
f 462/546/510 2/25/510 476/29/510
f 469/545/511 479/1/511 470/547/511
f 463/548/512 476/29/512 3/32/512
f 479/1/1 20/31/1 21/2/1
f 477/4/2 3/32/2 13/5/2
f 480/3/3 21/2/3 22/7/3
f 4/9/4 477/4/4 14/6/4
f 481/8/5 22/7/5 23/11/5
f 4/9/513 15/10/513 16/13/513
f 5/14/514 16/13/514 17/19/514
f 475/21/10 474/15/10 9/17/10
f 6/20/11 17/19/11 18/23/11
f 2/25/12 475/21/12 10/22/12
f 478/24/13 18/23/13 19/27/13
f 476/29/14 2/25/14 11/26/14
f 7/28/15 19/27/15 20/31/15
f 3/32/16 476/29/16 12/30/16
f 11/26/17 26/48/17 27/33/17
f 19/27/18 34/49/18 35/34/18
f 12/30/19 27/33/19 28/35/19
f 21/2/20 20/31/20 35/34/20
f 13/5/21 28/35/21 29/37/21
f 22/7/22 21/2/22 36/36/22
f 15/10/23 14/6/23 29/37/23
f 22/7/24 37/38/24 38/40/24
f 15/10/25 30/39/25 31/41/25
f 16/13/28 31/41/28 32/45/28
f 9/17/29 24/43/29 25/46/29
f 17/19/30 32/45/30 33/47/30
f 10/22/31 25/46/31 26/48/31
f 18/23/32 33/47/32 34/49/32
f 30/39/33 45/66/33 46/50/33
f 32/45/36 31/41/36 46/50/36
f 24/43/37 39/52/37 40/56/37
f 32/45/38 47/55/38 48/57/38
f 25/46/515 40/56/515 41/58/515
f 34/49/40 33/47/40 48/57/40
f 26/48/41 41/58/41 42/60/41
f 35/34/42 34/49/42 49/59/42
f 27/33/43 42/60/43 43/62/43
f 36/36/44 35/34/44 50/61/44
f 28/35/45 43/62/45 44/64/45
f 36/36/516 51/63/516 52/65/516
f 29/37/47 44/64/47 45/66/47
f 37/38/48 52/65/48 53/54/48
f 49/59/49 64/82/49 65/67/49
f 42/60/50 57/83/50 58/68/50
f 50/61/51 65/67/51 66/69/51
f 43/62/52 58/68/52 59/70/52
f 51/63/53 66/69/53 67/71/53
f 45/66/54 44/64/54 59/70/54
f 52/65/55 67/71/55 68/73/55
f 46/50/56 45/66/56 60/72/56
f 46/50/59 61/74/59 62/78/59
f 39/52/60 54/76/60 55/79/60
f 47/55/61 62/78/61 63/80/61
f 40/56/62 55/79/62 56/81/62
f 49/59/63 48/57/63 63/80/63
f 41/58/64 56/81/64 57/83/64
f 61/74/66 76/98/66 77/86/66
f 54/76/67 69/100/67 70/87/67
f 62/78/68 77/86/68 78/88/68
f 55/79/69 70/87/69 71/89/69
f 64/82/70 63/80/70 78/88/70
f 56/81/71 71/89/71 72/91/71
f 64/82/72 79/90/72 80/92/72
f 58/68/73 57/83/73 72/91/73
f 65/67/74 80/92/74 81/94/74
f 58/68/75 73/93/75 74/95/75
f 67/71/76 66/69/76 81/94/76
f 60/72/77 59/70/77 74/95/77
f 67/71/517 82/96/517 83/85/517
f 61/74/79 60/72/79 75/97/79
f 80/92/81 95/116/81 96/101/81
f 73/93/82 88/117/82 89/102/82
f 81/94/83 96/101/83 97/103/83
f 75/97/84 74/95/84 89/102/84
f 83/85/85 82/96/85 97/103/85
f 76/98/86 75/97/86 90/104/86
f 76/98/89 91/106/89 92/110/89
f 69/100/90 84/108/90 85/111/90
f 77/86/91 92/110/91 93/112/91
f 70/87/92 85/111/92 86/113/92
f 79/90/93 78/88/93 93/112/93
f 71/89/94 86/113/94 87/115/94
f 79/90/95 94/114/95 95/116/95
f 73/93/96 72/91/96 87/115/96
f 85/111/97 84/108/97 99/118/97
f 92/110/98 107/134/98 108/120/98
f 85/111/99 100/119/99 101/121/99
f 94/114/100 93/112/100 108/120/100
f 86/113/101 101/121/101 102/123/101
f 94/114/102 109/122/102 110/124/102
f 88/117/103 87/115/103 102/123/103
f 96/101/104 95/116/104 110/124/104
f 88/117/105 103/125/105 104/127/105
f 97/103/106 96/101/106 111/126/106
f 90/104/107 89/102/107 104/127/107
f 97/103/108 112/128/108 113/130/108
f 91/106/109 90/104/109 105/129/109
f 91/106/112 106/131/112 107/134/112
f 103/125/113 118/150/113 119/135/113
f 111/126/114 126/151/114 127/136/114
f 105/129/115 104/127/115 119/135/115
f 112/128/116 127/136/116 128/138/116
f 106/131/117 105/129/117 120/137/117
f 106/131/120 121/139/120 122/143/120
f 100/119/121 99/118/121 114/141/121
f 107/134/122 122/143/122 123/145/122
f 100/119/123 115/144/123 116/146/123
f 109/122/124 108/120/124 123/145/124
f 101/121/125 116/146/125 117/148/125
f 109/122/126 124/147/126 125/149/126
f 103/125/127 102/123/127 117/148/127
f 111/126/128 110/124/128 125/149/128
f 122/143/129 137/167/129 138/152/129
f 115/144/130 130/168/130 131/153/130
f 124/147/131 123/145/131 138/152/131
f 116/146/132 131/153/132 132/155/132
f 124/147/133 139/154/133 140/156/133
f 118/150/134 117/148/134 132/155/134
f 126/151/135 125/149/135 140/156/135
f 118/150/136 133/157/136 134/159/136
f 126/151/137 141/158/137 142/160/137
f 120/137/138 119/135/138 134/159/138
f 127/136/139 142/160/139 143/162/139
f 121/139/140 120/137/140 135/161/140
f 121/139/143 136/163/143 137/167/143
f 114/141/144 129/165/144 130/168/144
f 141/158/145 156/185/145 157/169/145
f 135/161/146 134/159/146 149/170/146
f 143/162/147 142/160/147 157/169/147
f 136/163/148 135/161/148 150/171/148
f 136/163/151 151/173/151 152/177/151
f 129/165/152 144/175/152 145/178/152
f 137/167/153 152/177/153 153/179/153
f 131/153/154 130/168/154 145/178/154
f 139/154/155 138/152/155 153/179/155
f 131/153/156 146/180/156 147/182/156
f 139/154/157 154/181/157 155/183/157
f 133/157/158 132/155/158 147/182/158
f 141/158/159 140/156/159 155/183/159
f 133/157/160 148/184/160 149/170/160
f 146/180/518 145/178/518 160/186/518
f 154/181/162 153/179/162 168/188/162
f 146/180/163 161/187/163 162/190/163
f 154/181/164 169/189/164 170/191/164
f 148/184/165 147/182/165 162/190/165
f 156/185/166 155/183/166 170/191/166
f 148/184/167 163/192/167 164/194/167
f 156/185/519 171/193/519 172/195/519
f 150/171/169 149/170/169 164/194/169
f 157/169/170 172/195/170 173/197/170
f 151/173/171 150/171/171 165/196/171
f 151/173/174 166/198/174 167/202/174
f 144/175/175 159/200/175 160/186/175
f 152/177/176 167/202/176 168/188/176
f 165/196/177 164/194/177 179/203/177
f 173/197/178 172/195/178 187/205/178
f 166/198/179 165/196/179 180/204/179
f 166/198/182 181/207/182 182/211/182
f 159/200/183 174/209/183 175/212/183
f 167/202/184 182/211/184 183/213/184
f 160/186/185 175/212/185 176/214/185
f 169/189/186 168/188/186 183/213/186
f 161/187/187 176/214/187 177/216/187
f 169/189/188 184/215/188 185/217/188
f 163/192/189 162/190/189 177/216/189
f 170/191/190 185/217/190 186/219/190
f 163/192/191 178/218/191 179/203/191
f 172/195/192 171/193/192 186/219/192
f 184/215/193 183/213/193 198/220/193
f 176/214/194 191/236/194 192/222/194
f 184/215/195 199/221/195 200/223/195
f 178/218/196 177/216/196 192/222/196
f 186/219/197 185/217/197 200/223/197
f 178/218/198 193/224/198 194/226/198
f 186/219/199 201/225/199 202/227/199
f 180/204/200 179/203/200 194/226/200
f 187/205/201 202/227/201 203/229/201
f 181/207/202 180/204/202 195/228/202
f 181/207/205 196/230/205 197/234/205
f 175/212/206 174/209/206 189/232/206
f 182/211/207 197/234/207 198/220/207
f 176/214/208 175/212/208 190/235/208
f 202/227/209 217/253/209 218/237/209
f 196/230/210 195/228/210 210/238/210
f 196/230/213 211/239/213 212/243/213
f 189/232/214 204/241/214 205/244/214
f 197/234/215 212/243/215 213/245/215
f 190/235/216 205/244/216 206/246/216
f 199/221/217 198/220/217 213/245/217
f 191/236/218 206/246/218 207/248/218
f 199/221/219 214/247/219 215/249/219
f 193/224/220 192/222/220 207/248/220
f 201/225/221 200/223/221 215/249/221
f 193/224/222 208/250/222 209/252/222
f 201/225/520 216/251/520 217/253/520
f 195/228/224 194/226/224 209/252/224
f 214/247/225 229/270/225 230/254/225
f 208/250/226 207/248/226 222/255/226
f 216/251/227 215/249/227 230/254/227
f 208/250/228 223/256/228 224/258/228
f 216/251/229 231/257/229 232/259/229
f 210/238/230 209/252/230 224/258/230
f 217/253/231 232/259/231 233/261/231
f 211/239/232 210/238/232 225/260/232
f 211/239/235 226/262/235 227/266/235
f 204/241/236 219/264/236 220/267/236
f 212/243/237 227/266/237 228/268/237
f 205/244/238 220/267/238 221/269/238
f 214/247/239 213/245/239 228/268/239
f 206/246/240 221/269/240 222/255/240
f 226/262/243 241/287/243 242/275/243
f 219/264/244 234/272/244 235/276/244
f 227/266/245 242/275/245 243/277/245
f 221/269/246 220/267/246 235/276/246
f 229/270/247 228/268/247 243/277/247
f 221/269/248 236/278/248 237/280/248
f 229/270/249 244/279/249 245/281/249
f 223/256/250 222/255/250 237/280/250
f 231/257/251 230/254/251 245/281/251
f 223/256/252 238/282/252 239/284/252
f 231/257/253 246/283/253 247/285/253
f 225/260/254 224/258/254 239/284/254
f 233/261/255 232/259/255 247/285/255
f 226/262/256 225/260/256 240/286/256
f 238/282/257 237/280/257 252/288/257
f 246/283/258 245/281/258 260/290/258
f 238/282/259 253/289/259 254/292/259
f 246/283/260 261/291/260 262/293/260
f 240/286/261 239/284/261 254/292/261
f 247/285/262 262/293/262 263/295/262
f 241/287/521 240/286/521 255/294/521
f 241/287/522 256/296/522 257/300/522
f 234/272/267 249/298/267 250/301/267
f 242/275/268 257/300/268 258/302/268
f 235/276/269 250/301/269 251/303/269
f 244/279/270 243/277/270 258/302/270
f 236/278/271 251/303/271 252/288/271
f 244/279/272 259/304/272 260/290/272
f 256/296/273 271/319/273 272/305/273
f 250/301/274 249/298/274 264/306/274
f 257/300/275 272/305/275 273/308/275
f 250/301/276 265/307/276 266/309/276
f 259/304/277 258/302/277 273/308/277
f 251/303/278 266/309/278 267/311/278
f 259/304/279 274/310/279 275/312/279
f 253/289/280 252/288/280 267/311/280
f 261/291/281 260/290/281 275/312/281
f 253/289/282 268/313/282 269/315/282
f 261/291/283 276/314/283 277/316/283
f 255/294/284 254/292/284 269/315/284
f 262/293/285 277/316/285 278/318/285
f 256/296/286 255/294/286 270/317/286
f 276/314/289 275/312/289 290/322/289
f 268/313/290 283/338/290 284/324/290
f 276/314/523 291/323/523 292/325/523
f 270/317/292 269/315/292 284/324/292
f 278/318/293 277/316/293 292/325/293
f 271/319/294 270/317/294 285/326/294
f 271/319/297 286/328/297 287/332/297
f 265/307/298 264/306/298 279/330/298
f 272/305/299 287/332/299 288/334/299
f 265/307/524 280/333/524 281/335/524
f 274/310/301 273/308/301 288/334/301
f 266/309/302 281/335/302 282/337/302
f 274/310/303 289/336/303 290/322/303
f 268/313/304 267/311/304 282/337/304
f 279/330/305 294/353/305 295/339/305
f 287/332/306 302/355/306 303/340/306
f 280/333/307 295/339/307 296/341/307
f 289/336/308 288/334/308 303/340/308
f 281/335/309 296/341/309 297/343/309
f 289/336/310 304/342/310 305/344/310
f 283/338/311 282/337/311 297/343/311
f 291/323/312 290/322/312 305/344/312
f 283/338/313 298/345/313 299/347/313
f 291/323/314 306/346/314 307/348/314
f 285/326/315 284/324/315 299/347/315
f 293/327/316 292/325/316 307/348/316
f 286/328/317 285/326/317 300/349/317
f 286/328/320 301/351/320 302/355/320
f 298/345/321 313/371/321 314/356/321
f 306/346/322 321/372/322 322/357/322
f 300/349/323 299/347/323 314/356/323
f 307/348/525 322/357/525 323/359/525
f 301/351/325 300/349/325 315/358/325
f 301/351/328 316/360/328 317/364/328
f 294/353/329 309/362/329 310/365/329
f 302/355/330 317/364/330 318/366/330
f 295/339/331 310/365/331 311/367/331
f 304/342/332 303/340/332 318/366/332
f 296/341/333 311/367/333 312/369/333
f 304/342/334 319/368/334 320/370/334
f 298/345/335 297/343/335 312/369/335
f 306/346/336 305/344/336 320/370/336
f 317/364/337 332/388/337 333/373/337
f 310/365/338 325/389/338 326/374/338
f 319/368/339 318/366/339 333/373/339
f 311/367/340 326/374/340 327/376/340
f 319/368/341 334/375/341 335/377/341
f 312/369/342 327/376/342 328/378/342
f 321/372/343 320/370/343 335/377/343
f 313/371/344 328/378/344 329/380/344
f 321/372/526 336/379/526 337/381/526
f 315/358/346 314/356/346 329/380/346
f 322/357/347 337/381/347 338/383/347
f 316/360/348 315/358/348 330/382/348
f 316/360/351 331/384/351 332/388/351
f 309/362/352 324/386/352 325/389/352
f 336/379/353 351/406/353 352/390/353
f 330/382/354 329/380/354 344/391/354
f 337/381/355 352/390/355 353/393/355
f 331/384/356 330/382/356 345/392/356
f 331/384/359 346/394/359 347/398/359
f 324/386/360 339/396/360 340/399/360
f 332/388/361 347/398/361 348/400/361
f 325/389/362 340/399/362 341/401/362
f 334/375/363 333/373/363 348/400/363
f 326/374/364 341/401/364 342/403/364
f 334/375/365 349/402/365 350/404/365
f 328/378/366 327/376/366 342/403/366
f 336/379/367 335/377/367 350/404/367
f 328/378/368 343/405/368 344/391/368
f 349/402/369 348/400/369 363/407/369
f 341/401/370 356/423/370 357/409/370
f 349/402/371 364/408/371 365/410/371
f 343/405/372 342/403/372 357/409/372
f 351/406/373 350/404/373 365/410/373
f 343/405/374 358/411/374 359/413/374
f 351/406/375 366/412/375 367/414/375
f 345/392/376 344/391/376 359/413/376
f 352/390/377 367/414/377 368/416/377
f 346/394/527 345/392/527 360/415/527
f 346/394/528 361/417/528 362/421/528
f 339/396/382 354/419/382 355/422/382
f 347/398/383 362/421/383 363/407/383
f 341/401/384 340/399/384 355/422/384
f 367/424/385 382/454/385 383/425/385
f 361/427/529 360/455/529 375/428/529
f 361/427/530 376/429/530 377/434/530
f 354/430/390 369/432/390 370/436/390
f 362/435/391 377/434/391 378/438/391
f 356/440/392 355/437/392 370/436/392
f 364/442/393 363/439/393 378/438/393
f 356/440/394 371/441/394 372/444/394
f 364/442/395 379/443/395 380/446/395
f 358/448/396 357/445/396 372/444/396
f 366/450/397 365/447/397 380/446/397
f 358/448/398 373/449/398 374/452/398
f 366/450/399 381/451/399 382/454/399
f 360/455/400 359/453/400 374/452/400
f 371/441/401 386/471/401 387/456/401
f 379/443/402 394/472/402 395/457/402
f 373/449/403 372/444/403 387/456/403
f 381/451/404 380/446/404 395/457/404
f 373/449/405 388/458/405 389/460/405
f 381/451/406 396/459/406 397/461/406
f 375/428/407 374/452/407 389/460/407
f 382/454/408 397/461/408 398/463/408
f 376/429/409 375/428/409 390/462/409
f 376/429/412 391/464/412 392/468/412
f 369/432/413 384/466/413 385/469/413
f 377/434/414 392/468/414 393/470/414
f 371/441/415 370/436/415 385/469/415
f 379/443/416 378/438/416 393/470/416
f 391/464/417 390/462/417 405/473/417
f 391/464/420 406/474/420 407/479/420
f 385/469/421 384/466/421 399/476/421
f 392/468/422 407/479/422 408/481/422
f 385/469/423 400/480/423 401/482/423
f 394/472/424 393/470/424 408/481/424
f 386/471/425 401/482/425 402/484/425
f 394/472/426 409/483/426 410/485/426
f 388/458/427 387/456/427 402/484/427
f 396/459/428 395/457/428 410/485/428
f 388/458/429 403/486/429 404/488/429
f 397/461/430 396/459/430 411/487/430
f 390/462/431 389/460/431 404/488/431
f 397/461/432 412/489/432 413/478/432
f 409/483/433 424/506/433 425/490/433
f 403/486/434 402/484/434 417/491/434
f 411/487/435 410/485/435 425/490/435
f 403/486/436 418/492/436 419/494/436
f 411/487/437 426/493/437 427/495/437
f 405/473/438 404/488/438 419/494/438
f 412/489/439 427/495/439 428/497/439
f 406/474/440 405/473/440 420/496/440
f 406/474/443 421/498/443 422/502/443
f 399/476/444 414/500/444 415/503/444
f 407/479/445 422/502/445 423/504/445
f 401/482/446 400/480/446 415/503/446
f 409/483/447 408/481/447 423/504/447
f 401/482/448 416/505/448 417/491/448
f 421/498/451 436/523/451 437/511/451
f 414/500/452 429/508/452 430/512/452
f 422/502/453 437/511/453 438/513/453
f 416/505/454 415/503/454 430/512/454
f 424/506/455 423/504/455 438/513/455
f 416/505/456 431/514/456 432/516/456
f 424/506/457 439/515/457 440/517/457
f 418/492/458 417/491/458 432/516/458
f 426/493/459 425/490/459 440/517/459
f 418/492/460 433/518/460 434/520/460
f 426/493/461 441/519/461 442/521/461
f 420/496/462 419/494/462 434/520/462
f 427/495/463 442/521/463 443/510/463
f 421/498/464 420/496/464 435/522/464
f 433/518/465 432/516/465 447/524/465
f 441/519/466 440/517/466 455/526/466
f 433/518/467 448/525/467 449/528/467
f 441/519/468 456/527/468 457/529/468
f 435/522/469 434/520/469 449/528/469
f 442/521/470 457/529/470 458/531/470
f 436/523/471 435/522/471 450/530/471
f 436/523/474 451/532/474 452/536/474
f 430/512/475 429/508/475 444/534/475
f 437/511/476 452/536/476 453/538/476
f 430/512/477 445/537/477 446/539/477
f 439/515/478 438/513/478 453/538/478
f 431/514/479 446/539/479 447/524/479
f 439/515/480 454/540/480 455/526/480
f 451/532/481 466/554/481 467/541/481
f 444/534/482 459/556/482 460/542/482
f 452/536/483 467/541/483 468/543/483
f 446/539/484 445/537/484 460/542/484
f 454/540/485 453/538/485 468/543/485
f 446/539/486 461/544/486 462/546/486
f 454/540/487 469/545/487 470/547/487
f 448/525/488 447/524/488 462/546/488
f 456/527/489 455/526/489 470/547/489
f 448/525/490 463/548/490 464/550/490
f 456/527/491 471/549/491 472/551/491
f 450/530/492 449/528/492 464/550/492
f 458/531/493 457/529/493 472/551/493
f 451/532/494 450/530/494 465/552/494
f 471/549/497 470/547/497 479/1/497
f 464/550/498 463/548/498 3/32/498
f 471/549/499 480/3/499 481/8/499
f 465/552/500 464/550/500 477/4/500
f 472/551/501 481/8/501 482/12/501
f 466/554/502 465/552/502 4/9/502
f 466/554/505 5/14/505 6/20/505
f 460/542/506 459/556/506 474/15/506
f 467/541/507 6/20/507 478/24/507
f 461/544/508 460/542/508 475/21/508
f 468/543/509 478/24/509 7/28/509
f 462/546/510 461/544/510 2/25/510
f 469/545/511 7/28/511 479/1/511
f 463/548/512 462/546/512 476/29/512
