# Blender 5.0.1
# www.blender.org
mtllib cofre_coche_texturizado.mtl
g Capo_001_Mesh
v -1.207660 -0.225662 -0.373333
v -1.196446 -0.224138 -0.414663
v -1.214598 -0.234204 -0.376535
v -1.210708 -0.192723 0.000000
v -1.195006 -0.174253 -0.072851
v -1.210709 -0.192723 -0.072512
v -1.195002 -0.174309 0.000000
v -1.172431 -0.155999 -0.073339
v -1.172421 -0.155555 0.000000
v -1.127279 -0.129344 -0.074315
v -1.127259 -0.128195 0.000000
v -1.079456 -0.108320 -0.075349
v -1.082097 -0.108405 0.000000
v -1.077615 -0.111037 -0.149803
v -1.125418 -0.132061 -0.148052
v -1.170549 -0.154755 -0.146399
v -1.074903 -0.113810 -0.224229
v -1.122674 -0.135074 -0.221771
v -1.167777 -0.156900 -0.219450
v -1.193115 -0.173010 -0.145573
v -1.187528 -0.172909 -0.218290
v -1.069252 -0.117804 -0.298760
v -1.119249 -0.136139 -0.295461
v -1.164313 -0.159464 -0.292487
v -1.179944 -0.173074 -0.291001
v -1.203828 -0.194366 -0.217483
v -1.199117 -0.194330 -0.289966
v -1.041579 -0.108500 -0.288199
v -0.932077 -0.076403 -0.307812
v -1.064290 -0.113453 -0.261962
v -1.202623 -0.214327 -0.362135
v -1.189751 -0.197793 -0.362448
v -1.203954 -0.218641 -0.369040
v -1.206426 -0.210370 -0.289708
v -1.209926 -0.208499 -0.217281
v -1.208290 -0.191480 -0.144998
v -1.194301 -0.210116 -0.390038
v -1.212726 -0.207601 -0.144854
v -1.214626 -0.206856 -0.072427
v -1.059860 -0.121548 -0.373112
v -0.922741 -0.080444 -0.384138
v -1.170549 -0.176579 -0.363759
v -1.154911 -0.163003 -0.365471
v -0.785645 -0.050020 -0.395163
v -0.657729 -0.022241 -0.325917
v -0.648565 -0.026875 -0.406188
v -0.794903 -0.045682 -0.316864
v -0.520554 -0.000401 -0.334969
v -0.511488 -0.005332 -0.417214
v -1.109844 -0.139775 -0.369093
v -0.383380 0.016447 -0.344021
v -0.374422 0.011219 -0.428239
v -0.237365 0.023548 -0.439263
v -0.109032 0.037484 -0.362125
v -0.094729 0.033029 -0.450900
v -0.246206 0.029072 -0.353073
v -1.214626 -0.206856 0.000000
v -0.356737 0.004408 -0.509234
v -0.218628 0.016254 -0.524044
v -0.072891 0.026227 -0.539675
v -0.633031 -0.032722 -0.479613
v -0.494870 -0.011661 -0.494424
v -1.047684 -0.125949 -0.435179
v -0.909412 -0.085327 -0.449991
v -1.158368 -0.180589 -0.422769
v -1.178791 -0.201737 -0.420072
v -1.098100 -0.143999 -0.429779
v -1.093654 -0.141389 -0.423191
v -0.771201 -0.055385 -0.464803
v -0.757715 -0.060528 -0.548797
v -0.621759 -0.041907 -0.574647
v -0.625926 -0.039146 -0.583510
v -0.760881 -0.057766 -0.557660
v -0.485866 -0.024887 -0.600756
v -0.489033 -0.022125 -0.609620
v -1.182400 -0.213011 -0.450629
v -1.160524 -0.194924 -0.451358
v -1.163690 -0.192162 -0.460221
v -1.180295 -0.215718 -0.442197
v -1.140084 -0.174380 -0.460772
v -1.141580 -0.167069 -0.424912
v -1.123358 -0.161354 -0.467199
v -1.105790 -0.148079 -0.428919
v -1.080233 -0.139564 -0.479955
v -1.083399 -0.136802 -0.488819
v -1.126525 -0.158593 -0.476062
v -0.353314 -0.010095 -0.635625
v -0.350147 -0.012856 -0.626762
v -1.143250 -0.171619 -0.469636
v -0.893901 -0.086424 -0.521854
v -0.897068 -0.083662 -0.530718
v -1.033559 -0.120230 -0.500702
v -1.030392 -0.122992 -0.491839
v -0.217728 -0.002284 -0.660957
v -0.214561 -0.005045 -0.652094
v -0.071543 -0.000330 -0.679476
v -0.037435 0.014184 -0.628450
v -0.074709 0.001432 -0.686913
v 0.013137 -0.000568 -0.695646
v 0.020938 0.001254 -0.704271
v -0.074433 0.001408 -0.688084
v 0.021454 0.001240 -0.705486
v -0.068943 -0.002230 -0.696649
v 0.026705 -0.002408 -0.714008
v -0.005773 0.005322 -0.670519
v -1.176633 -0.212773 -0.457765
v -1.163413 -0.192186 -0.461393
v -1.157923 -0.193124 -0.467358
v -1.182123 -0.212896 -0.451801
v -1.137484 -0.175280 -0.479372
v -1.142973 -0.171642 -0.470807
v -1.126248 -0.158616 -0.477234
v -1.083123 -0.136826 -0.489991
v -1.033282 -0.120254 -0.501874
v -0.896791 -0.083686 -0.531890
v -0.760604 -0.057789 -0.558832
v -0.488756 -0.022149 -0.610792
v -0.353037 -0.010118 -0.636797
v -0.217451 -0.002307 -0.662129
v -0.625649 -0.039169 -0.584682
v -0.620159 -0.042807 -0.593247
v -0.483266 -0.025787 -0.619356
v -1.077633 -0.140464 -0.498555
v -1.027793 -0.123892 -0.510439
v -1.120758 -0.162254 -0.485799
v -0.347547 -0.013756 -0.645362
v -0.211961 -0.005945 -0.670694
v -0.891301 -0.087324 -0.540455
v -0.755115 -0.061428 -0.567397
v -1.179944 -0.173074 0.291000
v -1.203828 -0.194366 0.217483
v -1.199117 -0.194330 0.289966
v -1.196446 -0.224138 0.414663
v -1.194301 -0.210116 0.390038
v -1.207660 -0.225662 0.373333
v -1.187528 -0.172909 0.218290
v -1.164313 -0.159464 0.292487
v -1.167777 -0.156900 0.219450
v -1.083123 -0.136826 0.489991
v -1.120758 -0.162254 0.485798
v -1.077633 -0.140464 0.498555
v -1.126248 -0.158616 0.477234
v -0.760881 -0.057766 0.557660
v -0.625926 -0.039146 0.583510
v -0.757715 -0.060528 0.548796
v -1.170549 -0.176579 0.363759
v -0.511488 -0.005332 0.417214
v -0.494870 -0.011661 0.494424
v -0.374422 0.011219 0.428239
v -0.488756 -0.022149 0.610792
v -0.620159 -0.042807 0.593247
v -0.483266 -0.025787 0.619356
v -0.625649 -0.039169 0.584682
v -1.117121 -0.146033 0.381892
v -1.105790 -0.141233 0.390044
v -1.109844 -0.139775 0.369093
v -0.785645 -0.050020 0.395163
v -0.648565 -0.026875 0.406188
v -0.657729 -0.022241 0.325916
v -1.123358 -0.161354 0.467199
v -1.083399 -0.136802 0.488819
v -1.080233 -0.139564 0.479955
v -1.126525 -0.158593 0.476062
v -0.489033 -0.022125 0.609620
v -0.621759 -0.041907 0.574647
v -1.182400 -0.213011 0.450629
v -1.163690 -0.192162 0.460221
v -1.160524 -0.194924 0.451358
v -1.141580 -0.167069 0.424912
v -1.140084 -0.174380 0.460772
v -0.246206 0.029072 0.353073
v -0.237365 0.023548 0.439263
v -0.109032 0.037484 0.362125
v -1.158368 -0.180589 0.422769
v -1.178791 -0.201737 0.420072
v -0.794903 -0.045682 0.316865
v -0.633031 -0.032722 0.479613
v -0.485866 -0.024887 0.600756
v -0.350147 -0.012856 0.626762
v -0.356737 0.004408 0.509234
v -0.897068 -0.083662 0.530718
v -1.033282 -0.120254 0.501874
v -0.896791 -0.083686 0.531890
v -1.033559 -0.120230 0.500702
v -0.893901 -0.086424 0.521855
v -1.143250 -0.171619 0.469636
v -1.127279 -0.129344 0.074315
v -1.079456 -0.108320 0.075349
v -0.214561 -0.005045 0.652094
v -0.074709 0.001432 0.686913
v -0.071543 -0.000330 0.679476
v -0.074433 0.001408 0.688084
v -0.068943 -0.002230 0.696649
v 0.021454 0.001240 0.705486
v -1.212726 -0.207601 0.144854
v -1.209926 -0.208499 0.217281
v -1.208290 -0.191480 0.144998
v -0.217728 -0.002284 0.660957
v -0.353037 -0.010118 0.636797
v -0.217451 -0.002307 0.662129
v -0.353314 -0.010095 0.635625
v -0.520554 -0.000401 0.334969
v -1.059860 -0.121548 0.373112
v -0.922741 -0.080444 0.384138
v -0.932077 -0.076403 0.307812
v -1.122674 -0.135074 0.221771
v -1.069252 -0.117804 0.298760
v -1.074903 -0.113810 0.224229
v -1.041579 -0.108500 0.288199
v -1.064290 -0.113453 0.261962
v -1.125418 -0.132061 0.148052
v -1.077615 -0.111037 0.149803
v -1.119249 -0.136139 0.295461
v -1.137484 -0.175280 0.479372
v -1.142973 -0.171642 0.470808
v -1.163413 -0.192186 0.461393
v -1.157923 -0.193124 0.467358
v 0.013137 -0.000568 0.695646
v -0.005773 0.005322 0.670519
v -1.030392 -0.122992 0.491839
v -1.154911 -0.163003 0.365471
v -1.193115 -0.173010 0.145573
v -1.170549 -0.154755 0.146399
v -0.760604 -0.057789 0.558832
v -0.072891 0.026227 0.539675
v -0.037435 0.014184 0.628450
v -1.027793 -0.123892 0.510439
v -0.211961 -0.005945 0.670694
v 0.026705 -0.002408 0.714008
v -1.182123 -0.212896 0.451801
v -1.176633 -0.212773 0.457765
v -1.195006 -0.174253 0.072851
v -1.172431 -0.155999 0.073339
v -0.347547 -0.013756 0.645362
v -1.098100 -0.143999 0.429779
v -1.047684 -0.125949 0.435179
v -0.909412 -0.085327 0.449991
v -0.771201 -0.055385 0.464803
v -0.218628 0.016254 0.524044
v -1.096796 -0.139828 0.403926
v -1.093654 -0.140875 0.419580
v -1.093654 -0.141389 0.423191
v -1.189751 -0.197793 0.362448
v -0.094729 0.033029 0.450900
v -0.383380 0.016447 0.344021
v 0.020938 0.001254 0.704271
v -1.210709 -0.192723 0.072512
v -1.203954 -0.218641 0.369040
v -1.202623 -0.214327 0.362135
v -1.206426 -0.210370 0.289708
v -1.214626 -0.206856 0.072427
v -1.180295 -0.215718 0.442197
v -1.145524 -0.165866 0.407326
v -1.136127 -0.162379 0.415322
v -1.155417 -0.165577 0.373859
v -1.157879 -0.168063 0.374969
v -1.159353 -0.170433 0.379118
v -1.158500 -0.171582 0.386684
v -1.156546 -0.171318 0.392562
v -1.105790 -0.148079 0.428919
v -1.214598 -0.234204 0.376535
v -1.153497 -0.170077 0.397686
v -0.891301 -0.087324 0.540454
v -0.755115 -0.061428 0.567397
v -1.130817 -0.152311 0.376625
v -1.143541 -0.158560 0.373949
v -1.153108 -0.163553 0.373509
v -1.118926 -0.154606 0.424934
v -1.131592 -0.160423 0.418385
v -1.158500 -0.171582 -0.386684
v -1.156546 -0.171318 -0.392562
v -1.159353 -0.170433 -0.379118
v -1.155417 -0.165577 -0.373859
v -1.157879 -0.168063 -0.374969
v -1.096796 -0.139828 -0.403926
v -1.093654 -0.140875 -0.419580
v -1.105790 -0.141233 -0.390045
v -1.118926 -0.154606 -0.424934
v -1.131592 -0.160423 -0.418385
v -1.136127 -0.162379 -0.415322
v -1.145524 -0.165866 -0.407326
v -1.153497 -0.170077 -0.397686
v -1.117121 -0.146033 -0.381892
v -1.130817 -0.152311 -0.376625
v -1.143541 -0.158560 -0.373949
v -1.153108 -0.163553 -0.373509
v -0.675640 -0.012599 0.000000
v -0.538777 0.007570 -0.087034
v -0.673947 -0.014052 -0.084113
v -0.540154 0.008542 0.000000
v -0.403608 0.024249 -0.089956
v -0.404668 0.024971 0.000000
v -0.268438 0.036748 -0.092877
v -0.269182 0.037292 0.000000
v -0.133268 0.045032 -0.095799
v -0.128387 0.043512 -0.184574
v -0.263929 0.034768 -0.179609
v -0.535014 0.005590 -0.169679
v -0.392734 0.020441 -0.259332
v -0.528932 0.003593 -0.252324
v -0.399471 0.022269 -0.174644
v -0.256535 0.033066 -0.266341
v -0.120336 0.041005 -0.273349
v -0.109032 0.037484 -0.362125
v -0.246206 0.029072 -0.353073
v -0.383380 0.016447 -0.344021
v -0.133696 0.045166 0.000000
v -0.670556 -0.016032 -0.164714
v -0.665131 -0.018247 -0.245315
v -0.520554 -0.000401 -0.334969
v -0.657729 -0.022241 -0.325917
v -0.936477 -0.112278 0.000000
v -0.809903 -0.063009 0.000000
v -0.936477 -0.112278 -0.076953
v -0.794903 -0.069209 -0.316864
v -0.933877 -0.113178 -0.230859
v -0.932077 -0.116178 -0.307812
v -0.802003 -0.066309 -0.237648
v -0.935277 -0.112078 -0.153906
v -0.807403 -0.064309 -0.158432
v -0.809903 -0.063009 -0.079216
v -1.074903 -0.166555 -0.224229
v -1.064290 -0.163055 -0.261962
v -0.993997 -0.138444 -0.296722
v -1.041579 -0.155555 -0.288199
v -1.082097 -0.166555 0.000000
v -1.079456 -0.166555 -0.075349
v -1.077615 -0.166555 -0.149803
v -0.933877 -0.113178 0.230859
v -0.802003 -0.066309 0.237648
v -0.807403 -0.064309 0.158432
v -0.932077 -0.116178 0.307812
v -0.794903 -0.069209 0.316865
v -0.936477 -0.112278 0.076953
v -0.403608 0.024249 0.089956
v -0.268438 0.036748 0.092877
v -0.993997 -0.138444 0.296722
v -1.041579 -0.155555 0.288199
v -0.809903 -0.063009 0.079216
v -0.670556 -0.016032 0.164714
v -0.673947 -0.014052 0.084113
v -0.665131 -0.018247 0.245315
v -1.079456 -0.166555 0.075349
v -1.077615 -0.166555 0.149803
v -0.935277 -0.112078 0.153906
v -0.263929 0.034768 0.179609
v -0.128387 0.043512 0.184574
v -0.538777 0.007570 0.087034
v -0.528932 0.003593 0.252324
v -0.657729 -0.022241 0.325916
v -0.520554 -0.000401 0.334969
v -0.392734 0.020441 0.259332
v -0.383380 0.016447 0.344021
v -0.535014 0.005590 0.169679
v -0.256535 0.033066 0.266341
v -0.246206 0.029072 0.353073
v -0.109032 0.037484 0.362125
v -0.120336 0.041005 0.273349
v -0.133268 0.045032 0.095799
v -1.074903 -0.166555 0.224229
v -0.399471 0.022269 0.174644
v -1.064290 -0.163055 0.261962
v -1.074903 -0.126835 0.224229
v -1.077615 -0.166555 0.149803
v -1.077615 -0.126835 0.149803
v -1.074903 -0.166555 0.224229
v -1.079456 -0.126835 0.075349
v -1.082097 -0.166555 0.000000
v -1.082097 -0.126835 0.000000
v -1.079456 -0.166555 0.075349
v -1.064290 -0.126835 0.261962
v -1.064290 -0.163055 0.261962
v -1.041579 -0.126835 0.288199
v -1.041579 -0.155555 0.288199
v -0.993997 -0.138444 0.296722
v -1.079456 -0.166555 -0.075349
v -1.079456 -0.126835 -0.075349
v -1.077615 -0.166555 -0.149803
v -1.077615 -0.126835 -0.149803
v -1.074903 -0.166555 -0.224229
v -1.074903 -0.126835 -0.224229
v -1.064290 -0.163055 -0.261962
v -1.064290 -0.126835 -0.261962
v -1.041579 -0.155555 -0.288199
v -1.041579 -0.126835 -0.288199
v -0.993997 -0.138444 -0.296722
v -1.077615 -0.111037 0.149803
v -1.079456 -0.126835 0.075349
v -1.079456 -0.108320 0.075349
v -1.077615 -0.126835 0.149803
v -1.074903 -0.113810 0.224229
v -1.074903 -0.126835 0.224229
v -1.041579 -0.108500 0.288199
v -1.064290 -0.126835 0.261962
v -1.064290 -0.113453 0.261962
v -1.041579 -0.126835 0.288199
v -0.657729 -0.022241 0.325916
v -0.794903 -0.069209 0.316865
v -0.794903 -0.045682 0.316865
v -0.932077 -0.076403 0.307812
v -0.932077 -0.116178 0.307812
v -0.993997 -0.138444 0.296722
v -1.082097 -0.126835 0.000000
v -1.082097 -0.108405 0.000000
v -1.079456 -0.126835 -0.075349
v -1.079456 -0.108320 -0.075349
v -1.077615 -0.126835 -0.149803
v -1.077615 -0.111037 -0.149803
v -1.074903 -0.126835 -0.224229
v -1.074903 -0.113810 -0.224229
v -1.064290 -0.126835 -0.261962
v -1.064290 -0.113453 -0.261962
v -1.041579 -0.126835 -0.288199
v -1.041579 -0.108500 -0.288199
v -0.657729 -0.022241 -0.325917
v -0.794903 -0.045682 -0.316864
v -0.794903 -0.069209 -0.316864
v -0.932077 -0.076403 -0.307812
v -0.932077 -0.116178 -0.307812
v -0.993997 -0.138444 -0.296722
vn -0.7915 0.5846 -0.1783
vn -0.7952 0.5535 -0.2478
vn -0.7314 0.6593 -0.1741
vn -0.8832 0.4690 -0.0000
vn -0.6996 0.7146 -0.0040
vn -0.8845 0.4664 -0.0108
vn -0.7014 0.7128 -0.0000
vn -0.5664 0.8241 -0.0086
vn -0.5782 0.8159 -0.0000
vn -0.4578 0.8886 -0.0276
vn -0.4607 0.8875 -0.0000
vn -0.4026 0.9149 -0.0289
vn -0.4014 0.9159 -0.0000
vn -0.4035 0.9138 -0.0463
vn -0.4333 0.9003 -0.0409
vn -0.5411 0.8406 -0.0238
vn -0.4008 0.9137 -0.0666
vn -0.4183 0.9070 -0.0479
vn -0.5396 0.8406 -0.0475
vn -0.7053 0.7083 -0.0296
vn -0.7184 0.6925 -0.0658
vn -0.3264 0.9422 -0.0752
vn -0.4043 0.9122 -0.0671
vn -0.5649 0.8206 -0.0867
vn -0.7044 0.7036 -0.0939
vn -0.8634 0.5006 -0.0636
vn -0.8339 0.5442 -0.0921
vn -0.2926 0.9534 -0.0733
vn -0.2626 0.9614 -0.0824
vn -0.7803 0.6045 -0.1603
vn -0.7647 0.6292 -0.1393
vn -0.8070 0.5672 -0.1642
vn -0.8981 0.4303 -0.0903
vn -0.9167 0.3965 -0.0495
vn -0.8867 0.4603 -0.0430
vn -0.7857 0.5880 -0.1922
vn -0.9607 0.2735 -0.0469
vn -0.9636 0.2668 -0.0138
vn -0.3213 0.9407 -0.1087
vn -0.2589 0.9604 -0.1030
vn -0.6975 0.6996 -0.1548
vn -0.5644 0.8127 -0.1445
vn -0.1986 0.9753 -0.0969
vn -0.1675 0.9830 -0.0756
vn -0.1675 0.9813 -0.0946
vn -0.2003 0.9767 -0.0775
vn -0.1456 0.9865 -0.0749
vn -0.1448 0.9850 -0.0935
vn -0.4089 0.9044 -0.1218
vn -0.1125 0.9910 -0.0732
vn -0.1119 0.9896 -0.0905
vn -0.0837 0.9927 -0.0871
vn -0.0693 0.9955 -0.0645
vn -0.0745 0.9938 -0.0825
vn -0.0822 0.9940 -0.0718
vn -0.9637 0.2671 -0.0000
vn -0.1104 0.9858 -0.1269
vn -0.0868 0.9874 -0.1323
vn -0.0836 0.9855 -0.1476
vn -0.1640 0.9802 -0.1112
vn -0.1419 0.9825 -0.1205
vn -0.3160 0.9449 -0.0856
vn -0.2524 0.9631 -0.0935
vn -0.6833 0.6976 -0.2153
vn -0.7490 0.6129 -0.2518
vn -0.4071 0.9093 -0.0861
vn 0.3209 -0.8754 -0.3614
vn -0.1929 0.9761 -0.1005
vn -0.1380 0.9833 0.1188
vn -0.1116 0.9882 0.1048
vn -0.1041 0.9850 0.1374
vn -0.1390 0.9812 0.1339
vn -0.0895 0.9920 0.0887
vn -0.0827 0.9876 0.1336
vn -0.6667 0.7124 0.2192
vn -0.6939 0.7160 0.0761
vn -0.6946 0.7094 0.1197
vn -0.7496 0.6570 -0.0805
vn -0.6198 0.7759 0.1174
vn -0.5622 0.8112 -0.1611
vn -0.4764 0.8658 0.1532
vn -0.4746 0.8756 -0.0895
vn -0.3312 0.9289 0.1654
vn -0.3619 0.9235 0.1271
vn -0.5117 0.8505 0.1215
vn -0.0500 0.9899 0.1325
vn -0.0591 0.9954 0.0758
vn -0.6341 0.7639 0.1200
vn -0.1919 0.9716 0.1387
vn -0.2003 0.9707 0.1327
vn -0.2611 0.9562 0.1327
vn -0.2500 0.9553 0.1580
vn -0.0199 0.9911 0.1318
vn -0.0343 0.9975 0.0613
vn -0.0227 0.9997 0.0046
vn -0.1053 0.9728 -0.2063
vn 0.0026 0.9950 0.0995
vn 0.0252 0.9912 0.1301
vn 0.0108 0.9987 0.0499
vn -0.0557 0.9698 -0.2374
vn -0.0545 0.9492 -0.3099
vn -0.0843 0.8965 -0.4349
vn -0.0767 0.8986 -0.4319
vn -0.0483 0.9658 -0.2548
vn -0.6940 0.3332 -0.6382
vn -0.7437 0.5004 -0.4434
vn -0.6722 0.3180 -0.6686
vn -0.7747 0.5700 -0.2737
vn -0.6431 0.4593 -0.6128
vn -0.6938 0.5964 -0.4037
vn -0.5810 0.7167 -0.3856
vn -0.4391 0.8246 -0.3567
vn -0.3408 0.8800 -0.3308
vn -0.2749 0.9095 -0.3118
vn -0.2108 0.9332 -0.2910
vn -0.1539 0.9499 -0.2720
vn -0.1205 0.9578 -0.2610
vn -0.0874 0.9645 -0.2493
vn -0.1776 0.9435 -0.2799
vn -0.2024 0.8480 -0.4899
vn -0.1767 0.8601 -0.4786
vn -0.4186 0.7078 -0.5690
vn -0.3431 0.7651 -0.5449
vn -0.5423 0.5900 -0.5982
vn -0.1454 0.8736 -0.4643
vn -0.1131 0.8864 -0.4490
vn -0.2788 0.8065 -0.5213
vn -0.2250 0.8366 -0.4995
vn -0.7044 0.7036 0.0939
vn -0.8634 0.5006 0.0636
vn -0.8339 0.5442 0.0921
vn -0.7952 0.5535 0.2478
vn -0.7857 0.5880 0.1922
vn -0.7915 0.5846 0.1783
vn -0.7184 0.6925 0.0658
vn -0.5649 0.8206 0.0867
vn -0.5396 0.8406 0.0475
vn -0.4391 0.8246 0.3567
vn -0.5423 0.5900 0.5982
vn -0.4186 0.7078 0.5690
vn -0.5810 0.7167 0.3856
vn -0.1390 0.9812 -0.1339
vn -0.1041 0.9850 -0.1374
vn -0.1380 0.9833 -0.1188
vn -0.6975 0.6996 0.1548
vn -0.1448 0.9850 0.0935
vn -0.1419 0.9825 0.1205
vn -0.1119 0.9896 0.0905
vn -0.1539 0.9499 0.2720
vn -0.2024 0.8480 0.4899
vn -0.1767 0.8601 0.4786
vn -0.1776 0.9435 0.2799
vn -0.4688 0.8690 0.1584
vn -0.3798 0.9149 0.1372
vn -0.4089 0.9044 0.1218
vn -0.1986 0.9753 0.0969
vn -0.1675 0.9813 0.0946
vn -0.1675 0.9830 0.0756
vn -0.4764 0.8658 -0.1532
vn -0.3619 0.9235 -0.1271
vn -0.3312 0.9289 -0.1654
vn -0.5117 0.8505 -0.1215
vn -0.0827 0.9876 -0.1336
vn -0.1116 0.9882 -0.1048
vn -0.6667 0.7124 -0.2191
vn -0.6946 0.7094 -0.1197
vn -0.6939 0.7160 -0.0761
vn -0.5622 0.8112 0.1611
vn -0.6198 0.7759 -0.1174
vn -0.0822 0.9940 0.0718
vn -0.0837 0.9927 0.0871
vn -0.0693 0.9955 0.0645
vn -0.6833 0.6976 0.2153
vn -0.7490 0.6129 0.2518
vn -0.2003 0.9767 0.0775
vn -0.1640 0.9802 0.1112
vn -0.0895 0.9920 -0.0887
vn -0.0591 0.9954 -0.0758
vn -0.1104 0.9858 0.1269
vn -0.2003 0.9707 -0.1327
vn -0.3408 0.8800 0.3308
vn -0.2749 0.9095 0.3118
vn -0.2611 0.9562 -0.1327
vn -0.1919 0.9716 -0.1387
vn -0.6341 0.7639 -0.1200
vn -0.4578 0.8886 0.0276
vn -0.4026 0.9149 0.0289
vn -0.0343 0.9975 -0.0613
vn 0.0026 0.9950 -0.0995
vn -0.0227 0.9997 -0.0046
vn -0.0557 0.9698 0.2374
vn -0.0843 0.8965 0.4349
vn -0.0545 0.9492 0.3099
vn -0.9607 0.2735 0.0469
vn -0.9167 0.3965 0.0495
vn -0.8867 0.4603 0.0430
vn -0.0199 0.9911 -0.1318
vn -0.1205 0.9578 0.2610
vn -0.0874 0.9645 0.2493
vn -0.0500 0.9899 -0.1325
vn -0.1456 0.9865 0.0749
vn -0.3213 0.9407 0.1087
vn -0.2589 0.9604 0.1030
vn -0.2626 0.9614 0.0824
vn -0.4183 0.9070 0.0479
vn -0.3264 0.9422 0.0752
vn -0.4008 0.9137 0.0666
vn -0.2926 0.9534 0.0733
vn -0.4333 0.9003 0.0409
vn -0.4035 0.9138 0.0463
vn -0.4043 0.9122 0.0671
vn -0.6431 0.4593 0.6128
vn -0.6938 0.5964 0.4037
vn -0.7437 0.5004 0.4434
vn -0.6722 0.3180 0.6686
vn 0.0252 0.9912 -0.1301
vn -0.0483 0.9658 0.2548
vn -0.2500 0.9553 -0.1580
vn -0.5644 0.8127 0.1445
vn -0.7053 0.7083 0.0296
vn -0.5411 0.8406 0.0238
vn -0.2108 0.9332 0.2910
vn -0.0836 0.9855 0.1476
vn -0.1053 0.9728 0.2063
vn -0.3431 0.7651 0.5449
vn -0.1131 0.8864 0.4490
vn -0.0767 0.8986 0.4319
vn -0.7747 0.5700 0.2737
vn -0.6940 0.3332 0.6382
vn -0.6996 0.7146 0.0040
vn -0.5664 0.8241 0.0086
vn -0.1454 0.8736 0.4643
vn -0.4071 0.9093 0.0861
vn -0.3160 0.9449 0.0856
vn -0.2524 0.9631 0.0935
vn -0.1929 0.9761 0.1005
vn -0.0868 0.9874 0.1323
vn -0.3489 0.9278 0.1321
vn -0.9312 0.0678 -0.3582
vn -0.7647 0.6292 0.1393
vn -0.0745 0.9938 0.0825
vn -0.1125 0.9910 0.0732
vn 0.0108 0.9987 -0.0499
vn -0.8845 0.4664 0.0108
vn -0.8070 0.5672 0.1642
vn -0.7803 0.6045 0.1603
vn -0.8981 0.4303 0.0903
vn -0.9636 0.2668 0.0138
vn -0.7496 0.6570 0.0805
vn -0.5952 0.7815 0.1869
vn -0.6465 0.7394 0.1879
vn -0.6557 0.7320 0.1851
vn -0.6500 0.7366 0.1869
vn -0.4746 0.8756 0.0895
vn -0.7314 0.6593 0.1741
vn -0.6303 0.7520 0.1928
vn -0.2788 0.8065 0.5213
vn -0.2250 0.8366 0.4995
vn -0.4623 0.8716 0.1633
vn -0.4623 0.8715 0.1633
vn -0.5439 0.8200 0.1781
vn -0.4764 0.8658 0.1531
vn -0.6557 0.7320 -0.1851
vn -0.6500 0.7366 -0.1869
vn -0.6465 0.7394 -0.1879
vn -0.3489 0.9278 -0.1321
vn -0.3798 0.9149 -0.1372
vn -0.4763 0.8658 -0.1533
vn -0.4694 0.8687 -0.1579
vn -0.5952 0.7815 -0.1869
vn -0.6303 0.7520 -0.1928
vn -0.4623 0.8716 -0.1632
vn -0.4623 0.8715 -0.1633
vn -0.5439 0.8200 -0.1781
vn -0.2564 0.9666 -0.0000
vn -0.1402 0.9899 -0.0223
vn -0.2527 0.9672 -0.0263
vn -0.1382 0.9904 -0.0000
vn -0.1075 0.9940 -0.0192
vn -0.1061 0.9944 -0.0000
vn -0.0775 0.9969 -0.0164
vn -0.0754 0.9972 -0.0000
vn -0.0605 0.9981 -0.0122
vn -0.0644 0.9975 -0.0287
vn -0.0784 0.9965 -0.0273
vn -0.1415 0.9894 -0.0323
vn -0.1097 0.9930 -0.0447
vn -0.1429 0.9886 -0.0483
vn -0.1083 0.9937 -0.0292
vn -0.0778 0.9962 -0.0403
vn -0.0618 0.9973 -0.0398
vn -0.0621 0.9968 -0.0496
vn -0.0781 0.9954 -0.0552
vn -0.1088 0.9923 -0.0588
vn -0.0580 0.9983 -0.0000
vn -0.2488 0.9678 -0.0378
vn -0.2472 0.9674 -0.0556
vn -0.1416 0.9880 -0.0621
vn -0.2378 0.9688 -0.0699
vn -0.3560 0.9345 -0.0000
vn -0.3529 0.9357 -0.0000
vn -0.3563 0.9344 -0.0048
vn -0.3326 0.9409 -0.0636
vn -0.3451 0.9380 -0.0338
vn -0.3349 0.9412 -0.0445
vn -0.3354 0.9404 -0.0557
vn -0.3540 0.9352 -0.0114
vn -0.3418 0.9392 -0.0323
vn -0.3502 0.9366 -0.0140
vn -0.3545 0.9350 -0.0129
vn -0.3526 0.9355 -0.0216
vn -0.3451 0.9375 -0.0446
vn -0.3485 0.9365 -0.0375
vn -0.3530 0.9356 -0.0000
vn -0.3550 0.9348 -0.0107
vn -0.3550 0.9348 -0.0106
vn -0.3451 0.9380 0.0338
vn -0.3354 0.9404 0.0557
vn -0.3418 0.9392 0.0323
vn -0.3349 0.9412 0.0445
vn -0.3326 0.9409 0.0636
vn -0.3563 0.9344 0.0048
vn -0.1075 0.9940 0.0192
vn -0.0775 0.9969 0.0164
vn -0.3451 0.9375 0.0446
vn -0.3485 0.9365 0.0375
vn -0.3502 0.9366 0.0140
vn -0.2488 0.9678 0.0378
vn -0.2527 0.9672 0.0263
vn -0.2472 0.9674 0.0556
vn -0.3550 0.9348 0.0107
vn -0.3540 0.9352 0.0114
vn -0.0784 0.9965 0.0273
vn -0.0644 0.9975 0.0287
vn -0.1402 0.9899 0.0223
vn -0.1429 0.9886 0.0483
vn -0.2378 0.9688 0.0699
vn -0.1416 0.9880 0.0621
vn -0.1097 0.9930 0.0447
vn -0.1088 0.9923 0.0588
vn -0.1415 0.9894 0.0323
vn -0.0778 0.9962 0.0403
vn -0.0781 0.9954 0.0552
vn -0.0621 0.9968 0.0496
vn -0.0618 0.9973 0.0398
vn -0.0605 0.9981 0.0122
vn -0.3545 0.9350 0.0129
vn -0.1083 0.9937 0.0292
vn -0.3526 0.9355 0.0216
vn 0.9880 -0.0000 -0.1547
vn 0.9995 -0.0000 -0.0306
vn 0.9885 -0.0000 -0.1512
vn 0.9995 -0.0000 -0.0305
vn 1.0000 -0.0000 -0.0000
vn 0.8805 -0.0000 -0.4740
vn 0.8909 -0.0000 -0.4542
vn 0.4945 -0.0000 -0.8692
vn 0.5498 -0.0000 -0.8353
vn 0.1763 -0.0000 -0.9843
vn 0.9996 -0.0000 0.0299
vn 0.9996 -0.0000 0.0298
vn 0.9885 -0.0000 0.1512
vn 0.9880 -0.0000 0.1547
vn 0.8909 -0.0000 0.4542
vn 0.8805 -0.0000 0.4740
vn 0.5498 -0.0000 0.8353
vn 0.4945 -0.0000 0.8692
vn 0.1763 -0.0000 0.9843
vn 0.9995 -0.0000 -0.0304
vn 0.9881 -0.0000 -0.1536
vn 0.4544 -0.0000 -0.8908
vn 0.8756 -0.0000 -0.4830
vn 0.0658 -0.0000 -0.9978
vn 0.1123 -0.0000 -0.9937
vn 0.1330 -0.0000 -0.9911
vn 0.9881 -0.0000 0.1536
vn 0.8756 -0.0000 0.4830
vn 0.4544 -0.0000 0.8908
vn 0.0658 -0.0000 0.9978
vn 0.1123 -0.0000 0.9937
vn 0.1330 -0.0000 0.9911
vt 0.055715 0.046921
vt 0.050890 0.048759
vt 0.055299 0.044905
vt 0.098948 0.050469
vt 0.090547 0.054973
vt 0.090578 0.050500
vt 0.098949 0.054943
vt 0.090495 0.060327
vt 0.098951 0.060363
vt 0.090381 0.069996
vt 0.098953 0.070112
vt 0.090236 0.079652
vt 0.098956 0.079221
vt 0.081609 0.079666
vt 0.081873 0.070017
vt 0.082098 0.060731
vt 0.072976 0.079733
vt 0.073360 0.070078
vt 0.073705 0.060854
vt 0.082196 0.055409
vt 0.073841 0.056177
vt 0.064340 0.080088
vt 0.064888 0.070313
vt 0.065328 0.061032
vt 0.065488 0.057239
vt 0.073888 0.051207
vt 0.065551 0.052001
vt 0.065441 0.085534
vt 0.062698 0.106452
vt 0.068571 0.081410
vt 0.057109 0.049069
vt 0.057169 0.052936
vt 0.056272 0.048338
vt 0.065487 0.048759
vt 0.073857 0.048363
vt 0.082247 0.051019
vt 0.053902 0.050853
vt 0.082215 0.047942
vt 0.090574 0.047789
vt 0.055710 0.081033
vt 0.053824 0.107316
vt 0.057109 0.058203
vt 0.056944 0.061998
vt 0.051773 0.133099
vt 0.058958 0.157919
vt 0.049623 0.158616
vt 0.060877 0.132325
vt 0.057003 0.183454
vt 0.047441 0.184080
vt 0.056391 0.071274
vt 0.054983 0.208845
vt 0.045192 0.209397
vt 0.042887 0.234622
vt 0.050784 0.259367
vt 0.040424 0.260825
vt 0.052908 0.234141
vt 0.098947 0.047758
vt 0.035688 0.211547
vt 0.032932 0.236903
vt 0.029981 0.263625
vt 0.041016 0.160499
vt 0.038386 0.186096
vt 0.048488 0.082478
vt 0.046125 0.108922
vt 0.050218 0.059536
vt 0.050437 0.054089
vt 0.049324 0.072637
vt 0.050074 0.073585
vt 0.043620 0.134844
vt 0.033846 0.136270
vt 0.029941 0.161278
vt 0.028885 0.160462
vt 0.032784 0.135664
vt 0.025981 0.186207
vt 0.024926 0.185556
vt 0.046613 0.052214
vt 0.046747 0.057486
vt 0.045608 0.057443
vt 0.047667 0.052090
vt 0.045739 0.062915
vt 0.049982 0.063521
vt 0.045001 0.066866
vt 0.049429 0.071027
vt 0.043459 0.075726
vt 0.042376 0.075314
vt 0.043896 0.066609
vt 0.020918 0.210326
vt 0.021967 0.211001
vt 0.044609 0.062786
vt 0.037776 0.111034
vt 0.036705 0.110477
vt 0.040811 0.084812
vt 0.041890 0.085312
vt 0.016921 0.235002
vt 0.017965 0.235700
vt 0.013571 0.261705
vt 0.019348 0.268853
vt 0.012720 0.261011
vt 0.010939 0.277104
vt 0.009846 0.278408
vt 0.012582 0.261046
vt 0.009701 0.278486
vt 0.011450 0.261888
vt 0.008575 0.279292
vt 0.014091 0.274020
vt 0.045625 0.052927
vt 0.045471 0.057480
vt 0.044587 0.057986
vt 0.046477 0.052271
vt 0.043223 0.063038
vt 0.044473 0.062822
vt 0.043761 0.066646
vt 0.042240 0.075352
vt 0.040675 0.084850
vt 0.036568 0.110515
vt 0.032647 0.135701
vt 0.024789 0.185593
vt 0.020781 0.210362
vt 0.016784 0.235037
vt 0.028748 0.160499
vt 0.027597 0.161269
vt 0.023643 0.186378
vt 0.041055 0.075901
vt 0.039500 0.085494
vt 0.042552 0.067042
vt 0.019640 0.211168
vt 0.015648 0.235863
vt 0.035405 0.111212
vt 0.031494 0.136445
vt 0.132412 0.057193
vt 0.124008 0.051172
vt 0.132346 0.051955
vt 0.147006 0.048693
vt 0.143995 0.050790
vt 0.142180 0.046861
vt 0.124058 0.056142
vt 0.132574 0.060985
vt 0.124197 0.060819
vt 0.155670 0.075273
vt 0.155353 0.066964
vt 0.156855 0.075820
vt 0.154144 0.066569
vt 0.165158 0.135572
vt 0.169071 0.160364
vt 0.164097 0.136180
vt 0.140792 0.058145
vt 0.150528 0.184008
vt 0.159584 0.186012
vt 0.152790 0.209323
vt 0.173181 0.185490
vt 0.170359 0.161169
vt 0.174327 0.186273
vt 0.169208 0.160401
vt 0.142981 0.069443
vt 0.143954 0.071663
vt 0.141517 0.071214
vt 0.146169 0.133033
vt 0.148332 0.158548
vt 0.138996 0.157863
vt 0.152904 0.066791
vt 0.155534 0.075235
vt 0.154451 0.075649
vt 0.154009 0.066532
vt 0.173044 0.185453
vt 0.168016 0.161182
vt 0.151284 0.052142
vt 0.152292 0.057369
vt 0.151153 0.057413
vt 0.147921 0.063453
vt 0.152164 0.062841
vt 0.145088 0.234077
vt 0.155109 0.234544
vt 0.147226 0.259300
vt 0.147683 0.059468
vt 0.147461 0.054021
vt 0.137064 0.132272
vt 0.156940 0.160419
vt 0.171989 0.186106
vt 0.176016 0.210895
vt 0.162296 0.211459
vt 0.161224 0.110390
vt 0.157240 0.084769
vt 0.161361 0.110428
vt 0.157104 0.084731
vt 0.160153 0.110949
vt 0.153293 0.062710
vt 0.107526 0.069984
vt 0.107676 0.079639
vt 0.180031 0.235588
vt 0.185291 0.260891
vt 0.184440 0.261587
vt 0.185429 0.260926
vt 0.186561 0.261766
vt 0.188320 0.278362
vt 0.115679 0.047918
vt 0.124039 0.048328
vt 0.115649 0.050996
vt 0.181075 0.234888
vt 0.177203 0.210253
vt 0.181213 0.234923
vt 0.177065 0.210218
vt 0.140966 0.183395
vt 0.142203 0.080973
vt 0.144103 0.107253
vt 0.135229 0.106402
vt 0.124547 0.070042
vt 0.133572 0.080040
vt 0.124936 0.079697
vt 0.132475 0.085488
vt 0.129342 0.081367
vt 0.116034 0.069993
vt 0.116303 0.079642
vt 0.133019 0.070265
vt 0.154680 0.062960
vt 0.153430 0.062747
vt 0.152429 0.057405
vt 0.153313 0.057911
vt 0.187080 0.276982
vt 0.183927 0.273902
vt 0.156025 0.085232
vt 0.140959 0.061939
vt 0.115703 0.055385
vt 0.115804 0.060708
vt 0.165295 0.135609
vt 0.168031 0.263529
vt 0.178667 0.268743
vt 0.158415 0.085411
vt 0.182349 0.235748
vt 0.189445 0.279167
vt 0.151420 0.052198
vt 0.152272 0.052853
vt 0.107352 0.054962
vt 0.107407 0.060316
vt 0.178344 0.211058
vt 0.148584 0.072568
vt 0.149426 0.082408
vt 0.151803 0.108848
vt 0.154322 0.134767
vt 0.165066 0.236811
vt 0.145599 0.073199
vt 0.147419 0.073570
vt 0.147835 0.073517
vt 0.140728 0.052878
vt 0.157586 0.260743
vt 0.142999 0.208783
vt 0.188174 0.278285
vt 0.107318 0.050489
vt 0.141623 0.048279
vt 0.140786 0.049010
vt 0.132409 0.048712
vt 0.107321 0.047777
vt 0.150230 0.052018
vt 0.145852 0.063005
vt 0.146816 0.064800
vt 0.141936 0.061580
vt 0.142072 0.060944
vt 0.142561 0.060465
vt 0.143445 0.060463
vt 0.144129 0.060779
vt 0.148478 0.070958
vt 0.142594 0.044844
vt 0.144727 0.061366
vt 0.162524 0.111123
vt 0.166449 0.136351
vt 0.142327 0.066706
vt 0.141976 0.064117
vt 0.141892 0.062142
vt 0.147982 0.068251
vt 0.147185 0.065698
vt 0.054457 0.060524
vt 0.053773 0.060842
vt 0.055341 0.060526
vt 0.055966 0.061640
vt 0.055830 0.061004
vt 0.052310 0.073264
vt 0.050489 0.073638
vt 0.053954 0.071726
vt 0.049924 0.068319
vt 0.050719 0.065765
vt 0.051088 0.064867
vt 0.052051 0.063070
vt 0.053175 0.061430
vt 0.054925 0.069504
vt 0.055578 0.066766
vt 0.055927 0.064177
vt 0.056010 0.062201
vt 0.491376 0.467824
vt 0.428867 0.596652
vt 0.430262 0.469645
vt 0.492254 0.594858
vt 0.427524 0.723221
vt 0.493130 0.721618
vt 0.426184 0.849542
vt 0.494005 0.848170
vt 0.424827 0.975723
vt 0.359914 0.980797
vt 0.362835 0.854189
vt 0.368633 0.600416
vt 0.303896 0.734045
vt 0.308335 0.606265
vt 0.365729 0.727445
vt 0.299474 0.861488
vt 0.294985 0.988705
vt 0.230014 0.999545
vt 0.236010 0.871322
vt 0.241952 0.742842
vt 0.494879 0.974579
vt 0.371583 0.472900
vt 0.312844 0.477970
vt 0.247881 0.613953
vt 0.253893 0.484433
vt 0.489584 0.208502
vt 0.490456 0.334797
vt 0.433395 0.209153
vt 0.259144 0.349167
vt 0.320991 0.212586
vt 0.264704 0.213944
vt 0.317118 0.342973
vt 0.377213 0.210983
vt 0.374956 0.338042
vt 0.432722 0.335507
vt 0.324707 0.072038
vt 0.297208 0.082803
vt 0.272331 0.152515
vt 0.278196 0.105321
vt 0.488583 0.063756
vt 0.433516 0.066704
vt 0.379099 0.068973
vt 0.658207 0.208798
vt 0.663881 0.339077
vt 0.605983 0.335447
vt 0.714503 0.208892
vt 0.721931 0.343968
vt 0.545772 0.207891
vt 0.558748 0.721747
vt 0.561834 0.848018
vt 0.706028 0.147643
vt 0.699511 0.100588
vt 0.548192 0.334210
vt 0.611220 0.470208
vt 0.552505 0.468272
vt 0.670020 0.473958
vt 0.543682 0.065467
vt 0.598122 0.066512
vt 0.601971 0.208458
vt 0.625237 0.851241
vt 0.629908 0.977764
vt 0.555656 0.595228
vt 0.676302 0.602131
vt 0.729051 0.479095
vt 0.736853 0.608461
vt 0.682506 0.729792
vt 0.744562 0.737196
vt 0.615933 0.597638
vt 0.688689 0.857116
vt 0.752279 0.865522
vt 0.760047 0.993591
vt 0.694936 0.984212
vt 0.564935 0.974149
vt 0.652548 0.068356
vt 0.620592 0.724582
vt 0.680192 0.078500
vt 0.786785 0.591691
vt 0.757315 0.522719
vt 0.786306 0.522393
vt 0.757794 0.592017
vt 0.785827 0.453093
vt 0.756351 0.383265
vt 0.785342 0.382939
vt 0.756835 0.453419
vt 0.787037 0.628164
vt 0.760601 0.628461
vt 0.787260 0.660453
vt 0.766298 0.660688
vt 0.779097 0.705527
vt 0.755866 0.313111
vt 0.784857 0.312786
vt 0.755387 0.243811
vt 0.784378 0.243485
vt 0.754908 0.174513
vt 0.783899 0.174187
vt 0.757211 0.138012
vt 0.783647 0.137715
vt 0.762461 0.105661
vt 0.783424 0.105426
vt 0.774639 0.060542
vt 0.104715 0.039682
vt 0.096128 0.042602
vt 0.096127 0.039186
vt 0.104716 0.042596
vt 0.113303 0.040187
vt 0.113304 0.042590
vt 0.121824 0.039202
vt 0.117824 0.042587
vt 0.117823 0.040118
vt 0.121825 0.042585
vt 0.166352 0.023256
vt 0.150502 0.031933
vt 0.150501 0.027592
vt 0.134650 0.033271
vt 0.134652 0.040609
vt 0.127400 0.044723
vt 0.087434 0.042608
vt 0.087433 0.039208
vt 0.078740 0.042615
vt 0.078739 0.039199
vt 0.070152 0.042620
vt 0.070151 0.039706
vt 0.061564 0.042626
vt 0.061564 0.040223
vt 0.057044 0.042630
vt 0.057044 0.040161
vt 0.053043 0.042632
vt 0.053042 0.039250
vt 0.008506 0.023366
vt 0.024359 0.027680
vt 0.024360 0.032020
vt 0.040213 0.033337
vt 0.040215 0.040675
vt 0.047470 0.044778
s 1
g off
g Capo_001_dbl_Capo_003.002
usemtl dbl_Capo_003.002
f 1/1/1 2/2/2 3/3/3
f 4/4/4 5/5/5 6/6/6
f 5/5/5 7/7/7 8/8/8
f 8/8/8 9/9/9 10/10/10
f 9/9/9 11/11/11 10/10/10
f 10/10/10 11/11/11 12/12/12
f 11/11/11 13/13/13 12/12/12
f 10/10/10 14/14/14 15/15/15
f 10/10/10 12/12/12 14/14/14
f 8/8/8 15/15/15 16/16/16
f 8/8/8 10/10/10 15/15/15
f 15/15/15 17/17/17 18/18/18
f 15/15/15 14/14/14 17/17/17
f 16/16/16 18/18/18 19/19/19
f 16/16/16 15/15/15 18/18/18
f 20/20/20 19/19/19 21/21/21
f 20/20/20 16/16/16 19/19/19
f 18/18/18 22/22/22 23/23/23
f 18/18/18 17/17/17 22/22/22
f 19/19/19 23/23/23 24/24/24
f 19/19/19 18/18/18 23/23/23
f 21/21/21 24/24/24 25/25/25
f 21/21/21 19/19/19 24/24/24
f 26/26/26 21/21/21 25/25/25
f 26/26/26 25/25/25 27/27/27
f 22/22/22 28/28/28 29/29/29
f 28/28/28 22/22/22 30/30/28
f 30/30/28 22/22/22 17/17/17
f 31/31/30 32/32/31 33/33/32
f 34/34/33 32/32/31 31/31/30
f 34/34/33 27/27/27 32/32/31
f 35/35/34 27/27/27 34/34/33
f 35/35/34 26/26/26 27/27/27
f 36/36/35 21/21/21 26/26/26
f 36/36/35 20/20/20 21/21/21
f 32/32/31 37/37/36 33/33/32
f 33/33/32 37/37/36 1/1/1
f 38/38/37 26/26/26 35/35/34
f 38/38/37 36/36/35 26/26/26
f 39/39/38 36/36/35 38/38/37
f 39/39/38 6/6/6 36/36/35
f 6/6/6 5/5/5 36/36/35
f 5/5/5 20/20/20 36/36/35
f 20/20/20 8/8/8 16/16/16
f 8/8/8 20/20/20 5/5/5
f 7/7/7 5/5/5 4/4/4
f 7/7/7 9/9/9 8/8/8
f 1/1/1 37/37/36 2/2/2
f 40/40/39 29/29/29 41/41/40
f 22/22/22 29/29/29 40/40/39
f 25/25/25 42/42/41 32/32/31
f 27/27/27 25/25/25 32/32/31
f 42/42/41 24/24/24 43/43/42
f 25/25/25 24/24/24 42/42/41
f 44/44/43 45/45/44 46/46/45
f 47/47/46 45/45/44 44/44/43
f 46/46/45 48/48/47 49/49/48
f 45/45/44 48/48/47 46/46/45
f 41/41/40 47/47/46 44/44/43
f 29/29/29 47/47/46 41/41/40
f 50/50/49 22/22/22 40/40/39
f 23/23/23 22/22/22 50/50/49
f 43/43/42 23/23/23 50/50/49
f 24/24/24 23/23/23 43/43/42
f 49/49/48 51/51/50 52/52/51
f 48/48/47 51/51/50 49/49/48
f 53/53/52 54/54/53 55/55/54
f 56/56/55 54/54/53 53/53/52
f 52/52/51 56/56/55 53/53/52
f 51/51/50 56/56/55 52/52/51
f 39/39/38 4/4/4 6/6/6
f 4/4/4 39/39/38 57/57/56
f 58/58/57 53/53/52 59/59/58
f 52/52/51 53/53/52 58/58/57
f 59/59/58 55/55/54 60/60/59
f 53/53/52 55/55/54 59/59/58
f 61/61/60 49/49/48 62/62/61
f 46/46/45 49/49/48 61/61/60
f 62/62/61 52/52/51 58/58/57
f 49/49/48 52/52/51 62/62/61
f 63/63/62 41/41/40 64/64/63
f 40/40/39 41/41/40 63/63/62
f 42/42/41 65/65/64 66/66/65
f 32/32/31 42/42/41 66/66/65
f 67/67/66 40/40/39 63/63/62
f 40/40/39 67/67/66 68/68/67
f 69/69/68 46/46/45 61/61/60
f 44/44/43 46/46/45 69/69/68
f 64/64/63 44/44/43 69/69/68
f 41/41/40 44/44/43 64/64/63
f 32/32/31 66/66/65 37/37/36
f 37/37/36 66/66/65 2/2/2
f 70/70/69 71/71/70 72/72/71
f 73/73/72 70/70/69 72/72/71
f 71/71/70 74/74/73 75/75/74
f 72/72/71 71/71/70 75/75/74
f 76/76/75 77/77/76 78/78/77
f 76/76/75 79/79/78 77/77/76
f 2/2/2 66/66/65 79/79/78
f 66/66/65 77/77/76 79/79/78
f 65/65/64 80/80/79 77/77/76
f 66/66/65 65/65/64 77/77/76
f 81/81/80 82/82/81 80/80/79
f 65/65/64 81/81/80 80/80/79
f 82/82/81 83/83/82 67/67/66
f 83/83/82 82/82/81 81/81/80
f 82/82/81 67/67/66 84/84/83
f 85/85/84 82/82/81 84/84/83
f 82/82/81 85/85/84 86/86/85
f 87/87/86 74/74/73 88/88/87
f 74/74/73 87/87/86 75/75/74
f 89/89/88 77/77/76 80/80/79
f 77/77/76 89/89/88 78/78/77
f 73/73/72 90/90/89 70/70/69
f 90/90/89 73/73/72 91/91/90
f 92/92/91 84/84/83 93/93/92
f 84/84/83 92/92/91 85/85/84
f 91/91/90 93/93/92 90/90/89
f 93/93/92 91/91/90 92/92/91
f 94/94/93 88/88/87 95/95/94
f 88/88/87 94/94/93 87/87/86
f 86/86/85 80/80/79 82/82/81
f 80/80/79 86/86/85 89/89/88
f 84/84/83 63/63/62 93/93/92
f 67/67/66 63/63/62 84/84/83
f 93/93/92 64/64/63 90/90/89
f 63/63/62 64/64/63 93/93/92
f 90/90/89 69/69/68 70/70/69
f 64/64/63 69/69/68 90/90/89
f 70/70/69 61/61/60 71/71/70
f 69/69/68 61/61/60 70/70/69
f 71/71/70 62/62/61 74/74/73
f 61/61/60 62/62/61 71/71/70
f 74/74/73 58/58/57 88/88/87
f 62/62/61 58/58/57 74/74/73
f 88/88/87 59/59/58 95/95/94
f 58/58/57 59/59/58 88/88/87
f 95/95/94 60/60/59 96/96/95
f 59/59/58 60/60/59 95/95/94
f 60/60/59 97/97/96 96/96/95
f 98/98/97 99/99/98 100/100/99
f 98/98/97 96/96/95 99/99/98
f 101/101/100 100/100/99 102/102/101
f 98/98/97 100/100/99 101/101/100
f 103/103/102 102/102/101 104/104/103
f 101/101/100 102/102/101 103/103/102
f 95/95/94 96/96/95 98/98/97
f 94/94/93 95/95/94 98/98/97
f 96/96/95 97/97/96 105/105/104
f 96/96/95 105/105/104 99/99/98
f 106/106/105 107/107/106 108/108/107
f 109/109/108 107/107/106 106/106/105
f 107/107/106 110/110/109 108/108/107
f 107/107/106 111/111/110 110/110/109
f 107/107/106 89/89/88 111/111/110
f 89/89/88 107/107/106 78/78/77
f 111/111/110 86/86/85 112/112/111
f 86/86/85 111/111/110 89/89/88
f 112/112/111 85/85/84 113/113/112
f 85/85/84 112/112/111 86/86/85
f 113/113/112 92/92/91 114/114/113
f 92/92/91 113/113/112 85/85/84
f 114/114/113 91/91/90 115/115/114
f 91/91/90 114/114/113 92/92/91
f 115/115/114 73/73/72 116/116/115
f 73/73/72 115/115/114 91/91/90
f 117/117/116 87/87/86 118/118/117
f 87/87/86 117/117/116 75/75/74
f 118/118/117 94/94/93 119/119/118
f 94/94/93 118/118/117 87/87/86
f 120/120/119 75/75/74 117/117/116
f 75/75/74 120/120/119 72/72/71
f 116/116/115 72/72/71 120/120/119
f 72/72/71 116/116/115 73/73/72
f 119/119/118 98/98/97 101/101/100
f 98/98/97 119/119/118 94/94/93
f 121/121/120 117/117/116 122/122/121
f 117/117/116 121/121/120 120/120/119
f 123/123/122 114/114/113 124/124/123
f 114/114/113 123/123/122 113/113/112
f 125/125/124 113/113/112 123/123/122
f 113/113/112 125/125/124 112/112/111
f 126/126/125 119/119/118 127/127/126
f 119/119/118 126/126/125 118/118/117
f 124/124/123 115/115/114 128/128/127
f 115/115/114 124/124/123 114/114/113
f 122/122/121 118/118/117 126/126/125
f 118/118/117 122/122/121 117/117/116
f 128/128/127 116/116/115 129/129/128
f 116/116/115 128/128/127 115/115/114
f 129/129/128 120/120/119 121/121/120
f 120/120/119 129/129/128 116/116/115
f 127/127/126 101/101/100 103/103/102
f 101/101/100 127/127/126 119/119/118
f 110/110/109 112/112/111 125/125/124
f 112/112/111 110/110/109 111/111/110
f 76/76/75 78/78/77 109/109/108
f 109/109/108 78/78/77 107/107/106
f 130/130/129 131/131/130 132/132/131
f 133/133/132 134/134/133 135/135/134
f 136/136/135 137/137/136 138/138/137
f 139/139/138 140/140/139 141/141/140
f 140/140/139 139/139/138 142/142/141
f 143/143/142 144/144/143 145/145/144
f 130/130/129 146/146/145 137/137/136
f 147/147/146 148/148/147 149/149/148
f 150/150/149 151/151/150 152/152/151
f 151/151/150 150/150/149 153/153/152
f 154/154/153 155/155/154 156/156/155
f 157/157/156 158/158/157 159/159/158
f 160/160/159 161/161/160 162/162/161
f 161/161/160 160/160/159 163/163/162
f 144/144/143 164/164/163 165/165/164
f 166/166/165 167/167/166 168/168/167
f 169/169/168 170/170/169 160/160/159
f 171/171/170 172/172/171 173/173/172
f 168/168/167 174/174/173 175/175/174
f 176/176/175 157/157/156 159/159/158
f 177/177/176 165/165/164 148/148/147
f 178/178/177 179/179/178 180/180/179
f 181/181/180 182/182/181 183/183/182
f 182/182/181 181/181/180 184/184/183
f 185/185/184 143/143/142 145/145/144
f 143/143/142 185/185/184 181/181/180
f 168/168/167 186/186/185 170/170/169
f 186/186/185 168/168/167 167/167/166
f 187/187/186 188/188/187 11/11/11
f 189/189/188 190/190/189 191/191/190
f 192/192/191 193/193/192 194/194/193
f 164/164/163 153/153/152 150/150/149
f 153/153/152 164/164/163 144/144/143
f 131/131/130 195/195/194 196/196/195
f 131/131/130 197/197/196 195/195/194
f 198/198/197 199/199/198 200/200/199
f 199/199/198 198/198/197 201/201/200
f 159/159/158 158/158/157 202/202/201
f 158/158/157 147/147/146 202/202/201
f 201/201/200 150/150/149 199/199/198
f 150/150/149 201/201/200 164/164/163
f 203/203/202 204/204/203 205/205/204
f 170/170/169 174/174/173 168/168/167
f 206/206/205 207/207/206 208/208/207
f 209/209/208 207/207/206 205/205/204
f 207/207/206 209/209/208 210/210/208
f 207/207/206 210/210/208 208/208/207
f 211/211/209 208/208/207 212/212/210
f 213/213/211 156/156/155 207/207/206
f 165/165/164 164/164/163 178/178/177
f 214/214/212 142/142/141 215/215/213
f 142/142/141 214/214/212 140/140/139
f 214/214/212 216/216/214 217/217/215
f 191/191/190 218/218/216 219/219/217
f 211/211/209 206/206/205 208/208/207
f 220/220/218 181/181/180 185/185/184
f 181/181/180 220/220/218 184/184/183
f 179/179/178 198/198/197 189/189/188
f 198/198/197 179/179/178 201/201/200
f 221/221/219 156/156/155 213/213/211
f 222/222/220 138/138/137 223/223/221
f 187/187/186 211/211/209 212/212/210
f 170/170/169 163/163/162 160/160/159
f 163/163/162 170/170/169 186/186/185
f 143/143/142 183/183/182 224/224/222
f 183/183/182 143/143/142 181/181/180
f 225/225/223 191/191/190 226/226/224
f 182/182/181 141/141/140 227/227/225
f 141/141/140 182/182/181 139/139/138
f 136/136/135 222/222/220 197/197/196
f 192/192/191 228/228/226 193/193/192
f 228/228/226 192/192/191 200/200/199
f 193/193/192 229/229/227 194/194/193
f 167/167/166 166/166/165 230/230/228
f 132/132/131 131/131/130 196/196/195
f 162/162/161 184/184/183 220/220/218
f 184/184/183 162/162/161 161/161/160
f 217/217/215 216/216/214 231/231/229
f 232/232/230 233/233/231 7/7/7
f 223/223/221 206/206/205 211/211/209
f 233/233/231 187/187/186 9/9/9
f 163/163/162 215/215/213 142/142/141
f 215/215/213 163/163/162 186/186/185
f 200/200/199 234/234/232 228/228/226
f 234/234/232 200/200/199 199/199/198
f 161/161/160 142/142/141 139/139/138
f 142/142/141 161/161/160 163/163/162
f 235/235/233 162/162/161 236/236/234
f 220/220/218 185/185/184 237/237/235
f 162/162/161 220/220/218 236/236/234
f 237/237/235 185/185/184 238/238/236
f 148/148/147 178/178/177 180/180/179
f 180/180/179 179/179/178 239/239/237
f 179/179/178 189/189/188 239/239/237
f 145/145/144 165/165/164 177/177/176
f 165/165/164 178/178/177 148/148/147
f 238/238/236 145/145/144 177/177/176
f 203/203/202 240/240/238 241/241/238
f 240/240/238 203/203/202 156/156/155
f 240/240/238 156/156/155 155/155/154
f 242/242/239 203/203/202 241/241/238
f 157/157/156 238/238/236 158/158/157
f 238/238/236 177/177/176 158/158/157
f 203/203/202 235/235/233 236/236/234
f 235/235/233 203/203/202 242/242/239
f 175/175/174 134/134/133 133/133/132
f 175/175/174 243/243/240 134/134/133
f 149/149/148 180/180/179 172/172/171
f 236/236/234 237/237/235 204/204/203
f 175/175/174 146/146/145 243/243/240
f 174/174/173 146/146/145 175/175/174
f 203/203/202 236/236/234 204/204/203
f 239/239/237 225/225/223 244/244/241
f 158/158/157 177/177/176 147/147/146
f 177/177/176 148/148/147 147/147/146
f 172/172/171 239/239/237 244/244/241
f 137/137/136 221/221/219 213/213/211
f 202/202/201 147/147/146 245/245/242
f 147/147/146 149/149/148 245/245/242
f 204/204/203 157/157/156 176/176/175
f 156/156/155 203/203/202 207/207/206
f 233/233/231 211/211/209 187/187/186
f 190/190/189 192/192/191 246/246/243
f 197/197/196 232/232/230 247/247/244
f 134/134/133 243/243/240 248/248/245
f 138/138/137 137/137/136 213/213/211
f 134/134/133 248/248/245 135/135/134
f 130/130/129 136/136/135 131/131/130
f 136/136/135 130/130/129 137/137/136
f 233/233/231 223/223/221 211/211/209
f 184/184/183 139/139/138 182/182/181
f 139/139/138 184/184/183 161/161/160
f 7/7/7 233/233/231 9/9/9
f 198/198/197 190/190/189 189/189/188
f 237/237/235 238/238/236 157/157/156
f 160/160/159 162/162/161 235/235/233
f 248/248/245 243/243/240 249/249/246
f 222/222/220 136/136/135 138/138/137
f 132/132/131 196/196/195 250/250/247
f 216/216/214 230/230/228 231/231/229
f 243/243/240 132/132/131 250/250/247
f 197/197/196 251/251/248 195/195/194
f 243/243/240 250/250/247 249/249/246
f 138/138/137 213/213/211 206/206/205
f 191/191/190 219/219/217 226/226/224
f 168/168/167 175/175/174 252/252/249
f 252/252/249 175/175/174 133/133/132
f 204/204/203 237/237/235 157/157/156
f 206/206/205 213/213/211 207/207/206
f 185/185/184 145/145/144 238/238/236
f 148/148/147 180/180/179 149/149/148
f 214/214/212 215/215/213 216/216/214
f 192/192/191 194/194/193 246/246/243
f 222/222/220 232/232/230 197/197/196
f 253/253/250 169/169/168 254/254/153
f 216/216/214 167/167/166 230/230/228
f 146/146/145 255/255/251 221/221/219
f 255/255/251 146/146/145 256/256/252
f 256/256/252 146/146/145 257/257/252
f 258/258/252 174/174/173 259/259/253
f 174/174/173 258/258/252 146/146/145
f 146/146/145 258/258/252 257/257/252
f 260/260/254 160/160/159 235/235/233
f 160/160/159 260/260/254 169/169/168
f 243/243/240 130/130/129 132/132/131
f 216/216/214 186/186/185 167/167/166
f 186/186/185 216/216/214 215/215/213
f 145/145/144 144/144/143 165/165/164
f 174/174/173 170/170/169 169/169/168
f 239/239/237 189/189/188 225/225/223
f 189/189/188 191/191/190 225/225/223
f 197/197/196 247/247/244 251/251/248
f 236/236/234 220/220/218 237/237/235
f 190/190/189 200/200/199 192/192/191
f 200/200/199 190/190/189 198/198/197
f 144/144/143 224/224/222 153/153/152
f 224/224/222 144/144/143 143/143/142
f 133/133/132 135/135/134 261/261/255
f 205/205/204 204/204/203 176/176/175
f 187/187/186 212/212/210 188/188/187
f 223/223/221 138/138/137 206/206/205
f 136/136/135 197/197/196 131/131/130
f 146/146/145 130/130/129 243/243/240
f 146/146/145 221/221/219 137/137/136
f 232/232/230 4/4/4 247/247/244
f 232/232/230 7/7/7 4/4/4
f 233/233/231 222/222/220 223/223/221
f 222/222/220 233/233/231 232/232/230
f 9/9/9 187/187/186 11/11/11
f 11/11/11 188/188/187 13/13/13
f 166/166/165 168/168/167 252/252/249
f 207/207/206 203/203/202 205/205/204
f 190/190/189 246/246/243 218/218/216
f 190/190/189 218/218/216 191/191/190
f 253/253/250 174/174/173 169/169/168
f 174/174/173 253/253/250 262/262/256
f 174/174/173 262/262/256 259/259/253
f 224/224/222 263/263/257 264/264/258
f 263/263/257 224/224/222 183/183/182
f 153/153/152 264/264/258 151/151/150
f 264/264/258 153/153/152 224/224/222
f 183/183/182 227/227/225 263/263/257
f 227/227/225 183/183/182 182/182/181
f 199/199/198 152/152/151 234/234/232
f 152/152/151 199/199/198 150/150/149
f 178/178/177 201/201/200 179/179/178
f 201/201/200 178/178/177 164/164/163
f 149/149/148 172/172/171 171/171/170
f 180/180/179 239/239/237 172/172/171
f 251/251/248 4/4/4 57/57/56
f 4/4/4 251/251/248 247/247/244
f 172/172/171 244/244/241 173/173/172
f 245/245/242 149/149/148 171/171/170
f 221/221/219 154/154/153 156/156/155
f 154/154/153 221/221/219 265/265/259
f 265/265/259 221/221/219 266/266/260
f 266/266/260 221/221/219 267/267/261
f 268/268/81 169/169/168 260/260/254
f 169/169/168 268/268/81 269/269/262
f 169/169/168 269/269/262 254/254/153
f 255/255/251 267/267/261 221/221/219
f 65/65/64 270/270/263 271/271/264
f 270/270/263 65/65/64 42/42/41
f 270/270/263 42/42/41 272/272/263
f 273/273/265 42/42/41 43/43/42
f 42/42/41 273/273/265 274/274/263
f 42/42/41 274/274/263 272/272/263
f 40/40/39 275/275/266 50/50/49
f 275/275/266 40/40/39 276/276/266
f 276/276/266 40/40/39 68/68/67
f 50/50/49 275/275/266 277/277/267
f 81/81/80 278/278/159 83/83/82
f 278/278/159 81/81/80 279/279/268
f 279/279/268 81/81/80 280/280/269
f 65/65/64 281/281/270 81/81/80
f 281/281/270 65/65/64 282/282/271
f 282/282/271 65/65/64 271/271/264
f 283/283/269 43/43/42 50/50/49
f 43/43/42 283/283/269 284/284/272
f 43/43/42 284/284/272 285/285/273
f 43/43/42 285/285/273 286/286/274
f 283/283/269 50/50/49 277/277/267
f 281/281/270 280/280/269 81/81/80
f 273/273/265 43/43/42 286/286/274
s 2
f 287/287/275 288/288/276 289/289/277
f 287/287/275 290/290/278 288/288/276
f 290/290/278 291/291/279 288/288/276
f 292/292/280 293/293/281 291/291/279
f 294/294/282 295/295/283 293/293/281
f 293/293/281 295/295/283 296/296/284
f 293/293/281 296/296/284 297/297/285
f 298/298/286 299/299/287 300/300/288
f 298/298/286 301/301/289 299/299/287
f 301/301/289 302/302/290 299/299/287
f 301/301/289 297/297/285 302/302/290
f 297/297/285 296/296/284 303/303/291
f 297/297/285 303/303/291 302/302/290
f 302/302/290 303/303/291 304/304/292
f 302/302/290 304/304/292 305/305/293
f 299/299/287 302/302/290 305/305/293
f 299/299/287 305/305/293 306/306/294
f 294/294/282 307/307/295 295/295/283
f 292/292/280 294/294/282 293/293/281
f 290/290/278 292/292/280 291/291/279
f 301/301/289 293/293/281 297/297/285
f 293/293/281 301/301/289 291/291/279
f 308/308/296 288/288/276 298/298/286
f 288/288/276 308/308/296 289/289/277
f 298/298/286 291/291/279 301/301/289
f 291/291/279 298/298/286 288/288/276
f 309/309/297 298/298/286 300/300/288
f 308/308/296 298/298/286 309/309/297
f 310/310/298 299/299/287 306/306/294
f 299/299/287 310/310/298 300/300/288
f 311/311/299 300/300/288 310/310/298
f 300/300/288 311/311/299 309/309/297
f 312/312/300 313/313/301 314/314/302
f 313/313/301 287/287/275 289/289/277
f 315/315/303 309/309/297 311/311/299
f 316/316/304 315/315/303 317/317/305
f 318/318/306 309/309/297 315/315/303
f 319/319/307 320/320/308 316/316/304
f 313/313/301 289/289/277 321/321/309
f 314/314/302 320/320/308 319/319/307
f 321/321/309 308/308/296 320/320/308
f 321/321/309 289/289/277 308/308/296
f 320/320/308 308/308/296 318/318/306
f 318/318/306 308/308/296 309/309/297
f 322/322/310 316/316/304 323/323/311
f 324/324/312 316/316/304 317/317/305
f 316/316/304 324/324/312 325/325/313
f 323/323/311 316/316/304 325/325/313
f 316/316/304 318/318/306 315/315/303
f 316/316/304 320/320/308 318/318/306
f 314/314/302 321/321/309 320/320/308
f 314/314/302 313/313/301 321/321/309
f 326/326/314 314/314/302 327/327/315
f 326/326/314 312/312/300 314/314/302
f 327/327/315 314/314/302 328/328/316
f 328/328/316 314/314/302 319/319/307
f 328/328/316 319/319/307 316/316/304
f 328/328/316 316/316/304 322/322/310
f 329/329/317 330/330/318 331/331/319
f 329/329/317 332/332/320 333/333/321
f 326/326/314 334/334/322 312/312/300
f 292/292/280 335/335/323 336/336/324
f 329/329/317 337/337/325 332/332/320
f 337/337/325 329/329/317 338/338/326
f 339/339/327 340/340/328 341/341/329
f 330/330/318 333/333/321 342/342/330
f 326/326/314 343/343/331 334/334/322
f 344/344/331 329/329/317 345/345/332
f 343/343/331 344/344/331 334/334/322
f 336/336/324 346/346/333 347/347/334
f 287/287/275 348/348/335 290/290/278
f 329/329/317 333/333/321 330/330/318
f 334/334/322 331/331/319 339/339/327
f 349/349/336 350/350/337 351/351/338
f 350/350/337 349/349/336 342/342/330
f 352/352/339 351/351/338 353/353/340
f 351/351/338 352/352/339 349/349/336
f 354/354/341 349/349/336 352/352/339
f 331/331/319 330/330/318 340/340/328
f 313/313/301 341/341/329 287/287/275
f 333/333/321 350/350/337 342/342/330
f 355/355/342 356/356/343 357/357/344
f 355/355/342 357/357/344 358/358/345
f 346/346/333 355/355/342 358/358/345
f 294/294/282 336/336/324 359/359/346
f 330/330/318 342/342/330 340/340/328
f 334/334/322 313/313/301 312/312/300
f 344/344/331 360/360/347 329/329/317
f 354/354/341 352/352/339 361/361/348
f 287/287/275 341/341/329 348/348/335
f 292/292/280 336/336/324 294/294/282
f 336/336/324 361/361/348 346/346/333
f 361/361/348 336/336/324 335/335/323
f 290/290/278 335/335/323 292/292/280
f 346/346/333 358/358/345 347/347/334
f 352/352/339 353/353/340 356/356/343
f 352/352/339 356/356/343 355/355/342
f 361/361/348 352/352/339 355/355/342
f 334/334/322 339/339/327 313/313/301
f 294/294/282 359/359/346 307/307/295
f 335/335/323 354/354/341 361/361/348
f 354/354/341 335/335/323 348/348/335
f 290/290/278 348/348/335 335/335/323
f 344/344/331 345/345/332 334/334/322
f 345/345/332 329/329/317 331/331/319
f 360/360/347 362/362/349 329/329/317
f 334/334/322 345/345/332 331/331/319
f 362/362/349 338/338/326 329/329/317
f 361/361/348 355/355/342 346/346/333
f 336/336/324 347/347/334 359/359/346
f 339/339/327 331/331/319 340/340/328
f 339/339/327 341/341/329 313/313/301
f 342/342/330 349/349/336 354/354/341
f 340/340/328 342/342/330 354/354/341
f 348/348/335 340/340/328 354/354/341
f 340/340/328 348/348/335 341/341/329
s 3
f 363/363/350 364/364/351 365/365/351
f 364/364/351 363/363/350 366/366/352
f 367/367/353 368/368/354 369/369/354
f 368/368/354 367/367/353 370/370/353
f 371/371/355 366/366/352 363/363/350
f 366/366/352 371/371/355 372/372/356
f 373/373/357 372/372/356 371/371/355
f 372/372/356 373/373/357 374/374/358
f 365/365/351 370/370/353 367/367/353
f 370/370/353 365/365/351 364/364/351
f 373/373/357 375/375/359 374/374/358
f 369/369/354 376/376/360 377/377/360
f 376/376/360 369/369/354 368/368/354
f 377/377/360 378/378/361 379/379/361
f 378/378/361 377/377/360 376/376/360
f 379/379/361 380/380/362 381/381/363
f 380/380/362 379/379/361 378/378/361
f 381/381/363 382/382/364 383/383/365
f 382/382/364 381/381/363 380/380/362
f 383/383/365 384/384/366 385/385/367
f 384/384/366 383/383/365 382/382/364
f 385/385/367 384/384/366 386/386/368
s 4
f 387/387/369 388/388/369 389/389/369
f 388/388/369 387/387/369 390/390/351
f 391/391/370 390/390/351 387/387/369
f 390/390/351 391/391/370 392/392/350
f 393/393/371 394/394/355 395/395/372
f 394/394/355 393/393/371 396/396/357
f 397/397/373 398/398/373 399/399/373
f 400/400/374 398/398/373 401/401/375
f 398/398/373 400/400/374 399/399/373
f 396/396/357 401/401/375 402/402/359
f 401/401/375 396/396/357 393/393/371
f 401/401/375 393/393/371 400/400/374
f 395/395/372 392/392/350 391/391/370
f 392/392/350 395/395/372 394/394/355
f 389/389/369 403/403/354 404/404/354
f 403/403/354 389/389/369 388/388/369
f 404/404/354 405/405/360 406/406/360
f 405/405/360 404/404/354 403/403/354
f 406/406/360 407/407/361 408/408/361
f 407/407/361 406/406/360 405/405/360
f 408/408/361 409/409/363 410/410/376
f 409/409/363 408/408/361 407/407/361
f 410/410/376 411/411/365 412/412/377
f 411/411/365 410/410/376 409/409/363
f 412/412/377 413/413/367 414/414/378
f 413/413/367 412/412/377 411/411/365
f 415/415/379 416/416/379 417/417/379
f 417/417/379 418/418/380 419/419/381
f 418/418/380 417/417/379 416/416/379
f 419/419/381 413/413/367 420/420/368
f 413/413/367 419/419/381 414/414/378
f 414/414/378 419/419/381 418/418/380
