# Blender 5.0.1
# www.blender.org
mtllib lampara.mtl
g Farola_animal_crossing_Mesh
v 0.262932 0.210215 -0.262932
v -0.262932 0.210215 -0.262932
v 0.080453 8.842498 -0.080452
v -0.080453 8.842498 -0.080452
v 0.080453 8.842498 0.080454
v -0.080453 8.842498 0.080454
v 0.262932 0.210214 0.262932
v -0.262932 0.210214 0.262932
v 0.299597 0.382490 -0.299597
v -0.299597 0.382490 -0.299597
v -0.299597 0.382485 0.299597
v 0.299597 0.382485 0.299597
v 0.262932 0.711068 0.262932
v -0.262932 0.711068 0.262932
v -0.262932 0.711071 -0.262932
v 0.262932 0.711071 -0.262932
v 0.262932 2.372009 0.262932
v -0.262932 2.372009 0.262932
v -0.262932 2.372013 -0.262932
v 0.262932 2.372013 -0.262932
v 0.298173 2.695572 0.298173
v -0.298173 2.695572 0.298173
v -0.298173 2.695576 -0.298173
v 0.298173 2.695576 -0.298173
v 0.129456 3.148561 0.129456
v -0.129456 3.148561 0.129456
v -0.129456 3.148561 -0.129456
v 0.129456 3.148561 -0.129456
v 0.117945 6.017469 0.117946
v -0.117945 6.017469 0.117946
v -0.117945 6.017469 -0.117944
v 0.117945 6.017469 -0.117944
v 0.000000 0.210216 -0.371027
v 0.000000 0.210215 0.371027
v 0.000000 0.382485 0.422764
v 0.000000 0.711067 0.371027
v 0.000000 2.372009 0.371027
v 0.000000 2.695572 0.420754
v 0.000000 3.148561 0.182677
v 0.000000 6.017469 0.166435
v 0.000000 8.842497 0.113530
v 0.000000 8.842497 -0.113528
v 0.000000 6.017469 -0.166433
v 0.000000 3.148561 -0.182677
v 0.000000 2.695576 -0.420754
v 0.000000 2.372013 -0.371027
v 0.000000 0.711070 -0.371027
v 0.000000 0.382490 -0.422764
v 0.106377 8.842497 0.000251
v -0.106377 8.842497 0.000251
v -0.155950 6.017469 0.000367
v -0.171170 3.148561 0.000402
v -0.394250 2.695574 0.000925
v -0.347655 2.372010 0.000816
v -0.347655 0.711068 0.000816
v -0.396133 0.382487 0.000929
v -0.347655 0.210216 0.000816
v 0.000000 0.210214 0.000816
v 0.347655 0.210216 0.000816
v 0.396133 0.382487 0.000929
v 0.347655 0.711068 0.000816
v 0.347655 2.372010 0.000816
v 0.394250 2.695574 0.000925
v 0.171170 3.148561 0.000402
v 0.155950 6.017469 0.000367
v 0.000000 0.253958 -0.552573
v 0.000000 -0.002614 -0.590080
v -0.418167 -0.002614 -0.418167
v -0.391588 0.253958 -0.391588
v -0.517766 0.253953 0.001215
v -0.552910 -0.002614 0.001297
v -0.418167 -0.002615 0.418167
v -0.391588 0.253950 0.391588
v 0.000000 -0.002615 0.590080
v 0.000000 0.253950 0.552573
v 0.418167 -0.002615 0.418167
v 0.552910 -0.002614 0.001297
v 0.517766 0.253953 0.001215
v 0.391588 0.253950 0.391588
v 0.418167 -0.002614 -0.418167
v 0.391588 0.253958 -0.391588
v 0.304686 0.531931 -0.304686
v 0.000000 0.531931 -0.429945
v -0.304686 0.531931 -0.304686
v -0.402862 0.531926 0.000945
v -0.304686 0.531926 0.304686
v 0.000000 0.531926 0.429945
v 0.304686 0.531926 0.304686
v 0.402862 0.531926 0.000945
v -0.180386 3.011821 -0.180386
v -0.238510 3.011820 0.000560
v -0.180386 3.011820 0.180386
v 0.000000 3.011820 0.254544
v 0.180386 3.011820 0.180386
v 0.238510 3.011820 0.000560
v 0.180386 3.011821 -0.180386
v 0.000000 3.011821 -0.254544
v -0.202254 3.043159 0.202254
v 0.000000 3.043159 0.285403
v 0.000000 3.136812 0.204823
v -0.145150 3.136812 0.145150
v -0.191921 3.136814 0.000450
v -0.267425 3.043159 0.000627
v 0.000000 3.136814 -0.204823
v 0.000000 3.043159 -0.285403
v -0.202254 3.043159 -0.202254
v -0.145150 3.136814 -0.145150
v 0.202254 3.043159 0.202254
v 0.267425 3.043159 0.000627
v 0.191921 3.136814 0.000450
v 0.145150 3.136812 0.145150
v 0.202254 3.043159 -0.202254
v 0.145150 3.136814 -0.145150
v 0.175388 6.313195 0.175389
v 0.000000 6.313194 0.247493
v -0.175388 6.313195 0.175389
v -0.231902 6.313194 0.000545
v -0.175388 6.313195 -0.175387
v 0.000000 6.313194 -0.247491
v 0.175388 6.313195 -0.175387
v 0.231902 6.313194 0.000545
v 0.160315 6.875372 0.160316
v 0.000000 6.875371 0.226223
v -0.160315 6.875372 0.160316
v -0.211972 6.875371 0.000498
v -0.160315 6.875372 -0.160314
v 0.000000 6.875371 -0.226221
v 0.160315 6.875372 -0.160314
v 0.211972 6.875371 0.000498
v 0.374867 7.997951 0.374868
v 0.000000 7.997950 0.528979
v -0.374867 7.997951 0.374868
v -0.495657 7.997950 0.001164
v -0.374867 7.997951 -0.374866
v 0.000000 7.997950 -0.528977
v 0.374867 7.997951 -0.374866
v 0.495657 7.997950 0.001164
v 0.217375 8.766423 0.217376
v 0.000000 8.766418 0.306741
v -0.217375 8.766423 0.217376
v -0.287418 8.766418 0.000675
v -0.217375 8.766423 -0.217374
v 0.000000 8.766418 -0.306739
v 0.217375 8.766423 -0.217374
v 0.287418 8.766418 0.000675
v 0.000000 8.375655 0.736647
v 0.522033 8.375659 0.522034
v 0.690243 8.375655 0.001620
v 0.522033 8.375658 -0.522032
v 0.000000 8.375655 -0.736645
v -0.522033 8.375658 -0.522032
v -0.690243 8.375655 0.001620
v -0.522033 8.375659 0.522034
v 0.000000 6.965436 0.414587
v 0.293801 6.965436 0.293802
v 0.388471 6.965436 0.000912
v 0.293801 6.965436 -0.293800
v 0.000000 6.965436 -0.414585
v -0.293801 6.965436 -0.293800
v -0.388471 6.965436 0.000912
v -0.293801 6.965436 0.293802
v 0.000000 8.274081 0.719959
v 0.510206 8.274085 0.510207
v 0.674606 8.274081 0.001584
v 0.510206 8.274085 -0.510205
v 0.000000 8.274081 -0.719957
v -0.510206 8.274085 -0.510205
v -0.674606 8.274081 0.001584
v -0.510206 8.274085 0.510207
v 0.000000 8.973300 0.113530
v -0.106377 8.973300 0.000251
v -0.080453 8.973300 0.080454
v 0.106377 8.973300 0.000251
v 0.080453 8.973300 0.080454
v 0.080453 8.973300 -0.080452
v 0.000000 8.973300 -0.113528
v -0.080453 8.973300 -0.080452
v 0.000000 9.308686 0.025424
v 0.000000 9.308686 0.000057
v -0.023822 9.308686 0.000057
v -0.018016 9.308686 0.018017
v 0.023822 9.308686 0.000057
v 0.018016 9.308686 0.018017
v 0.018016 9.308686 -0.018015
v 0.000000 9.308686 -0.025422
v -0.018016 9.308686 -0.018015
v 0.000000 9.118143 0.180716
v 0.128066 9.118146 0.128067
v 0.169331 9.118143 0.000398
v 0.128066 9.118146 -0.128065
v 0.000000 9.118143 -0.180714
v -0.128066 9.118146 -0.128065
v -0.169331 9.118143 0.000398
v -0.128066 9.118146 0.128067
v 0.306837 7.131465 0.306838
v 0.000000 7.131464 0.432982
v -0.306837 7.131465 0.306838
v -0.405706 7.131464 0.000953
v -0.306837 7.131464 -0.306836
v 0.000000 7.131464 -0.432979
v 0.306837 7.131464 -0.306836
v 0.405706 7.131464 0.000953
v 0.363882 7.858040 0.363883
v 0.000000 7.858039 0.513479
v -0.363882 7.858040 0.363883
v -0.481133 7.858038 0.001130
v -0.363882 7.858040 -0.363881
v 0.000000 7.858038 -0.513477
v 0.363882 7.858040 -0.363881
v 0.481133 7.858039 0.001130
v 0.082633 8.842498 -0.073666
v 0.082633 8.973300 -0.073666
v 0.131536 9.118146 -0.117262
v 0.018505 9.308686 -0.016496
v 0.000000 9.308686 -0.023280
v -0.018505 9.308686 -0.016496
v -0.131536 9.118146 -0.117262
v -0.082633 8.973300 -0.073666
v -0.082633 8.842498 -0.073666
v -0.223265 8.766421 -0.199039
v -0.536177 8.375657 -0.477998
v -0.524031 8.274085 -0.467169
v -0.385024 7.997951 -0.343246
v -0.373741 7.858040 -0.333188
v -0.315151 7.131464 -0.280954
v -0.301762 6.965436 -0.269018
v -0.164659 6.875372 -0.146791
v -0.180140 6.313195 -0.160593
v -0.121141 6.017469 -0.107996
v -0.132964 3.148561 -0.118537
v -0.149083 3.136814 -0.132907
v -0.207734 3.043159 -0.185194
v -0.185273 3.011821 -0.165170
v -0.306252 2.695576 -0.273022
v -0.270057 2.372013 -0.240754
v -0.270057 0.711070 -0.240754
v -0.312941 0.531931 -0.278985
v -0.307714 0.382490 -0.274325
v -0.402198 0.253957 -0.358557
v -0.429497 -0.002614 -0.382895
v -0.270057 0.210215 -0.240754
v 0.000000 0.210216 -0.339759
v 0.270057 0.210215 -0.240754
v 0.429497 -0.002614 -0.382895
v 0.402198 0.253957 -0.358557
v 0.307714 0.382490 -0.274326
v 0.312941 0.531931 -0.278985
v 0.270057 0.711070 -0.240754
v 0.270057 2.372012 -0.240754
v 0.306252 2.695576 -0.273022
v 0.185273 3.011821 -0.165170
v 0.207734 3.043159 -0.185194
v 0.149083 3.136814 -0.132907
v 0.132964 3.148561 -0.118537
v 0.121141 6.017469 -0.107995
v 0.180140 6.313195 -0.160593
v 0.164659 6.875372 -0.146791
v 0.301762 6.965436 -0.269018
v 0.315151 7.131464 -0.280954
v 0.373741 7.858040 -0.333187
v 0.385024 7.997951 -0.343246
v 0.524031 8.274084 -0.467170
v 0.536177 8.375658 -0.477998
v 0.223265 8.766423 -0.199039
v -0.026576 0.382485 0.411838
v -0.034736 0.253950 0.538293
v -0.037094 -0.002615 0.574830
v -0.023324 0.210215 0.361438
v -0.030839 0.210214 0.000816
v -0.023956 0.210216 -0.330977
v -0.023324 0.210216 -0.361438
v -0.037094 -0.002614 -0.574830
v -0.034736 0.253958 -0.538293
v -0.026576 0.382490 -0.411838
v -0.027027 0.531931 -0.418834
v -0.023324 0.711070 -0.361438
v -0.023324 2.372013 -0.361438
v -0.026450 2.695576 -0.409881
v -0.016001 3.011821 -0.247966
v -0.017941 3.043159 -0.278027
v -0.012876 3.136814 -0.199530
v -0.011484 3.148561 -0.177956
v -0.010462 6.017469 -0.162131
v -0.015558 6.313194 -0.241095
v -0.014221 6.875371 -0.220375
v -0.026062 6.965436 -0.403871
v -0.027218 7.131464 -0.421790
v -0.032279 7.858038 -0.500207
v -0.033253 7.997950 -0.515307
v -0.045258 8.274081 -0.701351
v -0.046307 8.375655 -0.717608
v -0.019282 8.766418 -0.298812
v -0.007137 8.842497 -0.110594
v -0.007137 8.973300 -0.110594
v -0.011360 9.118144 -0.176044
v -0.001598 9.308686 -0.024765
v -0.001641 9.308686 -0.022678
v -0.002113 9.308686 0.000057
v -0.001598 9.308686 0.024767
v -0.011360 9.118144 0.176046
v -0.007137 8.973300 0.110596
v -0.007137 8.842497 0.110596
v -0.019283 8.766418 0.298814
v -0.046307 8.375655 0.717610
v -0.045258 8.274081 0.701353
v -0.033253 7.997950 0.515309
v -0.032279 7.858039 0.500209
v -0.027218 7.131464 0.421792
v -0.026062 6.965436 0.403873
v -0.014221 6.875371 0.220377
v -0.015558 6.313194 0.241097
v -0.010462 6.017469 0.162133
v -0.011484 3.148561 0.177956
v -0.012876 3.136812 0.199530
v -0.017941 3.043159 0.278027
v -0.016001 3.011820 0.247966
v -0.026450 2.695572 0.409881
v -0.023324 2.372009 0.361438
v -0.023324 0.711067 0.361438
v -0.027027 0.531926 0.418834
v 0.341907 0.210216 0.018598
v 0.000000 0.210214 0.025931
v -0.030329 0.210214 0.025281
v -0.341907 0.210216 0.018598
v -0.543769 -0.002615 0.029578
v -0.509206 0.253953 0.027698
v -0.389584 0.382487 0.021191
v -0.396202 0.531926 0.021551
v -0.341907 0.711068 0.018598
v -0.341907 2.372010 0.018598
v -0.387732 2.695574 0.021091
v -0.234567 3.011820 0.012759
v -0.263003 3.043159 0.014306
v -0.188748 3.136814 0.010267
v -0.168340 3.148561 0.009157
v -0.153371 6.017469 0.008344
v -0.228068 6.313194 0.012407
v -0.208467 6.875371 0.011340
v -0.382048 6.965436 0.020782
v -0.398999 7.131464 0.021704
v -0.473178 7.858039 0.025739
v -0.487462 7.997950 0.026516
v -0.663453 8.274081 0.036089
v -0.678832 8.375655 0.036926
v -0.282666 8.766418 0.015376
v -0.104619 8.842497 0.005692
v -0.104619 8.973300 0.005692
v -0.166532 9.118143 0.009059
v -0.023428 9.308686 0.001275
v -0.002078 9.308686 0.001733
v 0.000000 9.308686 0.001778
v 0.023428 9.308686 0.001275
v 0.166532 9.118143 0.009059
v 0.104619 8.973300 0.005692
v 0.104619 8.842497 0.005692
v 0.282666 8.766418 0.015376
v 0.678832 8.375655 0.036926
v 0.663453 8.274081 0.036089
v 0.487462 7.997950 0.026516
v 0.473178 7.858039 0.025739
v 0.398999 7.131464 0.021704
v 0.382048 6.965436 0.020782
v 0.208467 6.875371 0.011340
v 0.228068 6.313194 0.012407
v 0.153371 6.017469 0.008344
v 0.168340 3.148561 0.009157
v 0.188748 3.136814 0.010267
v 0.263003 3.043159 0.014306
v 0.234567 3.011820 0.012759
v 0.387732 2.695574 0.021090
v 0.341907 2.372010 0.018598
v 0.341907 0.711068 0.018598
v 0.396202 0.531926 0.021551
v 0.389584 0.382487 0.021191
v 0.509206 0.253953 0.027698
v 0.543769 -0.002615 0.029578
v -0.277322 0.382485 0.308754
v -0.362474 0.253950 0.403557
v -0.387077 -0.002615 0.430948
v -0.243384 0.210214 0.270969
v -0.316487 0.210216 0.019143
v -0.321807 0.210216 0.000816
v -0.249978 0.210215 -0.248115
v -0.243384 0.210215 -0.270969
v -0.387077 -0.002614 -0.430948
v -0.362474 0.253958 -0.403557
v -0.277322 0.382490 -0.308754
v -0.282033 0.531931 -0.313998
v -0.243384 0.711071 -0.270969
v -0.243384 2.372013 -0.270969
v -0.276004 2.695576 -0.307286
v -0.166975 3.011821 -0.185899
v -0.187217 3.043159 -0.208436
v -0.134359 3.136814 -0.149587
v -0.119831 3.148561 -0.133413
v -0.109176 6.017469 -0.121549
v -0.162348 6.313195 -0.180748
v -0.148396 6.875372 -0.165214
v -0.271958 6.965436 -0.302781
v -0.284024 7.131464 -0.316214
v -0.336828 7.858040 -0.375003
v -0.346996 7.997951 -0.386324
v -0.472274 8.274084 -0.525800
v -0.483221 8.375658 -0.537988
v -0.201214 8.766421 -0.224018
v -0.074472 8.842498 -0.082911
v -0.074472 8.973300 -0.082911
v -0.118544 9.118146 -0.131979
v -0.016677 9.308686 -0.018566
v -0.017129 9.308686 -0.017000
v -0.022051 9.308686 0.000057
v -0.021686 9.308686 0.001313
v -0.016677 9.308686 0.018568
v -0.118544 9.118146 0.131981
v -0.074472 8.973300 0.082913
v -0.074472 8.842498 0.082913
v -0.201214 8.766421 0.224020
v -0.483221 8.375659 0.537990
v -0.472273 8.274085 0.525802
v -0.346996 7.997951 0.386326
v -0.336828 7.858040 0.375005
v -0.284024 7.131465 0.316216
v -0.271958 6.965436 0.302782
v -0.148396 6.875371 0.165216
v -0.162348 6.313195 0.180749
v -0.109176 6.017469 0.121551
v -0.119832 3.148561 0.133413
v -0.134359 3.136812 0.149587
v -0.187217 3.043159 0.208436
v -0.166975 3.011820 0.185899
v -0.276004 2.695572 0.307286
v -0.243384 2.372009 0.270969
v -0.243384 0.711068 0.270969
v -0.282033 0.531926 0.313998
v 0.269691 0.210214 0.242024
v 0.000000 0.210215 0.341496
v -0.023923 0.210215 0.332672
v -0.249640 0.210214 0.249419
v -0.269691 0.210214 0.242024
v -0.428915 -0.002615 0.384914
v -0.401653 0.253950 0.360448
v -0.307297 0.382485 0.275772
v -0.312517 0.531926 0.280457
v -0.269691 0.711068 0.242024
v -0.269691 2.372009 0.242024
v -0.305837 2.695572 0.274462
v -0.185022 3.011820 0.166041
v -0.207452 3.043159 0.186170
v -0.148881 3.136812 0.133608
v -0.132784 3.148561 0.119162
v -0.120977 6.017469 0.108567
v -0.179896 6.313195 0.161442
v -0.164435 6.875372 0.147567
v -0.301353 6.965436 0.270439
v -0.314723 7.131465 0.282437
v -0.373235 7.858040 0.334947
v -0.384502 7.997951 0.345058
v -0.523320 8.274085 0.469635
v -0.535451 8.375659 0.480521
v -0.222962 8.766421 0.200090
v -0.082521 8.842498 0.074057
v -0.082521 8.973300 0.074057
v -0.131357 9.118146 0.117883
v -0.018480 9.308686 0.016585
v -0.017106 9.308686 0.017092
v -0.001639 9.308686 0.022796
v 0.000000 9.308686 0.023401
v 0.018480 9.308686 0.016585
v 0.131357 9.118146 0.117883
v 0.082521 8.973300 0.074057
v 0.082521 8.842498 0.074057
v 0.222962 8.766421 0.200090
v 0.535451 8.375659 0.480521
v 0.523320 8.274085 0.469635
v 0.384502 7.997951 0.345058
v 0.373235 7.858040 0.334947
v 0.314723 7.131465 0.282438
v 0.301353 6.965436 0.270439
v 0.164435 6.875372 0.147567
v 0.179896 6.313195 0.161442
v 0.120977 6.017469 0.108567
v 0.132784 3.148561 0.119162
v 0.148881 3.136812 0.133608
v 0.207452 3.043159 0.186170
v 0.185022 3.011820 0.166041
v 0.305837 2.695572 0.274462
v 0.269691 2.372009 0.242024
v 0.269691 0.711068 0.242024
v 0.312517 0.531926 0.280457
v 0.307297 0.382485 0.275772
v 0.401653 0.253950 0.360448
v 0.428915 -0.002615 0.384914
v 0.306776 7.801029 0.306777
v 0.000000 7.801026 0.432896
v 0.000000 7.188478 0.365032
v 0.258683 7.188478 0.258684
v -0.315088 7.801028 -0.280898
v -0.265692 7.188478 -0.236862
v -0.342036 7.188476 0.000803
v -0.405626 7.801025 0.000953
v 0.000000 7.188476 -0.365029
v 0.258683 7.188478 -0.258682
v 0.000000 7.801025 -0.432894
v 0.306776 7.801028 -0.306775
v 0.265692 7.188478 -0.236862
v 0.315088 7.801028 -0.280898
v 0.405626 7.801026 0.000953
v 0.342037 7.188478 0.000803
v -0.239451 7.188478 -0.266589
v -0.283968 7.801028 -0.316152
v -0.027213 7.801025 -0.421706
v -0.022947 7.188476 -0.355596
v -0.283968 7.801029 0.316154
v -0.239450 7.188478 0.266591
v -0.022947 7.188478 0.355598
v -0.027213 7.801026 0.421708
v -0.265332 7.188478 0.238113
v -0.314661 7.801029 0.282382
v -0.398920 7.801026 0.021700
v -0.336382 7.188476 0.018298
v 0.314661 7.801029 0.282382
v 0.265332 7.188478 0.238113
v 0.336382 7.188478 0.018298
v 0.398920 7.801026 0.021700
vn 0.2909 0.0023 -0.9568
vn -0.3769 0.1328 -0.9167
vn -0.3800 0.0363 -0.9243
vn -0.0000 1.0000 -0.0001
vn -0.0000 1.0000 -0.0002
vn -0.3844 0.1254 0.9146
vn 0.3174 0.0425 0.9473
vn -0.3800 0.0374 0.9242
vn -0.0000 -1.0000 -0.0000
vn -0.9701 0.0138 -0.2422
vn -0.9436 0.1291 0.3050
vn -0.9509 0.0353 0.3074
vn 0.9420 0.1212 0.3131
vn 0.9646 0.0390 -0.2608
vn 0.9509 0.0360 0.3074
vn 0.3138 0.1373 -0.9395
vn -0.3768 0.1340 -0.9166
vn -0.9571 0.1310 -0.2585
vn -0.9435 0.1293 0.3050
vn 0.3138 0.1373 0.9395
vn -0.3768 0.1340 0.9166
vn 0.3249 0.1368 0.9358
vn 0.9435 0.1293 0.3050
vn 0.9571 0.1310 -0.2585
vn -0.0275 0.2367 0.9712
vn -0.9512 -0.0263 0.3075
vn -0.9655 -0.0289 -0.2587
vn -0.3801 -0.0279 -0.9245
vn 0.3141 -0.0314 -0.9489
vn 0.9663 -0.0294 -0.2557
vn 0.9512 -0.0261 0.3075
vn -0.3765 0.1395 0.9159
vn -0.4186 -0.0705 0.9054
vn -0.9428 0.1348 0.3047
vn -0.9535 0.1357 -0.2691
vn -0.3765 0.1395 -0.9159
vn 0.3281 0.1415 -0.9340
vn 0.9431 0.1349 0.3038
vn 0.9535 0.1357 -0.2691
vn -0.2975 0.6227 0.7237
vn 0.2472 0.6320 0.7345
vn -0.7619 0.6138 -0.2069
vn -0.7548 0.6089 0.2440
vn 0.2472 0.6320 -0.7345
vn -0.2975 0.6227 -0.7237
vn 0.7548 0.6089 0.2440
vn 0.7619 0.6138 -0.2069
vn -0.0758 0.1842 0.9800
vn -0.3802 0.0052 0.9249
vn 0.3149 0.0061 0.9491
vn -0.9662 -0.0316 -0.2560
vn -0.9515 0.0051 0.3076
vn -0.9512 -0.0251 0.3075
vn 0.3101 -0.0355 -0.9500
vn -0.3802 0.0052 -0.9249
vn -0.3801 -0.0266 -0.9246
vn 0.9515 0.0051 0.3076
vn 0.9662 -0.0309 -0.2558
vn 0.9512 -0.0251 0.3075
vn -0.3798 -0.0493 0.9238
vn -0.4635 -0.1205 0.8779
vn -0.9617 -0.1047 0.2535
vn -0.3244 -0.1089 -0.9396
vn 0.9500 -0.0484 0.3086
vn 0.9626 -0.0479 -0.2667
vn 0.3768 0.1340 0.9166
vn 0.3799 0.0390 0.9242
vn 0.0277 -0.2044 0.9785
vn 0.3771 0.1290 0.9172
vn 0.3801 -0.0290 0.9245
vn -0.2304 0.3761 0.8975
vn 0.3766 0.1387 0.9159
vn 0.2975 0.6227 0.7237
vn 0.2527 0.6311 0.7334
vn 0.3801 -0.0292 0.9245
vn 0.3802 0.0052 0.9249
vn -0.1556 0.1845 0.9704
vn 0.3798 -0.0473 0.9239
vn -0.0000 1.0000 0.0001
vn 0.3801 -0.0292 -0.9245
vn -0.0415 0.2207 -0.9745
vn 0.3798 -0.0473 -0.9239
vn 0.3149 0.0054 -0.9491
vn 0.3802 0.0052 -0.9249
vn 0.2527 0.6310 -0.7334
vn 0.2975 0.6227 -0.7237
vn 0.3801 -0.0290 -0.9245
vn 0.3766 0.1387 -0.9159
vn 0.3799 0.0390 -0.9242
vn -0.2454 -0.0971 -0.9645
vn 0.3771 0.1290 -0.9172
vn 0.3249 0.1368 -0.9358
vn 0.3768 0.1340 -0.9166
vn -0.0000 1.0000 -0.0000
vn -0.9401 0.0558 -0.3362
vn -0.9850 0.1668 0.0451
vn -0.8691 -0.2522 -0.4255
vn -0.9657 0.0051 -0.2597
vn -0.8006 0.5799 -0.1510
vn -0.7612 0.6133 -0.2110
vn -0.9653 0.0772 -0.2493
vn -0.8532 0.0158 -0.5214
vn -0.9526 0.2584 -0.1604
vn -0.9885 -0.1500 -0.0196
vn -0.9822 0.1168 -0.1471
vn -0.9550 0.1307 -0.2662
vn 0.9550 0.1307 -0.2662
vn 0.9441 0.1292 -0.3033
vn 0.9806 -0.0851 -0.1765
vn 0.9514 0.0373 -0.3056
vn 0.9517 -0.0276 -0.3057
vn 0.9435 0.1337 -0.3031
vn 0.7612 0.6133 -0.2110
vn 0.7555 0.6086 -0.2427
vn 0.9657 0.0056 -0.2597
vn 0.9517 -0.0278 -0.3057
vn 0.2754 -0.6895 0.6699
vn -0.2779 0.6826 -0.6759
vn 0.7008 -0.6764 -0.2265
vn -0.7069 0.6694 0.2285
vn -0.2779 0.6826 0.6759
vn 0.2754 -0.6895 -0.6699
vn -0.7008 -0.6764 -0.2265
vn 0.7069 0.6694 0.2285
vn 0.2779 0.6826 0.6759
vn -0.2754 -0.6895 -0.6699
vn -0.2754 -0.6895 0.6699
vn 0.2779 0.6826 -0.6759
vn 0.7462 -0.6497 0.1450
vn 0.7015 -0.6761 0.2254
vn 0.6955 -0.6558 0.2935
vn -0.7523 0.6425 -0.1459
vn -0.7076 0.6691 -0.2273
vn -0.7015 -0.6761 0.2254
vn 0.7076 0.6691 -0.2273
vn 0.3799 -0.0444 -0.9240
vn 0.3170 -0.0455 -0.9473
vn -0.3799 -0.0444 -0.9240
vn -0.9882 -0.0386 -0.1483
vn -0.7922 0.1334 -0.5955
vn -0.9644 -0.0434 -0.2607
vn -0.9507 -0.0428 0.3073
vn 0.3170 -0.0455 0.9473
vn -0.3799 -0.0444 0.9240
vn 0.3799 -0.0444 0.9240
vn 0.9644 -0.0434 -0.2607
vn 0.9512 -0.0428 -0.3055
vn -0.9054 0.3949 -0.1560
vn -0.8720 0.4292 -0.2355
vn 0.2834 0.4462 0.8489
vn 0.3420 0.4372 0.8318
vn 0.8720 0.4291 -0.2355
vn 0.8615 0.4246 0.2785
vn 0.8622 0.4243 -0.2769
vn 0.3420 0.4372 -0.8318
vn 0.2834 0.4462 -0.8489
vn -0.2811 -0.6733 0.6838
vn -0.1892 0.8674 0.4602
vn -0.7148 -0.6600 0.2310
vn -0.7148 -0.6600 0.2311
vn -0.4863 0.8596 0.1572
vn -0.2811 -0.6733 -0.6838
vn -0.1892 0.8675 -0.4602
vn -0.1892 0.8674 -0.4602
vn 0.7148 -0.6600 0.2311
vn 0.4863 0.8596 0.1572
vn 0.1892 0.8674 0.4602
vn 0.2811 -0.6733 0.6838
vn 0.2811 -0.6733 -0.6838
vn 0.1892 0.8675 -0.4602
vn -0.7604 -0.6327 -0.1468
vn -0.7155 -0.6597 -0.2298
vn -0.7408 -0.6174 -0.2646
vn -0.5229 0.8453 -0.1100
vn -0.4869 0.8594 -0.1564
vn 0.7155 -0.6597 -0.2298
vn 0.4869 0.8594 -0.1564
vn 0.3585 -0.3336 0.8719
vn 0.2878 -0.7223 0.6289
vn -0.3603 -0.3194 0.8765
vn -0.9113 -0.3412 -0.2303
vn -0.9300 -0.2802 -0.2380
vn 0.2779 -0.3614 -0.8900
vn 0.3585 -0.3336 -0.8719
vn 0.8946 -0.4365 -0.0960
vn 0.9281 -0.1018 -0.3581
vn 0.6800 -0.6842 -0.2634
vn 0.9055 -0.3072 0.2927
vn 0.0564 -0.1099 0.9923
vn 0.3438 -0.4272 0.8362
vn 0.3782 -0.1019 0.9201
vn -0.3783 -0.1019 0.9201
vn -0.1444 -0.2706 0.9518
vn -0.9469 -0.0984 0.3061
vn -0.8646 -0.4388 -0.2447
vn -0.8450 -0.4597 0.2732
vn -0.8652 -0.4144 -0.2824
vn -0.9911 -0.1029 -0.0843
vn -0.9202 -0.1695 -0.3529
vn -0.3782 -0.1019 -0.9201
vn 0.2985 -0.4329 -0.8506
vn -0.3376 -0.4603 -0.8211
vn 0.3438 -0.4272 -0.8362
vn 0.0564 -0.1099 -0.9923
vn 0.3783 -0.1019 -0.9201
vn 0.8573 -0.4977 -0.1318
vn 0.9911 -0.1029 -0.0843
vn 0.8646 -0.4388 -0.2447
vn 0.9469 -0.0984 0.3061
vn 0.2587 0.7329 0.6293
vn 0.2678 0.5861 0.7647
vn 0.3113 0.5742 0.7572
vn -0.6194 0.2394 0.7477
vn -0.1783 0.7082 0.6831
vn -0.2579 0.7347 0.6275
vn -0.7850 0.5691 0.2446
vn -0.6625 0.7261 -0.1843
vn -0.7921 0.5682 -0.2229
vn -0.6025 0.7978 -0.0245
vn -0.2982 0.5826 -0.7561
vn 0.2192 0.7402 -0.6357
vn 0.2678 0.5861 -0.7647
vn 0.2587 0.7329 -0.6293
vn 0.3113 0.5742 -0.7572
vn 0.5595 0.7630 -0.3236
vn 0.7921 0.5682 -0.2229
vn 0.7827 0.5694 -0.2514
vn 0.7946 0.2502 0.5532
vn 0.6818 0.7122 0.1668
vn 0.6568 0.7235 0.2123
vn 0.1489 0.9201 0.3623
vn 0.1236 0.9233 0.3636
vn -0.1489 0.9201 0.3623
vn -0.3854 0.9167 -0.1057
vn -0.5521 0.8336 0.0191
vn -0.3842 0.9149 0.1240
vn -0.4143 0.9058 -0.0889
vn 0.1236 0.9233 -0.3636
vn -0.0570 0.8471 -0.5284
vn -0.1489 0.9201 -0.3623
vn 0.1489 0.9201 -0.3623
vn 0.3847 0.9147 -0.1235
vn 0.3855 0.9167 -0.1057
vn 0.3842 0.9149 0.1240
vn 0.3485 -0.3999 0.8477
vn 0.8812 -0.4029 -0.2472
vn 0.8737 -0.3485 -0.3395
vn 0.3485 -0.3999 -0.8477
vn 0.0302 -0.0513 -0.9982
vn -0.3456 -0.4170 -0.8406
vn -0.8835 -0.4141 -0.2188
vn -0.7900 0.0583 -0.6103
vn -0.9946 -0.0918 -0.0477
vn -0.8682 -0.4093 0.2806
vn 0.0302 -0.0513 0.9982
vn 0.8086 -0.5696 0.1472
vn -0.5112 -0.4359 -0.7407
vn -0.7707 -0.4402 0.4608
vn -0.1988 -0.5829 0.7878
vn 0.3362 -0.4673 0.8177
vn 0.8709 -0.3374 0.3575
vn 0.8609 -0.4505 -0.2365
vn 0.8379 -0.3694 -0.4019
vn 0.3362 -0.4673 -0.8177
vn 0.0862 -0.0726 -0.9936
vn -0.3386 -0.4550 -0.8236
vn -0.9076 -0.3762 -0.1862
vn -0.9903 -0.1016 -0.0950
vn -0.8552 -0.4385 0.2764
vn -0.4203 -0.3465 0.8386
vn 0.0862 -0.0726 0.9936
vn -0.9515 -0.0000 0.3075
vn -0.9516 -0.0000 0.3075
vn -0.9516 -0.0000 0.3074
vn -0.3802 -0.0000 0.9249
vn 0.3802 -0.0000 0.9249
vn 0.9515 -0.0000 0.3075
vn 0.9516 -0.0000 0.3075
vn 0.3802 -0.0000 -0.9249
vn 0.9521 -0.0000 -0.3058
vn -0.3802 -0.0000 -0.9249
vn -0.9872 -0.0000 -0.1595
vn -0.9521 -0.0000 -0.3058
vn -0.9872 0.0001 -0.1595
vn -0.9431 0.1328 0.3047
vn -0.7693 0.5880 0.2499
vn -0.9432 0.1318 0.3048
vn -0.3936 0.1161 0.9119
vn -0.3036 0.6019 0.7386
vn 0.3766 0.1372 0.9161
vn 0.3036 0.6019 0.7386
vn 0.3037 0.6019 0.7386
vn 0.9405 0.1153 0.3195
vn 0.7693 0.5880 0.2499
vn 0.7695 0.5881 0.2492
vn 0.3766 0.1372 -0.9161
vn 0.3036 0.6019 -0.7386
vn 0.3767 0.1364 -0.9163
vn 0.9437 0.1323 -0.3031
vn 0.7702 0.5878 -0.2475
vn 0.7703 0.5878 -0.2474
vn -0.3765 0.1377 -0.9161
vn -0.3036 0.6019 -0.7386
vn -0.3767 0.1364 -0.9163
vn -0.8154 0.5585 -0.1524
vn -0.9437 0.1323 -0.3031
vn -0.7703 0.5878 -0.2474
vn 0.3494 -0.3943 0.8500
vn 0.8793 -0.3824 0.2840
vn 0.9433 0.1318 0.3048
vn 0.8798 -0.3821 -0.2826
vn 0.3494 -0.3943 -0.8500
vn -0.3494 -0.3943 -0.8500
vn -0.9222 -0.3539 -0.1556
vn -0.7714 0.1105 -0.6267
vn -0.8793 -0.3824 0.2840
vn -0.3494 -0.3943 0.8500
vn -0.3767 0.1364 0.9163
vn 0.3783 -0.1019 0.9201
vn -0.3782 -0.1019 0.9201
vn 0.1850 -0.1082 0.9768
vn -0.9475 -0.0983 -0.3044
vn 0.9475 -0.0983 -0.3044
vn 0.9821 -0.1019 -0.1586
vn -0.4751 -0.3539 0.8056
vn -0.9821 -0.1019 -0.1586
vn -0.9214 -0.1820 -0.3434
vn 0.1850 -0.1082 -0.9768
vn 0.3782 -0.1019 -0.9201
vn 0.9475 -0.0983 -0.3043
vn 0.8490 -0.3368 0.4071
vn 0.9521 -0.0000 -0.3059
vn 0.9487 0.1048 -0.2984
vn 0.9439 0.1314 -0.3031
vn 0.7701 0.5879 -0.2477
vn -0.4638 0.8720 -0.1564
vn -0.3677 0.8690 -0.3311
vn -0.1831 0.8834 -0.4314
vn -0.6428 0.7275 -0.2397
vn -0.5244 0.7071 -0.4744
vn -0.2802 0.7457 -0.6045
vn -0.7015 -0.6761 0.2253
vn 0.9456 0.1161 -0.3039
vn 0.9450 0.1218 -0.3035
vn 0.9513 0.0399 -0.3056
vn 0.9517 -0.0289 -0.3057
vn 0.9437 0.1328 -0.3031
vn 0.9521 0.0050 -0.3059
vn 0.9517 -0.0293 -0.3057
vn 0.9512 -0.0435 -0.3055
vn 0.8966 -0.3363 -0.2880
vn 0.8766 -0.3901 -0.2816
vn 0.8465 -0.4577 -0.2719
vn 0.8809 -0.3793 -0.2830
vn 0.7893 0.5592 -0.2535
vn 0.6626 0.7181 -0.2129
vn 0.3847 0.9148 -0.1235
vn -0.1917 0.6580 0.7282
vn -0.2798 0.7435 0.6073
vn -0.2155 0.1225 0.9688
vn -0.4286 0.1098 0.8968
vn 0.1904 -0.6651 -0.7220
vn 0.3438 -0.6648 -0.6632
vn 0.1883 -0.6645 0.7232
vn 0.3474 -0.6638 0.6623
vn -0.2112 0.1221 -0.9698
vn -0.1897 0.6574 -0.7293
vn -0.2132 -0.0404 -0.9762
vn -0.2356 0.0238 -0.9716
vn -0.2253 -0.0205 -0.9741
vn -0.6880 0.1876 -0.7011
vn -0.2124 0.4092 -0.8874
vn -0.1913 -0.6477 -0.7375
vn -0.3180 -0.6323 -0.7064
vn -0.1986 0.5953 -0.7786
vn -0.1383 0.8542 -0.5013
vn -0.2312 -0.0157 -0.9728
vn -0.0837 -0.5325 -0.8423
vn -0.6906 -0.1787 -0.7008
vn -0.3334 -0.4362 -0.8358
vn -0.3783 -0.1019 -0.9201
vn -0.4247 -0.1957 -0.8839
vn -0.2553 -0.3806 -0.8888
vn -0.2747 -0.4328 -0.8586
vn -0.3904 0.7431 -0.5435
vn -0.6986 0.0500 -0.7137
vn -0.1109 0.9117 -0.3956
vn -0.2243 -0.0000 -0.9745
vn -0.2136 -0.3672 -0.9053
vn -0.7100 0.1085 -0.6958
vn -0.2010 0.5741 -0.7937
vn -0.0000 1.0000 0.0003
vn -0.0000 1.0000 0.0002
vn -0.2035 0.5748 0.7926
vn -0.2170 -0.3681 0.9041
vn -0.7028 0.1082 0.7031
vn -0.2278 -0.0000 0.9737
vn -0.1117 0.9119 0.3949
vn -0.3897 0.7437 0.5432
vn -0.2759 -0.4316 0.8588
vn -0.6913 0.0491 0.7209
vn -0.2550 -0.3814 0.8886
vn -0.4206 -0.1925 0.8866
vn -0.3348 -0.4367 0.8350
vn -0.4290 -0.1800 0.8852
vn -0.4045 -0.2807 0.8704
vn -0.2346 -0.0161 0.9720
vn -0.4322 0.1511 0.8890
vn -0.1394 0.8545 0.5004
vn -0.1830 0.8826 0.4329
vn -0.2009 0.5961 0.7774
vn -0.1933 -0.6484 0.7364
vn -0.3158 -0.6334 0.7064
vn -0.2157 0.4100 0.8862
vn -0.6810 0.1871 0.7080
vn -0.2294 -0.0209 0.9731
vn -0.2380 0.0235 0.9710
vn -0.2174 -0.0405 0.9752
vn 0.7463 -0.6497 -0.1449
vn 0.6924 -0.6567 -0.2987
vn -0.9825 0.1166 0.1455
vn -0.7523 0.6424 0.1458
vn -0.6375 0.7312 0.2427
vn -0.9884 -0.0386 0.1469
vn -0.9853 0.0219 0.1697
vn -0.9869 -0.0199 0.1604
vn -0.7701 0.1865 0.6101
vn -0.9056 0.3947 0.1553
vn -0.7604 -0.6326 0.1467
vn -0.7370 -0.6197 0.2699
vn -0.8007 0.5798 0.1507
vn -0.5228 0.8453 0.1101
vn -0.4589 0.8742 0.1586
vn -0.9860 -0.0147 0.1658
vn -0.8523 -0.5225 0.0245
vn -0.7702 -0.1766 0.6129
vn -0.8631 -0.4139 0.2893
vn -0.9179 -0.1853 0.3509
vn -0.9096 -0.3694 0.1901
vn -0.8828 -0.4147 0.2206
vn -0.5719 0.7349 0.3644
vn -0.7832 0.0571 0.6192
vn -0.4142 0.9058 0.0891
vn -0.9873 -0.0000 0.1591
vn -0.9873 -0.0000 0.1590
vn -0.9225 -0.3537 0.1548
vn -0.7654 0.1103 0.6340
vn -0.8155 0.5585 0.1517
vn -0.7695 0.5881 0.2493
vn -0.0000 1.0000 -0.0003
vn 0.7695 0.5882 0.2485
vn 0.8792 -0.3824 0.2842
vn 0.9489 0.1206 0.2916
vn 0.9515 -0.0000 0.3076
vn 0.3842 0.9149 0.1241
vn 0.5515 0.7675 0.3267
vn 0.8784 -0.3936 0.2712
vn 0.9485 0.3167 0.0059
vn 0.8877 -0.4175 0.1941
vn 0.8295 -0.4398 0.3443
vn 0.8396 -0.3642 0.4029
vn 0.9195 -0.0828 0.3842
vn 0.9630 -0.0967 0.2516
vn 0.4863 0.8595 0.1572
vn 0.7548 0.6090 0.2440
vn 0.7148 -0.6600 0.2310
vn 0.8615 0.4246 0.2784
vn 0.9402 -0.0437 0.3378
vn 0.9355 0.1495 0.3201
vn 0.9288 0.0580 0.3661
vn 0.9507 -0.0428 0.3073
vn 0.9460 0.1211 0.3007
vn -0.5236 0.7073 0.4749
vn -0.7277 0.1404 0.6713
vn -0.9256 0.1060 0.3634
vn 0.5177 -0.7161 0.4682
vn -0.7284 0.1401 -0.6707
vn -0.4319 0.1090 -0.8953
vn -0.9285 0.1049 -0.3562
vn -0.6830 0.1368 -0.7175
vn -0.7343 -0.0403 -0.6776
vn -0.7914 0.1568 -0.5909
vn -0.7042 -0.0755 -0.7060
vn -0.6540 0.4647 -0.5969
vn -0.5419 -0.6821 -0.4911
vn -0.5630 0.6500 -0.5104
vn -0.3435 0.6098 -0.7142
vn -0.7485 0.5968 -0.2892
vn -0.6684 -0.1291 -0.7325
vn -0.4350 0.1559 -0.8868
vn -0.9239 0.1402 -0.3560
vn -0.5113 -0.5566 -0.6548
vn -0.4335 -0.1828 -0.8824
vn -0.5579 -0.6672 -0.4935
vn -0.5497 -0.6643 -0.5065
vn -0.5533 -0.6587 -0.5098
vn -0.3519 -0.8090 -0.4708
vn -0.5233 -0.6074 -0.5977
vn -0.3865 0.9062 -0.1715
vn -0.2733 0.9304 -0.2444
vn -0.7346 -0.0000 -0.6785
vn -0.6698 -0.4203 -0.6121
vn -0.5739 0.6319 -0.5209
vn -0.0000 1.0000 0.0009
vn -0.0000 1.0000 0.0005
vn -0.0000 1.0000 0.0006
vn -0.2729 0.9304 0.2446
vn -0.3708 0.9137 0.1663
vn -0.4571 -0.6860 0.5661
vn -0.3293 -0.8261 0.4573
vn -0.5525 -0.6592 0.5101
vn -0.5491 -0.6645 0.5069
vn -0.5611 -0.6631 0.4955
vn -0.9162 -0.1731 0.3613
vn -0.6792 -0.5973 0.4265
vn -0.6834 -0.1783 0.7079
vn -0.7840 -0.1357 0.6057
vn -0.9212 0.1443 0.3613
vn -0.3659 0.8700 0.3306
vn -0.3411 0.6101 0.7152
vn -0.5623 0.6502 0.5110
vn -0.7452 0.5984 0.2941
vn -0.6534 0.4648 0.5975
vn -0.7600 -0.0756 0.6455
vn -0.6540 0.1550 0.7404
vn -0.6760 0.1364 0.7242
vn -0.7862 0.1337 0.6033
vn -0.7337 -0.0408 0.6783
vn 0.5171 -0.7162 -0.4687
vn -0.5403 -0.6833 0.4910
vn -0.7339 -0.0000 0.6792
vn -0.6692 -0.4204 0.6128
vn -0.5735 0.6321 0.5211
vn -0.0000 1.0000 -0.0007
vn -0.0000 1.0000 0.0004
vn 0.7695 0.5884 0.2483
vn 0.9433 0.1314 0.3048
vn 0.3842 0.9149 0.1239
vn 0.6619 0.7185 0.2139
vn 0.7886 0.5596 0.2549
vn 0.8802 -0.3798 0.2845
vn 0.8459 -0.4580 0.2734
vn 0.9469 -0.0984 0.3060
vn 0.8758 -0.3909 0.2831
vn 0.8961 -0.3364 0.2896
vn 0.9506 -0.0436 0.3073
vn 0.9511 -0.0293 0.3074
vn 0.7548 0.6089 0.2439
vn 0.9431 0.1330 0.3048
vn 0.9511 -0.0290 0.3074
vn 0.9508 0.0392 0.3073
vn 0.9444 0.1219 0.3053
vn 0.9507 -0.0428 0.3072
vn -0.7008 -0.6764 -0.2266
vn 0.2310 -0.7943 0.5619
vn 1.0000 -0.0000 -0.0000
vn 0.2555 0.7406 0.6214
vn 0.2555 0.7407 0.6214
vn -0.7071 -0.0000 0.7071
vn -0.6654 -0.0000 0.7464
vn -0.6655 -0.0000 0.7464
vn -0.6525 0.7282 -0.2096
vn -0.0024 -0.0000 -1.0000
vn -0.0023 -0.0000 -1.0000
vn -0.5919 -0.7833 -0.1901
vn 0.2555 0.7406 -0.6214
vn 0.2310 -0.7943 -0.5619
vn -0.7071 -0.0000 -0.7071
vn 0.6654 -0.0000 0.7464
vn 0.6655 -0.0000 0.7464
vn 0.5919 -0.7833 -0.1901
vn 0.0024 -0.0000 -1.0000
vn 0.0023 -0.0000 -1.0000
vn 0.6525 0.7282 -0.2096
vn 0.7440 -0.0000 -0.6682
vn -0.2310 -0.7943 -0.5619
vn -0.9979 -0.0000 0.0644
vn -0.2555 0.7406 -0.6214
vn 0.7440 -0.0000 0.6682
vn -0.2555 0.7407 0.6214
vn -0.9979 -0.0000 -0.0644
vn -0.2310 -0.7943 0.5619
vn -0.2310 -0.7943 0.5620
vn -0.6679 -0.0000 -0.7443
vn -0.5912 -0.7836 0.1911
vn 0.0543 -0.0000 0.9985
vn -0.6518 0.7285 0.2107
vn 0.6679 -0.0000 -0.7442
vn 0.6679 -0.0000 -0.7443
vn 0.6518 0.7285 0.2107
vn -0.0543 -0.0000 0.9985
vn 0.5912 -0.7836 0.1911
vn -0.8615 0.4246 0.2785
vn -0.3420 0.4372 0.8318
vn -0.3420 0.4372 -0.8318
vn -0.1892 0.8675 -0.4601
vn 0.9516 -0.0000 0.3074
vn 0.3767 0.1364 0.9163
vn 0.3037 0.6019 -0.7386
vn 0.8792 -0.3824 0.2841
vn -0.8798 -0.3821 -0.2826
vn -0.8792 -0.3824 0.2841
vn 0.0977 0.9917 0.0834
vn -0.0827 0.9901 -0.1132
vn 0.0385 -0.9938 -0.1038
vn -0.1073 -0.9930 0.0494
vn 0.0386 -0.9920 -0.1203
vn 0.0028 -0.9999 0.0119
vn -0.0925 -0.9902 0.1048
vn 0.0481 -0.9924 -0.1133
vn 0.0091 -1.0000 0.0019
vn -0.0910 -0.9907 0.1007
vn 0.1100 -0.9936 -0.0254
vn -0.0247 -0.9927 0.1181
vn 0.0612 -0.9895 -0.1307
vn 0.0117 -0.9991 0.0411
vn -0.1425 -0.9878 0.0635
vn 0.0980 -0.9651 -0.2427
vn 0.0492 -0.9685 0.2439
vn -0.2445 -0.9617 0.1239
vn 0.0377 -0.9926 -0.1157
vn 0.0043 -0.9998 0.0180
vn -0.1234 -0.9910 0.0515
vn 0.1616 0.9649 0.2071
vn 0.2473 0.9685 -0.0304
vn -0.1986 0.9620 -0.1872
vn 0.0945 0.9894 0.1104
vn 0.0420 0.9991 -0.0084
vn -0.1065 0.9882 -0.1105
vn 0.1144 0.9930 0.0304
vn -0.0315 0.9923 -0.1201
vn 0.0396 0.9923 0.1172
vn 0.0026 1.0000 -0.0089
vn -0.1227 0.9911 -0.0521
vn 0.0391 0.9919 0.1210
vn 0.0121 0.9999 -0.0019
vn -0.0922 0.9905 -0.1015
vn -0.1211 -0.9914 -0.0505
vn 0.0184 -0.9998 -0.0029
vn 0.0382 -0.9925 0.1164
vn -0.2310 -0.7943 -0.5620
vt 0.375000 0.014322
vt 0.386088 0.009199
vt 0.386088 0.014322
vt 0.386088 0.383842
vt 0.375000 0.375388
vt 0.386088 0.375388
vt 0.386088 0.740801
vt 0.375000 0.735678
vt 0.386088 0.735678
vt 0.386088 0.866158
vt 0.375000 0.874612
vt 0.375000 0.866159
vt 0.625388 0.014322
vt 0.633842 0.009199
vt 0.633842 0.014322
vt 0.116158 0.009199
vt 0.124612 0.014322
vt 0.116158 0.014322
vt 0.375000 0.004926
vt 0.386088 0.000000
vt 0.386088 0.004926
vt 0.625388 0.004926
vt 0.633842 0.000000
vt 0.633842 0.004926
vt 0.375000 0.745074
vt 0.386088 0.750000
vt 0.375000 0.750000
vt 0.116158 0.000000
vt 0.124612 0.004926
vt 0.116158 0.004926
vt 0.375000 0.688185
vt 0.633842 0.061815
vt 0.625388 0.061815
vt 0.386088 0.061815
vt 0.375000 0.061815
vt 0.124612 0.061815
vt 0.116158 0.061815
vt 0.386088 0.678933
vt 0.386088 0.688185
vt 0.633842 0.071067
vt 0.625388 0.071067
vt 0.386088 0.071068
vt 0.375000 0.071068
vt 0.116158 0.071067
vt 0.124612 0.071067
vt 0.386088 0.669890
vt 0.375000 0.665980
vt 0.386088 0.665980
vt 0.625388 0.084020
vt 0.633842 0.080110
vt 0.633842 0.084020
vt 0.375000 0.084020
vt 0.386088 0.080110
vt 0.386088 0.084020
vt 0.116158 0.080110
vt 0.124612 0.084020
vt 0.116158 0.084020
vt 0.375000 0.583945
vt 0.625388 0.166055
vt 0.633842 0.166055
vt 0.375000 0.166055
vt 0.386088 0.166055
vt 0.124612 0.166055
vt 0.116158 0.166055
vt 0.386088 0.575489
vt 0.386088 0.583945
vt 0.633842 0.174511
vt 0.386088 0.174511
vt 0.116158 0.174511
vt 0.124612 0.174511
vt 0.250000 0.866158
vt 0.250000 0.874612
vt 0.250000 0.745074
vt 0.250000 0.750000
vt 0.250000 0.735678
vt 0.375000 0.740801
vt 0.250000 0.740801
vt 0.250000 0.688185
vt 0.375000 0.678933
vt 0.250000 0.678933
vt 0.250000 0.665980
vt 0.375000 0.669890
vt 0.250000 0.669890
vt 0.250000 0.583945
vt 0.375000 0.575489
vt 0.250000 0.575489
vt 0.250000 0.383842
vt 0.250000 0.375388
vt 0.250000 0.166055
vt 0.375000 0.174511
vt 0.250000 0.174511
vt 0.250000 0.084020
vt 0.375000 0.080110
vt 0.250000 0.080110
vt 0.250000 0.061815
vt 0.250000 0.071068
vt 0.250000 0.014322
vt 0.375000 0.009199
vt 0.250000 0.009199
vt 0.375000 0.000000
vt 0.250000 0.004926
vt 0.250000 0.000000
vt 0.250000 0.260544
vt 0.386088 0.260544
vt 0.375000 0.260544
vt 0.510544 0.166055
vt 0.625388 0.174511
vt 0.510544 0.174511
vt 0.510544 0.084020
vt 0.625388 0.080110
vt 0.510544 0.061815
vt 0.510544 0.071068
vt 0.510544 0.014322
vt 0.625388 0.009199
vt 0.510544 0.004926
vt 0.625388 0.000000
vt 0.386088 0.989456
vt 0.386088 0.874612
vt 0.250000 0.989456
vt 0.124612 0.000000
vt 0.239456 0.004926
vt 0.124612 0.009199
vt 0.239456 0.014322
vt 0.239456 0.061815
vt 0.239456 0.071068
vt 0.124612 0.080110
vt 0.239456 0.084020
vt 0.239456 0.166055
vt 0.386088 0.745074
vt 0.510544 0.000000
vt 0.239456 0.000000
vt 0.510544 0.009199
vt 0.510544 0.080110
vt 0.239456 0.080110
vt 0.250000 0.559414
vt 0.375000 0.559414
vt 0.386088 0.559414
vt 0.625388 0.190586
vt 0.510544 0.190586
vt 0.375000 0.190586
vt 0.250000 0.190586
vt 0.239456 0.190586
vt 0.239456 0.174511
vt 0.124612 0.190586
vt 0.116158 0.190586
vt 0.375000 0.552091
vt 0.250000 0.556838
vt 0.250000 0.552091
vt 0.386088 0.552091
vt 0.375000 0.556838
vt 0.633842 0.197909
vt 0.625388 0.193162
vt 0.633842 0.193162
vt 0.510544 0.193162
vt 0.625388 0.197909
vt 0.510544 0.197909
vt 0.386088 0.197909
vt 0.375000 0.193162
vt 0.386088 0.193162
vt 0.250000 0.193162
vt 0.375000 0.197909
vt 0.250000 0.197909
vt 0.239456 0.193162
vt 0.124612 0.197909
vt 0.124612 0.193162
vt 0.116158 0.197909
vt 0.250000 0.504285
vt 0.375000 0.516514
vt 0.250000 0.516514
vt 0.386088 0.516514
vt 0.375000 0.504285
vt 0.386088 0.504285
vt 0.633842 0.233486
vt 0.625388 0.245715
vt 0.625388 0.233486
vt 0.510544 0.245715
vt 0.386088 0.233486
vt 0.375000 0.245715
vt 0.375000 0.233486
vt 0.250000 0.245715
vt 0.250000 0.233486
vt 0.239456 0.245715
vt 0.124612 0.233486
vt 0.239456 0.233486
vt 0.116158 0.233486
vt 0.124612 0.245715
vt 0.116158 0.245715
vt 0.250000 0.500000
vt 0.375000 0.500000
vt 0.386088 0.500000
vt 0.625388 0.250000
vt 0.633842 0.245715
vt 0.633842 0.250000
vt 0.510544 0.250000
vt 0.375000 0.250000
vt 0.386088 0.245715
vt 0.386088 0.250000
vt 0.250000 0.250000
vt 0.239456 0.250000
vt 0.124612 0.250000
vt 0.116158 0.250000
vt 0.250000 0.519418
vt 0.124612 0.230582
vt 0.239456 0.230582
vt 0.250000 0.230582
vt 0.375000 0.230582
vt 0.386088 0.230582
vt 0.510544 0.230582
vt 0.510544 0.233486
vt 0.625388 0.230582
vt 0.633842 0.230582
vt 0.375000 0.519418
vt 0.116158 0.193162
vt 0.386088 0.190586
vt 0.633842 0.190586
vt 0.386088 0.556838
vt 0.250000 0.527314
vt 0.116158 0.230582
vt 0.124612 0.222686
vt 0.239456 0.222686
vt 0.250000 0.222686
vt 0.375000 0.222686
vt 0.386088 0.222686
vt 0.510544 0.222686
vt 0.625388 0.222686
vt 0.633842 0.222686
vt 0.386088 0.519418
vt 0.375000 0.527314
vt 0.500000 0.383842
vt 0.500000 0.375388
vt 0.500000 0.260544
vt 0.375000 0.531315
vt 0.250000 0.531315
vt 0.386088 0.531315
vt 0.633842 0.218685
vt 0.625388 0.218685
vt 0.510544 0.218685
vt 0.386088 0.218685
vt 0.375000 0.218685
vt 0.250000 0.218685
vt 0.239456 0.197909
vt 0.124612 0.218685
vt 0.116158 0.218685
vt 0.386088 0.527314
vt 0.239456 0.218685
vt 0.116158 0.222686
vt 0.500000 0.084020
vt 0.490706 0.084020
vt 0.500000 0.004926
vt 0.490707 0.004926
vt 0.375000 0.989456
vt 0.386088 1.000000
vt 0.375000 1.000000
vt 0.250000 1.000000
vt 0.239456 0.009199
vt 0.490706 0.745074
vt 0.490707 0.750000
vt 0.490707 0.866158
vt 0.490706 0.989456
vt 0.490706 0.874612
vt 0.490707 1.000000
vt 0.490707 0.000000
vt 0.490706 0.014322
vt 0.490706 0.061815
vt 0.490706 0.071068
vt 0.490707 0.080110
vt 0.490706 0.166055
vt 0.490706 0.190586
vt 0.490707 0.174511
vt 0.490707 0.193162
vt 0.490706 0.197909
vt 0.490706 0.218685
vt 0.490706 0.222686
vt 0.490707 0.230582
vt 0.490706 0.245715
vt 0.490707 0.233486
vt 0.490707 0.250000
vt 0.490707 0.260544
vt 0.490706 0.383842
vt 0.490707 0.375388
vt 0.490707 0.500000
vt 0.490706 0.500000
vt 0.490707 0.504285
vt 0.490706 0.519418
vt 0.490706 0.516514
vt 0.490707 0.527314
vt 0.490707 0.531315
vt 0.490707 0.552091
vt 0.490706 0.556838
vt 0.490707 0.559414
vt 0.490707 0.583945
vt 0.490707 0.665980
vt 0.490706 0.669890
vt 0.490707 0.678933
vt 0.490707 0.688185
vt 0.490707 0.735678
vt 0.250000 0.759940
vt 0.386088 0.759940
vt 0.375000 0.759940
vt 0.490707 0.759940
vt 0.740060 0.000000
vt 0.740060 0.004926
vt 0.740060 0.014322
vt 0.740060 0.061815
vt 0.740060 0.071067
vt 0.740060 0.080110
vt 0.740060 0.084020
vt 0.740060 0.166055
vt 0.740060 0.190586
vt 0.740060 0.174511
vt 0.740060 0.193162
vt 0.740060 0.197909
vt 0.740060 0.218685
vt 0.740060 0.222686
vt 0.740060 0.230582
vt 0.740060 0.245715
vt 0.740060 0.233486
vt 0.740060 0.250000
vt 0.500000 0.490060
vt 0.490706 0.490060
vt 0.386088 0.490060
vt 0.375000 0.383842
vt 0.250000 0.490060
vt 0.009940 0.250000
vt 0.009940 0.245715
vt 0.009940 0.230582
vt 0.009940 0.233486
vt 0.009940 0.222686
vt 0.009940 0.218685
vt 0.009940 0.197909
vt 0.009940 0.193162
vt 0.009940 0.190586
vt 0.009940 0.166055
vt 0.009940 0.174511
vt 0.009940 0.084020
vt 0.009940 0.080110
vt 0.009940 0.061815
vt 0.009940 0.071067
vt 0.009940 0.014322
vt 0.009940 0.004926
vt 0.009940 0.009199
vt 0.009940 0.000000
vt 0.750000 0.004926
vt 0.500000 0.759940
vt 0.500000 0.866158
vt 0.500000 0.874612
vt 0.500000 0.989456
vt 0.500000 1.000000
vt 0.500000 0.000000
vt 0.490707 0.009199
vt 0.500000 0.014322
vt 0.500000 0.061815
vt 0.500000 0.080110
vt 0.500000 0.166055
vt 0.500000 0.190586
vt 0.500000 0.193162
vt 0.500000 0.197909
vt 0.500000 0.218685
vt 0.500000 0.222686
vt 0.500000 0.230582
vt 0.500000 0.245715
vt 0.500000 0.250000
vt 0.750000 0.250000
vt 0.750000 0.245715
vt 0.500000 0.519418
vt 0.500000 0.527314
vt 0.500000 0.531315
vt 0.500000 0.552091
vt 0.500000 0.556838
vt 0.500000 0.559414
vt 0.490707 0.575489
vt 0.750000 0.190586
vt 0.500000 0.583945
vt 0.750000 0.166055
vt 0.750000 0.084020
vt 0.750000 0.080110
vt 0.500000 0.688185
vt 0.500000 0.735678
vt 0.750000 0.061815
vt 0.490706 0.740801
vt 0.750000 0.014322
vt 0.740060 0.009199
vt 0.500000 0.745074
vt 0.500000 0.750000
vt 0.500000 0.669890
vt 0.500000 0.500000
vt 0.375000 0.490060
vt 0.000000 0.250000
vt 0.000000 0.245715
vt 0.000000 0.233486
vt 0.000000 0.230582
vt 0.000000 0.222686
vt 0.000000 0.218685
vt 0.000000 0.197909
vt 0.000000 0.193162
vt 0.000000 0.190586
vt 0.000000 0.174511
vt 0.000000 0.166055
vt 0.000000 0.084020
vt 0.000000 0.080110
vt 0.000000 0.071067
vt 0.000000 0.061815
vt 0.000000 0.014322
vt 0.000000 0.009199
vt 0.000000 0.004926
vt 0.000000 0.000000
vt 0.500000 0.009199
vt 0.500000 0.071068
vt 0.500000 0.174511
vt 0.500000 0.233486
vt 0.500000 0.504285
vt 0.500000 0.516514
vt 0.750000 0.230582
vt 0.750000 0.222686
vt 0.750000 0.218685
vt 0.750000 0.197909
vt 0.750000 0.193162
vt 0.500000 0.575489
vt 0.500000 0.665980
vt 0.500000 0.678933
vt 0.500000 0.740801
s 1
g off
g Farola_animal_crossing_Material.001
usemtl Material.001
f 47/1/1 275/2/2 276/3/3
s 2
f 350/4/4 179/5/4 298/6/5
s 1
f 320/7/6 36/8/7 319/9/8
s 3
f 323/10/9 58/11/9 322/12/9
s 1
f 55/13/10 328/14/11 329/15/12
s 4
f 373/16/13 61/17/14 372/18/15
s 5
f 66/19/16 272/20/17 273/21/17
f 70/22/18 325/23/19 326/24/19
f 75/25/20 267/26/21 74/27/22
s 6
f 376/28/23 78/29/24 375/30/23
s 1
f 37/31/25 319/9/8 36/8/7
f 55/13/10 330/32/26 54/33/27
f 47/1/1 277/34/28 46/35/29
s 4
f 372/18/15 62/36/30 371/37/31
s 1
f 37/31/25 317/38/32 318/39/33
f 54/33/27 331/40/34 53/41/35
f 46/35/29 278/42/36 45/43/37
s 4
f 370/44/38 62/36/30 63/45/39
s 7
f 315/46/40 100/47/41 314/48/40
f 102/49/42 333/50/43 334/51/43
f 104/52/44 280/53/45 281/54/45
s 8
f 368/55/46 110/56/47 367/57/46
s 9
f 40/58/48 313/48/49 39/47/50
f 51/59/51 335/51/52 336/60/53
f 43/61/54 282/54/55 283/62/56
s 10
f 366/57/57 65/63/58 365/64/59
s 9
f 40/58/48 311/65/60 312/66/61
f 337/67/62 51/59/51 336/60/53
f 284/68/63 43/61/54 283/62/56
s 10
f 364/69/64 65/63/58 121/70/65
s 3
f 321/71/9 58/11/9 59/72/9
s 5
f 79/73/66 74/27/22 76/74/66
s 1
f 13/75/67 87/76/68 88/77/69
f 37/31/25 13/75/67 17/78/70
f 38/79/71 17/78/70 21/80/72
s 7
f 111/81/73 99/82/74 108/83/73
s 9
f 29/84/75 39/47/50 25/81/76
f 115/85/77 29/84/75 114/86/78
s 2
f 179/5/4 352/87/79 182/88/79
s 9
f 32/89/80 119/90/81 120/91/82
f 44/52/83 32/89/80 28/92/84
s 7
f 105/93/85 113/92/86 112/94/86
s 1
f 20/95/87 45/43/37 24/96/88
f 16/97/89 46/35/29 20/95/87
f 83/98/90 16/97/89 82/99/91
s 5
f 67/100/92 81/101/93 80/102/93
s 2
f 214/103/94 179/5/4 182/88/79
f 297/104/4 179/5/4 215/105/4
s 9
f 229/106/95 117/107/96 228/108/97
f 229/106/95 52/49/98 51/59/51
s 7
f 231/109/99 103/110/100 102/49/42
s 1
f 235/111/101 53/41/35 234/112/102
f 236/113/103 54/33/27 235/111/101
f 236/113/103 85/114/104 55/13/10
s 5
f 239/115/105 71/116/106 70/22/18
s 3
f 270/117/9 58/11/9 269/118/9
f 58/11/9 243/119/9 59/72/9
s 6
f 77/120/107 245/121/108 78/29/24
s 4
f 89/122/109 248/123/110 61/17/14
f 62/36/30 248/123/110 249/124/111
f 63/45/39 249/124/111 250/125/112
s 8
f 109/126/113 253/127/114 110/56/47
s 10
f 64/56/115 255/128/116 65/63/58
f 255/128/116 121/70/65 65/63/58
s 11
f 33/100/117 272/20/117 67/100/117
s 12
f 273/21/118 48/19/118 66/19/118
s 13
f 57/116/119 325/23/119 71/116/119
s 14
f 326/24/120 56/22/120 70/22/120
f 35/25/121 266/129/121 75/25/121
s 13
f 267/26/122 34/27/122 74/27/122
s 15
f 376/28/123 59/120/123 77/120/123
s 16
f 60/29/124 375/30/124 78/29/124
s 17
f 12/73/125 75/25/125 79/73/125
s 18
f 7/74/126 74/27/126 34/27/126
s 19
f 1/102/127 67/100/127 80/102/127
s 20
f 9/101/128 66/19/128 48/19/128
s 11
f 241/130/129 71/116/130 240/130/131
s 12
f 238/115/132 70/22/133 56/22/133
s 21
f 243/131/134 77/120/134 59/120/134
s 22
f 246/121/135 78/29/135 245/121/135
s 1
f 9/101/136 83/98/90 82/99/91
f 275/2/2 48/19/137 274/21/138
f 238/115/139 85/114/104 237/132/140
f 328/14/11 56/22/141 327/24/142
f 35/25/143 320/7/6 265/129/144
f 87/76/68 12/73/145 88/77/69
s 4
f 373/16/13 60/29/146 89/122/109
f 246/121/147 89/122/109 60/29/146
s 1
f 233/133/148 53/41/35 91/110/149
f 331/40/34 91/110/149 53/41/35
f 93/82/150 317/38/32 38/79/71
f 94/83/151 38/79/71 21/80/72
s 4
f 370/44/38 95/126/152 369/55/153
f 251/134/154 63/45/39 250/125/112
s 1
f 45/43/37 96/94/155 24/96/88
f 278/42/36 97/93/156 45/43/37
s 23
f 315/46/157 93/82/157 99/82/157
s 24
f 39/47/158 314/48/158 100/47/158
s 23
f 91/110/159 333/50/160 103/110/160
s 24
f 334/51/161 52/49/161 102/49/161
s 25
f 97/93/162 280/53/162 105/93/162
s 26
f 281/54/163 44/52/164 104/52/164
s 27
f 368/55/165 95/126/165 109/126/165
s 28
f 64/56/166 367/57/166 110/56/166
s 29
f 25/81/167 100/47/167 111/81/167
s 30
f 94/83/168 99/82/168 93/82/168
s 31
f 96/94/169 105/93/169 112/94/169
s 32
f 28/92/170 104/52/170 44/52/170
s 25
f 233/133/171 103/110/172 232/133/173
s 26
f 230/109/174 102/49/175 52/49/175
s 33
f 251/134/176 109/126/176 95/126/176
s 34
f 254/127/177 110/56/177 253/127/177
s 9
f 122/135/178 115/85/77 114/86/78
f 311/65/60 123/136/179 310/137/180
f 337/67/62 125/138/181 117/107/96
f 227/139/182 117/107/96 125/138/181
f 284/68/63 127/140/183 119/90/81
f 119/90/81 128/141/184 120/91/82
s 10
f 257/142/185 121/70/65 256/143/186
f 364/69/64 129/144/187 363/145/188
s 9
f 196/146/189 155/147/190 195/148/191
f 308/149/192 154/150/193 196/146/189
f 340/151/194 160/152/195 339/153/196
f 226/154/197 198/155/198 225/156/199
f 287/157/200 158/158/201 286/159/202
f 157/160/203 200/161/204 201/162/205
s 10
f 258/163/206 202/164/207 156/165/208
f 361/166/209 156/165/208 202/164/207
s 9
f 138/167/210 146/168/211 147/169/212
f 304/170/213 139/171/214 303/172/215
f 344/173/216 141/174/217 152/175/218
f 220/176/219 152/175/218 141/174/217
f 291/177/220 143/178/221 150/179/222
f 150/179/222 144/180/223 149/181/224
s 10
f 264/182/225 148/183/226 263/184/227
f 357/185/228 145/186/229 356/187/230
s 9
f 5/188/231 139/171/214 138/167/210
f 303/172/215 41/189/232 302/190/233
f 50/191/234 345/192/235 346/193/236
f 219/194/237 141/174/217 50/191/234
f 42/195/238 292/196/239 293/197/240
f 143/178/221 3/198/241 144/180/223
s 10
f 145/186/229 211/199/242 49/200/243
f 356/187/230 49/200/243 355/201/244
s 9
f 146/168/211 163/202/245 147/169/212
s 10
f 357/185/228 164/203/246 148/183/226
f 262/204/247 148/183/226 164/203/246
s 9
f 165/205/248 150/179/222 149/181/224
f 291/177/220 166/206/249 290/207/250
f 222/208/251 152/175/218 221/209/252
f 344/173/216 168/210/253 343/211/254
f 304/170/213 162/212/255 146/168/211
f 154/150/193 122/135/178 155/147/190
s 10
f 362/213/256 129/144/187 156/165/208
f 257/142/185 156/165/208 129/144/187
s 9
f 128/141/184 158/158/201 157/160/203
f 286/159/202 127/140/183 285/214/257
f 227/139/182 160/152/195 226/154/197
f 339/153/196 125/138/181 338/215/258
f 309/216/259 123/136/179 154/150/193
f 162/212/255 130/217/260 163/202/245
s 10
f 358/218/261 137/219/262 164/203/246
f 261/220/263 164/203/246 137/219/262
s 9
f 136/221/264 166/206/249 165/205/248
f 290/207/250 135/222/265 289/223/266
f 223/224/267 168/210/253 222/208/251
f 343/211/254 133/225/268 342/226/269
f 305/227/270 131/228/271 162/212/255
s 35
f 346/229/272 171/230/273 50/230/274
f 302/190/275 170/189/275 301/190/275
s 36
f 5/188/276 170/189/276 41/189/276
s 37
f 355/87/277 173/88/278 354/87/277
s 38
f 3/198/279 176/195/279 175/198/279
s 39
f 211/103/280 173/88/280 49/88/280
s 40
f 293/197/281 176/195/281 42/195/281
f 219/231/282 171/230/283 218/231/284
s 41
f 348/229/285 180/230/286 193/230/287
f 300/190/288 178/189/289 299/190/289
s 42
f 187/189/290 183/188/291 178/189/292
s 43
f 353/87/293 182/88/294 352/87/295
s 44
f 191/195/296 184/198/297 190/198/298
s 45
f 189/88/299 214/103/300 182/88/301
s 46
f 295/197/302 185/195/303 191/195/304
f 216/231/305 193/230/306 180/230/307
s 42
f 174/188/308 187/189/290 170/189/308
s 43
f 353/87/293 173/88/309 189/88/310
s 45
f 212/103/311 189/88/299 173/88/311
s 44
f 175/198/312 191/195/296 190/198/298
s 46
f 176/195/313 295/197/302 191/195/304
f 218/231/314 193/230/306 217/231/315
s 41
f 171/230/316 348/229/285 193/230/287
f 300/190/288 170/189/317 187/189/318
s 47
f 494/232/319 496/148/319 493/233/319
s 9
f 307/234/320 196/146/189 204/232/321
f 341/235/194 198/155/198 340/151/194
s 48
f 498/156/322 500/236/322 497/237/322
s 9
f 288/238/200 200/161/204 287/157/200
s 49
f 502/162/205 503/239/205 504/240/205
s 50
f 505/241/323 507/242/323 508/164/323
s 10
f 360/243/209 202/164/207 210/242/324
s 9
f 131/228/271 203/233/319 130/217/260
f 306/244/325 204/232/321 131/228/271
f 342/226/269 206/236/326 341/235/194
f 224/237/327 133/225/268 223/224/267
f 289/223/266 208/239/328 288/238/200
f 209/240/329 135/222/265 136/221/264
s 10
f 260/245/330 137/219/262 210/242/324
f 359/246/331 210/242/324 137/219/262
s 39
f 211/103/280 175/198/332 212/103/280
s 45
f 213/103/333 175/198/311 190/198/334
f 213/103/333 184/198/335 214/103/300
s 2
f 184/198/94 215/105/4 214/103/94
f 296/197/4 215/105/4 185/195/94
s 26
f 231/109/336 27/247/337 394/248/338
s 12
f 239/115/339 10/249/340 386/250/341
s 3
f 242/251/9 271/252/9 33/253/9
f 242/251/9 1/254/9 243/119/9
s 21
f 244/131/134 1/102/134 80/102/342
s 6
f 244/131/108 81/101/108 245/121/108
s 22
f 9/101/135 245/121/135 81/101/135
s 4
f 247/255/343 9/101/147 82/99/344
f 247/255/343 16/97/345 248/123/110
f 249/124/111 16/97/345 20/95/346
f 250/125/112 20/95/346 24/96/347
f 96/94/154 250/125/112 24/96/347
s 33
f 252/134/176 96/94/176 112/94/176
s 8
f 252/134/114 113/92/114 253/127/114
s 34
f 28/92/177 253/127/177 113/92/177
s 10
f 254/127/348 32/89/349 255/128/116
f 256/143/186 32/89/349 120/91/350
f 128/141/351 256/143/186 120/91/350
f 258/163/206 128/141/351 157/160/352
f 259/241/323 157/160/352 201/162/323
f 260/245/330 201/162/323 209/240/330
f 261/220/263 209/240/330 136/221/353
f 262/204/247 136/221/353 165/205/354
f 263/184/227 165/205/354 149/181/355
f 144/180/356 263/184/227 149/181/355
f 264/182/225 3/198/357 211/199/242
s 14
f 266/129/121 377/256/358 378/256/359
s 5
f 267/26/21 378/256/360 379/257/361
s 13
f 380/257/362 267/26/122 379/257/363
s 3
f 381/258/9 269/118/9 323/10/9
f 383/259/9 269/118/9 382/260/9
f 270/117/9 384/261/9 271/252/9
s 11
f 272/20/117 384/262/364 385/262/365
s 5
f 272/20/17 386/250/366 273/21/17
s 12
f 387/250/367 273/21/118 386/250/341
s 1
f 387/250/368 275/2/2 274/21/138
f 275/2/2 389/263/369 276/3/3
f 277/34/28 389/263/369 390/264/370
f 278/42/36 390/264/370 391/265/371
f 392/266/372 278/42/36 391/265/371
s 25
f 280/53/162 392/266/373 393/266/374
s 7
f 280/53/45 394/248/375 281/54/45
s 26
f 395/248/376 281/54/163 394/248/338
s 9
f 282/54/55 396/267/377 283/62/56
f 396/267/377 284/68/63 283/62/56
f 398/268/378 284/68/63 397/269/379
f 398/268/378 286/159/202 285/214/257
f 399/270/380 287/157/200 286/159/202
s 51
f 509/271/381 511/238/381 512/157/381
s 9
f 401/272/382 289/223/266 288/238/200
f 402/273/383 290/207/250 289/223/266
f 403/274/384 291/177/220 290/207/250
f 405/275/385 291/177/220 404/276/386
f 292/196/239 406/277/387 293/197/240
s 40
f 294/197/281 406/277/388 407/277/388
s 46
f 295/197/302 407/277/389 408/277/390
f 295/197/302 409/277/391 296/197/303
s 2
f 409/277/392 297/104/4 296/197/4
f 410/278/393 298/6/5 297/104/4
f 412/279/79 298/6/5 411/280/79
s 41
f 413/281/394 300/190/288 299/190/289
f 415/281/395 300/190/288 414/282/396
s 35
f 416/281/397 301/190/275 415/281/397
s 9
f 416/281/398 303/172/215 302/190/233
f 417/283/399 304/170/213 303/172/215
f 419/284/400 304/170/213 418/285/401
f 420/286/402 305/227/270 419/284/400
f 421/287/403 306/244/325 420/286/402
s 52
f 514/288/192 516/234/192 513/287/192
s 9
f 423/289/404 308/149/192 422/288/405
f 424/290/406 309/216/259 423/289/404
f 424/290/406 311/65/60 310/137/180
f 311/65/60 426/291/407 312/66/61
f 313/48/49 426/291/407 427/292/408
s 24
f 314/48/158 427/292/409 428/292/410
s 7
f 428/292/411 315/46/40 314/48/40
s 23
f 430/293/412 315/46/157 429/293/413
s 1
f 317/38/32 430/293/414 431/294/415
f 317/38/32 432/295/416 318/39/33
f 318/39/33 433/296/417 319/9/8
f 433/296/417 320/7/6 319/9/8
f 320/7/6 377/256/418 265/129/144
s 3
f 435/297/9 322/12/9 321/71/9
f 437/298/9 322/12/9 436/299/9
f 438/300/9 323/10/9 437/298/9
s 13
f 325/23/119 439/301/419 440/301/420
s 5
f 325/23/19 441/302/421 326/24/19
s 14
f 442/302/422 326/24/120 441/302/423
s 1
f 442/302/424 328/14/11 327/24/142
f 328/14/11 444/303/425 329/15/12
f 329/15/12 445/304/426 330/32/26
f 331/40/34 445/304/426 446/305/427
f 447/306/428 331/40/34 446/305/427
s 23
f 333/50/160 447/306/429 448/306/430
s 7
f 333/50/43 449/307/431 334/51/43
s 24
f 450/307/432 334/51/161 449/307/433
s 9
f 335/51/52 451/308/434 336/60/53
f 451/308/434 337/67/62 336/60/53
f 453/309/435 337/67/62 452/310/436
f 453/309/435 339/153/196 338/215/258
f 454/311/437 340/151/194 339/153/196
s 53
f 517/312/194 519/235/194 520/151/194
s 9
f 456/313/438 342/226/269 341/235/194
f 457/314/439 343/211/254 342/226/269
f 458/315/440 344/173/216 343/211/254
f 460/316/441 344/173/216 459/317/442
f 345/192/235 461/318/443 346/193/236
s 35
f 347/229/272 461/319/444 462/319/445
s 41
f 348/229/285 462/319/446 463/319/447
f 348/229/285 464/319/448 349/229/449
s 2
f 465/320/450 350/4/4 412/279/79
f 466/321/392 351/322/94 350/4/4
f 351/322/94 468/323/393 352/87/79
s 43
f 468/323/451 353/87/293 352/87/295
f 470/323/452 353/87/293 469/323/453
s 37
f 471/323/454 354/87/277 470/323/454
s 10
f 471/324/455 356/187/230 355/201/244
f 472/325/456 357/185/228 356/187/230
f 474/326/457 357/185/228 473/327/458
f 475/328/459 358/218/261 474/326/457
f 476/329/209 359/246/331 475/328/459
s 54
f 522/330/209 524/243/209 521/329/209
s 10
f 478/331/460 361/166/209 477/330/209
f 479/332/461 362/213/256 478/331/460
f 479/332/461 364/69/64 363/145/188
f 481/333/462 364/69/64 480/334/463
f 481/333/462 366/57/57 365/64/59
s 28
f 367/57/166 482/335/464 483/335/464
s 8
f 483/335/465 368/55/46 367/57/46
s 27
f 485/336/466 368/55/165 484/336/466
s 4
f 485/336/467 370/44/38 369/55/153
f 487/337/468 370/44/38 486/338/469
f 487/337/468 372/18/15 371/37/31
f 488/339/470 373/16/13 372/18/15
f 490/340/471 373/16/13 489/341/472
s 16
f 375/30/124 490/340/124 491/340/124
s 6
f 491/340/23 376/28/23 375/30/23
s 15
f 435/342/123 376/28/123 492/342/123
s 14
f 378/256/359 11/343/473 441/302/423
s 5
f 379/257/361 73/343/474 440/301/475
s 3
f 381/258/9 439/344/9 324/345/9
f 382/260/9 324/345/9 57/346/9
f 241/347/9 382/260/9 57/346/9
f 383/259/9 2/348/9 384/261/9
s 11
f 385/262/365 2/349/476 240/130/131
s 5
f 69/249/477 385/262/478 240/130/479
s 1
f 388/350/480 10/249/481 237/132/140
f 15/351/482 388/350/480 237/132/140
f 19/352/483 15/351/482 235/111/101
f 391/265/371 19/352/483 234/112/102
f 90/353/484 391/265/371 234/112/102
s 25
f 393/266/374 90/353/485 232/133/173
s 7
f 107/247/486 393/266/487 232/133/488
s 9
f 31/354/489 395/248/490 230/109/491
f 397/269/379 31/354/489 228/108/97
f 126/355/492 397/269/379 228/108/97
f 399/270/380 126/355/492 226/154/197
f 400/271/493 159/356/494 225/156/199
f 401/272/382 199/357/495 224/237/327
f 402/273/383 207/358/496 223/224/267
f 403/274/384 134/359/497 222/208/251
f 404/276/386 167/360/498 221/209/252
f 142/361/499 404/276/386 221/209/252
f 4/362/500 405/275/385 220/176/219
s 40
f 177/362/501 4/362/501 218/231/284
s 46
f 408/277/390 177/362/502 217/231/315
f 186/362/503 408/277/390 217/231/315
s 2
f 410/278/393 186/362/504 216/231/79
f 411/280/79 216/231/79 180/230/505
f 349/229/506 411/280/79 180/230/505
f 464/319/5 412/279/79 349/229/506
s 9
f 417/283/399 6/363/507 460/316/441
f 418/285/401 140/364/508 459/317/442
f 169/365/509 418/285/401 459/317/442
f 132/366/510 419/284/400 458/315/440
f 205/367/511 420/286/402 457/314/439
f 197/368/512 421/287/403 456/313/438
f 161/369/513 422/288/405 455/312/514
f 124/370/515 423/289/404 454/311/437
f 425/371/516 124/372/515 452/310/436
f 30/373/517 425/371/516 452/310/436
f 427/292/408 30/374/517 450/307/518
s 24
f 428/292/410 26/375/519 449/307/433
s 7
f 429/293/520 101/375/521 448/306/522
s 1
f 431/294/415 92/376/523 446/305/427
f 18/377/524 431/294/415 446/305/427
f 14/378/525 18/379/524 444/303/425
f 434/380/526 14/381/525 443/382/527
f 11/383/528 434/380/526 443/382/527
s 3
f 7/74/9 436/299/9 435/297/9
f 268/26/9 436/299/9 34/27/9
f 380/257/9 437/298/9 268/26/9
f 438/300/9 8/384/9 439/344/9
s 13
f 440/301/420 8/384/529 379/257/363
s 23
f 448/306/430 92/385/530 429/293/413
s 35
f 172/386/531 6/386/531 415/281/397
s 41
f 463/319/447 172/386/532 414/282/396
f 181/386/533 463/319/447 414/282/396
s 2
f 465/320/450 181/386/79 413/281/534
f 466/321/392 413/281/534 299/190/535
f 467/387/94 299/190/535 178/189/94
f 467/387/94 183/188/506 468/323/393
s 43
f 469/323/453 183/188/536 188/188/537
f 174/188/452 469/323/453 188/188/537
s 37
f 471/323/454 174/188/454 5/188/454
s 10
f 472/325/456 5/388/538 138/389/539
f 473/327/458 138/389/539 147/390/540
f 163/391/541 473/327/458 147/390/540
f 130/392/542 474/326/457 163/391/541
f 203/393/209 475/328/459 130/392/542
f 195/394/543 476/329/209 203/393/209
f 155/395/544 477/330/209 195/394/543
f 122/396/545 478/331/460 155/395/544
f 480/334/463 122/396/545 114/397/546
f 29/398/547 480/334/463 114/397/546
f 482/335/57 29/398/547 25/399/57
s 28
f 483/335/464 25/399/464 111/399/464
s 8
f 484/336/548 111/399/465 108/400/548
s 27
f 94/400/466 484/336/466 108/400/466
s 4
f 486/338/469 94/400/467 21/401/549
f 17/402/550 486/338/469 21/401/549
f 488/339/470 17/402/550 13/403/551
f 489/341/472 13/403/551 88/404/552
f 12/405/553 489/341/472 88/404/552
s 16
f 491/340/124 12/405/124 79/405/124
s 6
f 492/342/23 79/405/23 76/406/23
s 15
f 7/406/554 492/342/123 76/406/123
s 55
f 204/232/555 493/233/555 203/233/555
s 56
f 196/146/556 494/232/556 204/232/556
s 57
f 196/146/557 496/148/558 495/146/557
s 58
f 195/148/559 493/233/559 496/148/559
s 59
f 225/156/560 497/237/561 224/237/561
s 60
f 198/155/562 498/156/562 225/156/562
s 61
f 198/155/563 500/236/564 499/155/563
s 62
f 206/236/565 497/237/565 500/236/565
s 63
f 200/161/566 502/162/566 201/162/566
s 64
f 200/161/556 503/239/556 501/161/556
s 65
f 208/239/567 504/240/567 503/239/567
s 66
f 201/162/568 504/240/568 209/240/568
s 67
f 259/241/569 506/245/570 505/241/569
s 68
f 210/242/571 506/245/571 260/245/571
s 69
f 202/164/572 507/242/573 210/242/573
s 70
f 202/164/574 505/241/574 508/164/574
s 71
f 400/271/575 510/272/575 509/271/575
s 72
f 288/238/576 510/272/576 401/272/576
s 73
f 287/157/577 511/238/577 288/238/577
s 74
f 287/157/578 509/271/578 512/157/578
s 75
f 422/288/579 513/287/579 421/287/579
s 76
f 308/149/580 514/288/580 422/288/580
s 77
f 308/149/581 516/234/581 515/149/581
s 78
f 307/234/582 513/287/582 516/234/583
s 79
f 455/312/584 518/313/584 517/312/584
s 80
f 341/235/585 518/313/585 456/313/585
s 81
f 340/151/586 519/235/586 341/235/586
s 82
f 340/151/587 517/312/587 520/151/587
s 83
f 477/330/588 521/329/589 476/329/589
s 84
f 361/166/590 522/330/590 477/330/590
s 85
f 361/166/591 524/243/591 523/166/591
s 86
f 360/243/592 521/329/592 524/243/592
s 1
f 47/1/1 83/98/90 275/2/2
s 2
f 350/4/4 351/322/94 179/5/4
s 1
f 320/7/6 87/76/68 36/8/7
s 3
f 323/10/9 269/118/9 58/11/9
s 1
f 55/13/10 85/114/104 328/14/11
s 4
f 373/16/13 89/122/109 61/17/14
s 5
f 66/19/16 67/100/92 272/20/17
f 70/22/18 71/116/106 325/23/19
f 75/25/20 266/129/21 267/26/21
s 6
f 376/28/23 77/120/107 78/29/24
s 1
f 37/31/25 318/39/33 319/9/8
f 55/13/10 329/15/12 330/32/26
f 47/1/1 276/3/3 277/34/28
s 4
f 372/18/15 61/17/14 62/36/30
s 1
f 37/31/25 38/79/71 317/38/32
f 54/33/27 330/32/26 331/40/34
f 46/35/29 277/34/28 278/42/36
s 4
f 370/44/38 371/37/31 62/36/30
s 7
f 315/46/40 99/82/74 100/47/41
f 102/49/42 103/110/100 333/50/43
f 104/52/44 105/93/85 280/53/45
s 8
f 368/55/46 109/126/113 110/56/47
s 9
f 40/58/48 312/66/61 313/48/49
f 51/59/51 52/49/98 335/51/52
f 43/61/54 44/52/83 282/54/55
s 10
f 366/57/57 64/56/115 65/63/58
s 9
f 40/58/48 115/85/77 311/65/60
f 337/67/62 117/107/96 51/59/51
f 284/68/63 119/90/81 43/61/54
s 10
f 364/69/64 365/64/59 65/63/58
s 3
f 321/71/9 322/12/9 58/11/9
s 5
f 79/73/66 75/25/20 74/27/22
s 1
f 13/75/67 36/8/7 87/76/68
f 37/31/25 36/8/7 13/75/67
f 38/79/71 37/31/25 17/78/70
s 7
f 111/81/73 100/47/41 99/82/74
s 9
f 29/84/75 40/58/48 39/47/50
f 115/85/77 40/58/48 29/84/75
s 2
f 179/5/4 351/322/94 352/87/79
s 9
f 32/89/80 43/61/54 119/90/81
f 44/52/83 43/61/54 32/89/80
s 7
f 105/93/85 104/52/44 113/92/86
s 1
f 20/95/87 46/35/29 45/43/37
f 16/97/89 47/1/1 46/35/29
f 83/98/90 47/1/1 16/97/89
s 5
f 67/100/92 66/19/16 81/101/93
s 2
f 214/103/94 215/105/4 179/5/4
f 297/104/4 298/6/5 179/5/4
s 9
f 229/106/95 51/59/51 117/107/96
f 229/106/95 230/109/491 52/49/98
s 7
f 231/109/99 232/133/488 103/110/100
s 1
f 235/111/101 54/33/27 53/41/35
f 236/113/103 55/13/10 54/33/27
f 236/113/103 237/132/140 85/114/104
s 5
f 239/115/105 240/130/479 71/116/106
s 3
f 270/117/9 242/251/9 58/11/9
f 58/11/9 242/251/9 243/119/9
s 6
f 77/120/107 244/131/108 245/121/108
s 4
f 89/122/109 247/255/343 248/123/110
f 62/36/30 61/17/14 248/123/110
f 63/45/39 62/36/30 249/124/111
s 8
f 109/126/113 252/134/114 253/127/114
s 10
f 64/56/115 254/127/348 255/128/116
f 255/128/116 256/143/186 121/70/65
s 11
f 33/100/117 271/20/117 272/20/117
s 12
f 273/21/118 274/21/118 48/19/118
s 13
f 57/116/119 324/23/119 325/23/119
s 14
f 326/24/120 327/24/120 56/22/120
f 35/25/121 265/129/121 266/129/121
s 13
f 267/26/122 268/26/122 34/27/122
s 15
f 376/28/123 321/28/123 59/120/123
s 16
f 60/29/124 374/30/124 375/30/124
s 17
f 12/73/125 35/25/125 75/25/125
s 18
f 7/74/126 76/74/126 74/27/126
s 19
f 1/102/127 33/100/127 67/100/127
s 20
f 9/101/128 81/101/128 66/19/128
s 11
f 241/130/129 57/116/130 71/116/130
s 12
f 238/115/132 239/115/339 70/22/133
s 21
f 243/131/134 244/131/134 77/120/134
s 22
f 246/121/135 60/29/135 78/29/135
s 1
f 9/101/136 48/19/137 83/98/90
f 275/2/2 83/98/90 48/19/137
f 238/115/139 56/22/141 85/114/104
f 328/14/11 85/114/104 56/22/141
f 35/25/143 87/76/68 320/7/6
f 87/76/68 35/25/143 12/73/145
s 4
f 373/16/13 374/30/471 60/29/146
f 246/121/147 247/255/343 89/122/109
s 1
f 233/133/148 234/112/102 53/41/35
f 331/40/34 332/50/593 91/110/149
f 93/82/150 316/46/594 317/38/32
f 94/83/151 93/82/150 38/79/71
s 4
f 370/44/38 63/45/39 95/126/152
f 251/134/154 95/126/152 63/45/39
s 1
f 45/43/37 97/93/156 96/94/155
f 278/42/36 279/53/595 97/93/156
s 23
f 315/46/157 316/46/157 93/82/157
s 24
f 39/47/158 313/48/158 314/48/158
s 23
f 91/110/159 332/50/159 333/50/160
s 24
f 334/51/161 335/51/161 52/49/161
s 25
f 97/93/162 279/53/162 280/53/162
s 26
f 281/54/163 282/54/596 44/52/164
s 27
f 368/55/165 369/55/165 95/126/165
s 28
f 64/56/166 366/57/166 367/57/166
s 29
f 25/81/167 39/47/167 100/47/167
s 30
f 94/83/168 108/83/168 99/82/168
s 31
f 96/94/169 97/93/169 105/93/169
s 32
f 28/92/170 113/92/170 104/52/170
s 25
f 233/133/171 91/110/172 103/110/172
s 26
f 230/109/174 231/109/336 102/49/175
s 33
f 251/134/176 252/134/176 109/126/176
s 34
f 254/127/177 64/56/177 110/56/177
s 9
f 122/135/178 123/136/179 115/85/77
f 311/65/60 115/85/77 123/136/179
f 337/67/62 338/215/258 125/138/181
f 227/139/182 228/108/97 117/107/96
f 284/68/63 285/214/257 127/140/183
f 119/90/81 127/140/183 128/141/184
s 10
f 257/142/185 129/144/187 121/70/65
f 364/69/64 121/70/65 129/144/187
s 9
f 196/146/189 154/150/193 155/147/190
f 308/149/192 309/216/259 154/150/193
f 340/151/194 198/155/198 160/152/195
f 226/154/197 160/152/195 198/155/198
f 287/157/200 200/161/204 158/158/201
f 157/160/203 158/158/201 200/161/204
s 10
f 258/163/206 259/241/323 202/164/207
f 361/166/209 362/213/256 156/165/208
s 9
f 138/167/210 139/171/214 146/168/211
f 304/170/213 146/168/211 139/171/214
f 344/173/216 345/192/235 141/174/217
f 220/176/219 221/209/252 152/175/218
f 291/177/220 292/196/239 143/178/221
f 150/179/222 143/178/221 144/180/223
s 10
f 264/182/225 145/186/229 148/183/226
f 357/185/228 148/183/226 145/186/229
s 9
f 5/188/231 41/189/232 139/171/214
f 303/172/215 139/171/214 41/189/232
f 50/191/234 141/174/217 345/192/235
f 219/194/237 220/176/219 141/174/217
f 42/195/238 143/178/221 292/196/239
f 143/178/221 42/195/238 3/198/241
s 10
f 145/186/229 264/182/225 211/199/242
f 356/187/230 145/186/229 49/200/243
s 9
f 146/168/211 162/212/255 163/202/245
s 10
f 357/185/228 358/218/261 164/203/246
f 262/204/247 263/184/227 148/183/226
s 9
f 165/205/248 166/206/249 150/179/222
f 291/177/220 150/179/222 166/206/249
f 222/208/251 168/210/253 152/175/218
f 344/173/216 152/175/218 168/210/253
f 304/170/213 305/227/270 162/212/255
f 154/150/193 123/136/179 122/135/178
s 10
f 362/213/256 363/145/188 129/144/187
f 257/142/185 258/163/206 156/165/208
s 9
f 128/141/184 127/140/183 158/158/201
f 286/159/202 158/158/201 127/140/183
f 227/139/182 125/138/181 160/152/195
f 339/153/196 160/152/195 125/138/181
f 309/216/259 310/137/180 123/136/179
f 162/212/255 131/228/271 130/217/260
s 10
f 358/218/261 359/246/331 137/219/262
f 261/220/263 262/204/247 164/203/246
s 9
f 136/221/264 135/222/265 166/206/249
f 290/207/250 166/206/249 135/222/265
f 223/224/267 133/225/268 168/210/253
f 343/211/254 168/210/253 133/225/268
f 305/227/270 306/244/325 131/228/271
s 35
f 346/229/272 347/229/272 171/230/273
f 302/190/275 41/189/275 170/189/275
s 36
f 5/188/276 174/188/276 170/189/276
s 37
f 355/87/277 49/88/597 173/88/278
s 38
f 3/198/279 42/195/279 176/195/279
s 39
f 211/103/280 212/103/280 173/88/280
s 40
f 293/197/281 294/197/281 176/195/281
f 219/231/282 50/230/283 171/230/283
s 41
f 348/229/285 349/229/449 180/230/286
f 300/190/288 187/189/318 178/189/289
s 42
f 187/189/290 188/188/598 183/188/291
s 43
f 353/87/293 189/88/310 182/88/294
s 44
f 191/195/296 185/195/599 184/198/297
s 45
f 189/88/299 213/103/333 214/103/300
s 46
f 295/197/302 296/197/303 185/195/303
f 216/231/305 217/231/315 193/230/306
s 42
f 174/188/308 188/188/598 187/189/290
s 43
f 353/87/293 354/87/600 173/88/309
s 45
f 212/103/311 213/103/333 189/88/299
s 44
f 175/198/312 176/195/312 191/195/296
s 46
f 176/195/313 294/197/313 295/197/302
f 218/231/314 171/230/601 193/230/306
s 41
f 171/230/316 347/229/602 348/229/285
f 300/190/288 301/190/317 170/189/317
s 47
f 494/232/319 495/146/319 496/148/319
s 9
f 307/234/320 308/149/192 196/146/189
f 341/235/194 206/236/326 198/155/198
s 48
f 498/156/322 499/155/322 500/236/322
s 9
f 288/238/200 208/239/328 200/161/204
s 49
f 502/162/205 501/161/205 503/239/205
s 50
f 505/241/323 506/245/323 507/242/323
s 10
f 360/243/209 361/166/209 202/164/207
s 9
f 131/228/271 204/232/321 203/233/319
f 306/244/325 307/234/320 204/232/321
f 342/226/269 133/225/268 206/236/326
f 224/237/327 206/236/326 133/225/268
f 289/223/266 135/222/265 208/239/328
f 209/240/329 208/239/328 135/222/265
s 10
f 260/245/330 261/220/263 137/219/262
f 359/246/331 360/243/209 210/242/324
s 39
f 211/103/280 3/198/332 175/198/332
s 45
f 213/103/333 212/103/311 175/198/311
f 213/103/333 190/198/334 184/198/335
s 2
f 184/198/94 185/195/94 215/105/4
f 296/197/4 297/104/4 215/105/4
s 26
f 394/248/338 107/247/94 231/109/336
f 231/109/336 230/109/174 27/247/337
f 27/247/337 395/248/376 394/248/338
s 12
f 386/250/341 69/249/94 239/115/339
f 239/115/339 238/115/132 10/249/340
f 10/249/340 387/250/367 386/250/341
s 3
f 242/251/9 270/117/9 271/252/9
f 242/251/9 33/253/9 1/254/9
s 21
f 244/131/134 243/131/134 1/102/134
s 6
f 244/131/108 80/102/108 81/101/108
s 22
f 9/101/135 246/121/135 245/121/135
s 4
f 247/255/343 246/121/147 9/101/147
f 247/255/343 82/99/344 16/97/345
f 249/124/111 248/123/110 16/97/345
f 250/125/112 249/124/111 20/95/346
f 96/94/154 251/134/154 250/125/112
s 33
f 252/134/176 251/134/176 96/94/176
s 8
f 252/134/114 112/94/114 113/92/114
s 34
f 28/92/177 254/127/177 253/127/177
s 10
f 254/127/348 28/92/348 32/89/349
f 256/143/186 255/128/116 32/89/349
f 128/141/351 257/142/185 256/143/186
f 258/163/206 257/142/185 128/141/351
f 259/241/323 258/163/206 157/160/352
f 260/245/330 259/241/323 201/162/323
f 261/220/263 260/245/330 209/240/330
f 262/204/247 261/220/263 136/221/353
f 263/184/227 262/204/247 165/205/354
f 144/180/356 264/182/225 263/184/227
f 264/182/225 144/180/356 3/198/357
s 14
f 266/129/121 265/129/121 377/256/358
s 5
f 267/26/21 266/129/21 378/256/360
s 13
f 380/257/362 268/26/122 267/26/122
s 3
f 381/258/9 382/260/9 269/118/9
f 383/259/9 270/117/9 269/118/9
f 270/117/9 383/259/9 384/261/9
s 11
f 272/20/117 271/20/117 384/262/364
s 5
f 272/20/17 385/262/478 386/250/366
s 12
f 387/250/367 274/21/118 273/21/118
s 1
f 387/250/368 388/350/480 275/2/2
f 275/2/2 388/350/480 389/263/369
f 277/34/28 276/3/3 389/263/369
f 278/42/36 277/34/28 390/264/370
f 392/266/372 279/53/595 278/42/36
s 25
f 280/53/162 279/53/162 392/266/373
s 7
f 280/53/45 393/266/487 394/248/375
s 26
f 395/248/376 282/54/596 281/54/163
s 9
f 282/54/55 395/248/490 396/267/377
f 396/267/377 397/269/379 284/68/63
f 398/268/378 285/214/257 284/68/63
f 398/268/378 399/270/380 286/159/202
f 399/270/380 400/271/493 287/157/200
s 51
f 509/271/381 510/272/381 511/238/381
s 9
f 401/272/382 402/273/383 289/223/266
f 402/273/383 403/274/384 290/207/250
f 403/274/384 404/276/386 291/177/220
f 405/275/385 292/196/239 291/177/220
f 292/196/239 405/275/385 406/277/387
s 40
f 294/197/281 293/197/281 406/277/388
s 46
f 295/197/302 294/197/313 407/277/389
f 295/197/302 408/277/390 409/277/391
s 2
f 409/277/392 410/278/393 297/104/4
f 410/278/393 411/280/79 298/6/5
f 412/279/79 350/4/4 298/6/5
s 41
f 413/281/394 414/282/396 300/190/288
f 415/281/395 301/190/317 300/190/288
s 35
f 416/281/397 302/190/275 301/190/275
s 9
f 416/281/398 417/283/399 303/172/215
f 417/283/399 418/285/401 304/170/213
f 419/284/400 305/227/270 304/170/213
f 420/286/402 306/244/325 305/227/270
f 421/287/403 307/234/320 306/244/325
s 52
f 514/288/192 515/149/192 516/234/192
s 9
f 423/289/404 309/216/259 308/149/192
f 424/290/406 310/137/180 309/216/259
f 424/290/406 425/371/516 311/65/60
f 311/65/60 425/371/516 426/291/407
f 313/48/49 312/66/61 426/291/407
s 24
f 314/48/158 313/48/158 427/292/409
s 7
f 428/292/411 429/293/520 315/46/40
s 23
f 430/293/412 316/46/157 315/46/157
s 1
f 317/38/32 316/46/594 430/293/414
f 317/38/32 431/294/415 432/295/416
f 318/39/33 432/295/416 433/296/417
f 433/296/417 434/380/526 320/7/6
f 320/7/6 434/380/526 377/256/418
s 3
f 435/297/9 436/299/9 322/12/9
f 437/298/9 323/10/9 322/12/9
f 438/300/9 381/258/9 323/10/9
s 13
f 325/23/119 324/23/119 439/301/419
s 5
f 325/23/19 440/301/475 441/302/421
s 14
f 442/302/422 327/24/120 326/24/120
s 1
f 442/302/424 443/382/527 328/14/11
f 328/14/11 443/382/527 444/303/425
f 329/15/12 444/303/425 445/304/426
f 331/40/34 330/32/26 445/304/426
f 447/306/428 332/50/593 331/40/34
s 23
f 333/50/160 332/50/159 447/306/429
s 7
f 333/50/43 448/306/522 449/307/431
s 24
f 450/307/432 335/51/161 334/51/161
s 9
f 335/51/52 450/307/518 451/308/434
f 451/308/434 452/310/436 337/67/62
f 453/309/435 338/215/258 337/67/62
f 453/309/435 454/311/437 339/153/196
f 454/311/437 455/312/514 340/151/194
s 53
f 517/312/194 518/313/194 519/235/194
s 9
f 456/313/438 457/314/439 342/226/269
f 457/314/439 458/315/440 343/211/254
f 458/315/440 459/317/442 344/173/216
f 460/316/441 345/192/235 344/173/216
f 345/192/235 460/316/441 461/318/443
s 35
f 347/229/272 346/229/272 461/319/444
s 41
f 348/229/285 347/229/602 462/319/446
f 348/229/285 463/319/447 464/319/448
s 2
f 465/320/450 466/321/392 350/4/4
f 466/321/392 467/387/94 351/322/94
f 351/322/94 467/387/94 468/323/393
s 43
f 468/323/451 469/323/453 353/87/293
f 470/323/452 354/87/600 353/87/293
s 37
f 471/323/454 355/87/277 354/87/277
s 10
f 471/324/455 472/325/456 356/187/230
f 472/325/456 473/327/458 357/185/228
f 474/326/457 358/218/261 357/185/228
f 475/328/459 359/246/331 358/218/261
f 476/329/209 360/243/209 359/246/331
s 54
f 522/330/209 523/166/209 524/243/209
s 10
f 478/331/460 362/213/256 361/166/209
f 479/332/461 363/145/188 362/213/256
f 479/332/461 480/334/463 364/69/64
f 481/333/462 365/64/59 364/69/64
f 481/333/462 482/335/57 366/57/57
s 28
f 367/57/166 366/57/166 482/335/464
s 8
f 483/335/465 484/336/548 368/55/46
s 27
f 485/336/466 369/55/165 368/55/165
s 4
f 485/336/467 486/338/469 370/44/38
f 487/337/468 371/37/31 370/44/38
f 487/337/468 488/339/470 372/18/15
f 488/339/470 489/341/472 373/16/13
f 490/340/471 374/30/471 373/16/13
s 16
f 375/30/124 374/30/124 490/340/124
s 6
f 491/340/23 492/342/23 376/28/23
s 15
f 435/342/123 321/28/123 376/28/123
s 14
f 441/302/423 73/383/94 378/256/359
f 378/256/359 377/256/358 11/343/473
f 11/343/473 442/302/422 441/302/423
s 87
f 440/301/603 72/384/94 379/257/604
s 5
f 379/257/361 378/256/360 73/343/474
f 73/343/474 441/302/421 440/301/475
s 3
f 381/258/9 438/300/9 439/344/9
f 382/260/9 381/258/9 324/345/9
f 241/347/9 383/259/9 382/260/9
f 383/259/9 241/347/9 2/348/9
s 88
f 240/130/605 68/349/9 385/262/606
s 11
f 385/262/365 384/262/364 2/349/476
f 2/349/476 241/130/129 240/130/131
s 5
f 69/249/477 386/250/366 385/262/478
f 240/130/479 239/115/105 69/249/477
s 89
f 237/132/607 84/407/608 388/350/609
s 1
f 388/350/480 387/250/368 10/249/481
f 10/249/481 238/115/139 237/132/140
f 15/351/482 389/263/369 388/350/480
f 237/132/140 236/113/103 15/351/482
f 19/352/483 390/264/370 389/263/369
f 15/351/482 236/113/103 235/111/101
f 19/352/483 389/263/369 15/351/482
s 90
f 234/112/610 23/408/611 391/265/612
s 1
f 391/265/371 390/264/370 19/352/483
f 19/352/483 235/111/101 234/112/102
f 90/353/484 392/266/372 391/265/371
f 234/112/102 233/133/148 90/353/484
s 91
f 232/133/613 106/353/9 393/266/614
s 25
f 393/266/374 392/266/373 90/353/485
f 90/353/485 233/133/171 232/133/173
s 7
f 107/247/486 394/248/375 393/266/487
f 232/133/488 231/109/99 107/247/486
s 9
f 31/354/489 396/267/377 395/248/490
f 395/248/490 27/247/94 230/109/491
f 230/109/491 229/106/95 31/354/489
s 92
f 228/108/615 118/409/616 397/269/617
s 9
f 397/269/379 396/267/377 31/354/489
f 31/354/489 229/106/95 228/108/97
f 126/355/492 398/268/378 397/269/379
f 228/108/97 227/139/182 126/355/492
f 226/154/197 159/356/494 399/270/380
f 399/270/380 398/268/378 126/355/492
f 126/355/492 227/139/182 226/154/197
f 225/156/199 199/357/495 400/271/493
f 400/271/493 399/270/380 159/356/494
f 159/356/494 226/154/197 225/156/199
f 224/237/327 207/358/496 401/272/382
f 401/272/382 400/271/493 199/357/495
f 199/357/495 225/156/199 224/237/327
f 223/224/267 134/359/497 402/273/383
f 402/273/383 401/272/382 207/358/496
f 207/358/496 224/237/327 223/224/267
f 222/208/251 167/360/498 403/274/384
f 403/274/384 402/273/383 134/359/497
f 134/359/497 223/224/267 222/208/251
s 93
f 221/209/618 151/410/619 404/276/620
s 9
f 404/276/386 403/274/384 167/360/498
f 167/360/498 222/208/251 221/209/252
f 142/361/499 405/275/385 404/276/386
f 221/209/252 220/176/219 142/361/499
f 4/362/500 406/277/387 405/275/385
f 405/275/385 142/361/499 220/176/219
f 220/176/219 219/194/237 4/362/500
s 40
f 177/362/501 407/277/388 406/277/388
f 4/362/501 219/231/282 218/231/284
f 177/362/501 406/277/388 4/362/501
s 94
f 217/231/621 192/362/622 408/277/623
s 46
f 408/277/390 407/277/389 177/362/502
f 177/362/502 218/231/314 217/231/315
f 186/362/503 409/277/391 408/277/390
f 217/231/315 216/231/305 186/362/503
s 2
f 410/278/393 409/277/392 186/362/504
f 411/280/79 410/278/393 216/231/79
f 349/229/506 412/279/79 411/280/79
f 464/319/5 465/320/450 412/279/79
s 9
f 460/316/441 140/411/508 417/283/399
f 417/283/399 416/281/398 6/363/507
f 6/363/507 461/318/443 460/316/441
s 95
f 459/317/624 153/412/625 418/285/626
s 9
f 418/285/401 417/283/399 140/364/508
f 140/364/508 460/316/441 459/317/442
f 169/365/509 419/284/400 418/285/401
f 459/317/442 458/315/440 169/365/509
f 132/366/510 420/286/402 419/284/400
f 419/284/400 169/413/509 458/315/440
f 458/315/440 457/314/439 132/366/510
f 205/367/511 421/287/403 420/286/402
f 420/286/402 132/414/510 457/314/439
f 457/314/439 456/313/438 205/367/511
f 197/368/512 422/288/405 421/287/403
f 421/287/403 205/415/511 456/313/438
f 456/313/438 455/312/514 197/368/512
f 161/369/513 423/289/404 422/288/405
f 422/288/405 197/416/512 455/312/514
f 455/312/514 454/311/437 161/369/513
f 124/370/515 424/290/406 423/289/404
f 423/289/404 161/417/513 454/311/437
f 454/311/437 453/309/435 124/370/515
s 96
f 452/310/627 116/418/628 425/371/629
s 9
f 425/371/516 424/290/406 124/372/515
f 124/372/515 453/309/435 452/310/436
f 30/373/517 426/291/407 425/371/516
f 452/310/436 451/308/434 30/373/517
f 450/307/518 26/419/94 427/292/408
f 427/292/408 426/291/407 30/374/517
f 30/374/517 451/308/434 450/307/518
s 24
f 449/307/433 101/419/94 428/292/410
f 428/292/410 427/292/409 26/375/519
f 26/375/519 450/307/432 449/307/433
s 97
f 448/306/630 98/385/94 429/293/631
s 7
f 429/293/520 428/292/411 101/375/521
f 101/375/521 449/307/431 448/306/522
s 98
f 446/305/632 22/420/633 431/294/634
s 1
f 431/294/415 430/293/414 92/376/523
f 92/376/523 447/306/428 446/305/427
f 18/377/524 432/295/416 431/294/415
f 446/305/427 445/304/426 18/377/524
f 14/378/525 433/296/417 432/295/416
f 18/379/524 445/304/426 444/303/425
f 14/378/525 432/295/416 18/379/524
s 99
f 443/382/635 86/421/636 434/380/637
s 1
f 434/380/526 433/296/417 14/381/525
f 14/381/525 444/303/425 443/382/527
f 11/383/528 377/256/418 434/380/526
f 443/382/527 442/302/424 11/383/528
s 3
f 7/74/9 34/27/9 436/299/9
f 268/26/9 437/298/9 436/299/9
f 380/257/9 438/300/9 437/298/9
f 438/300/9 380/257/9 8/384/9
s 13
f 440/301/420 439/301/419 8/384/529
f 8/384/529 380/257/362 379/257/363
s 23
f 448/306/430 447/306/429 92/385/530
f 92/385/530 430/293/412 429/293/413
s 35
f 172/386/531 462/319/445 461/319/444
f 6/386/531 416/281/397 415/281/397
f 172/386/531 461/319/444 6/386/531
s 100
f 414/282/638 194/386/639 463/319/640
s 41
f 463/319/447 462/319/446 172/386/532
f 172/386/532 415/281/395 414/282/396
f 181/386/533 464/319/448 463/319/447
f 414/282/396 413/281/394 181/386/533
s 2
f 465/320/450 464/319/5 181/386/79
f 466/321/392 465/320/450 413/281/534
f 467/387/94 466/321/392 299/190/535
f 467/387/94 178/189/94 183/188/506
s 43
f 469/323/453 468/323/451 183/188/536
f 174/188/452 470/323/452 469/323/453
s 37
f 471/323/454 470/323/454 174/188/454
s 10
f 472/325/456 471/324/455 5/388/538
f 473/327/458 472/325/456 138/389/539
f 163/391/541 474/326/457 473/327/458
f 130/392/542 475/328/459 474/326/457
f 203/393/209 476/329/209 475/328/459
f 195/394/543 477/330/209 476/329/209
f 155/395/544 478/331/460 477/330/209
f 122/396/545 479/332/461 478/331/460
f 480/334/463 479/332/461 122/396/545
f 29/398/547 481/333/462 480/334/463
f 482/335/57 481/333/462 29/398/547
s 28
f 483/335/464 482/335/464 25/399/464
s 8
f 484/336/548 483/335/465 111/399/465
s 27
f 94/400/466 485/336/466 484/336/466
s 4
f 486/338/469 485/336/467 94/400/467
f 17/402/550 487/337/468 486/338/469
f 488/339/470 487/337/468 17/402/550
f 489/341/472 488/339/470 13/403/551
f 12/405/553 490/340/471 489/341/472
s 16
f 491/340/124 490/340/124 12/405/124
s 6
f 492/342/23 491/340/23 79/405/23
s 15
f 7/406/554 435/342/123 492/342/123
s 55
f 204/232/555 494/232/555 493/233/555
s 56
f 196/146/556 495/146/556 494/232/556
s 57
f 196/146/557 195/148/558 496/148/558
s 58
f 195/148/559 203/233/559 493/233/559
s 59
f 225/156/560 498/156/560 497/237/561
s 60
f 198/155/562 499/155/562 498/156/562
s 61
f 198/155/563 206/236/564 500/236/564
s 62
f 206/236/565 224/237/565 497/237/565
s 63
f 200/161/566 501/161/566 502/162/566
s 64
f 200/161/556 208/239/556 503/239/556
s 65
f 208/239/567 209/240/567 504/240/567
s 66
f 201/162/568 502/162/568 504/240/568
s 67
f 259/241/569 260/245/570 506/245/570
s 68
f 210/242/571 507/242/571 506/245/571
s 69
f 202/164/572 508/164/572 507/242/573
s 70
f 202/164/574 259/241/574 505/241/574
s 71
f 400/271/575 401/272/575 510/272/575
s 72
f 288/238/576 511/238/641 510/272/576
s 73
f 287/157/577 512/157/577 511/238/577
s 74
f 287/157/578 400/271/578 509/271/578
s 75
f 422/288/579 514/288/579 513/287/579
s 76
f 308/149/580 515/149/580 514/288/580
s 77
f 308/149/581 307/234/581 516/234/581
s 78
f 307/234/582 421/287/582 513/287/582
s 79
f 455/312/584 456/313/584 518/313/584
s 80
f 341/235/585 519/235/585 518/313/585
s 81
f 340/151/586 520/151/586 519/235/586
s 82
f 340/151/587 455/312/587 517/312/587
s 83
f 477/330/588 522/330/588 521/329/589
s 84
f 361/166/590 523/166/590 522/330/590
s 85
f 361/166/591 360/243/591 524/243/591
s 86
f 360/243/592 476/329/592 521/329/592
